#N canvas 654 22 789 536 16;
#X obj 414 287 unpack;
#X floatatom 283 326 0 0 0 0 - - -;
#X floatatom 416 328 0 0 0 0 - - -;
#X obj 414 247 route 1 2 3 4;
#X obj 497 287 unpack;
#X floatatom 512 343 0 0 0 0 - - -;
#X floatatom 526 320 0 0 0 0 - - -;
#X obj 581 287 unpack;
#X floatatom 597 354 0 0 0 0 - - -;
#X floatatom 611 331 0 0 0 0 - - -;
#X obj 280 434 osc~;
#X obj 279 405 line~;
#X obj 246 137 adc~;
#X obj 281 474 output~;
#X obj 226 204 fiddle~ 1029 1 2 3;
#X msg 281 372 \$1 30;
#X connect 0 0 1 0;
#X connect 0 1 2 0;
#X connect 3 0 0 0;
#X connect 3 1 4 0;
#X connect 3 2 7 0;
#X connect 4 0 5 0;
#X connect 4 1 6 0;
#X connect 5 0 15 0;
#X connect 7 0 8 0;
#X connect 7 1 9 0;
#X connect 10 0 13 0;
#X connect 10 0 13 1;
#X connect 11 0 10 0;
#X connect 12 0 14 0;
#X connect 12 1 14 0;
#X connect 14 4 3 0;
#X connect 15 0 11 0;
