#N canvas 654 22 789 536 16;
#X obj 226 204 fiddle~ 1024 1 20 3;
#X obj 414 287 unpack;
#X floatatom 283 326 0 0 0 0 - - -;
#X floatatom 416 328 0 0 0 0 - - -;
#X obj 414 247 route 1 2 3 4;
#X obj 497 287 unpack;
#X floatatom 512 343 0 0 0 0 - - -;
#X floatatom 526 320 0 0 0 0 - - -;
#X obj 581 287 unpack;
#X floatatom 597 354 0 0 0 0 - - -;
#X floatatom 611 331 0 0 0 0 - - -;
#X obj 280 433 osc~;
#X obj 169 80 readsf~;
#X msg 238 31 1;
#X msg 284 31 0;
#X obj 312 84 t b b;
#X obj 256 76 bng 40 250 50 0 empty empty empty 17 7 0 10 -258113 -1
-1;
#X msg 61 31 open whistle.wav;
#X obj 264 478 dac~;
#X obj 279 405 line~;
#X msg 281 372 \$1 300;
#X obj 107 230 dac~;
#X connect 0 4 4 0;
#X connect 1 0 2 0;
#X connect 1 1 3 0;
#X connect 2 0 20 0;
#X connect 4 0 1 0;
#X connect 4 1 5 0;
#X connect 4 2 8 0;
#X connect 5 0 6 0;
#X connect 5 1 7 0;
#X connect 8 0 9 0;
#X connect 8 1 10 0;
#X connect 11 0 18 0;
#X connect 11 0 18 1;
#X connect 12 0 21 0;
#X connect 12 0 21 1;
#X connect 12 1 16 0;
#X connect 13 0 12 0;
#X connect 14 0 12 0;
#X connect 15 0 13 0;
#X connect 15 1 17 0;
#X connect 16 0 15 0;
#X connect 17 0 12 0;
#X connect 19 0 11 0;
#X connect 20 0 19 0;
