#N canvas 187 23 1667 1015 24;
#X floatatom 38 214 0 0 0 0 - - -;
#X obj 164 676 *~;
#X obj 410 550 line~;
#X floatatom 474 236 0 0 0 0 - window -;
#X obj 410 498 pack 0 200;
#X obj 511 71 r window;
#X obj 38 62 r transpose;
#X obj 38 302 exp;
#X floatatom 38 346 6 0 0 0 - - -;
#X obj 38 486 /;
#X obj 292 346 * 0.001;
#X obj 628 690 line~;
#X obj 628 640 pack 0 200;
#X floatatom 628 538 0 0 0 0 - - -;
#X obj 628 486 r delay;
#X obj 164 728 +~;
#X obj 38 776 cos~;
#X obj 38 830 *~;
#X obj 38 878 +~;
#X obj 212 594 wrap~;
#X obj 502 680 *~;
#X obj 502 740 +~;
#X obj 376 788 cos~;
#X obj 376 832 *~;
#X msg 979 767 \; transpose 0 \; window 100 \; delay 0;
#X obj 979 715 loadbang;
#X obj 292 400 t b f;
#X floatatom 38 530 6 0 0 0 - - -;
#X obj 212 540 +~ 0.5;
#X obj 38 676 -~ 0.5;
#X obj 38 728 *~ 0.5;
#X obj 376 678 -~ 0.5;
#X obj 376 744 *~ 0.5;
#X obj 38 388 - 1;
#X obj 38 258 * 0.05776;
#X obj 38 432 * -1;
#X text 106 213 <-- transposition;
#X text 124 335 speed;
#X text 122 363 change;
#X text 562 235 <--window (msec);
#X obj 38 592 phasor~;
#X obj 628 592 max 1.5;
#X text 634 405 delay;
#X text 628 441 (msec);
#X obj 474 280 max 1;
#X obj 38 952 dac~;
#X obj 976 442 adc~;
#X text 1208 35 Pitch Shifter (simplified);
#N canvas 554 317 371 387 soundfile_playback 0;
#X msg 374 274 open \$1;
#X obj 184 568 outlet~;
#X obj 82 38 inlet;
#X obj 374 40 inlet;
#X obj 184 412 readsf~ 2;
#X obj 426 566 outlet~;
#X obj 374 212 openpanel;
#X connect 0 0 4 0;
#X connect 2 0 4 0;
#X connect 3 0 6 0;
#X connect 4 0 1 0;
#X connect 4 1 5 0;
#X connect 6 0 0 0;
#X restore 1142 452 pd soundfile_playback;
#X obj 1374 388 bng 15 250 50 0 empty empty empty 17 7 0 10 -262144
-1 -1;
#X msg 1218 376 start;
#X msg 1096 374 stop;
#X text 166 815 delayline 1;
#X text 504 819 delayline 2;
#X text 210 509 out of phase;
#X text 962 311 mic input or load soundfile;
#X text 192 239 (halftones);
#X text 978 915 on startup \, send these values to [r transpose] \,
[r window] and [r delay];
#X obj 502 786 vd~ test;
#X obj 164 776 vd~ test;
#X obj 976 586 delwrite~ test 5000;
#X connect 0 0 34 0;
#X connect 1 0 15 0;
#X connect 2 0 1 1;
#X connect 2 0 20 1;
#X connect 3 0 44 0;
#X connect 4 0 2 0;
#X connect 6 0 0 0;
#X connect 7 0 8 0;
#X connect 8 0 33 0;
#X connect 9 0 27 0;
#X connect 10 0 26 0;
#X connect 11 0 15 1;
#X connect 11 0 21 1;
#X connect 12 0 11 0;
#X connect 13 0 41 0;
#X connect 14 0 13 0;
#X connect 15 0 59 0;
#X connect 16 0 17 0;
#X connect 17 0 18 0;
#X connect 18 0 45 0;
#X connect 18 0 45 1;
#X connect 19 0 20 0;
#X connect 19 0 31 0;
#X connect 20 0 21 0;
#X connect 21 0 58 0;
#X connect 22 0 23 0;
#X connect 23 0 18 1;
#X connect 25 0 24 0;
#X connect 26 0 9 0;
#X connect 26 1 9 1;
#X connect 27 0 40 0;
#X connect 28 0 19 0;
#X connect 29 0 30 0;
#X connect 30 0 16 0;
#X connect 31 0 32 0;
#X connect 32 0 22 0;
#X connect 33 0 35 0;
#X connect 34 0 7 0;
#X connect 35 0 9 0;
#X connect 40 0 1 0;
#X connect 40 0 29 0;
#X connect 40 0 28 0;
#X connect 41 0 12 0;
#X connect 44 0 10 0;
#X connect 44 0 4 0;
#X connect 46 0 60 0;
#X connect 48 0 60 0;
#X connect 49 0 48 1;
#X connect 50 0 48 0;
#X connect 51 0 48 0;
#X connect 58 0 23 1;
#X connect 59 0 17 1;
