#N canvas 32 39 1290 782 12;
#X obj 187 178 delwrite~ test 1000;
#X obj 187 380 delread~ test;
#X obj 125 91 adc~;
#X obj 124 697 dac~;
#X floatatom 187 301 5 0 0 0 - - -, f 5;
#X text 236 300 delay in ms;
#X obj 124 474 +~;
#X text 218 149 allocates memory for a delay line (1000ms here);
#X text 168 91 live audio input;
#X text 303 381 reads from the above delay line;
#X text 158 475 adds direct and delayed signal together;
#X obj 124 619 *~;
#X obj 187 562 tgl 50 0 empty empty empty 17 7 0 10 -258113 -1 -1 0
1;
#X text 241 580 unmute;
#N canvas 554 317 371 387 soundfile_playback 0;
#X obj 92 206 readsf~;
#X obj 187 106 openpanel;
#X msg 187 137 open \$1;
#X obj 92 284 outlet~;
#X obj 41 19 inlet;
#X obj 187 20 inlet;
#X connect 0 0 3 0;
#X connect 1 0 2 0;
#X connect 2 0 0 0;
#X connect 4 0 0 0;
#X connect 5 0 1 0;
#X restore 50 60 pd soundfile_playback;
#X obj 215 15 bng 15 250 50 0 empty empty empty 17 7 0 10 -262144 -1
-1;
#X msg 51 13 start;
#X msg 107 13 stop;
#X connect 1 0 6 1;
#X connect 2 0 0 0;
#X connect 2 0 6 0;
#X connect 4 0 1 0;
#X connect 6 0 11 0;
#X connect 11 0 3 0;
#X connect 11 0 3 1;
#X connect 12 0 11 1;
#X connect 14 0 0 0;
#X connect 14 0 6 0;
#X connect 15 0 14 1;
#X connect 16 0 14 0;
#X connect 17 0 14 0;
