#N canvas 32 39 1290 782 12;
#X obj 186 124 delwrite~ test 1000;
#X obj 187 245 delread~ test;
#X obj 125 19 adc~;
#X obj 194 679 dac~;
#X floatatom 187 205 5 0 0 0 - delay1 -, f 5;
#X text 236 206 delay in ms;
#X obj 125 282 +~;
#X text 353 120 allocates memory for a delay line (1000ms here);
#X text 171 20 live audio input;
#X text 303 245 reads from the above delay line;
#X obj 194 601 *~;
#X obj 257 544 tgl 50 0 empty empty empty 17 7 0 10 -258113 -1 -1 0
1;
#X text 324 541 unmute;
#X obj 209 333 delread~ test;
#X floatatom 209 292 5 0 0 0 - delay2 -, f 5;
#X obj 153 370 +~;
#X obj 250 426 delread~ test;
#X floatatom 250 385 5 0 0 0 - delay3 -, f 5;
#X obj 194 463 +~;
#X msg 973 395 \; delay1 200 \; delay2 400 \; delay3 600 \;;
#X obj 973 337 loadbang;
#X text 965 480 initialise values;
#X text 265 291 delay in ms;
#X text 327 334 reads from the above delay line;
#X text 314 388 delay in ms;
#X text 378 425 reads from the above delay line;
#X connect 1 0 6 1;
#X connect 2 0 0 0;
#X connect 2 0 6 0;
#X connect 4 0 1 0;
#X connect 6 0 15 0;
#X connect 10 0 3 0;
#X connect 10 0 3 1;
#X connect 11 0 10 1;
#X connect 13 0 15 1;
#X connect 14 0 13 0;
#X connect 15 0 18 0;
#X connect 16 0 18 1;
#X connect 17 0 16 0;
#X connect 18 0 10 0;
#X connect 20 0 19 0;
