#N canvas 32 39 1290 782 12;
#X obj 238 239 delwrite~ test 1000;
#X obj 203 130 adc~;
#X obj 203 712 dac~;
#X floatatom 224 326 5 0 0 0 - - -, f 5;
#X obj 203 442 +~;
#X obj 202 562 *~;
#X obj 265 505 tgl 50 0 empty empty empty 17 7 0 10 -258113 -1 -1 0
1;
#X obj 439 677 send~ delayFeedback;
#X obj 268 184 receive~ delayFeedback;
#X obj 439 636 *~;
#X obj 469 562 pack 0 50;
#X obj 469 385 vsl 15 128 0 127 0 0 empty empty empty 0 -9 0 10 -262144
-1 -1 0 1;
#X obj 470 525 / 127;
#X obj 469 593 line~;
#X obj 224 371 delread~ test;
#N canvas 554 317 371 387 soundfile_playback 0;
#X obj 92 206 readsf~;
#X obj 187 106 openpanel;
#X msg 187 137 open \$1;
#X obj 92 284 outlet~;
#X obj 41 19 inlet;
#X obj 187 20 inlet;
#X connect 0 0 3 0;
#X connect 1 0 2 0;
#X connect 2 0 0 0;
#X connect 4 0 0 0;
#X connect 5 0 1 0;
#X restore 119 77 pd soundfile_playback;
#X obj 284 41 bng 15 250 50 0 empty empty empty 17 7 0 10 -262144 -1
-1;
#X msg 180 38 start;
#X msg 119 37 stop;
#X text 477 644 send signal back into the delaywrite~ object;
#X connect 1 0 0 0;
#X connect 1 0 4 0;
#X connect 3 0 14 0;
#X connect 4 0 5 0;
#X connect 5 0 2 0;
#X connect 5 0 2 1;
#X connect 5 0 9 0;
#X connect 6 0 5 1;
#X connect 8 0 0 0;
#X connect 9 0 7 0;
#X connect 10 0 13 0;
#X connect 11 0 12 0;
#X connect 12 0 10 0;
#X connect 13 0 9 1;
#X connect 14 0 4 1;
#X connect 15 0 0 0;
#X connect 15 0 4 0;
#X connect 16 0 15 1;
#X connect 17 0 15 0;
#X connect 18 0 15 0;
