#N canvas -8 -8 1366 685 10;
#X obj 932 133 Multifire;
#X obj 932 20 loadbang;
#X msg 992 114 5000;
#X msg 962 67 7000;
#X msg 549 37 1000;
#X obj 519 140 Shuffler;
#X obj 932 170 Shuffler;
#X obj 1310 37 metro 2;
#X obj 519 103 Multifire;
#X obj 1223 232 ThunderModule;
#X obj 511 983 dac~;
#X obj 270 177 delread~ thunder 0;
#X obj 187 229 clip~ -0.99 0.99;
#X obj 305 229 clip~ -0.99 0.99;
#X obj 362 120 delread~ thunder 130;
#X obj 20 162 delread~ thunder 120;
#X obj 1029 232 ThunderModule;
#X obj 932 232 ThunderModule;
#X obj 1126 232 ThunderModule;
#X obj 669 58 RandomBank;
#X obj 519 232 WavesModule;
#X obj 1310 56 s 2metro;
#X obj 1117 128 r 2metro;
#X obj 669 39 r 2metro;
#X obj 802 77 r 2metro;
#X obj 1151 37 metro 1000;
#X obj 1151 56 s 1000metro;
#X obj 745 58 r 1000metro;
#X msg 579 84 1250;
#X obj 1082 353 delwrite~ thunder 130;
#X obj 19 311 WindModule;
#X obj 86 274 r 2metro;
#X obj 19 274 loadbang;
#X obj 906 478 FireModule;
#X obj 1234 56 s 100metro;
#X obj 1234 37 metro 100;
#X obj 737 232 WavesModule;
#X obj 629 232 WavesModule;
#X obj 837 232 WavesModule;
#X obj 755 534 r ShoreLevel;
#X obj 974 511 r FirePan;
#X obj 974 623 r FireTransform;
#X obj 973 701 r FireLevel;
#X obj 203 288 r ThunderLevel;
#X obj -274 510 r MusicLevel;
#X obj -408 263 r StormToggle;
#X obj 103 494 r WindLevel;
#X obj 110 329 r WindLop;
#X obj 438 482 r RainLevel;
#X obj 429 349 r RainLop;
#X obj 982 366 r FireLop;
#X obj -82 488 r BirdsLevel;
#X obj 634 910 r Play;
#X obj 634 929 pack 0 100;
#X obj 634 948 line~;
#X obj 511 964 *~;
#X obj 616 967 *~;
#X text 208 34 Forest is 1;
#X obj 337 277 RainModule;
#X obj 404 248 r 2metro;
#X obj 325 248 r 100metro;
#X obj 404 494 lop~;
#X obj 337 494 lop~;
#X obj 429 406 - 1;
#X obj 429 425 abs;
#X obj 429 444 * 16000;
#X obj 429 368 pack 0 100;
#X obj 429 387 line;
#X obj 429 463 clip 800 16000;
#X obj 404 553 *~;
#X obj 337 553 *~;
#X obj 438 501 pack 0 100;
#X obj 438 520 line~;
#X obj 203 307 pack 0 100;
#X obj 203 326 line~;
#X obj 186 404 *~;
#X obj 305 404 *~;
#X obj 906 459 r 2metro;
#X obj 982 423 - 1;
#X obj 982 442 abs;
#X obj 982 461 * 16000;
#X obj 982 385 pack 0 100;
#X obj 982 404 line;
#X obj 982 480 clip 800 16000;
#X obj 906 497 lop~;
#X obj 737 396 lop~;
#X obj 629 396 lop~;
#X obj 859 308 - 1;
#X obj 859 327 abs;
#X obj 859 346 * 16000;
#X obj 859 270 pack 0 100;
#X obj 859 289 line;
#X obj 654 363 clip 800 16000;
#X obj 859 251 r ShoreLop;
#X obj 755 422 r ShorePan;
#X text 211 65 Right is 1;
#X obj 755 553 pack 0 100;
#X obj 755 572 line~;
#X obj 630 600 *~;
#X obj 737 600 *~;
#X obj 648 439 - 1;
#X obj 648 458 abs;
#X obj 737 515 *~;
#X obj 755 477 pack 0 100;
#X obj 755 496 line~;
#X obj 630 515 *~;
#X obj 648 477 pack 0 100;
#X obj 648 496 line~;
#X obj 867 528 - 1;
#X obj 867 547 abs;
#X obj 956 604 *~;
#X obj 974 566 pack 0 100;
#X obj 974 585 line~;
#X obj 849 604 *~;
#X obj 867 566 pack 0 100;
#X obj 867 585 line~;
#X obj 973 720 pack 0 100;
#X obj 973 739 line~;
#X obj 848 755 *~;
#X obj 956 758 *~;
#X obj 974 642 pack 0 100;
#X obj 974 661 line~;
#X obj 849 677 *~;
#X obj 957 680 *~;
#X obj 85 474 lop~;
#X obj 18 474 lop~;
#X obj 110 386 - 1;
#X obj 110 405 abs;
#X obj 110 424 * 16000;
#X obj 110 348 pack 0 100;
#X obj 110 367 line;
#X obj 110 443 clip 800 16000;
#X obj 103 513 pack 0 100;
#X obj 103 532 line~;
#X obj 18 548 *~;
#X obj 85 551 *~;
#X obj -82 507 pack 0 100;
#X obj -82 526 line~;
#X obj -167 542 *~;
#X obj -100 545 *~;
#X obj -274 529 pack 0 100;
#X obj -274 548 line~;
#X obj -359 564 *~;
#X obj -292 567 *~;
#X obj -408 332 MusicModule;
#X obj -335 285 loadbang;
#X msg -335 304 1;
#X msg -418 302 2;
#X msg -335 304 1;
#X obj -492 332 MusicModule;
#X obj -334 390 delread~ music 0;
#X obj -445 355 +~;
#X obj -405 371 delwrite~ music 3050;
#X obj -302 418 delread~ music 3000;
#X obj -282 447 delread~ music 1750;
#X obj -265 480 delread~ music 650;
#X obj -502 479 delread~ music 250;
#X obj -502 447 delread~ music 1050;
#X connect 0 0 6 0;
#X connect 0 1 6 0;
#X connect 0 2 6 0;
#X connect 0 3 6 0;
#X connect 1 0 0 0;
#X connect 1 0 3 0;
#X connect 1 0 7 0;
#X connect 1 0 25 0;
#X connect 1 0 4 0;
#X connect 1 0 35 0;
#X connect 2 0 0 2;
#X connect 3 0 0 1;
#X connect 3 0 2 0;
#X connect 4 0 28 0;
#X connect 4 0 8 1;
#X connect 4 0 8 0;
#X connect 5 0 20 0;
#X connect 5 1 37 0;
#X connect 5 2 36 0;
#X connect 5 3 38 0;
#X connect 6 0 17 0;
#X connect 6 1 16 0;
#X connect 6 2 18 0;
#X connect 6 3 9 0;
#X connect 7 0 21 0;
#X connect 8 0 5 0;
#X connect 8 1 5 0;
#X connect 8 2 5 0;
#X connect 8 3 5 0;
#X connect 9 0 29 0;
#X connect 11 0 12 0;
#X connect 11 0 13 0;
#X connect 12 0 75 0;
#X connect 13 0 76 0;
#X connect 14 0 13 0;
#X connect 15 0 12 0;
#X connect 16 0 29 0;
#X connect 17 0 29 0;
#X connect 18 0 29 0;
#X connect 19 0 20 2;
#X connect 19 0 36 6;
#X connect 19 0 37 5;
#X connect 19 0 38 4;
#X connect 19 1 20 3;
#X connect 19 1 36 9;
#X connect 19 1 36 7;
#X connect 19 1 37 6;
#X connect 19 1 38 5;
#X connect 19 2 20 4;
#X connect 19 2 36 2;
#X connect 19 2 37 7;
#X connect 19 2 38 7;
#X connect 19 2 38 9;
#X connect 19 3 20 5;
#X connect 19 3 20 9;
#X connect 19 3 36 3;
#X connect 19 3 37 2;
#X connect 19 3 38 3;
#X connect 19 4 20 6;
#X connect 19 4 36 4;
#X connect 19 4 37 3;
#X connect 19 4 38 2;
#X connect 19 5 20 7;
#X connect 19 5 36 5;
#X connect 19 5 37 4;
#X connect 19 5 37 9;
#X connect 19 5 38 6;
#X connect 20 0 86 0;
#X connect 22 0 9 1;
#X connect 22 0 18 1;
#X connect 22 0 16 1;
#X connect 22 0 17 1;
#X connect 23 0 19 0;
#X connect 24 0 20 8;
#X connect 24 0 36 8;
#X connect 24 0 37 8;
#X connect 24 0 38 8;
#X connect 25 0 26 0;
#X connect 27 0 20 1;
#X connect 27 0 36 1;
#X connect 27 0 37 1;
#X connect 27 0 38 1;
#X connect 28 0 8 2;
#X connect 30 0 125 0;
#X connect 30 1 124 0;
#X connect 31 0 30 0;
#X connect 32 0 30 1;
#X connect 33 0 84 0;
#X connect 35 0 34 0;
#X connect 36 0 85 0;
#X connect 37 0 86 0;
#X connect 38 0 85 0;
#X connect 39 0 96 0;
#X connect 40 0 108 0;
#X connect 40 0 111 0;
#X connect 42 0 116 0;
#X connect 43 0 73 0;
#X connect 44 0 140 0;
#X connect 45 0 144 0;
#X connect 46 0 132 0;
#X connect 47 0 129 0;
#X connect 48 0 71 0;
#X connect 49 0 66 0;
#X connect 51 0 136 0;
#X connect 52 0 53 0;
#X connect 53 0 54 0;
#X connect 54 0 56 1;
#X connect 54 0 55 1;
#X connect 55 0 10 0;
#X connect 56 0 10 1;
#X connect 58 0 62 0;
#X connect 58 1 61 0;
#X connect 59 0 58 1;
#X connect 60 0 58 0;
#X connect 61 0 69 0;
#X connect 62 0 70 0;
#X connect 63 0 64 0;
#X connect 64 0 65 0;
#X connect 65 0 68 0;
#X connect 66 0 67 0;
#X connect 67 0 63 0;
#X connect 68 0 61 1;
#X connect 68 0 62 1;
#X connect 69 0 56 0;
#X connect 70 0 55 0;
#X connect 71 0 72 0;
#X connect 72 0 69 1;
#X connect 72 0 70 1;
#X connect 73 0 74 0;
#X connect 74 0 75 1;
#X connect 74 0 76 1;
#X connect 75 0 55 0;
#X connect 76 0 56 0;
#X connect 77 0 33 0;
#X connect 78 0 79 0;
#X connect 79 0 80 0;
#X connect 80 0 83 0;
#X connect 81 0 82 0;
#X connect 82 0 78 0;
#X connect 83 0 84 1;
#X connect 84 0 110 0;
#X connect 84 0 113 0;
#X connect 85 0 102 0;
#X connect 86 0 105 0;
#X connect 87 0 88 0;
#X connect 88 0 89 0;
#X connect 89 0 92 0;
#X connect 90 0 91 0;
#X connect 91 0 87 0;
#X connect 92 0 85 1;
#X connect 92 0 86 1;
#X connect 93 0 90 0;
#X connect 94 0 100 0;
#X connect 94 0 103 0;
#X connect 96 0 97 0;
#X connect 97 0 99 1;
#X connect 97 0 98 1;
#X connect 98 0 55 0;
#X connect 99 0 56 0;
#X connect 100 0 101 0;
#X connect 101 0 106 0;
#X connect 102 0 99 0;
#X connect 103 0 104 0;
#X connect 104 0 102 1;
#X connect 105 0 98 0;
#X connect 106 0 107 0;
#X connect 107 0 105 1;
#X connect 108 0 109 0;
#X connect 109 0 114 0;
#X connect 110 0 123 0;
#X connect 111 0 112 0;
#X connect 112 0 110 1;
#X connect 113 0 122 0;
#X connect 114 0 115 0;
#X connect 115 0 113 1;
#X connect 116 0 117 0;
#X connect 117 0 119 1;
#X connect 117 0 118 1;
#X connect 118 0 55 0;
#X connect 119 0 56 0;
#X connect 120 0 121 0;
#X connect 121 0 123 1;
#X connect 121 0 122 1;
#X connect 122 0 118 0;
#X connect 123 0 119 0;
#X connect 124 0 135 0;
#X connect 125 0 134 0;
#X connect 126 0 127 0;
#X connect 127 0 128 0;
#X connect 128 0 131 0;
#X connect 129 0 130 0;
#X connect 130 0 126 0;
#X connect 131 0 124 1;
#X connect 131 0 125 1;
#X connect 132 0 133 0;
#X connect 133 0 135 1;
#X connect 133 0 134 1;
#X connect 134 0 55 0;
#X connect 135 0 56 0;
#X connect 136 0 137 0;
#X connect 137 0 139 1;
#X connect 137 0 138 1;
#X connect 140 0 141 0;
#X connect 141 0 143 1;
#X connect 141 0 142 1;
#X connect 142 0 55 0;
#X connect 143 0 56 0;
#X connect 144 0 151 1;
#X connect 145 0 146 0;
#X connect 145 0 147 0;
#X connect 146 0 144 1;
#X connect 147 0 149 1;
#X connect 149 0 151 0;
#X connect 150 0 142 0;
#X connect 150 0 143 0;
#X connect 151 0 152 0;
#X connect 153 0 142 0;
#X connect 153 0 143 0;
#X connect 154 0 143 0;
#X connect 155 0 143 0;
#X connect 156 0 142 0;
#X connect 157 0 142 0;
