#N canvas -7 0 681 676 10;
#X obj 315 631 dac~;
#X obj 9 123 Multifire;
#X obj 9 10 loadbang;
#X msg 69 104 5000;
#X msg 39 57 7000;
#X obj 519 10 loadbang;
#X msg 579 104 250;
#X msg 549 57 1000;
#X obj 519 160 Shuffler;
#X obj 9 160 Shuffler;
#X obj 299 232 ThunderModule;
#X obj 8 232 ThunderModule;
#X obj 105 232 ThunderModule;
#X obj 202 232 ThunderModule;
#X obj 387 27 metro 2;
#X obj 519 123 Multifire;
#X connect 1 0 9 0;
#X connect 1 1 9 0;
#X connect 1 2 9 0;
#X connect 1 3 9 0;
#X connect 2 0 1 0;
#X connect 2 0 4 0;
#X connect 2 0 14 0;
#X connect 3 0 1 2;
#X connect 4 0 1 1;
#X connect 4 0 3 0;
#X connect 5 0 7 0;
#X connect 5 0 15 0;
#X connect 6 0 15 2;
#X connect 7 0 6 0;
#X connect 7 0 15 1;
#X connect 9 0 11 0;
#X connect 9 1 12 0;
#X connect 9 2 13 0;
#X connect 9 3 10 0;
#X connect 14 0 10 1;
#X connect 14 0 13 1;
#X connect 14 0 12 1;
#X connect 14 0 11 1;
#X connect 15 0 8 0;
#X connect 15 1 8 0;
#X connect 15 2 8 0;
#X connect 15 3 8 0;
