#N canvas 0 50 1362 685 10;
#X obj 932 133 Multifire;
#X obj 932 20 loadbang;
#X msg 992 114 5000;
#X msg 962 67 7000;
#X msg 549 37 1000;
#X obj 519 140 Shuffler;
#X obj 932 170 Shuffler;
#X obj 1310 37 metro 2;
#X obj 519 103 Multifire;
#X obj 1223 232 ThunderModule;
#X obj 48 438 dac~;
#X obj 270 177 delread~ thunder 0;
#X obj 187 229 clip~ -0.99 0.99;
#X obj 305 229 clip~ -0.99 0.99;
#X obj 362 120 delread~ thunder 130;
#X obj 20 162 delread~ thunder 120;
#X obj 1029 232 ThunderModule;
#X obj 932 232 ThunderModule;
#X obj 1126 232 ThunderModule;
#X obj 669 58 RandomBank;
#X obj 519 232 WavesModule;
#X obj 1310 56 s 2metro;
#X obj 1117 128 r 2metro;
#X obj 669 39 r 2metro;
#X obj 802 77 r 2metro;
#X obj 1151 37 metro 1000;
#X obj 1151 56 s 1000metro;
#X obj 745 58 r 1000metro;
#X msg 579 84 1250;
#X obj 1082 353 delwrite~ thunder 130;
#X obj 375 312 RainModule;
#X obj 19 311 WindModule;
#X obj 86 274 r 2metro;
#X obj 19 274 loadbang;
#X obj 906 365 FireModule;
#X obj 1234 56 s 100metro;
#X obj 1234 37 metro 100;
#X obj 375 293 r 2metro;
#X obj 442 293 r 100metro;
#X obj 86 404 *~ 1;
#X obj 18 404 *~ 1;
#X obj 187 404 *~ 1;
#X obj 305 404 *~ 1;
#X obj 837 404 *~ 1;
#X obj 737 404 *~ 1;
#X obj 629 404 *~ 1;
#X obj 519 404 *~ 1;
#X obj 737 232 WavesModule;
#X obj 629 232 WavesModule;
#X obj 837 232 WavesModule;
#X obj 375 404 *~ 1;
#X obj 443 404 *~ 1;
#X connect 0 0 6 0;
#X connect 0 1 6 0;
#X connect 0 2 6 0;
#X connect 0 3 6 0;
#X connect 1 0 0 0;
#X connect 1 0 3 0;
#X connect 1 0 7 0;
#X connect 1 0 25 0;
#X connect 1 0 4 0;
#X connect 1 0 36 0;
#X connect 2 0 0 2;
#X connect 3 0 0 1;
#X connect 3 0 2 0;
#X connect 4 0 28 0;
#X connect 4 0 8 1;
#X connect 4 0 8 0;
#X connect 5 0 20 0;
#X connect 5 1 48 0;
#X connect 5 2 47 0;
#X connect 5 3 49 0;
#X connect 6 0 17 0;
#X connect 6 1 16 0;
#X connect 6 2 18 0;
#X connect 6 3 9 0;
#X connect 7 0 21 0;
#X connect 8 0 5 0;
#X connect 8 1 5 0;
#X connect 8 2 5 0;
#X connect 8 3 5 0;
#X connect 9 0 29 0;
#X connect 11 0 12 0;
#X connect 11 0 13 0;
#X connect 12 0 41 0;
#X connect 13 0 42 0;
#X connect 16 0 29 0;
#X connect 17 0 29 0;
#X connect 18 0 29 0;
#X connect 19 0 20 2;
#X connect 19 0 47 6;
#X connect 19 0 48 5;
#X connect 19 0 49 4;
#X connect 19 1 20 3;
#X connect 19 1 47 9;
#X connect 19 1 47 7;
#X connect 19 1 48 6;
#X connect 19 1 49 5;
#X connect 19 2 20 4;
#X connect 19 2 47 2;
#X connect 19 2 48 7;
#X connect 19 2 49 7;
#X connect 19 2 49 9;
#X connect 19 3 20 5;
#X connect 19 3 20 9;
#X connect 19 3 47 3;
#X connect 19 3 48 2;
#X connect 19 3 49 3;
#X connect 19 4 20 6;
#X connect 19 4 47 4;
#X connect 19 4 48 3;
#X connect 19 4 49 2;
#X connect 19 5 20 7;
#X connect 19 5 47 5;
#X connect 19 5 48 4;
#X connect 19 5 48 9;
#X connect 19 5 49 6;
#X connect 20 0 46 0;
#X connect 22 0 9 1;
#X connect 22 0 18 1;
#X connect 22 0 16 1;
#X connect 22 0 17 1;
#X connect 23 0 19 0;
#X connect 24 0 20 8;
#X connect 24 0 47 8;
#X connect 24 0 48 8;
#X connect 24 0 49 8;
#X connect 25 0 26 0;
#X connect 27 0 20 1;
#X connect 27 0 47 1;
#X connect 27 0 48 1;
#X connect 27 0 49 1;
#X connect 28 0 8 2;
#X connect 30 0 50 0;
#X connect 30 1 51 0;
#X connect 31 0 40 0;
#X connect 31 1 39 0;
#X connect 32 0 31 0;
#X connect 33 0 31 1;
#X connect 36 0 35 0;
#X connect 37 0 30 0;
#X connect 38 0 30 1;
#X connect 47 0 44 0;
#X connect 48 0 45 0;
#X connect 49 0 43 0;
#X connect 50 0 10 1;
#X connect 51 0 10 0;
