#N canvas -8 -8 1920 997 10;
#X obj 1052 133 Multifire;
#X obj 1052 20 loadbang;
#X msg 1112 114 5000;
#X msg 1082 67 7000;
#X msg 549 37 1000;
#X obj 519 140 Shuffler;
#X obj 1052 170 Shuffler;
#X obj 1431 37 metro 2;
#X obj 519 103 Multifire;
#X obj 1343 242 ThunderModule;
#X obj 278 595 dac~;
#X obj 238 517 delread~ thunder 0;
#X obj 156 579 clip~ -0.99 0.99;
#X obj 324 579 clip~ -0.99 0.99;
#X obj 323 550 delread~ thunder 130;
#X obj 14 563 delread~ thunder 120;
#X obj 1149 242 ThunderModule;
#X obj 1052 242 ThunderModule;
#X obj 1246 242 ThunderModule;
#X obj 749 58 RandomBank;
#X obj 519 232 WavesModule;
#X obj 1431 56 s 2metro;
#X obj 1237 128 r 2metro;
#X obj 749 39 r 2metro;
#X obj 884 77 r 2metro;
#X obj 1271 37 metro 1000;
#X obj 1271 56 s 1000metro;
#X obj 827 58 r 1000metro;
#X obj 1202 353 delwwrite~ thunder 130;
#X obj 669 232 WavesModule;
#X obj 819 232 WavesModule;
#X obj 969 232 WavesModule;
#X msg 579 84 1250;
#X connect 0 0 6 0;
#X connect 0 1 6 0;
#X connect 0 2 6 0;
#X connect 0 3 6 0;
#X connect 1 0 0 0;
#X connect 1 0 3 0;
#X connect 1 0 7 0;
#X connect 1 0 25 0;
#X connect 1 0 4 0;
#X connect 2 0 0 2;
#X connect 3 0 0 1;
#X connect 3 0 2 0;
#X connect 4 0 32 0;
#X connect 4 0 8 1;
#X connect 4 0 8 0;
#X connect 5 0 20 0;
#X connect 5 1 29 0;
#X connect 5 2 30 0;
#X connect 5 3 31 0;
#X connect 6 0 17 0;
#X connect 6 1 16 0;
#X connect 6 2 18 0;
#X connect 6 3 9 0;
#X connect 7 0 21 0;
#X connect 8 0 5 0;
#X connect 8 1 5 0;
#X connect 8 2 5 0;
#X connect 8 3 5 0;
#X connect 9 0 28 0;
#X connect 11 0 12 0;
#X connect 11 0 13 0;
#X connect 14 0 13 0;
#X connect 15 0 12 0;
#X connect 16 0 28 0;
#X connect 17 0 28 0;
#X connect 18 0 28 0;
#X connect 19 0 20 2;
#X connect 19 0 29 9;
#X connect 19 0 29 7;
#X connect 19 0 30 6;
#X connect 19 0 31 5;
#X connect 19 1 20 3;
#X connect 19 1 29 2;
#X connect 19 1 30 9;
#X connect 19 1 30 7;
#X connect 19 1 31 6;
#X connect 19 2 20 4;
#X connect 19 2 29 3;
#X connect 19 2 30 2;
#X connect 19 2 31 7;
#X connect 19 3 20 5;
#X connect 19 3 20 9;
#X connect 19 3 29 4;
#X connect 19 3 30 3;
#X connect 19 3 31 2;
#X connect 19 4 20 6;
#X connect 19 4 29 5;
#X connect 19 4 30 4;
#X connect 19 4 31 3;
#X connect 19 5 20 7;
#X connect 19 5 29 6;
#X connect 19 5 30 5;
#X connect 19 5 31 9;
#X connect 19 5 31 4;
#X connect 20 0 10 0;
#X connect 20 0 10 1;
#X connect 22 0 9 1;
#X connect 22 0 18 1;
#X connect 22 0 16 1;
#X connect 22 0 17 1;
#X connect 23 0 19 0;
#X connect 24 0 20 8;
#X connect 24 0 29 8;
#X connect 24 0 30 8;
#X connect 24 0 31 8;
#X connect 25 0 26 0;
#X connect 27 0 20 1;
#X connect 27 0 29 1;
#X connect 27 0 30 1;
#X connect 27 0 31 1;
#X connect 32 0 8 2;
