#N canvas 0 0 1362 691 10;
#N canvas 0 50 1920 997 crackle1 0;
#X obj 82 418 outlet~;
#X obj 90 248 *~;
#X obj 105 112 vsl 15 128 0 1 0 0 empty empty empty 0 -9 0 10 -244296
-1 -1 0 1;
#X obj 90 -186 noise~;
#X obj 133 -186 noise~;
#X obj 121 -8 /~ 10;
#X obj 60 -105 lop~ 1500;
#X obj 60 -145 lop~ 1500;
#X obj 135 -84 lop~ 100;
#X obj 135 -124 lop~ 100;
#X obj 135 -144 lop~ 100;
#X obj 135 -104 lop~ 100;
#X obj 60 -85 lop~ 100;
#X obj 60 -125 lop~ 1500;
#X obj 93 48 bp~ 1000 10;
#X obj 99 16 *~ 0.0005;
#X obj 112 -36 /~;
#X obj 115 312 bp~ 500 3;
#X obj 115 331 *~ -1;
#X obj 82 365 clip~ -1 1;
#X obj 82 391 hip~ 400;
#X connect 1 0 17 0;
#X connect 1 0 19 0;
#X connect 2 0 1 1;
#X connect 3 0 7 0;
#X connect 4 0 10 0;
#X connect 5 0 15 0;
#X connect 6 0 12 0;
#X connect 7 0 13 0;
#X connect 8 0 16 1;
#X connect 9 0 11 0;
#X connect 10 0 9 0;
#X connect 11 0 8 0;
#X connect 12 0 16 0;
#X connect 13 0 6 0;
#X connect 14 0 1 0;
#X connect 15 0 14 0;
#X connect 16 0 5 0;
#X connect 17 0 18 0;
#X connect 18 0 19 0;
#X connect 19 0 20 0;
#X connect 20 0 0 0;
#X coords 0 -1 1 1 25 150 2 100 100;
#X restore 663 -105 pd crackle1;
#N canvas 0 50 1920 997 crackle2 0;
#X obj 90 267 outlet~;
#X obj 90 248 *~;
#X obj 105 112 vsl 15 128 0 1 0 0 empty empty empty 0 -9 0 10 -257985
-1 -1 0 1;
#X obj -445 -272 noise~;
#X obj -371 -271 noise~;
#X obj -385 -127 /~ 10;
#X obj -445 -213 lop~ 1500;
#X obj -445 -253 lop~ 1500;
#X obj -371 -192 lop~ 100;
#X obj -371 -232 lop~ 100;
#X obj -371 -252 lop~ 100;
#X obj -371 -212 lop~ 100;
#X obj -445 -193 lop~ 100;
#X obj -445 -233 lop~ 1500;
#X obj -385 -108 *~ 0.0005;
#X obj -385 -146 /~;
#X obj -385 -51 clip~ -0.5 0.5;
#X obj -245 -368 noise~;
#X obj -202 -368 noise~;
#X obj -214 -190 /~ 10;
#X obj -275 -287 lop~ 1500;
#X obj -275 -327 lop~ 1500;
#X obj -200 -266 lop~ 100;
#X obj -200 -306 lop~ 100;
#X obj -200 -326 lop~ 100;
#X obj -200 -286 lop~ 100;
#X obj -275 -267 lop~ 100;
#X obj -275 -307 lop~ 1500;
#X obj -236 -166 *~ 0.0005;
#X obj -223 -218 /~;
#X obj -242 -134 lop~ 1000;
#X obj -242 -52 clip~ -0.4 0.4;
#X obj -242 -114 lop~ 1000;
#X obj -242 -94 lop~ 1000;
#X obj -625 -272 noise~;
#X obj -550 -271 noise~;
#X obj -565 -127 /~ 10;
#X obj -625 -213 lop~ 1500;
#X obj -625 -253 lop~ 1500;
#X obj -550 -192 lop~ 100;
#X obj -550 -232 lop~ 100;
#X obj -550 -252 lop~ 100;
#X obj -550 -212 lop~ 100;
#X obj -625 -193 lop~ 100;
#X obj -625 -233 lop~ 1500;
#X obj -565 -108 *~ 0.0005;
#X obj -565 -146 /~;
#X obj -565 -51 clip~ -0.5 0.5;
#X obj -565 -89 hip~ 2000;
#X obj -385 -89 bp~ 700 10;
#X obj -103 -312 noise~;
#X obj -60 -312 noise~;
#X obj -72 -134 /~ 10;
#X obj -133 -231 lop~ 1500;
#X obj -133 -271 lop~ 1500;
#X obj -58 -210 lop~ 100;
#X obj -58 -250 lop~ 100;
#X obj -58 -270 lop~ 100;
#X obj -58 -230 lop~ 100;
#X obj -133 -211 lop~ 100;
#X obj -133 -251 lop~ 1500;
#X obj -94 -110 *~ 0.0005;
#X obj -81 -162 /~;
#X obj -97 -69 clip~ -0.1 0.1;
#X obj -565 -70 *~ 0.161;
#X obj -242 -71 *~ 1;
#X obj -97 -50 *~ 0.096;
#X obj -385 -70 *~ 0.154;
#X obj 86 -369 noise~;
#X obj 129 -369 noise~;
#X obj 117 -191 /~ 10;
#X obj 56 -288 lop~ 1500;
#X obj 56 -328 lop~ 1500;
#X obj 131 -267 lop~ 100;
#X obj 131 -307 lop~ 100;
#X obj 131 -327 lop~ 100;
#X obj 131 -287 lop~ 100;
#X obj 56 -268 lop~ 100;
#X obj 56 -308 lop~ 1500;
#X obj 108 -219 /~;
#X obj 89 -135 lop~ 200;
#X obj 89 -115 lop~ 200;
#X obj 89 -95 lop~ 200;
#X obj 95 -167 *~ 0.001;
#X obj 89 -72 *~ 0.4;
#X obj 89 -53 clip~ -0.8 0.8;
#X obj 0 146 hip~ 1000;
#X obj 0 166 hip~ 1000;
#X obj 2 204 clip~ 0.03 0.9;
#X obj 5 226 -~ 0.45;
#X connect 1 0 0 0;
#X connect 2 0 1 1;
#X connect 3 0 7 0;
#X connect 4 0 10 0;
#X connect 5 0 14 0;
#X connect 6 0 12 0;
#X connect 7 0 13 0;
#X connect 8 0 15 1;
#X connect 9 0 11 0;
#X connect 10 0 9 0;
#X connect 11 0 8 0;
#X connect 12 0 15 0;
#X connect 13 0 6 0;
#X connect 14 0 49 0;
#X connect 15 0 5 0;
#X connect 16 0 86 0;
#X connect 17 0 21 0;
#X connect 18 0 24 0;
#X connect 19 0 28 0;
#X connect 20 0 26 0;
#X connect 21 0 27 0;
#X connect 22 0 29 1;
#X connect 23 0 25 0;
#X connect 24 0 23 0;
#X connect 25 0 22 0;
#X connect 26 0 29 0;
#X connect 27 0 20 0;
#X connect 28 0 30 0;
#X connect 29 0 19 0;
#X connect 30 0 32 0;
#X connect 31 0 86 0;
#X connect 32 0 33 0;
#X connect 33 0 65 0;
#X connect 34 0 38 0;
#X connect 35 0 41 0;
#X connect 36 0 45 0;
#X connect 37 0 43 0;
#X connect 38 0 44 0;
#X connect 39 0 46 1;
#X connect 40 0 42 0;
#X connect 41 0 40 0;
#X connect 42 0 39 0;
#X connect 43 0 46 0;
#X connect 44 0 37 0;
#X connect 45 0 48 0;
#X connect 46 0 36 0;
#X connect 47 0 86 0;
#X connect 48 0 64 0;
#X connect 49 0 67 0;
#X connect 50 0 54 0;
#X connect 51 0 57 0;
#X connect 52 0 61 0;
#X connect 53 0 59 0;
#X connect 54 0 60 0;
#X connect 55 0 62 1;
#X connect 56 0 58 0;
#X connect 57 0 56 0;
#X connect 58 0 55 0;
#X connect 59 0 62 0;
#X connect 60 0 53 0;
#X connect 61 0 63 0;
#X connect 62 0 52 0;
#X connect 63 0 66 0;
#X connect 64 0 47 0;
#X connect 65 0 31 0;
#X connect 66 0 86 0;
#X connect 67 0 16 0;
#X connect 68 0 72 0;
#X connect 69 0 75 0;
#X connect 70 0 83 0;
#X connect 71 0 77 0;
#X connect 72 0 78 0;
#X connect 73 0 79 1;
#X connect 74 0 76 0;
#X connect 75 0 74 0;
#X connect 76 0 73 0;
#X connect 77 0 79 0;
#X connect 78 0 71 0;
#X connect 79 0 70 0;
#X connect 80 0 81 0;
#X connect 81 0 82 0;
#X connect 82 0 84 0;
#X connect 83 0 80 0;
#X connect 84 0 85 0;
#X connect 85 0 86 0;
#X connect 86 0 87 0;
#X connect 87 0 88 0;
#X connect 88 0 89 0;
#X connect 89 0 1 0;
#X coords 0 -1 1 1 25 150 2 100 100;
#X restore 741 -105 pd crackle2;
#N canvas 0 50 1920 997 crackle3 0;
#X obj 90 267 outlet~;
#X obj 90 248 *~;
#X obj 105 112 vsl 15 128 0 1 0 0 empty empty empty 0 -9 0 10 -262130
-1 -1 0 1;
#X obj 61 26 *~;
#X obj 74 -264 env~;
#X obj 74 -288 lop~ 1;
#X msg 125 -198 bang;
#X obj 125 -175 random 30;
#X obj 125 -131 line~;
#X msg 125 -152 1 \, 0 \$1;
#X obj 125 -103 *~;
#X obj 164 -46 + 1500;
#X obj 163 -68 * 500;
#X obj 57 -320 noise~;
#X obj -99 26 *~;
#X obj -86 -264 env~;
#X obj -86 -288 lop~ 1;
#X msg -35 -198 bang;
#X obj -35 -175 random 30;
#X obj -35 -131 line~;
#X msg -35 -152 1 \, 0 \$1;
#X obj -35 -103 *~;
#X obj -103 -320 noise~;
#X obj 62 45 *~ 0.5;
#X floatatom 174 3 10 0 0 0 - - -, f 10;
#X obj 61 -19 bp~ 4000 1;
#X floatatom 268 -221 5 0 0 0 - - -, f 5;
#X obj 74 -241 moses 40;
#X obj 125 -220 moses 40.1;
#X obj -86 -241 moses 55;
#X obj -35 -220 moses 55.2;
#X obj -99 -19 bp~ 5000 1;
#X obj -12 -57 bng 15 250 50 0 empty empty empty 17 7 0 10 -262144
-1 -1;
#X obj -12 -19 loadbang;
#X obj -12 0 metro 250;
#X obj -12 57 / 1000;
#X obj -12 76 pack 0 500;
#X obj -12 95 line;
#X floatatom 22 180 5 0 0 0 - - -, f 5;
#X obj -12 38 + 250;
#X obj -12 19 random 650;
#X obj -24 192 *~;
#X connect 1 0 0 0;
#X connect 2 0 1 1;
#X connect 3 0 23 0;
#X connect 4 0 26 0;
#X connect 4 0 27 0;
#X connect 5 0 4 0;
#X connect 6 0 7 0;
#X connect 7 0 9 0;
#X connect 7 0 12 0;
#X connect 8 0 10 0;
#X connect 8 0 10 1;
#X connect 9 0 8 0;
#X connect 10 0 3 1;
#X connect 12 0 11 0;
#X connect 13 0 5 0;
#X connect 13 0 25 0;
#X connect 14 0 41 0;
#X connect 15 0 29 0;
#X connect 16 0 15 0;
#X connect 17 0 18 0;
#X connect 18 0 20 0;
#X connect 19 0 21 0;
#X connect 19 0 21 1;
#X connect 20 0 19 0;
#X connect 21 0 14 1;
#X connect 22 0 16 0;
#X connect 22 0 31 0;
#X connect 23 0 41 0;
#X connect 25 0 3 0;
#X connect 27 1 28 0;
#X connect 28 0 6 0;
#X connect 29 1 30 0;
#X connect 30 0 17 0;
#X connect 31 0 14 0;
#X connect 33 0 34 0;
#X connect 34 0 40 0;
#X connect 35 0 36 0;
#X connect 36 0 37 0;
#X connect 37 0 41 1;
#X connect 37 0 38 0;
#X connect 39 0 35 0;
#X connect 40 0 39 0;
#X connect 41 0 1 0;
#X coords 0 -1 1 1 25 150 2 100 100;
#X restore 818 -105 pd crackle3;
#N canvas 0 0 1362 691 rumble1 0;
#X obj 304 533 outlet~;
#X obj 567 140 noise~;
#X obj 567 249 bp~;
#X obj 620 149 line;
#X obj 567 268 clip~ -1 1;
#X msg 620 232 20;
#X obj 697 140 noise~;
#X obj 697 249 bp~;
#X obj 750 149 line;
#X obj 697 268 clip~ -1 1;
#X msg 750 232 20;
#X obj 827 140 noise~;
#X obj 827 249 bp~;
#X obj 880 149 line;
#X obj 827 268 clip~ -1 1;
#X msg 880 232 20;
#X obj 304 139 noise~;
#X obj 304 248 bp~;
#X obj 357 148 line;
#X obj 304 267 clip~ -1 1;
#X msg 357 231 20;
#X obj 434 139 noise~;
#X obj 434 248 bp~;
#X obj 487 148 line;
#X obj 434 267 clip~ -1 1;
#X msg 487 231 20;
#X obj 996 440 / 1000;
#X obj 996 459 pack 0 500;
#X obj 996 478 line;
#X obj 996 421 + 250;
#X obj 996 402 random 650;
#X obj 875 191 loadbang;
#X obj 827 306 lop~ 200;
#X obj 827 287 lop~ 200;
#X obj 697 287 lop~ 200;
#X obj 697 306 lop~ 200;
#X obj 566 306 lop~ 200;
#X obj 567 287 lop~ 200;
#X obj 434 286 lop~ 200;
#X obj 434 305 lop~ 200;
#X obj 304 305 lop~ 200;
#X obj 304 286 lop~ 200;
#X obj 304 325 hip~ 50;
#X obj 434 325 hip~ 50;
#X obj 566 325 hip~ 50;
#X obj 697 325 hip~ 50;
#X obj 827 325 hip~ 50;
#X obj 304 363 clip~ -1 1;
#X obj 434 363 clip~ -1 1;
#X obj 566 363 clip~ -1 1;
#X obj 697 363 clip~ -1 1;
#X obj 827 363 clip~ -1 1;
#X obj 304 344 *~ 100;
#X obj 434 344 *~ 100;
#X obj 566 344 *~ 100;
#X obj 697 344 *~ 100;
#X obj 827 344 *~ 100;
#X obj 304 495 *~;
#X obj 304 476 lop~ 150;
#X obj 880 111 random 150;
#X obj 880 130 pack 0 650;
#X obj 750 111 random 150;
#X obj 620 111 random 150;
#X obj 487 110 random 150;
#X obj 357 110 random 150;
#X obj 750 130 pack 0 650;
#X obj 620 130 pack 0 650;
#X obj 487 129 pack 0 650;
#X obj 357 129 pack 0 650;
#X obj 304 514 *~ 0.02;
#X obj 996 68 inlet;
#X connect 1 0 2 0;
#X connect 2 0 4 0;
#X connect 3 0 2 1;
#X connect 4 0 37 0;
#X connect 5 0 2 2;
#X connect 6 0 7 0;
#X connect 7 0 9 0;
#X connect 8 0 7 1;
#X connect 9 0 34 0;
#X connect 10 0 7 2;
#X connect 11 0 12 0;
#X connect 12 0 14 0;
#X connect 13 0 12 1;
#X connect 14 0 33 0;
#X connect 15 0 12 2;
#X connect 16 0 17 0;
#X connect 17 0 19 0;
#X connect 18 0 17 1;
#X connect 19 0 41 0;
#X connect 20 0 17 2;
#X connect 21 0 22 0;
#X connect 22 0 24 0;
#X connect 23 0 22 1;
#X connect 24 0 38 0;
#X connect 25 0 22 2;
#X connect 26 0 27 0;
#X connect 27 0 28 0;
#X connect 28 0 57 1;
#X connect 29 0 26 0;
#X connect 30 0 29 0;
#X connect 31 0 15 0;
#X connect 31 0 10 0;
#X connect 31 0 5 0;
#X connect 31 0 25 0;
#X connect 31 0 20 0;
#X connect 32 0 46 0;
#X connect 33 0 32 0;
#X connect 34 0 35 0;
#X connect 35 0 45 0;
#X connect 36 0 44 0;
#X connect 37 0 36 0;
#X connect 38 0 39 0;
#X connect 39 0 43 0;
#X connect 40 0 42 0;
#X connect 41 0 40 0;
#X connect 42 0 52 0;
#X connect 43 0 53 0;
#X connect 44 0 54 0;
#X connect 45 0 55 0;
#X connect 46 0 56 0;
#X connect 47 0 58 0;
#X connect 48 0 58 0;
#X connect 49 0 58 0;
#X connect 50 0 58 0;
#X connect 51 0 58 0;
#X connect 52 0 47 0;
#X connect 53 0 48 0;
#X connect 54 0 49 0;
#X connect 55 0 50 0;
#X connect 56 0 51 0;
#X connect 57 0 69 0;
#X connect 58 0 57 0;
#X connect 59 0 60 0;
#X connect 60 0 13 0;
#X connect 61 0 65 0;
#X connect 62 0 66 0;
#X connect 63 0 67 0;
#X connect 64 0 68 0;
#X connect 65 0 8 0;
#X connect 66 0 3 0;
#X connect 67 0 23 0;
#X connect 68 0 18 0;
#X connect 69 0 0 0;
#X connect 70 0 30 0;
#X connect 70 0 59 0;
#X connect 70 0 61 0;
#X connect 70 0 62 0;
#X connect 70 0 63 0;
#X connect 70 0 64 0;
#X coords 0 691 1 690 250 150 0;
#X restore 327 -34 pd rumble1;
#N canvas -8 -8 1366 685 rumble2 0;
#X obj 1010 559 outlet~;
#X obj 618 194 noise~;
#X obj 618 303 bp~;
#X obj 671 203 line;
#X obj 618 322 clip~ -1 1;
#X msg 671 286 20;
#X obj 748 194 noise~;
#X obj 748 303 bp~;
#X obj 801 203 line;
#X obj 748 322 clip~ -1 1;
#X msg 801 286 20;
#X obj 878 194 noise~;
#X obj 878 303 bp~;
#X obj 931 203 line;
#X obj 878 322 clip~ -1 1;
#X msg 931 286 20;
#X obj 358 192 noise~;
#X obj 358 301 bp~;
#X obj 411 201 line;
#X obj 358 320 clip~ -1 1;
#X msg 411 284 20;
#X obj 488 192 noise~;
#X obj 488 301 bp~;
#X obj 541 201 line;
#X obj 488 320 clip~ -1 1;
#X msg 541 284 20;
#X obj 1028 464 / 1000;
#X obj 1028 483 pack 0 500;
#X obj 1028 502 line;
#X obj 878 360 lop~ 500;
#X obj 878 341 lop~ 500;
#X obj 748 341 lop~ 500;
#X obj 748 360 lop~ 500;
#X obj 618 360 lop~ 500;
#X obj 618 341 lop~ 500;
#X obj 488 339 lop~ 500;
#X obj 488 358 lop~ 500;
#X obj 358 358 lop~ 500;
#X obj 358 339 lop~ 500;
#X obj 878 380 hip~ 100;
#X obj 748 380 hip~ 100;
#X obj 618 380 hip~ 100;
#X obj 488 378 hip~ 100;
#X obj 358 378 hip~ 100;
#X obj 1028 445 + 250;
#X obj 878 409 *~ 0.015;
#X obj 748 409 *~ 0.015;
#X obj 618 409 *~ 0.015;
#X obj 488 409 *~ 0.015;
#X obj 358 409 *~ 0.015;
#X obj 1028 426 random 650;
#X obj 931 226 loadbang;
#X obj 1010 521 *~;
#X obj 931 165 random 150;
#X obj 931 184 pack 0 650;
#X obj 801 165 random 150;
#X obj 671 165 random 150;
#X obj 541 163 random 150;
#X obj 411 163 random 150;
#X obj 801 184 pack 0 650;
#X obj 671 184 pack 0 650;
#X obj 541 182 pack 0 650;
#X obj 411 182 pack 0 650;
#X obj 1010 540 *~ 0.035;
#X obj 1028 54 inlet;
#X connect 1 0 2 0;
#X connect 2 0 4 0;
#X connect 3 0 2 1;
#X connect 4 0 34 0;
#X connect 5 0 2 2;
#X connect 6 0 7 0;
#X connect 7 0 9 0;
#X connect 8 0 7 1;
#X connect 9 0 31 0;
#X connect 10 0 7 2;
#X connect 11 0 12 0;
#X connect 12 0 14 0;
#X connect 13 0 12 1;
#X connect 14 0 30 0;
#X connect 15 0 12 2;
#X connect 16 0 17 0;
#X connect 17 0 19 0;
#X connect 18 0 17 1;
#X connect 19 0 38 0;
#X connect 20 0 17 2;
#X connect 21 0 22 0;
#X connect 22 0 24 0;
#X connect 23 0 22 1;
#X connect 24 0 35 0;
#X connect 25 0 22 2;
#X connect 26 0 27 0;
#X connect 27 0 28 0;
#X connect 28 0 52 1;
#X connect 29 0 39 0;
#X connect 30 0 29 0;
#X connect 31 0 32 0;
#X connect 32 0 40 0;
#X connect 33 0 41 0;
#X connect 34 0 33 0;
#X connect 35 0 36 0;
#X connect 36 0 42 0;
#X connect 37 0 43 0;
#X connect 38 0 37 0;
#X connect 39 0 45 0;
#X connect 40 0 46 0;
#X connect 41 0 47 0;
#X connect 42 0 48 0;
#X connect 43 0 49 0;
#X connect 44 0 26 0;
#X connect 45 0 52 0;
#X connect 46 0 52 0;
#X connect 47 0 52 0;
#X connect 48 0 52 0;
#X connect 49 0 52 0;
#X connect 50 0 44 0;
#X connect 51 0 15 0;
#X connect 51 0 10 0;
#X connect 51 0 5 0;
#X connect 51 0 25 0;
#X connect 51 0 20 0;
#X connect 52 0 63 0;
#X connect 53 0 54 0;
#X connect 54 0 13 0;
#X connect 55 0 59 0;
#X connect 56 0 60 0;
#X connect 57 0 61 0;
#X connect 58 0 62 0;
#X connect 59 0 8 0;
#X connect 60 0 3 0;
#X connect 61 0 23 0;
#X connect 62 0 18 0;
#X connect 63 0 0 0;
#X connect 64 0 50 0;
#X connect 64 0 53 0;
#X connect 64 0 55 1;
#X connect 64 0 56 0;
#X connect 64 0 57 0;
#X connect 64 0 58 0;
#X coords 0 685 1 684 25 150 0;
#X restore 403 -34 pd rumble2;
#N canvas -8 -8 1366 685 rumble3 0;
#X obj 801 620 outlet~;
#X obj 801 286 noise~;
#X obj 801 375 bp~;
#X obj 854 275 line;
#X obj 801 394 clip~ -1 1;
#X msg 874 358 20;
#X obj 801 451 hip~ 100;
#X obj 532 289 noise~;
#X obj 532 378 bp~;
#X obj 585 278 line;
#X obj 532 397 clip~ -1 1;
#X msg 585 361 20;
#X obj 622 289 noise~;
#X obj 622 378 bp~;
#X obj 675 278 line;
#X obj 622 397 clip~ -1 1;
#X msg 675 361 20;
#X obj 712 289 noise~;
#X obj 712 378 bp~;
#X obj 765 278 line;
#X obj 712 397 clip~ -1 1;
#X msg 765 361 20;
#X obj 262 289 noise~;
#X obj 262 378 bp~;
#X obj 315 278 line;
#X obj 262 397 clip~ -1 1;
#X msg 315 361 20;
#X obj 352 289 noise~;
#X obj 352 378 bp~;
#X obj 405 278 line;
#X obj 352 397 clip~ -1 1;
#X msg 405 361 20;
#X obj 442 289 noise~;
#X obj 442 378 bp~;
#X obj 495 278 line;
#X obj 442 397 clip~ -1 1;
#X msg 495 361 20;
#X obj 712 454 hip~ 900;
#X obj 622 454 hip~ 900;
#X obj 532 454 hip~ 900;
#X obj 442 454 hip~ 900;
#X obj 352 454 hip~ 900;
#X obj 262 454 hip~ 900;
#X obj 1042 527 / 1000;
#X obj 1042 546 pack 0 500;
#X obj 1042 565 line;
#X obj 712 435 lop~ 1000;
#X obj 801 432 lop~ 1000;
#X obj 801 413 lop~ 1000;
#X obj 712 416 lop~ 1000;
#X obj 622 416 lop~ 1000;
#X obj 622 435 lop~ 1000;
#X obj 532 435 lop~ 1000;
#X obj 532 416 lop~ 1000;
#X obj 442 416 lop~ 1000;
#X obj 442 435 lop~ 1000;
#X obj 352 416 lop~ 1000;
#X obj 352 435 lop~ 1000;
#X obj 262 416 lop~ 1000;
#X obj 262 435 lop~ 1000;
#X obj 262 473 *~ 0.01;
#X obj 352 473 *~ 0.01;
#X obj 442 473 *~ 0.01;
#X obj 532 471 *~ 0.01;
#X obj 622 471 *~ 0.01;
#X obj 712 471 *~ 0.01;
#X obj 801 470 *~ 0.01;
#X obj 1042 489 random 350;
#X obj 874 301 loadbang;
#X obj 801 582 *~;
#X obj 1042 508 + 150;
#X obj 854 237 random 150;
#X obj 765 240 random 350;
#X obj 675 240 random 350;
#X obj 585 240 random 350;
#X obj 495 240 random 350;
#X obj 405 240 random 350;
#X obj 315 240 random 350;
#X obj 854 256 pack 0 50;
#X obj 765 259 pack 0 50;
#X obj 675 259 pack 0 50;
#X obj 585 259 pack 0 50;
#X obj 495 259 pack 0 50;
#X obj 405 259 pack 0 50;
#X obj 315 259 pack 0 50;
#X obj 801 601 *~ 0.35;
#X obj 1042 129 inlet;
#X connect 1 0 2 0;
#X connect 2 0 4 0;
#X connect 3 0 2 1;
#X connect 4 0 48 0;
#X connect 5 0 2 2;
#X connect 6 0 66 0;
#X connect 7 0 8 0;
#X connect 8 0 10 0;
#X connect 9 0 8 1;
#X connect 10 0 53 0;
#X connect 11 0 8 2;
#X connect 12 0 13 0;
#X connect 13 0 15 0;
#X connect 14 0 13 1;
#X connect 15 0 50 0;
#X connect 16 0 13 2;
#X connect 17 0 18 0;
#X connect 18 0 20 0;
#X connect 19 0 18 1;
#X connect 20 0 49 0;
#X connect 21 0 18 2;
#X connect 22 0 23 0;
#X connect 23 0 25 0;
#X connect 24 0 23 1;
#X connect 25 0 58 0;
#X connect 26 0 23 2;
#X connect 27 0 28 0;
#X connect 28 0 30 0;
#X connect 29 0 28 1;
#X connect 30 0 56 0;
#X connect 31 0 28 2;
#X connect 32 0 33 0;
#X connect 33 0 35 0;
#X connect 34 0 33 1;
#X connect 35 0 54 0;
#X connect 36 0 33 2;
#X connect 37 0 65 0;
#X connect 38 0 64 0;
#X connect 39 0 63 0;
#X connect 40 0 62 0;
#X connect 41 0 61 0;
#X connect 42 0 60 0;
#X connect 43 0 44 0;
#X connect 44 0 45 0;
#X connect 45 0 69 1;
#X connect 46 0 37 0;
#X connect 47 0 6 0;
#X connect 48 0 47 0;
#X connect 49 0 46 0;
#X connect 50 0 51 0;
#X connect 51 0 38 0;
#X connect 52 0 39 0;
#X connect 53 0 52 0;
#X connect 54 0 55 0;
#X connect 55 0 40 0;
#X connect 56 0 57 0;
#X connect 57 0 41 0;
#X connect 58 0 59 0;
#X connect 59 0 42 0;
#X connect 60 0 69 0;
#X connect 61 0 69 0;
#X connect 62 0 69 0;
#X connect 63 0 69 0;
#X connect 64 0 69 0;
#X connect 65 0 69 0;
#X connect 66 0 69 0;
#X connect 67 0 70 0;
#X connect 68 0 5 0;
#X connect 68 0 21 0;
#X connect 68 0 16 0;
#X connect 68 0 11 0;
#X connect 68 0 36 0;
#X connect 68 0 31 0;
#X connect 68 0 26 0;
#X connect 69 0 85 0;
#X connect 70 0 43 0;
#X connect 71 0 78 0;
#X connect 72 0 79 0;
#X connect 73 0 80 0;
#X connect 74 0 81 0;
#X connect 75 0 82 0;
#X connect 76 0 83 0;
#X connect 77 0 84 0;
#X connect 78 0 3 0;
#X connect 79 0 19 0;
#X connect 80 0 14 0;
#X connect 81 0 9 0;
#X connect 82 0 34 0;
#X connect 83 0 29 0;
#X connect 84 0 24 0;
#X connect 85 0 0 0;
#X connect 86 0 67 0;
#X connect 86 0 71 0;
#X connect 86 0 72 0;
#X connect 86 0 73 0;
#X connect 86 0 74 0;
#X connect 86 0 75 0;
#X connect 86 0 76 0;
#X connect 86 0 77 0;
#X coords 0 685 1 684 25 150 0;
#X restore 479 -34 pd rumble3;
#X obj 468 75 throw~ out1;
#N canvas 0 50 1920 997 delay 0;
#X obj -78 244 *~;
#X obj -39 290 *~ -1;
#X obj -79 399 delwrite~ crackle1 2000;
#X obj -39 271 bp~ 400 2;
#X obj -79 336 hip~ 1000;
#X obj -79 356 hip~ 1000;
#X obj -79 376 hip~ 1000;
#X obj -78 224 catch~ out2;
#X obj 105 110 vsl 15 128 0 1 0 0 empty empty empty 0 -9 0 10 -4032
-1 -1 0 1;
#X obj 132 347 delread~ crackle1 2000;
#X obj 112 327 delread~ crackle1 1225;
#X obj 131 473 throw~ out1;
#X obj 126 413 lop~ 700;
#X connect 0 0 3 0;
#X connect 0 0 4 0;
#X connect 1 0 4 0;
#X connect 3 0 1 0;
#X connect 4 0 5 0;
#X connect 5 0 6 0;
#X connect 6 0 2 0;
#X connect 7 0 0 0;
#X connect 8 0 0 1;
#X connect 9 0 12 0;
#X connect 10 0 12 0;
#X connect 12 0 11 0;
#X coords 0 -1 1 1 25 150 2 100 100;
#X restore 905 -104 pd delay;
#X obj 325 285 catch~ out1;
#X obj 819 75 throw~ out3;
#X obj 384 306 catch~ out3;
#X obj 663 75 throw~ out2;
#X obj 349 340 clip~ -1 1;
#X obj 412 357 bp~ 800 1;
#X obj 412 377 *~ -0.15;
#X obj 327 414 dac~;
#X connect 0 0 9 0;
#X connect 0 0 11 0;
#X connect 1 0 9 0;
#X connect 1 0 11 0;
#X connect 2 0 9 0;
#X connect 2 0 11 0;
#X connect 3 0 6 0;
#X connect 4 0 6 0;
#X connect 5 0 6 0;
#X connect 8 0 12 0;
#X connect 10 0 12 0;
#X connect 12 0 13 0;
#X connect 12 0 15 0;
#X connect 12 0 15 1;
#X connect 13 0 14 0;
#X connect 14 0 15 1;
#X connect 14 0 15 0;
