#N canvas 595 267 618 328 10;
#X obj 172 188 spigot;
#X obj 247 188 spigot;
#X obj 320 188 spigot;
#X obj 392 188 spigot;
#X obj 271 85 + 200;
#X obj 172 227 delay;
#X obj 247 227 delay;
#X obj 320 227 delay;
#X obj 392 227 delay;
#X obj 403 66 random 600;
#X obj 469 66 random 600;
#X obj 271 66 random 300;
#X obj 337 66 random 500;
#X obj 73 49 metro 500;
#X obj 337 85 + 400;
#X obj 403 85 + 200;
#X obj 469 85 + 100;
#X obj 205 169 >= 1;
#X obj 280 169 >= 2;
#X obj 353 169 >= 3;
#X obj 425 169 >= 4;
#X obj 205 66 random 4;
#X obj 172 246 outlet;
#X obj 247 246 outlet;
#X obj 320 246 outlet;
#X obj 392 246 outlet;
#X obj 73 120 +;
#X obj 73 101 random;
#X obj 73 30 inlet;
#X obj 143 30 inlet;
#X obj 193 30 inlet;
#X connect 0 0 5 0;
#X connect 1 0 6 0;
#X connect 2 0 7 0;
#X connect 3 0 8 0;
#X connect 4 0 5 1;
#X connect 5 0 22 0;
#X connect 6 0 23 0;
#X connect 7 0 24 0;
#X connect 8 0 25 0;
#X connect 9 0 15 0;
#X connect 10 0 16 0;
#X connect 11 0 4 0;
#X connect 12 0 14 0;
#X connect 13 0 11 0;
#X connect 13 0 12 0;
#X connect 13 0 9 0;
#X connect 13 0 10 0;
#X connect 13 0 0 0;
#X connect 13 0 1 0;
#X connect 13 0 2 0;
#X connect 13 0 3 0;
#X connect 13 0 21 0;
#X connect 13 0 27 0;
#X connect 14 0 6 1;
#X connect 15 0 7 1;
#X connect 16 0 8 1;
#X connect 17 0 0 1;
#X connect 18 0 1 1;
#X connect 19 0 2 1;
#X connect 20 0 3 1;
#X connect 21 0 17 0;
#X connect 21 0 18 0;
#X connect 21 0 19 0;
#X connect 21 0 20 0;
#X connect 26 0 13 1;
#X connect 27 0 26 0;
#X connect 28 0 13 0;
#X connect 29 0 27 1;
#X connect 30 0 26 1;
