#N canvas 0 50 681 312 10;
#X obj 200 172 exp~;
#X obj 208 197 -~;
#X obj 234 153 *~ -1;
#X obj 234 172 exp~;
#X obj 239 258 /~;
#X obj 280 172 exp~;
#X obj 314 153 *~ -1;
#X obj 314 172 exp~;
#X obj 288 197 +~;
#X obj 279 94 inlet~;
#X obj 239 277 outlet~;
#X connect 0 0 1 0;
#X connect 1 0 4 0;
#X connect 2 0 3 0;
#X connect 3 0 1 1;
#X connect 4 0 10 0;
#X connect 5 0 8 0;
#X connect 6 0 7 0;
#X connect 7 0 8 1;
#X connect 8 0 4 1;
#X connect 9 0 6 0;
#X connect 9 0 5 0;
#X connect 9 0 2 0;
#X connect 9 0 0 0;
