#N canvas 0 50 1362 691 10;
#X obj 4 163 bp~;
#X obj 336 37 / 10000;
#X floatatom 336 75 5 0 0 0 - - -, f 5;
#X obj 336 18 random 2000;
#X obj 336 56 + 0.8;
#X obj 11 70 line;
#X obj 11 127 line;
#X obj 71 -23 delay 150;
#X msg 11 -4 1000 100;
#X obj 5 333 *~;
#X obj 11 89 expr $f1 * $f2;
#X obj 5 352 lop~ 2000;
#X obj 136 -23 delay 600;
#X obj 100 277 line~;
#X msg 100 214 1 20;
#X obj 41 127 loadbang;
#X msg 41 146 0.419;
#X obj 3 -62 noise~;
#X obj 430 271 bp~;
#X obj 637 108 / 10000;
#X floatatom 637 146 5 0 0 0 - - -, f 5;
#X obj 637 89 random 2000;
#X obj 637 127 + 0.8;
#X obj 439 178 line;
#X obj 431 635 *~;
#X msg 499 104 600 500;
#X obj 568 85 delay 600;
#X obj 470 235 loadbang;
#X msg 470 254 0.419;
#X obj 499 85 delay 100;
#X msg 568 104 100 1500;
#X obj 431 368 *~ 5;
#X obj 431 387 clip~ -0.9 0.9;
#X obj 431 406 lop~ 1000;
#X msg 439 104 5000 50;
#X obj 428 -65 noise~;
#X obj 497 -65 noise~;
#X obj 497 11 lop~ 100;
#X obj 497 -27 lop~ 100;
#X obj 497 -46 lop~ 100;
#X obj 497 -8 lop~ 100;
#X obj 429 53 pow~;
#X obj 429 72 *~ 1;
#X obj 431 425 lop~ 1000;
#X obj 498 493 delay 300;
#X obj 430 328 *~;
#X obj 430 290 *~;
#X obj 430 347 *~;
#X obj 430 309 *~;
#X obj 457 274 osc~ 13;
#X obj 457 312 osc~ 10;
#X obj 457 331 osc~ 7;
#X obj 457 293 osc~ 17;
#X obj 567 493 delay 850;
#X obj 636 493 delay 1150;
#X obj 712 493 delay 2000;
#X obj 446 556 line~;
#X msg 446 493 0.9 50;
#X obj 535 389 line;
#X msg 535 326 1000 50;
#X obj 594 326 delay 2500;
#X msg 594 344 200 4000;
#X msg 712 512 0 3500;
#X msg 567 512 0.35 300;
#X msg 498 512 0.55 500;
#X msg 637 512 0.15 500;
#X obj 428 -46 lop~ 1000;
#X obj 428 -27 lop~ 1000;
#X obj 428 -8 lop~ 1000;
#X obj 428 11 lop~ 1000;
#X obj 11 108 pack 0 100;
#X obj 788 506 / 10000;
#X floatatom 788 544 5 0 0 0 - - -, f 5;
#X obj 788 487 random 2000;
#X obj 788 525 + 0.8;
#X obj 788 581 line;
#X obj 788 600 sig~;
#X obj 446 616 *~;
#X obj 788 562 pack 0 100;
#X obj 637 162 pack 0 100;
#X obj 637 181 line~;
#X obj 439 197 *~;
#X obj 927 566 *~;
#X obj 927 259 noise~;
#X obj 1017 259 noise~;
#X obj 927 316 lop~ 1500;
#X obj 927 278 lop~ 1500;
#X obj 1017 298 lop~ 100;
#X obj 927 335 lop~ 100;
#X obj 927 297 lop~ 1500;
#X obj 927 354 pow~;
#X obj 927 373 *~;
#X obj 927 392 *~ 1;
#X obj 1017 338 lop~ 1200;
#X obj 1017 318 lop~ 1200;
#X obj 1017 278 lop~ 1200;
#X obj 927 411 sqrt~;
#X obj 927 430 +~;
#X obj 927 487 lop~ 125;
#X obj 927 468 lop~ 125;
#X obj 927 449 lop~ 125;
#X obj 989 531 line~;
#X obj 1034 468 delay 700;
#X msg 1103 487 0.55 700;
#X msg 1034 487 0.75 700;
#X obj 1103 468 delay 1400;
#X obj 1179 468 delay 2100;
#X obj 1255 468 delay 3100;
#X obj 927 585 *~ 7;
#X obj 989 550 *~;
#X obj 1331 440 / 10000;
#X floatatom 1331 478 5 0 0 0 - - -, f 5;
#X obj 1331 421 random 2000;
#X obj 1331 459 + 0.8;
#X obj 1331 515 line;
#X obj 1331 534 sig~;
#X obj 1331 496 pack 0 100;
#X obj 927 604 lop~ 1000;
#X obj 927 623 lop~ 1000;
#X obj 927 642 lop~ 1000;
#X msg 1179 487 0.85 1000;
#X msg 989 468 1 200;
#X obj 136 214 delay 100;
#X obj 205 214 delay 2100;
#X obj 100 165 delay 120;
#X msg 136 233 0.5 2000;
#X msg 205 233 0.35 5000;
#X obj 281 214 delay 7500;
#X msg 136 -4 100 5500;
#X msg 71 -4 400 550;
#X msg 1255 487 0 10000;
#X obj 439 216 snapshot~;
#X obj 788 1 inlet;
#X obj 431 677 outlet~;
#X obj 100 -59 inlet;
#X obj 499 49 bang;
#X obj 535 267 bang;
#X obj 446 444 bang;
#X obj 989 420 bang;
#X msg 281 233 0 3500;
#X obj 431 654 *~ 0.17;
#X obj 5 371 *~ 0.04;
#X obj 927 661 *~ 0.075;
#X connect 0 0 9 0;
#X connect 1 0 4 0;
#X connect 2 0 10 1;
#X connect 3 0 1 0;
#X connect 4 0 2 0;
#X connect 5 0 10 0;
#X connect 6 0 0 1;
#X connect 7 0 129 0;
#X connect 8 0 5 0;
#X connect 9 0 11 0;
#X connect 10 0 70 0;
#X connect 11 0 141 0;
#X connect 12 0 128 0;
#X connect 13 0 9 1;
#X connect 14 0 13 0;
#X connect 15 0 16 0;
#X connect 16 0 0 2;
#X connect 17 0 0 0;
#X connect 18 0 46 0;
#X connect 19 0 22 0;
#X connect 20 0 79 0;
#X connect 21 0 19 0;
#X connect 22 0 20 0;
#X connect 23 0 81 0;
#X connect 24 0 140 0;
#X connect 25 0 23 0;
#X connect 26 0 30 0;
#X connect 27 0 28 0;
#X connect 28 0 18 2;
#X connect 29 0 25 0;
#X connect 30 0 23 0;
#X connect 31 0 32 0;
#X connect 32 0 33 0;
#X connect 33 0 43 0;
#X connect 34 0 23 0;
#X connect 35 0 66 0;
#X connect 36 0 39 0;
#X connect 37 0 41 1;
#X connect 38 0 40 0;
#X connect 39 0 38 0;
#X connect 40 0 37 0;
#X connect 41 0 42 0;
#X connect 42 0 18 0;
#X connect 43 0 24 0;
#X connect 44 0 64 0;
#X connect 45 0 47 0;
#X connect 46 0 48 0;
#X connect 47 0 31 0;
#X connect 48 0 45 0;
#X connect 49 0 46 1;
#X connect 50 0 45 1;
#X connect 51 0 47 1;
#X connect 52 0 48 1;
#X connect 53 0 63 0;
#X connect 54 0 65 0;
#X connect 55 0 62 0;
#X connect 56 0 77 0;
#X connect 57 0 56 0;
#X connect 58 0 33 1;
#X connect 58 0 43 1;
#X connect 59 0 58 0;
#X connect 60 0 61 0;
#X connect 61 0 58 0;
#X connect 62 0 56 0;
#X connect 63 0 56 0;
#X connect 64 0 56 0;
#X connect 65 0 56 0;
#X connect 66 0 67 0;
#X connect 67 0 68 0;
#X connect 68 0 69 0;
#X connect 69 0 41 0;
#X connect 70 0 6 0;
#X connect 71 0 74 0;
#X connect 72 0 78 0;
#X connect 73 0 71 0;
#X connect 74 0 72 0;
#X connect 75 0 76 0;
#X connect 76 0 77 1;
#X connect 77 0 24 1;
#X connect 78 0 75 0;
#X connect 79 0 80 0;
#X connect 80 0 81 1;
#X connect 81 0 131 0;
#X connect 82 0 108 0;
#X connect 83 0 86 0;
#X connect 84 0 95 0;
#X connect 85 0 88 0;
#X connect 86 0 89 0;
#X connect 87 0 94 0;
#X connect 88 0 90 0;
#X connect 89 0 85 0;
#X connect 90 0 91 0;
#X connect 91 0 92 0;
#X connect 92 0 96 0;
#X connect 93 0 90 1;
#X connect 93 0 97 1;
#X connect 93 0 91 1;
#X connect 94 0 93 0;
#X connect 95 0 87 0;
#X connect 96 0 97 0;
#X connect 97 0 100 0;
#X connect 98 0 82 0;
#X connect 99 0 98 0;
#X connect 100 0 99 0;
#X connect 101 0 109 0;
#X connect 102 0 104 0;
#X connect 103 0 101 0;
#X connect 104 0 101 0;
#X connect 105 0 103 0;
#X connect 106 0 120 0;
#X connect 107 0 130 0;
#X connect 108 0 117 0;
#X connect 109 0 82 1;
#X connect 110 0 113 0;
#X connect 111 0 116 0;
#X connect 112 0 110 0;
#X connect 113 0 111 0;
#X connect 114 0 115 0;
#X connect 115 0 109 1;
#X connect 116 0 114 0;
#X connect 117 0 118 0;
#X connect 118 0 119 0;
#X connect 119 0 142 0;
#X connect 120 0 101 0;
#X connect 121 0 101 0;
#X connect 122 0 125 0;
#X connect 123 0 126 0;
#X connect 124 0 14 0;
#X connect 124 0 122 0;
#X connect 124 0 123 0;
#X connect 124 0 127 0;
#X connect 125 0 13 0;
#X connect 126 0 13 0;
#X connect 127 0 139 0;
#X connect 128 0 5 0;
#X connect 129 0 5 0;
#X connect 130 0 101 0;
#X connect 131 0 18 1;
#X connect 132 0 21 0;
#X connect 132 0 3 0;
#X connect 132 0 73 0;
#X connect 132 0 131 0;
#X connect 132 0 112 0;
#X connect 134 0 8 0;
#X connect 134 0 7 0;
#X connect 134 0 12 0;
#X connect 134 0 124 0;
#X connect 134 0 136 0;
#X connect 134 0 138 0;
#X connect 134 0 137 0;
#X connect 135 0 34 0;
#X connect 135 0 26 0;
#X connect 135 0 29 0;
#X connect 136 0 59 0;
#X connect 136 0 60 0;
#X connect 137 0 57 0;
#X connect 137 0 44 0;
#X connect 137 0 53 0;
#X connect 137 0 54 0;
#X connect 137 0 55 0;
#X connect 138 0 121 0;
#X connect 138 0 102 0;
#X connect 138 0 105 0;
#X connect 138 0 106 0;
#X connect 138 0 107 0;
#X connect 139 0 13 0;
#X connect 140 0 133 0;
#X connect 141 0 133 0;
#X connect 142 0 133 0;
