#N canvas -8 -8 1366 685 10;
#X obj 313 236 line;
#X obj 313 256 line;
#X obj 313 276 line;
#X obj 313 296 line;
#X obj 313 316 line;
#X obj 313 336 line;
#X obj 313 356 line;
#X obj 313 376 line;
#X obj 313 396 line;
#X obj 313 416 line;
#X obj 313 436 line;
#X obj 387 453 *;
#X obj 387 433 *;
#X obj 387 413 *;
#X obj 387 393 *;
#X obj 387 373 *;
#X obj 387 353 *;
#X obj 387 333 *;
#X obj 387 313 *;
#X obj 387 293 *;
#X obj 387 273 *;
#X obj 387 253 *;
#X obj 178 182 delay 1712;
#X obj 245 144 random 2000;
#X obj 689 601 *~;
#X msg 386 219 0 2500;
#X msg 222 219 0.003 2000;
#X msg 222 239 0.1 2000;
#X msg 222 259 0.01 2000;
#X msg 222 279 0.4 2000;
#X msg 222 299 0.4 2000;
#X msg 222 319 0.0188 2000;
#X msg 222 339 0.0164 2000;
#X msg 222 359 0.001 2000;
#X msg 222 379 0.1277 2000;
#X msg 222 399 0.1417 2000;
#X msg 222 419 0.2913 2000;
#X obj 386 199 delay 2000;
#X obj 744 618 hip~ 2000;
#X msg 114 219 0.033 2000;
#X msg 114 239 1 2000;
#X msg 114 259 0.1 2000;
#X msg 114 279 4 2000;
#X msg 114 299 4 2000;
#X msg 114 319 0.188 2000;
#X msg 114 339 0.164 2000;
#X msg 114 359 0.005 2000;
#X msg 114 379 1.277 2000;
#X msg 114 399 1.417 2000;
#X msg 114 419 2.913 2000;
#X obj 245 163 + 800;
#X obj 444 236 inlet;
#X obj 485 236 inlet;
#X obj 526 236 inlet;
#X obj 567 236 inlet;
#X obj 608 236 inlet;
#X obj 649 236 inlet;
#X obj 41 165 inlet;
#X obj 688 666 outlet~;
#X obj 689 582 hip~ 500;
#X obj 689 563 lop~ 6000;
#X obj 689 544 lop~ 6000;
#X obj 689 525 lop~ 6000;
#X obj 689 487 lop~ 4000;
#X obj 689 506 lop~ 4000;
#N canvas 0 50 902 693 wavehigh 0;
#X obj 560 82 noise~;
#X obj 575 117 noise~;
#X obj 560 155 *~;
#X obj 575 136 *~ 0.41;
#X obj 559 174 hip~ 8000;
#X obj 559 193 hip~ 8000;
#X obj 559 211 hip~ 8000;
#X obj 628 197 noise~;
#X obj 558 232 *~;
#X obj 628 216 *~ 0.41;
#X obj 683 217 noise~;
#X obj 557 252 *~;
#X obj 683 236 *~ 0.41;
#X obj 558 272 cos~;
#X obj 604 98 delwrite~ noise1 100;
#X obj 539 6 delread~ noise1 10;
#X obj 407 6 delread~ noise1 20;
#X obj 275 6 delread~ noise1 30;
#X obj 143 6 delread~ noise1 40;
#X obj 11 6 delread~ noise1 50;
#X obj 555 589 outlet~;
#X obj 558 328 hip~ 4000;
#X obj 558 310 hip~ 4000;
#X obj 558 291 hip~ 4000;
#X obj 558 348 lop~ 7000;
#X obj 557 444 bp~ 7300 25;
#X obj 558 368 lop~ 7000;
#X obj 558 388 lop~ 7000;
#X obj 557 473 clip~ 0.2 1;
#X obj 557 493 bp~ 7300 35;
#X obj 556 543 *~;
#X obj 677 527 inlet~;
#X connect 0 0 2 0;
#X connect 0 0 14 0;
#X connect 1 0 3 0;
#X connect 2 0 4 0;
#X connect 3 0 2 1;
#X connect 4 0 5 0;
#X connect 5 0 6 0;
#X connect 6 0 8 0;
#X connect 7 0 9 0;
#X connect 8 0 11 0;
#X connect 9 0 8 1;
#X connect 10 0 12 0;
#X connect 11 0 13 0;
#X connect 12 0 11 1;
#X connect 13 0 23 0;
#X connect 15 0 2 0;
#X connect 16 0 2 0;
#X connect 17 0 2 0;
#X connect 18 0 2 0;
#X connect 19 0 2 0;
#X connect 21 0 24 0;
#X connect 22 0 21 0;
#X connect 23 0 22 0;
#X connect 24 0 26 0;
#X connect 25 0 28 0;
#X connect 26 0 27 0;
#X connect 27 0 25 0;
#X connect 28 0 29 0;
#X connect 29 0 30 0;
#X connect 30 0 20 0;
#X connect 31 0 30 1;
#X restore 689 270 pd wavehigh;
#N canvas 0 50 1920 997 wavehigh2 0;
#X obj 942 180 noise~;
#X obj 961 215 noise~;
#X obj 942 253 *~;
#X obj 961 234 *~ 0.41;
#X obj 942 272 hip~ 8000;
#X obj 942 291 hip~ 8000;
#X obj 942 310 hip~ 8000;
#X obj 1011 294 noise~;
#X obj 942 329 *~;
#X obj 1011 313 *~ 0.41;
#X obj 1065 313 noise~;
#X obj 942 348 *~;
#X obj 1065 332 *~ 0.41;
#X obj 942 367 cos~;
#X obj 942 519 bp~ 9300 15;
#X obj 942 557 outlet~;
#X obj 851 104 delread~ noise2 10;
#X obj 717 104 delread~ noise2 20;
#X obj 583 104 delread~ noise2 30;
#X obj 449 104 delread~ noise2 40;
#X obj 315 104 delread~ noise2 50;
#X obj 991 196 delwrite~ noise2 100;
#X obj 942 386 hip~ 1000;
#X obj 942 405 hip~ 1000;
#X obj 942 424 hip~ 1000;
#X obj 942 443 lop~ 1000;
#X obj 942 462 lop~ 1000;
#X obj 942 481 lop~ 1000;
#X obj 942 500 clip~ 0 0.05;
#X obj 942 538 *~;
#X obj 1025 521 inlet;
#X connect 0 0 2 0;
#X connect 0 0 21 0;
#X connect 1 0 3 0;
#X connect 2 0 4 0;
#X connect 3 0 2 1;
#X connect 4 0 5 0;
#X connect 5 0 6 0;
#X connect 6 0 8 0;
#X connect 7 0 9 0;
#X connect 8 0 11 0;
#X connect 9 0 8 1;
#X connect 10 0 12 0;
#X connect 11 0 13 0;
#X connect 12 0 11 1;
#X connect 13 0 22 0;
#X connect 14 0 29 0;
#X connect 16 0 2 0;
#X connect 17 0 2 0;
#X connect 18 0 2 0;
#X connect 19 0 2 0;
#X connect 20 0 2 0;
#X connect 22 0 23 0;
#X connect 23 0 24 0;
#X connect 24 0 25 0;
#X connect 25 0 26 0;
#X connect 26 0 27 0;
#X connect 27 0 28 0;
#X connect 28 0 14 0;
#X connect 29 0 15 0;
#X connect 30 0 29 1;
#X restore 699 290 pd wavehigh2;
#N canvas 0 50 1920 997 wavehigh3 0;
#X obj 766 170 noise~;
#X obj 781 205 noise~;
#X obj 766 243 *~;
#X obj 781 224 *~ 0.41;
#X obj 765 262 hip~ 8000;
#X obj 765 281 hip~ 8000;
#X obj 765 299 hip~ 8000;
#X obj 835 285 noise~;
#X obj 764 320 *~;
#X obj 835 304 *~ 0.41;
#X obj 893 305 noise~;
#X obj 763 340 *~;
#X obj 893 324 *~ 0.41;
#X obj 764 360 cos~;
#X obj 764 477 lop~ 4000;
#X obj 763 533 bp~ 9300 15;
#X obj 763 582 bp~ 9300 15;
#X obj 762 669 outlet~;
#X obj 559 95 delread~ noise3 20;
#X obj 810 186 delwrite~ noise3 100;
#X obj 673 95 delread~ noise3 10;
#X obj 445 95 delread~ noise3 30;
#X obj 331 95 delread~ noise3 40;
#X obj 217 94 delread~ noise3 50;
#X obj 764 437 lop~ 4000;
#X obj 764 457 lop~ 4000;
#X obj 764 417 hip~ 4000;
#X obj 764 398 hip~ 4000;
#X obj 764 379 hip~ 4000;
#X obj 763 562 clip~ 0.1 1;
#X obj 763 623 *~;
#X obj 812 607 inlet~;
#X connect 0 0 2 0;
#X connect 0 0 19 0;
#X connect 1 0 3 0;
#X connect 2 0 4 0;
#X connect 3 0 2 1;
#X connect 4 0 5 0;
#X connect 5 0 6 0;
#X connect 6 0 8 0;
#X connect 7 0 9 0;
#X connect 8 0 11 0;
#X connect 9 0 8 1;
#X connect 10 0 12 0;
#X connect 11 0 13 0;
#X connect 12 0 11 1;
#X connect 13 0 28 0;
#X connect 14 0 15 0;
#X connect 15 0 29 0;
#X connect 16 0 30 0;
#X connect 18 0 2 0;
#X connect 20 0 2 0;
#X connect 21 0 2 0;
#X connect 22 0 2 0;
#X connect 23 0 2 0;
#X connect 24 0 25 0;
#X connect 25 0 14 0;
#X connect 26 0 24 0;
#X connect 27 0 26 0;
#X connect 28 0 27 0;
#X connect 29 0 16 0;
#X connect 30 0 17 0;
#X connect 31 0 30 1;
#X restore 709 310 pd wavehigh3;
#N canvas 0 50 1920 997 wavehigh4 0;
#X obj 873 185 noise~;
#X obj 891 220 noise~;
#X obj 873 258 *~;
#X obj 891 239 *~ 0.41;
#X obj 873 277 hip~ 8000;
#X obj 873 296 hip~ 8000;
#X obj 873 315 hip~ 8000;
#X obj 942 299 noise~;
#X obj 873 334 *~;
#X obj 942 318 *~ 0.41;
#X obj 997 318 noise~;
#X obj 873 353 *~;
#X obj 997 337 *~ 0.41;
#X obj 873 372 cos~;
#X obj 873 486 lop~ 4000;
#X obj 872 844 outlet~;
#X obj 650 105 delread~ noise3 20;
#X obj 917 201 delwrite~ noise3 100;
#X obj 782 105 delread~ noise3 10;
#X obj 518 105 delread~ noise3 30;
#X obj 386 105 delread~ noise3 40;
#X obj 254 105 delread~ noise3 50;
#X obj 873 448 lop~ 4000;
#X obj 873 467 lop~ 4000;
#X obj 872 825 *~;
#X obj 873 391 hip~ 500;
#X obj 873 410 hip~ 500;
#X obj 873 429 hip~ 500;
#X obj 873 524 clip~ 0.05 0.15;
#X obj 873 657 hip~ 1000;
#X obj 873 638 hip~ 1000;
#X obj 873 619 hip~ 1000;
#X obj 873 505 bp~ 4300 15;
#X obj 873 600 lop~ 2000;
#X obj 873 581 lop~ 2000;
#X obj 873 562 lop~ 2000;
#X obj 873 543 bp~ 3500 5;
#X obj 872 787 -~;
#X obj 873 676 lop~ 1000;
#X obj 943 771 hip~ 4000;
#X obj 943 752 hip~ 4000;
#X obj 942 732 hip~ 4000;
#X obj 942 713 hip~ 4000;
#X obj 942 693 hip~ 4000;
#X obj 941 673 hip~ 4000;
#X obj 872 806 bp~ 3000 10;
#X obj 955 808 inlet;
#X connect 0 0 2 0;
#X connect 0 0 17 0;
#X connect 1 0 3 0;
#X connect 2 0 4 0;
#X connect 3 0 2 1;
#X connect 4 0 5 0;
#X connect 5 0 6 0;
#X connect 6 0 8 0;
#X connect 7 0 9 0;
#X connect 8 0 11 0;
#X connect 9 0 8 1;
#X connect 10 0 12 0;
#X connect 11 0 13 0;
#X connect 12 0 11 1;
#X connect 13 0 25 0;
#X connect 14 0 32 0;
#X connect 16 0 2 0;
#X connect 18 0 2 0;
#X connect 19 0 2 0;
#X connect 20 0 2 0;
#X connect 21 0 2 0;
#X connect 22 0 23 0;
#X connect 23 0 14 0;
#X connect 24 0 15 0;
#X connect 25 0 26 0;
#X connect 26 0 27 0;
#X connect 27 0 22 0;
#X connect 28 0 36 0;
#X connect 29 0 38 0;
#X connect 29 0 44 0;
#X connect 30 0 29 0;
#X connect 31 0 30 0;
#X connect 32 0 28 0;
#X connect 33 0 31 0;
#X connect 34 0 33 0;
#X connect 35 0 34 0;
#X connect 36 0 35 0;
#X connect 37 0 45 0;
#X connect 38 0 37 0;
#X connect 39 0 37 1;
#X connect 40 0 39 0;
#X connect 41 0 40 0;
#X connect 42 0 41 0;
#X connect 43 0 42 0;
#X connect 44 0 43 0;
#X connect 45 0 24 0;
#X connect 46 0 24 1;
#X restore 719 330 pd wavehigh4;
#N canvas 0 50 1920 997 wavemid1 0;
#X obj 464 463 osc~;
#X obj 554 463 osc~;
#X obj 651 463 osc~;
#X obj 464 501 *~ 0.1;
#X obj 554 501 *~ 0.05;
#X obj 651 501 *~ 0.025;
#X obj 553 576 *~ 0.5;
#X obj 632 541 noise~;
#X obj 553 595 *~;
#X obj 632 579 +~ 1;
#X obj 632 560 /~ 15;
#X obj 423 687 outlet~;
#X obj 423 668 *~;
#X obj 464 444 / 100;
#X obj 554 444 / 100;
#X obj 651 444 / 100;
#X obj 651 425 random 150000;
#X obj 554 425 random 100000;
#X obj 464 425 random 70000;
#X obj 553 614 lop~ 1000;
#X obj 423 630 hip~ 3000;
#X obj 423 649 bp~ 1000 12;
#X obj 554 374 inlet;
#X obj 506 652 inlet~;
#X obj 464 482 Tanh;
#X obj 554 482 Tanh;
#X obj 651 482 Tanh;
#X connect 0 0 24 0;
#X connect 1 0 25 0;
#X connect 2 0 26 0;
#X connect 3 0 6 0;
#X connect 4 0 6 0;
#X connect 5 0 6 0;
#X connect 6 0 8 0;
#X connect 7 0 10 0;
#X connect 8 0 19 0;
#X connect 9 0 8 1;
#X connect 10 0 9 0;
#X connect 12 0 11 0;
#X connect 13 0 0 0;
#X connect 14 0 1 0;
#X connect 15 0 2 0;
#X connect 16 0 15 0;
#X connect 17 0 14 0;
#X connect 18 0 13 0;
#X connect 19 0 20 0;
#X connect 20 0 21 0;
#X connect 21 0 12 0;
#X connect 22 0 16 0;
#X connect 22 0 17 0;
#X connect 22 0 18 0;
#X connect 23 0 12 1;
#X connect 24 0 3 0;
#X connect 25 0 4 0;
#X connect 26 0 5 0;
#X restore 729 350 pd wavemid1;
#N canvas 0 50 1920 997 wavemid2 0;
#X obj 347 303 osc~;
#X obj 437 303 osc~;
#X obj 527 303 osc~;
#X obj 347 341 *~ 0.1;
#X obj 437 341 *~ 0.05;
#X obj 437 448 *~ 0.5;
#X obj 516 413 noise~;
#X obj 437 467 *~;
#X obj 516 451 +~ 1;
#X obj 516 432 /~ 15;
#X obj 287 559 outlet~;
#X obj 287 540 *~;
#X obj 347 284 / 100;
#X obj 437 284 / 100;
#X obj 527 284 / 100;
#X obj 437 486 lop~ 1000;
#X obj 287 502 hip~ 400;
#X obj 527 341 *~ 0.055;
#X obj 347 265 random 30000;
#X obj 437 265 random 50000;
#X obj 527 265 random 70000;
#X obj 287 521 bp~ 700 8;
#X obj 437 208 inlet;
#X obj 356 524 inlet~;
#X obj 347 322 Tanh;
#X obj 437 322 Tanh;
#X obj 527 322 Tanh;
#X connect 0 0 24 0;
#X connect 1 0 25 0;
#X connect 2 0 26 0;
#X connect 3 0 5 0;
#X connect 4 0 5 0;
#X connect 5 0 7 0;
#X connect 6 0 9 0;
#X connect 7 0 15 0;
#X connect 8 0 7 1;
#X connect 9 0 8 0;
#X connect 11 0 10 0;
#X connect 12 0 0 0;
#X connect 13 0 1 0;
#X connect 14 0 2 0;
#X connect 15 0 16 0;
#X connect 16 0 21 0;
#X connect 17 0 5 0;
#X connect 18 0 12 0;
#X connect 19 0 13 0;
#X connect 20 0 14 0;
#X connect 21 0 11 0;
#X connect 22 0 19 0;
#X connect 22 0 20 0;
#X connect 22 0 18 0;
#X connect 23 0 11 1;
#X connect 24 0 3 0;
#X connect 25 0 4 0;
#X connect 26 0 17 0;
#X restore 739 370 pd wavemid2;
#N canvas 0 50 1920 997 wavemid3 0;
#X obj 347 303 osc~;
#X obj 437 303 osc~;
#X obj 527 303 osc~;
#X obj 347 341 *~ 0.1;
#X obj 437 341 *~ 0.05;
#X obj 437 448 *~ 0.5;
#X obj 516 413 noise~;
#X obj 437 467 *~;
#X obj 516 451 +~ 1;
#X obj 516 432 /~ 15;
#X obj 272 559 outlet~;
#X obj 272 540 *~;
#X obj 347 284 / 100;
#X obj 437 284 / 100;
#X obj 527 284 / 100;
#X obj 437 486 lop~ 1000;
#X obj 272 502 hip~ 400;
#X obj 527 341 *~ 0.055;
#X obj 347 265 random 10000;
#X obj 437 265 random 30000;
#X obj 527 265 random 50000;
#X obj 272 521 bp~ 300 7;
#X obj 437 205 inlet;
#X obj 341 524 inlet~;
#X obj 347 322 Tanh;
#X obj 437 322 Tanh;
#X obj 527 322 Tanh;
#X connect 0 0 24 0;
#X connect 1 0 25 0;
#X connect 2 0 26 0;
#X connect 3 0 5 0;
#X connect 4 0 5 0;
#X connect 5 0 7 0;
#X connect 6 0 9 0;
#X connect 7 0 15 0;
#X connect 8 0 7 1;
#X connect 9 0 8 0;
#X connect 11 0 10 0;
#X connect 12 0 0 0;
#X connect 13 0 1 0;
#X connect 14 0 2 0;
#X connect 15 0 16 0;
#X connect 16 0 21 0;
#X connect 17 0 5 0;
#X connect 18 0 12 0;
#X connect 19 0 13 0;
#X connect 20 0 14 0;
#X connect 21 0 11 0;
#X connect 22 0 19 0;
#X connect 22 0 18 0;
#X connect 22 0 20 0;
#X connect 23 0 11 1;
#X connect 24 0 3 0;
#X connect 25 0 4 0;
#X connect 26 0 17 0;
#X restore 749 390 pd wavemid3;
#N canvas 0 50 874 487 noise1 0;
#X obj 501 165 noise~;
#X obj 516 200 noise~;
#X obj 501 238 *~;
#X obj 516 219 *~ 0.41;
#X obj 569 278 noise~;
#X obj 500 313 *~;
#X obj 569 297 *~ 0.41;
#X obj 500 332 *~;
#X obj 371 90 delread~ n 20;
#X obj 468 90 delread~ n 10;
#X obj 274 90 delread~ n 30;
#X obj 177 90 delread~ n 40;
#X obj 80 90 delread~ n 50;
#X obj 545 181 delwrite~ n 100;
#X obj 500 276 hip~ 1000;
#X obj 500 257 hip~ 1000;
#X obj 500 294 hip~ 1000;
#X obj 625 315 inlet;
#X obj 500 351 outlet~;
#X connect 0 0 2 0;
#X connect 0 0 13 0;
#X connect 1 0 3 0;
#X connect 2 0 15 0;
#X connect 3 0 2 1;
#X connect 4 0 6 0;
#X connect 5 0 7 0;
#X connect 6 0 5 1;
#X connect 7 0 18 0;
#X connect 8 0 2 0;
#X connect 9 0 2 0;
#X connect 10 0 2 0;
#X connect 11 0 2 0;
#X connect 12 0 2 0;
#X connect 14 0 16 0;
#X connect 15 0 14 0;
#X connect 16 0 5 0;
#X connect 17 0 7 1;
#X restore 759 410 pd noise1;
#N canvas 0 50 912 518 noise2 0;
#X obj 466 93 noise~;
#X obj 484 128 noise~;
#X obj 466 166 *~;
#X obj 484 147 *~ 0.41;
#X obj 536 207 noise~;
#X obj 466 242 *~;
#X obj 536 226 *~ 0.41;
#X obj 591 226 noise~;
#X obj 466 261 *~;
#X obj 591 245 *~ 0.41;
#X obj 466 280 *~;
#X obj 373 18 delread~ n2 10;
#X obj 259 18 delread~ n2 20;
#X obj 145 18 delread~ n2 30;
#X obj 31 18 delread~ n2 40;
#X obj -82 17 delread~ n2 50;
#X obj 510 109 delwrite~ n2 100;
#X obj 466 223 hip~ 4000;
#X obj 466 204 hip~ 4000;
#X obj 466 185 hip~ 4000;
#X obj 466 299 lop~ 1550;
#X obj 466 318 lop~ 1550;
#X obj 466 337 lop~ 1550;
#X obj 466 356 lop~ 1550;
#X obj 651 263 inlet;
#X obj 466 375 outlet~;
#X connect 0 0 2 0;
#X connect 0 0 16 0;
#X connect 1 0 3 0;
#X connect 2 0 19 0;
#X connect 3 0 2 1;
#X connect 4 0 6 0;
#X connect 5 0 8 0;
#X connect 6 0 5 1;
#X connect 7 0 9 0;
#X connect 8 0 10 0;
#X connect 9 0 8 1;
#X connect 10 0 20 0;
#X connect 11 0 2 0;
#X connect 12 0 2 0;
#X connect 13 0 2 0;
#X connect 14 0 2 0;
#X connect 15 0 2 0;
#X connect 17 0 5 0;
#X connect 18 0 17 0;
#X connect 19 0 18 0;
#X connect 20 0 21 0;
#X connect 21 0 22 0;
#X connect 22 0 23 0;
#X connect 23 0 25 0;
#X connect 24 0 10 1;
#X restore 769 430 pd noise2;
#N canvas 0 50 1071 598 noise3 0;
#X obj 602 105 noise~;
#X obj 620 140 noise~;
#X obj 602 178 *~;
#X obj 620 159 *~ 0.41;
#X obj 671 219 noise~;
#X obj 602 254 *~;
#X obj 671 238 *~ 0.41;
#X obj 726 238 noise~;
#X obj 602 273 *~;
#X obj 726 257 *~ 0.41;
#X obj 602 292 cos~;
#X obj 602 311 *~;
#X obj 649 121 delwrite~ n2 100;
#X obj 602 235 hip~ 2000;
#X obj 602 216 hip~ 2000;
#X obj 602 197 hip~ 2000;
#X obj 146 30 delread~ n3 50;
#X obj 250 30 delread~ n3 40;
#X obj 354 30 delread~ n3 30;
#X obj 458 30 delread~ n3 20;
#X obj 562 30 delread~ n3 10;
#X obj 602 330 hip~ 250;
#X obj 602 349 hip~ 250;
#X obj 602 368 hip~ 250;
#X obj 602 387 hip~ 250;
#X obj 602 406 lop~ 800;
#X obj 602 444 lop~ 800;
#X obj 602 463 lop~ 800;
#X obj 602 425 lop~ 800;
#X obj 636 294 inlet;
#X obj 602 482 outlet~;
#X connect 0 0 2 0;
#X connect 0 0 12 0;
#X connect 1 0 3 0;
#X connect 2 0 15 0;
#X connect 3 0 2 1;
#X connect 4 0 6 0;
#X connect 5 0 8 0;
#X connect 6 0 5 1;
#X connect 7 0 9 0;
#X connect 8 0 10 0;
#X connect 9 0 8 1;
#X connect 10 0 11 0;
#X connect 11 0 21 0;
#X connect 13 0 5 0;
#X connect 14 0 13 0;
#X connect 15 0 14 0;
#X connect 16 0 2 0;
#X connect 17 0 2 0;
#X connect 18 0 2 0;
#X connect 19 0 2 0;
#X connect 20 0 2 0;
#X connect 21 0 22 0;
#X connect 22 0 23 0;
#X connect 23 0 24 0;
#X connect 24 0 25 0;
#X connect 25 0 28 0;
#X connect 26 0 27 0;
#X connect 27 0 30 0;
#X connect 28 0 26 0;
#X connect 29 0 11 1;
#X restore 778 450 pd noise3;
#X obj 245 125 inlet;
#X obj 823 333 inlet;
#X obj 910 584 inlet;
#N canvas 0 50 1366 685 farnflow 0;
#X obj 683 459 inlet~;
#X obj 294 381 *~ 0.2;
#X obj 575 381 *~ 0.5;
#X obj 861 381 *~ 0.8;
#X obj 607 -254 loadbang;
#X msg 893 -199 6;
#X msg 941 -199 600;
#X msg 326 -197 7;
#X msg 374 -197 700;
#X msg 607 -198 5;
#X msg 656 -198 500;
#X obj 576 475 *~;
#X obj 576 570 outlet~;
#X obj 576 494 lop~ 2500;
#X obj 576 513 lop~ 2500;
#X obj 576 532 lop~ 2500;
#X obj 576 551 lop~ 2500;
#X obj 861 275 osc~;
#X obj 861 218 line~;
#X obj 861 336 *~;
#X obj 917 320 *~;
#X obj 917 295 *~ 0.9;
#X obj 917 275 lop~ 10;
#X obj 917 255 clip~ 0 1;
#X obj 861 197 pack 1 2.689;
#X obj 861 157 * 1600;
#X obj 917 234 fexpr~ $x1 - $x1[-1];
#X obj 861 362 *~ 0.3;
#X obj 861 24 random 8192;
#X obj 861 81 * 9;
#X obj 861 62 / 4096;
#X obj 959 41 > 4096;
#X obj 959 79 sel 0 1;
#X msg 959 102 -1;
#X msg 991 102 1;
#X obj 861 119 *;
#X obj 861 138 / 23000;
#X obj 861 43 mod 4096;
#X obj 861 100 exp;
#X obj 861 5 metro;
#X obj 575 275 osc~;
#X obj 575 218 line~;
#X obj 575 336 *~;
#X obj 631 320 *~;
#X obj 631 295 *~ 0.9;
#X obj 631 275 lop~ 10;
#X obj 631 255 clip~ 0 1;
#X obj 575 197 pack 1 2.689;
#X obj 575 157 * 1600;
#X obj 631 234 fexpr~ $x1 - $x1[-1];
#X obj 575 362 *~ 0.3;
#X obj 575 24 random 8192;
#X obj 575 81 * 9;
#X obj 575 62 / 4096;
#X obj 673 41 > 4096;
#X obj 673 79 sel 0 1;
#X msg 673 102 -1;
#X msg 705 102 1;
#X obj 575 119 *;
#X obj 575 138 / 23000;
#X obj 575 43 mod 4096;
#X obj 575 100 exp;
#X obj 575 5 metro;
#X obj 861 177 +;
#X obj 575 177 +;
#X obj 294 275 osc~;
#X obj 294 218 line~;
#X obj 294 336 *~;
#X obj 350 320 *~;
#X obj 350 295 *~ 0.9;
#X obj 350 275 lop~ 10;
#X obj 350 255 clip~ 0 1;
#X obj 294 197 pack 1 2.689;
#X obj 294 157 * 1600;
#X obj 350 234 fexpr~ $x1 - $x1[-1];
#X obj 294 362 *~ 0.3;
#X obj 294 24 random 8192;
#X obj 294 81 * 9;
#X obj 294 62 / 4096;
#X obj 392 41 > 4096;
#X obj 392 79 sel 0 1;
#X msg 392 102 -1;
#X msg 424 102 1;
#X obj 294 119 *;
#X obj 294 138 / 23000;
#X obj 294 43 mod 4096;
#X obj 294 100 exp;
#X obj 294 5 metro;
#X obj 294 177 +;
#X connect 0 0 11 1;
#X connect 1 0 11 0;
#X connect 2 0 11 0;
#X connect 3 0 11 0;
#X connect 4 0 9 0;
#X connect 4 0 10 0;
#X connect 4 0 5 0;
#X connect 4 0 6 0;
#X connect 4 0 8 0;
#X connect 4 0 7 0;
#X connect 4 0 62 0;
#X connect 4 0 39 0;
#X connect 4 0 87 0;
#X connect 5 0 39 1;
#X connect 6 0 63 1;
#X connect 7 0 87 1;
#X connect 8 0 88 1;
#X connect 9 0 62 1;
#X connect 10 0 64 1;
#X connect 11 0 13 0;
#X connect 13 0 14 0;
#X connect 14 0 15 0;
#X connect 15 0 16 0;
#X connect 16 0 12 0;
#X connect 17 0 19 0;
#X connect 18 0 17 0;
#X connect 18 0 26 0;
#X connect 19 0 27 0;
#X connect 20 0 19 1;
#X connect 21 0 20 0;
#X connect 21 0 20 1;
#X connect 22 0 21 0;
#X connect 23 0 22 0;
#X connect 24 0 18 0;
#X connect 25 0 63 0;
#X connect 26 0 23 0;
#X connect 27 0 3 0;
#X connect 28 0 31 0;
#X connect 28 0 37 0;
#X connect 29 0 38 0;
#X connect 30 0 29 0;
#X connect 31 0 32 0;
#X connect 32 0 33 0;
#X connect 32 1 34 0;
#X connect 33 0 35 1;
#X connect 34 0 35 1;
#X connect 35 0 36 0;
#X connect 36 0 25 0;
#X connect 37 0 30 0;
#X connect 38 0 35 0;
#X connect 39 0 28 0;
#X connect 40 0 42 0;
#X connect 41 0 40 0;
#X connect 41 0 49 0;
#X connect 42 0 50 0;
#X connect 43 0 42 1;
#X connect 44 0 43 0;
#X connect 44 0 43 1;
#X connect 45 0 44 0;
#X connect 46 0 45 0;
#X connect 47 0 41 0;
#X connect 48 0 64 0;
#X connect 49 0 46 0;
#X connect 50 0 2 0;
#X connect 51 0 54 0;
#X connect 51 0 60 0;
#X connect 52 0 61 0;
#X connect 53 0 52 0;
#X connect 54 0 55 0;
#X connect 55 0 56 0;
#X connect 55 1 57 0;
#X connect 56 0 58 1;
#X connect 57 0 58 1;
#X connect 58 0 59 0;
#X connect 59 0 48 0;
#X connect 60 0 53 0;
#X connect 61 0 58 0;
#X connect 62 0 51 0;
#X connect 63 0 24 0;
#X connect 64 0 47 0;
#X connect 65 0 67 0;
#X connect 66 0 65 0;
#X connect 66 0 74 0;
#X connect 67 0 75 0;
#X connect 68 0 67 1;
#X connect 69 0 68 0;
#X connect 69 0 68 1;
#X connect 70 0 69 0;
#X connect 71 0 70 0;
#X connect 72 0 66 0;
#X connect 73 0 88 0;
#X connect 74 0 71 0;
#X connect 75 0 1 0;
#X connect 76 0 79 0;
#X connect 76 0 85 0;
#X connect 77 0 86 0;
#X connect 78 0 77 0;
#X connect 79 0 80 0;
#X connect 80 0 81 0;
#X connect 80 1 82 0;
#X connect 81 0 83 1;
#X connect 82 0 83 1;
#X connect 83 0 84 0;
#X connect 84 0 73 0;
#X connect 85 0 78 0;
#X connect 86 0 83 0;
#X connect 87 0 76 0;
#X connect 88 0 72 0;
#X restore 788 470 pd farnflow;
#X obj 744 637 *~ 5;
#X connect 0 0 21 0;
#X connect 1 0 20 0;
#X connect 2 0 19 0;
#X connect 3 0 18 0;
#X connect 4 0 17 0;
#X connect 5 0 16 0;
#X connect 6 0 15 0;
#X connect 7 0 14 0;
#X connect 8 0 13 0;
#X connect 9 0 12 0;
#X connect 10 0 11 0;
#X connect 11 0 78 0;
#X connect 12 0 74 0;
#X connect 13 0 73 0;
#X connect 14 0 72 0;
#X connect 15 0 71 0;
#X connect 16 0 70 0;
#X connect 17 0 69 0;
#X connect 18 0 68 0;
#X connect 19 0 67 0;
#X connect 20 0 66 0;
#X connect 21 0 65 0;
#X connect 22 0 26 0;
#X connect 22 0 27 0;
#X connect 22 0 28 0;
#X connect 22 0 29 0;
#X connect 22 0 30 0;
#X connect 22 0 31 0;
#X connect 22 0 32 0;
#X connect 22 0 33 0;
#X connect 22 0 34 0;
#X connect 22 0 35 0;
#X connect 22 0 36 0;
#X connect 22 0 37 0;
#X connect 23 0 50 0;
#X connect 24 0 38 0;
#X connect 24 0 58 0;
#X connect 25 0 0 0;
#X connect 25 0 1 0;
#X connect 25 0 2 0;
#X connect 25 0 3 0;
#X connect 25 0 4 0;
#X connect 25 0 5 0;
#X connect 25 0 6 0;
#X connect 25 0 7 0;
#X connect 25 0 8 0;
#X connect 25 0 9 0;
#X connect 25 0 10 0;
#X connect 26 0 0 0;
#X connect 27 0 1 0;
#X connect 28 0 2 0;
#X connect 29 0 3 0;
#X connect 30 0 4 0;
#X connect 31 0 5 0;
#X connect 32 0 6 0;
#X connect 33 0 7 0;
#X connect 34 0 8 0;
#X connect 35 0 9 0;
#X connect 36 0 10 0;
#X connect 37 0 25 0;
#X connect 38 0 79 0;
#X connect 39 0 0 0;
#X connect 40 0 1 0;
#X connect 41 0 2 0;
#X connect 42 0 3 0;
#X connect 43 0 4 0;
#X connect 44 0 5 0;
#X connect 45 0 6 0;
#X connect 46 0 7 0;
#X connect 47 0 8 0;
#X connect 48 0 9 0;
#X connect 49 0 10 0;
#X connect 50 0 22 1;
#X connect 51 0 21 1;
#X connect 51 0 14 1;
#X connect 52 0 19 1;
#X connect 52 0 16 1;
#X connect 53 0 12 1;
#X connect 53 0 18 1;
#X connect 54 0 20 1;
#X connect 54 0 11 1;
#X connect 55 0 14 1;
#X connect 55 0 17 1;
#X connect 56 0 13 1;
#X connect 56 0 15 1;
#X connect 57 0 39 0;
#X connect 57 0 40 0;
#X connect 57 0 41 0;
#X connect 57 0 42 0;
#X connect 57 0 43 0;
#X connect 57 0 44 0;
#X connect 57 0 45 0;
#X connect 57 0 46 0;
#X connect 57 0 47 0;
#X connect 57 0 48 0;
#X connect 57 0 49 0;
#X connect 57 0 22 0;
#X connect 59 0 24 0;
#X connect 60 0 59 0;
#X connect 61 0 60 0;
#X connect 62 0 61 0;
#X connect 63 0 64 0;
#X connect 64 0 62 0;
#X connect 65 0 63 0;
#X connect 66 0 63 0;
#X connect 67 0 63 0;
#X connect 68 0 63 0;
#X connect 69 0 63 0;
#X connect 70 0 63 0;
#X connect 71 0 63 0;
#X connect 72 0 63 0;
#X connect 73 0 63 0;
#X connect 74 0 63 0;
#X connect 75 0 23 0;
#X connect 76 0 71 1;
#X connect 76 0 70 1;
#X connect 76 0 69 1;
#X connect 77 0 24 1;
#X connect 78 0 63 0;
#X connect 79 0 58 0;
