#N canvas -8 -8 1366 685 10;
#X obj 720 418 spigot;
#X obj 796 418 spigot;
#X obj 872 418 spigot;
#X obj 948 418 spigot;
#X obj 752 329 + 200;
#X obj 720 457 delay;
#X obj 796 457 delay;
#X obj 872 457 delay;
#X obj 948 457 delay;
#X obj 904 310 random 600;
#X obj 980 310 random 600;
#X obj 752 310 random 300;
#X obj 828 310 random 500;
#X obj 1148 293 metro 500;
#X obj 828 329 + 400;
#X obj 904 329 + 200;
#X obj 980 329 + 100;
#X obj 1148 331 + 1000;
#X obj 575 133 clip 1000 5000;
#X obj 575 76 snapshot~;
#X obj 575 19 noise~;
#X obj 575 114 line;
#X obj 575 57 +~ 2000;
#X obj 575 38 *~ 50000;
#X msg 575 95 \$1 2000;
#X msg 575 152 \$1 1000;
#X msg 1058 271 22;
#X obj 575 190 clip 1000 5000;
#X obj 575 171 line;
#X obj 720 517 delay;
#X obj 796 517 delay;
#X obj 872 517 delay;
#X obj 948 517 delay;
#X obj 575 209 s gust1;
#X obj -378 231 bp~;
#X obj -379 155 noise~;
#X obj -443 231 bp~;
#X obj -369 193 / 2.3;
#X obj -434 193 / 4.44;
#X obj -360 212 r init;
#X obj -425 212 r init;
#X obj -83 211 bp~;
#X obj -84 135 noise~;
#X obj -148 211 bp~;
#X obj -149 135 noise~;
#X obj -74 173 / 2.3;
#X obj -139 173 / 4.44;
#X obj -65 192 r init;
#X obj -130 192 r init;
#X obj 213 191 bp~;
#X obj 212 115 noise~;
#X obj 148 191 bp~;
#X obj 147 115 noise~;
#X obj 222 153 / 2.3;
#X obj 157 153 / 4.44;
#X obj 231 172 r init;
#X obj 166 172 r init;
#X obj 509 171 bp~;
#X obj 508 95 noise~;
#X obj 444 171 bp~;
#X obj 443 95 noise~;
#X obj 518 133 / 2.3;
#X obj 453 133 / 4.44;
#X obj 527 152 r init;
#X obj 462 152 r init;
#X obj -442 155 noise~;
#X obj -462 91 bp~;
#X obj -463 15 noise~;
#X obj -397 91 bp~;
#X obj -398 15 noise~;
#X obj -388 53 * 1.76;
#X obj -379 72 r init;
#X obj -166 71 bp~;
#X obj -167 -5 noise~;
#X obj -101 71 bp~;
#X obj -102 -5 noise~;
#X obj -92 33 * 1.76;
#X obj -83 52 r init;
#X obj -148 52 r init;
#X obj 130 51 bp~;
#X obj 129 -25 noise~;
#X obj 195 51 bp~;
#X obj 194 -25 noise~;
#X obj 204 13 * 1.76;
#X obj 213 32 r init;
#X obj 148 32 r init;
#X obj 426 32 bp~;
#X obj 425 -44 noise~;
#X obj 491 32 bp~;
#X obj 490 -44 noise~;
#X obj 500 -6 * 1.76;
#X obj 509 13 r init;
#X obj 444 13 r init;
#X obj -426 295 noise~;
#X obj -357 295 noise~;
#X obj -357 371 lop~ 100;
#X obj -357 333 lop~ 100;
#X obj -357 314 lop~ 100;
#X obj -357 352 lop~ 100;
#X obj -425 403 pow~;
#X obj -426 314 lop~ 1000;
#X obj -426 333 lop~ 1000;
#X obj -426 352 lop~ 1000;
#X obj -426 371 lop~ 1000;
#X obj -425 422 clip~ -1 1;
#X obj -425 441 lop~ 2000;
#X obj -425 460 lop~ 2000;
#X obj -425 479 lop~ 2000;
#X obj -295 295 noise~;
#X obj -226 295 noise~;
#X obj -226 371 lop~ 100;
#X obj -226 333 lop~ 100;
#X obj -226 314 lop~ 100;
#X obj -226 352 lop~ 100;
#X obj -295 406 pow~;
#X obj -295 314 lop~ 1000;
#X obj -295 333 lop~ 1000;
#X obj -295 352 lop~ 1000;
#X obj -295 371 lop~ 1000;
#X obj -295 425 clip~ -1 1;
#X obj -295 444 lop~ 2000;
#X obj -295 463 lop~ 2000;
#X obj -295 482 lop~ 2000;
#X obj -425 574 bp~;
#X obj -295 577 bp~;
#X obj -286 539 / 2.14;
#X obj -416 536 / 3.64;
#X obj -425 498 *~ 0.3;
#X obj -295 501 *~ 0.3;
#X obj -277 558 r init;
#X obj -407 555 r init;
#X obj -131 275 noise~;
#X obj -62 275 noise~;
#X obj -62 351 lop~ 100;
#X obj -62 313 lop~ 100;
#X obj -62 294 lop~ 100;
#X obj -62 332 lop~ 100;
#X obj -130 383 pow~;
#X obj -131 294 lop~ 1000;
#X obj -131 313 lop~ 1000;
#X obj -131 332 lop~ 1000;
#X obj -131 351 lop~ 1000;
#X obj -130 402 clip~ -1 1;
#X obj -130 421 lop~ 2000;
#X obj -130 440 lop~ 2000;
#X obj -130 459 lop~ 2000;
#X obj 0 275 noise~;
#X obj 69 275 noise~;
#X obj 69 351 lop~ 100;
#X obj 69 313 lop~ 100;
#X obj 69 294 lop~ 100;
#X obj 69 332 lop~ 100;
#X obj 0 386 pow~;
#X obj 0 294 lop~ 1000;
#X obj 0 313 lop~ 1000;
#X obj 0 332 lop~ 1000;
#X obj 0 351 lop~ 1000;
#X obj 0 405 clip~ -1 1;
#X obj 0 424 lop~ 2000;
#X obj 0 443 lop~ 2000;
#X obj 0 462 lop~ 2000;
#X obj -130 554 bp~;
#X obj 0 557 bp~;
#X obj 9 519 / 2.14;
#X obj -121 516 / 3.64;
#X obj -130 478 *~ 0.3;
#X obj 0 481 *~ 0.3;
#X obj 18 538 r init;
#X obj -112 535 r init;
#X obj 165 255 noise~;
#X obj 234 255 noise~;
#X obj 234 331 lop~ 100;
#X obj 234 293 lop~ 100;
#X obj 234 274 lop~ 100;
#X obj 234 312 lop~ 100;
#X obj 166 363 pow~;
#X obj 165 274 lop~ 1000;
#X obj 165 293 lop~ 1000;
#X obj 165 312 lop~ 1000;
#X obj 165 331 lop~ 1000;
#X obj 166 382 clip~ -1 1;
#X obj 166 401 lop~ 2000;
#X obj 166 420 lop~ 2000;
#X obj 166 439 lop~ 2000;
#X obj 296 255 noise~;
#X obj 365 255 noise~;
#X obj 365 331 lop~ 100;
#X obj 365 293 lop~ 100;
#X obj 365 274 lop~ 100;
#X obj 365 312 lop~ 100;
#X obj 297 366 pow~;
#X obj 296 274 lop~ 1000;
#X obj 296 293 lop~ 1000;
#X obj 296 312 lop~ 1000;
#X obj 296 331 lop~ 1000;
#X obj 297 385 clip~ -1 1;
#X obj 297 404 lop~ 2000;
#X obj 297 423 lop~ 2000;
#X obj 297 442 lop~ 2000;
#X obj 166 534 bp~;
#X obj 297 537 bp~;
#X obj 306 499 / 2.14;
#X obj 175 496 / 3.64;
#X obj 166 458 *~ 0.3;
#X obj 297 461 *~ 0.3;
#X obj 315 518 r init;
#X obj 184 515 r init;
#X obj 461 235 noise~;
#X obj 530 235 noise~;
#X obj 530 311 lop~ 100;
#X obj 530 273 lop~ 100;
#X obj 530 254 lop~ 100;
#X obj 530 292 lop~ 100;
#X obj 462 343 pow~;
#X obj 461 254 lop~ 1000;
#X obj 461 273 lop~ 1000;
#X obj 461 292 lop~ 1000;
#X obj 461 311 lop~ 1000;
#X obj 462 362 clip~ -1 1;
#X obj 462 381 lop~ 2000;
#X obj 462 400 lop~ 2000;
#X obj 462 419 lop~ 2000;
#X obj 592 235 noise~;
#X obj 661 235 noise~;
#X obj 661 311 lop~ 100;
#X obj 661 273 lop~ 100;
#X obj 661 254 lop~ 100;
#X obj 661 292 lop~ 100;
#X obj 593 346 pow~;
#X obj 592 254 lop~ 1000;
#X obj 592 273 lop~ 1000;
#X obj 592 292 lop~ 1000;
#X obj 592 311 lop~ 1000;
#X obj 593 365 clip~ -1 1;
#X obj 593 384 lop~ 2000;
#X obj 593 403 lop~ 2000;
#X obj 593 422 lop~ 2000;
#X obj 462 514 bp~;
#X obj 593 517 bp~;
#X obj 602 479 / 2.14;
#X obj 471 476 / 3.64;
#X obj 462 438 *~ 0.3;
#X obj 593 441 *~ 0.3;
#X obj 611 498 r init;
#X obj 480 495 r init;
#X obj 679 133 clip 1000 5000;
#X obj 679 76 snapshot~;
#X obj 679 19 noise~;
#X obj 679 114 line;
#X obj 679 57 +~ 2000;
#X obj 679 38 *~ 50000;
#X msg 679 95 \$1 2000;
#X msg 679 152 \$1 1000;
#X obj 679 190 clip 1000 5000;
#X obj 679 171 line;
#X obj 783 133 clip 1000 5000;
#X obj 783 76 snapshot~;
#X obj 783 19 noise~;
#X obj 783 114 line;
#X obj 783 57 +~ 2000;
#X obj 783 38 *~ 50000;
#X msg 783 95 \$1 2000;
#X msg 783 152 \$1 1000;
#X obj 783 190 clip 1000 5000;
#X obj 783 171 line;
#X obj 887 133 clip 1000 5000;
#X obj 887 76 snapshot~;
#X obj 887 19 noise~;
#X obj 887 114 line;
#X obj 887 57 +~ 2000;
#X obj 887 38 *~ 50000;
#X msg 887 95 \$1 2000;
#X msg 887 152 \$1 1000;
#X obj 887 190 clip 1000 5000;
#X obj 887 171 line;
#X obj 1011 133 clip 1000 5000;
#X obj 1011 76 snapshot~;
#X obj 1011 19 noise~;
#X obj 1011 114 line;
#X obj 1011 57 +~ 2000;
#X obj 1011 38 *~ 50000;
#X msg 1011 95 \$1 2000;
#X msg 1011 152 \$1 1000;
#X obj 1011 190 clip 1000 5000;
#X obj 1011 171 line;
#X obj 1115 133 clip 1000 5000;
#X obj 1115 76 snapshot~;
#X obj 1115 19 noise~;
#X obj 1115 114 line;
#X obj 1115 57 +~ 2000;
#X obj 1115 38 *~ 50000;
#X msg 1115 95 \$1 2000;
#X msg 1115 152 \$1 1000;
#X obj 1115 190 clip 1000 5000;
#X obj 1115 171 line;
#X obj 1219 133 clip 1000 5000;
#X obj 1219 76 snapshot~;
#X obj 1219 19 noise~;
#X obj 1219 114 line;
#X obj 1219 57 +~ 2000;
#X obj 1219 38 *~ 50000;
#X msg 1219 95 \$1 2000;
#X msg 1219 152 \$1 1000;
#X obj 1219 190 clip 1000 5000;
#X obj 1219 171 line;
#X obj 1323 133 clip 1000 5000;
#X obj 1323 76 snapshot~;
#X obj 1323 19 noise~;
#X obj 1323 114 line;
#X obj 1323 57 +~ 2000;
#X obj 1323 38 *~ 50000;
#X msg 1323 95 \$1 2000;
#X msg 1323 152 \$1 1000;
#X obj 1323 190 clip 1000 5000;
#X obj 1323 171 line;
#X msg 740 556 1 1000;
#X msg 816 556 1 1000;
#X msg 892 556 1 1000;
#X msg 968 556 1 1000;
#X obj 720 587 line~;
#X obj 796 587 line~;
#X obj 872 587 line~;
#X obj 948 587 line~;
#X obj -434 174 r gust1;
#X obj -453 34 r gust5;
#X obj 679 209 s gust2;
#X obj 783 209 s gust3;
#X obj 887 209 s gust4;
#X obj 1011 209 s gust5;
#X obj 1115 209 s gust6;
#X obj 1219 209 s gust7;
#X obj 1323 209 s gust8;
#X obj -416 517 r gust3;
#X obj 702 666 *~;
#X obj 778 646 *~;
#X obj 854 626 *~;
#X obj 930 606 *~;
#X obj -444 72 r init;
#X obj 1058 290 s init;
#X msg 948 536 0 2000;
#X msg 872 536 0 2000;
#X msg 796 536 0 2000;
#X msg 720 536 0 2000;
#X obj 747 498 + 2000;
#X obj 823 498 + 2000;
#X obj 899 498 + 2000;
#X obj 975 498 + 2000;
#X obj 1148 312 random 1500;
#X obj 854 699 outlet~;
#X obj 702 721 outlet~;
#X obj 1074 362 random 4;
#X obj 759 379 >= 1;
#X obj 835 379 >= 2;
#X obj 911 379 >= 3;
#X obj 987 379 >= 4;
#X obj 462 533 +~;
#X obj 166 553 +~;
#X obj -130 573 +~;
#X obj -425 593 +~;
#X obj 444 571 +~;
#X obj 148 591 +~;
#X obj -148 611 +~;
#X obj -443 631 +~;
#X obj 426 590 +~;
#X obj 130 610 +~;
#X obj -166 630 +~;
#X obj -461 650 +~;
#X obj -388 34 r gust6;
#X obj -157 14 r gust7;
#X obj -92 14 r gust8;
#X obj 139 -6 r gust1;
#X obj 204 -6 r gust2;
#X obj 435 -25 r gust3;
#X obj 500 -25 r gust4;
#X obj -369 174 r gust2;
#X obj -139 154 r gust3;
#X obj -74 154 r gust4;
#X obj 157 134 r gust5;
#X obj 222 134 r gust6;
#X obj 453 114 r gust7;
#X obj 518 114 r gust8;
#X obj -286 520 r gust4;
#X obj -121 497 r gust5;
#X obj 9 500 r gust6;
#X obj 175 477 r gust7;
#X obj 306 480 r gust8;
#X obj 471 457 r gust1;
#X obj 602 460 r gust2;
#X obj 634 59 inlet;
#X obj -462 136 *~ 0.3;
#X obj -166 116 *~ 0.3;
#X obj 130 96 *~ 0.3;
#X obj 426 76 *~ 0.3;
#X obj 426 57 +~;
#X obj 130 77 +~;
#X obj -166 97 +~;
#X obj -462 117 +~;
#X obj 444 216 *~ 0.21;
#X obj 148 236 *~ 0.21;
#X obj -148 256 *~ 0.21;
#X obj -443 276 *~ 0.21;
#X obj 444 197 +~;
#X obj 148 217 +~;
#X obj -148 237 +~;
#X obj -443 257 +~;
#X obj 462 552 *~ 0.21;
#X obj 166 572 *~ 0.21;
#X obj -130 592 *~ 0.21;
#X obj -425 612 *~ 0.21;
#X obj 779 722 delwrite~ wind1 5000;
#X obj 930 699 delwrite~ wind2 5000;
#X obj 563 669 delread~ wind1 5000;
#X obj 957 606 delread~ wind1 5000;
#X obj 1148 254 inlet;
#X connect 0 0 5 0;
#X connect 1 0 6 0;
#X connect 2 0 7 0;
#X connect 3 0 8 0;
#X connect 4 0 5 1;
#X connect 4 0 345 0;
#X connect 5 0 29 0;
#X connect 5 0 315 0;
#X connect 6 0 30 0;
#X connect 6 0 316 0;
#X connect 7 0 31 0;
#X connect 7 0 317 0;
#X connect 8 0 32 0;
#X connect 8 0 318 0;
#X connect 9 0 15 0;
#X connect 10 0 16 0;
#X connect 11 0 4 0;
#X connect 12 0 14 0;
#X connect 13 0 11 0;
#X connect 13 0 12 0;
#X connect 13 0 9 0;
#X connect 13 0 10 0;
#X connect 13 0 0 0;
#X connect 13 0 1 0;
#X connect 13 0 2 0;
#X connect 13 0 3 0;
#X connect 13 0 347 0;
#X connect 13 0 350 0;
#X connect 14 0 6 1;
#X connect 14 0 346 0;
#X connect 15 0 7 1;
#X connect 15 0 343 0;
#X connect 16 0 8 1;
#X connect 16 0 344 0;
#X connect 17 0 13 1;
#X connect 18 0 25 0;
#X connect 19 0 24 0;
#X connect 20 0 23 0;
#X connect 21 0 18 0;
#X connect 22 0 19 0;
#X connect 23 0 22 0;
#X connect 24 0 21 0;
#X connect 25 0 28 0;
#X connect 26 0 338 0;
#X connect 27 0 33 0;
#X connect 28 0 27 0;
#X connect 29 0 342 0;
#X connect 30 0 341 0;
#X connect 31 0 340 0;
#X connect 32 0 339 0;
#X connect 34 0 404 1;
#X connect 35 0 34 0;
#X connect 36 0 404 0;
#X connect 37 0 34 1;
#X connect 38 0 36 1;
#X connect 39 0 34 2;
#X connect 40 0 36 2;
#X connect 41 0 403 1;
#X connect 42 0 41 0;
#X connect 43 0 403 0;
#X connect 44 0 43 0;
#X connect 45 0 41 1;
#X connect 46 0 43 1;
#X connect 47 0 41 2;
#X connect 48 0 43 2;
#X connect 49 0 402 1;
#X connect 50 0 49 0;
#X connect 51 0 402 0;
#X connect 52 0 51 0;
#X connect 53 0 49 1;
#X connect 54 0 51 1;
#X connect 55 0 49 2;
#X connect 56 0 51 2;
#X connect 57 0 401 1;
#X connect 58 0 57 0;
#X connect 59 0 401 0;
#X connect 60 0 59 0;
#X connect 61 0 57 1;
#X connect 62 0 59 1;
#X connect 63 0 57 2;
#X connect 64 0 59 2;
#X connect 65 0 36 0;
#X connect 66 0 396 0;
#X connect 67 0 66 0;
#X connect 68 0 396 1;
#X connect 69 0 68 0;
#X connect 70 0 68 1;
#X connect 71 0 68 2;
#X connect 72 0 395 0;
#X connect 73 0 72 0;
#X connect 74 0 395 1;
#X connect 75 0 74 0;
#X connect 76 0 74 1;
#X connect 77 0 74 2;
#X connect 78 0 72 2;
#X connect 79 0 394 0;
#X connect 80 0 79 0;
#X connect 81 0 394 1;
#X connect 82 0 81 0;
#X connect 83 0 81 1;
#X connect 84 0 81 2;
#X connect 85 0 79 2;
#X connect 86 0 393 0;
#X connect 87 0 86 0;
#X connect 88 0 393 1;
#X connect 89 0 88 0;
#X connect 90 0 88 1;
#X connect 91 0 88 2;
#X connect 92 0 86 2;
#X connect 93 0 100 0;
#X connect 94 0 97 0;
#X connect 95 0 99 1;
#X connect 96 0 98 0;
#X connect 97 0 96 0;
#X connect 98 0 95 0;
#X connect 99 0 104 0;
#X connect 100 0 101 0;
#X connect 101 0 102 0;
#X connect 102 0 103 0;
#X connect 103 0 99 0;
#X connect 104 0 105 0;
#X connect 105 0 106 0;
#X connect 106 0 107 0;
#X connect 107 0 127 0;
#X connect 108 0 115 0;
#X connect 109 0 112 0;
#X connect 110 0 114 1;
#X connect 111 0 113 0;
#X connect 112 0 111 0;
#X connect 113 0 110 0;
#X connect 114 0 119 0;
#X connect 115 0 116 0;
#X connect 116 0 117 0;
#X connect 117 0 118 0;
#X connect 118 0 114 0;
#X connect 119 0 120 0;
#X connect 120 0 121 0;
#X connect 121 0 122 0;
#X connect 122 0 128 0;
#X connect 123 0 358 0;
#X connect 124 0 358 1;
#X connect 125 0 124 1;
#X connect 126 0 123 1;
#X connect 127 0 123 0;
#X connect 128 0 124 0;
#X connect 129 0 124 2;
#X connect 130 0 123 2;
#X connect 131 0 138 0;
#X connect 132 0 135 0;
#X connect 133 0 137 1;
#X connect 134 0 136 0;
#X connect 135 0 134 0;
#X connect 136 0 133 0;
#X connect 137 0 142 0;
#X connect 138 0 139 0;
#X connect 139 0 140 0;
#X connect 140 0 141 0;
#X connect 141 0 137 0;
#X connect 142 0 143 0;
#X connect 143 0 144 0;
#X connect 144 0 145 0;
#X connect 145 0 165 0;
#X connect 146 0 153 0;
#X connect 147 0 150 0;
#X connect 148 0 152 1;
#X connect 149 0 151 0;
#X connect 150 0 149 0;
#X connect 151 0 148 0;
#X connect 152 0 157 0;
#X connect 153 0 154 0;
#X connect 154 0 155 0;
#X connect 155 0 156 0;
#X connect 156 0 152 0;
#X connect 157 0 158 0;
#X connect 158 0 159 0;
#X connect 159 0 160 0;
#X connect 160 0 166 0;
#X connect 161 0 357 0;
#X connect 162 0 357 1;
#X connect 163 0 162 1;
#X connect 164 0 161 1;
#X connect 165 0 161 0;
#X connect 166 0 162 0;
#X connect 167 0 162 2;
#X connect 168 0 161 2;
#X connect 169 0 176 0;
#X connect 170 0 173 0;
#X connect 171 0 175 1;
#X connect 172 0 174 0;
#X connect 173 0 172 0;
#X connect 174 0 171 0;
#X connect 175 0 180 0;
#X connect 176 0 177 0;
#X connect 177 0 178 0;
#X connect 178 0 179 0;
#X connect 179 0 175 0;
#X connect 180 0 181 0;
#X connect 181 0 182 0;
#X connect 182 0 183 0;
#X connect 183 0 203 0;
#X connect 184 0 191 0;
#X connect 185 0 188 0;
#X connect 186 0 190 1;
#X connect 187 0 189 0;
#X connect 188 0 187 0;
#X connect 189 0 186 0;
#X connect 190 0 195 0;
#X connect 191 0 192 0;
#X connect 192 0 193 0;
#X connect 193 0 194 0;
#X connect 194 0 190 0;
#X connect 195 0 196 0;
#X connect 196 0 197 0;
#X connect 197 0 198 0;
#X connect 198 0 204 0;
#X connect 199 0 356 0;
#X connect 200 0 356 1;
#X connect 201 0 200 1;
#X connect 202 0 199 1;
#X connect 203 0 199 0;
#X connect 204 0 200 0;
#X connect 205 0 200 2;
#X connect 206 0 199 2;
#X connect 207 0 214 0;
#X connect 208 0 211 0;
#X connect 209 0 213 1;
#X connect 210 0 212 0;
#X connect 211 0 210 0;
#X connect 212 0 209 0;
#X connect 213 0 218 0;
#X connect 214 0 215 0;
#X connect 215 0 216 0;
#X connect 216 0 217 0;
#X connect 217 0 213 0;
#X connect 218 0 219 0;
#X connect 219 0 220 0;
#X connect 220 0 221 0;
#X connect 221 0 241 0;
#X connect 222 0 229 0;
#X connect 223 0 226 0;
#X connect 224 0 228 1;
#X connect 225 0 227 0;
#X connect 226 0 225 0;
#X connect 227 0 224 0;
#X connect 228 0 233 0;
#X connect 229 0 230 0;
#X connect 230 0 231 0;
#X connect 231 0 232 0;
#X connect 232 0 228 0;
#X connect 233 0 234 0;
#X connect 234 0 235 0;
#X connect 235 0 236 0;
#X connect 236 0 242 0;
#X connect 237 0 355 0;
#X connect 238 0 355 1;
#X connect 239 0 238 1;
#X connect 240 0 237 1;
#X connect 241 0 237 0;
#X connect 242 0 238 0;
#X connect 243 0 238 2;
#X connect 244 0 237 2;
#X connect 245 0 252 0;
#X connect 246 0 251 0;
#X connect 247 0 250 0;
#X connect 248 0 245 0;
#X connect 249 0 246 0;
#X connect 250 0 249 0;
#X connect 251 0 248 0;
#X connect 252 0 254 0;
#X connect 253 0 325 0;
#X connect 254 0 253 0;
#X connect 255 0 262 0;
#X connect 256 0 261 0;
#X connect 257 0 260 0;
#X connect 258 0 255 0;
#X connect 259 0 256 0;
#X connect 260 0 259 0;
#X connect 261 0 258 0;
#X connect 262 0 264 0;
#X connect 263 0 326 0;
#X connect 264 0 263 0;
#X connect 265 0 272 0;
#X connect 266 0 271 0;
#X connect 267 0 270 0;
#X connect 268 0 265 0;
#X connect 269 0 266 0;
#X connect 270 0 269 0;
#X connect 271 0 268 0;
#X connect 272 0 274 0;
#X connect 273 0 327 0;
#X connect 274 0 273 0;
#X connect 275 0 282 0;
#X connect 276 0 281 0;
#X connect 277 0 280 0;
#X connect 278 0 275 0;
#X connect 279 0 276 0;
#X connect 280 0 279 0;
#X connect 281 0 278 0;
#X connect 282 0 284 0;
#X connect 283 0 328 0;
#X connect 284 0 283 0;
#X connect 285 0 292 0;
#X connect 286 0 291 0;
#X connect 287 0 290 0;
#X connect 288 0 285 0;
#X connect 289 0 286 0;
#X connect 290 0 289 0;
#X connect 291 0 288 0;
#X connect 292 0 294 0;
#X connect 293 0 329 0;
#X connect 294 0 293 0;
#X connect 295 0 302 0;
#X connect 296 0 301 0;
#X connect 297 0 300 0;
#X connect 298 0 295 0;
#X connect 299 0 296 0;
#X connect 300 0 299 0;
#X connect 301 0 298 0;
#X connect 302 0 304 0;
#X connect 303 0 330 0;
#X connect 304 0 303 0;
#X connect 305 0 312 0;
#X connect 306 0 311 0;
#X connect 307 0 310 0;
#X connect 308 0 305 0;
#X connect 309 0 306 0;
#X connect 310 0 309 0;
#X connect 311 0 308 0;
#X connect 312 0 314 0;
#X connect 313 0 331 0;
#X connect 314 0 313 0;
#X connect 315 0 319 0;
#X connect 316 0 320 0;
#X connect 317 0 321 0;
#X connect 318 0 322 0;
#X connect 319 0 333 1;
#X connect 320 0 334 1;
#X connect 321 0 335 1;
#X connect 322 0 336 1;
#X connect 323 0 38 0;
#X connect 324 0 66 1;
#X connect 332 0 126 0;
#X connect 333 0 349 0;
#X connect 333 0 409 0;
#X connect 334 0 349 0;
#X connect 334 0 409 0;
#X connect 335 0 348 0;
#X connect 335 0 410 0;
#X connect 336 0 348 0;
#X connect 336 0 410 0;
#X connect 337 0 66 2;
#X connect 339 0 322 0;
#X connect 340 0 321 0;
#X connect 341 0 320 0;
#X connect 342 0 319 0;
#X connect 343 0 29 1;
#X connect 344 0 30 1;
#X connect 345 0 31 1;
#X connect 346 0 32 1;
#X connect 347 0 17 0;
#X connect 350 0 351 0;
#X connect 350 0 352 0;
#X connect 350 0 353 0;
#X connect 350 0 354 0;
#X connect 351 0 0 1;
#X connect 352 0 1 1;
#X connect 353 0 2 1;
#X connect 354 0 3 1;
#X connect 355 0 405 0;
#X connect 356 0 406 0;
#X connect 357 0 407 0;
#X connect 358 0 408 0;
#X connect 359 0 363 1;
#X connect 360 0 364 1;
#X connect 361 0 365 1;
#X connect 362 0 366 1;
#X connect 363 0 336 0;
#X connect 364 0 335 0;
#X connect 365 0 334 0;
#X connect 366 0 333 0;
#X connect 367 0 70 0;
#X connect 368 0 72 1;
#X connect 369 0 76 0;
#X connect 370 0 79 1;
#X connect 371 0 83 0;
#X connect 372 0 86 1;
#X connect 373 0 90 0;
#X connect 374 0 37 0;
#X connect 375 0 46 0;
#X connect 376 0 45 0;
#X connect 377 0 54 0;
#X connect 378 0 53 0;
#X connect 379 0 62 0;
#X connect 380 0 61 0;
#X connect 381 0 125 0;
#X connect 382 0 164 0;
#X connect 383 0 163 0;
#X connect 384 0 202 0;
#X connect 385 0 201 0;
#X connect 386 0 240 0;
#X connect 387 0 239 0;
#X connect 388 0 306 0;
#X connect 388 0 296 0;
#X connect 388 0 286 0;
#X connect 388 0 276 0;
#X connect 388 0 266 0;
#X connect 388 0 256 0;
#X connect 388 0 246 0;
#X connect 388 0 19 0;
#X connect 389 0 366 0;
#X connect 390 0 365 0;
#X connect 391 0 364 0;
#X connect 392 0 363 0;
#X connect 393 0 392 0;
#X connect 394 0 391 0;
#X connect 395 0 390 0;
#X connect 396 0 389 0;
#X connect 397 0 359 0;
#X connect 398 0 360 0;
#X connect 399 0 361 0;
#X connect 400 0 362 0;
#X connect 401 0 397 0;
#X connect 402 0 398 0;
#X connect 403 0 399 0;
#X connect 404 0 400 0;
#X connect 405 0 359 1;
#X connect 406 0 360 1;
#X connect 407 0 361 1;
#X connect 408 0 362 1;
#X connect 411 0 349 0;
#X connect 412 0 348 0;
#X connect 413 0 26 0;
#X connect 413 0 13 0;
