#N canvas -8 -8 1366 685 12;
#X obj 671 -74 sel 1 2 3 4 5 6 7 8 9;
#X obj 908 195 *~;
#X obj 970 132 line~;
#X text 919 -34 R;
#X obj 671 -96 + 1;
#X obj 671 -118 random 9;
#X msg 984 -54 bang;
#X obj 1051 41 delay 1000;
#X obj 683 132 mtof;
#X msg 361 68 60;
#X msg 401 68 62;
#X msg 441 68 63;
#X msg 548 68 65;
#X msg 588 68 67;
#X msg 628 68 68;
#X msg 738 68 70;
#X msg 868 68 72;
#X obj 355 -200 vradio 15 1 0 8 empty empty empty 0 -8 0 10 -262144
-1 -1 1;
#X obj 355 -222 inlet;
#X obj 793 46 spigot;
#X msg 496 68 64;
#X msg 683 68 69;
#X msg 793 68 71;
#X msg 970 94 0.025 700;
#X msg 923 -12 0 500;
#X obj 738 46 spigot;
#X obj 683 46 spigot;
#X obj 628 46 spigot;
#X obj 496 46 spigot;
#X obj 441 46 spigot;
#X obj 683 176 tabosc4~ music;
#X obj 296 351 table music;
#X msg 24 137 \; music sinesum 512 0.02 0.201 0.21 0.41 0.02 0.3 \;
;
#X obj 671 -140 metro 2600;
#X msg 1046 113 0 1500;
#X obj 683 154 / 1;
#X obj 955 398 outlet~;
#X obj 671 -162 loadbang;
#X obj 419 -60 == 2;
#X obj 457 -60 == 1;
#X obj 849 134 inlet;
#X obj 24 115 loadbang;
#X connect 0 0 6 0;
#X connect 0 0 9 0;
#X connect 0 1 6 0;
#X connect 0 1 10 0;
#X connect 0 2 6 0;
#X connect 0 2 28 0;
#X connect 0 2 29 0;
#X connect 0 3 6 0;
#X connect 0 3 12 0;
#X connect 0 4 6 0;
#X connect 0 4 13 0;
#X connect 0 5 6 0;
#X connect 0 5 26 0;
#X connect 0 5 27 0;
#X connect 0 6 6 0;
#X connect 0 6 19 0;
#X connect 0 6 25 0;
#X connect 0 7 6 0;
#X connect 0 7 16 0;
#X connect 0 8 24 0;
#X connect 1 0 36 0;
#X connect 2 0 1 1;
#X connect 4 0 0 0;
#X connect 5 0 4 0;
#X connect 6 0 23 0;
#X connect 6 0 7 0;
#X connect 7 0 34 0;
#X connect 8 0 35 0;
#X connect 9 0 8 0;
#X connect 10 0 8 0;
#X connect 11 0 8 0;
#X connect 12 0 8 0;
#X connect 13 0 8 0;
#X connect 14 0 8 0;
#X connect 15 0 8 0;
#X connect 16 0 8 0;
#X connect 17 0 38 0;
#X connect 17 0 39 0;
#X connect 18 0 17 0;
#X connect 19 0 22 0;
#X connect 23 0 2 0;
#X connect 24 0 2 0;
#X connect 25 0 15 0;
#X connect 26 0 21 0;
#X connect 27 0 14 0;
#X connect 28 0 20 0;
#X connect 29 0 11 0;
#X connect 30 0 1 0;
#X connect 33 0 5 0;
#X connect 34 0 2 0;
#X connect 35 0 30 0;
#X connect 37 0 33 0;
#X connect 38 0 19 1;
#X connect 38 0 26 1;
#X connect 38 0 28 1;
#X connect 39 0 25 1;
#X connect 39 0 27 1;
#X connect 39 0 29 1;
#X connect 40 0 35 1;
#X connect 41 0 32 0;
