#N canvas -8 -8 1366 685 10;
#X obj 246 393 *~ 0.2;
#X obj 527 393 *~ 0.5;
#X obj 813 393 *~ 0.8;
#X obj 559 -242 loadbang;
#X msg 845 -187 6;
#X msg 893 -187 600;
#X msg 278 -185 7;
#X msg 326 -185 700;
#X msg 559 -186 5;
#X msg 608 -186 500;
#X obj 684 470 r farnflow;
#X obj 528 487 *~;
#X obj 528 582 outlet~;
#X obj 528 506 lop~ 2500;
#X obj 528 525 lop~ 2500;
#X obj 528 544 lop~ 2500;
#X obj 528 563 lop~ 2500;
#X obj 813 287 osc~;
#X obj 813 230 line~;
#X obj 813 348 *~;
#X obj 869 332 *~;
#X obj 869 307 *~ 0.9;
#X obj 869 287 lop~ 10;
#X obj 869 267 clip~ 0 1;
#X obj 813 209 pack 1 2.689;
#X obj 813 169 * 1600;
#X obj 869 246 fexpr~ $x1 - $x1[-1];
#X obj 813 374 *~ 0.3;
#X obj 813 36 random 8192;
#X obj 813 93 * 9;
#X obj 813 74 / 4096;
#X obj 911 53 > 4096;
#X obj 911 91 sel 0 1;
#X msg 911 114 -1;
#X msg 943 114 1;
#X obj 813 131 *;
#X obj 813 150 / 23000;
#X obj 813 55 mod 4096;
#X obj 813 112 exp;
#X obj 813 17 metro;
#X obj 527 287 osc~;
#X obj 527 230 line~;
#X obj 527 348 *~;
#X obj 583 332 *~;
#X obj 583 307 *~ 0.9;
#X obj 583 287 lop~ 10;
#X obj 583 267 clip~ 0 1;
#X obj 527 209 pack 1 2.689;
#X obj 527 169 * 1600;
#X obj 583 246 fexpr~ $x1 - $x1[-1];
#X obj 527 374 *~ 0.3;
#X obj 527 36 random 8192;
#X obj 527 93 * 9;
#X obj 527 74 / 4096;
#X obj 625 53 > 4096;
#X obj 625 91 sel 0 1;
#X msg 625 114 -1;
#X msg 657 114 1;
#X obj 527 131 *;
#X obj 527 150 / 23000;
#X obj 527 55 mod 4096;
#X obj 527 112 exp;
#X obj 527 17 metro;
#X obj 813 189 +;
#X obj 527 189 +;
#X obj 246 287 osc~;
#X obj 246 230 line~;
#X obj 246 348 *~;
#X obj 302 332 *~;
#X obj 302 307 *~ 0.9;
#X obj 302 287 lop~ 10;
#X obj 302 267 clip~ 0 1;
#X obj 246 209 pack 1 2.689;
#X obj 246 169 * 1600;
#X obj 302 246 fexpr~ $x1 - $x1[-1];
#X obj 246 374 *~ 0.3;
#X obj 246 36 random 8192;
#X obj 246 93 * 9;
#X obj 246 74 / 4096;
#X obj 344 53 > 4096;
#X obj 344 91 sel 0 1;
#X msg 344 114 -1;
#X msg 376 114 1;
#X obj 246 131 *;
#X obj 246 150 / 23000;
#X obj 246 55 mod 4096;
#X obj 246 112 exp;
#X obj 246 17 metro;
#X obj 246 189 +;
#X connect 0 0 11 0;
#X connect 1 0 11 0;
#X connect 2 0 11 0;
#X connect 3 0 8 0;
#X connect 3 0 9 0;
#X connect 3 0 4 0;
#X connect 3 0 5 0;
#X connect 3 0 7 0;
#X connect 3 0 6 0;
#X connect 3 0 62 0;
#X connect 3 0 39 0;
#X connect 3 0 87 0;
#X connect 4 0 39 1;
#X connect 5 0 63 1;
#X connect 6 0 87 1;
#X connect 7 0 88 1;
#X connect 8 0 62 1;
#X connect 9 0 64 1;
#X connect 10 0 11 1;
#X connect 11 0 13 0;
#X connect 13 0 14 0;
#X connect 14 0 15 0;
#X connect 15 0 16 0;
#X connect 16 0 12 0;
#X connect 17 0 19 0;
#X connect 18 0 17 0;
#X connect 18 0 26 0;
#X connect 19 0 27 0;
#X connect 20 0 19 1;
#X connect 21 0 20 0;
#X connect 21 0 20 1;
#X connect 22 0 21 0;
#X connect 23 0 22 0;
#X connect 24 0 18 0;
#X connect 25 0 63 0;
#X connect 26 0 23 0;
#X connect 27 0 2 0;
#X connect 28 0 31 0;
#X connect 28 0 37 0;
#X connect 29 0 38 0;
#X connect 30 0 29 0;
#X connect 31 0 32 0;
#X connect 32 0 33 0;
#X connect 32 1 34 0;
#X connect 33 0 35 1;
#X connect 34 0 35 1;
#X connect 35 0 36 0;
#X connect 36 0 25 0;
#X connect 37 0 30 0;
#X connect 38 0 35 0;
#X connect 39 0 28 0;
#X connect 40 0 42 0;
#X connect 41 0 40 0;
#X connect 41 0 49 0;
#X connect 42 0 50 0;
#X connect 43 0 42 1;
#X connect 44 0 43 0;
#X connect 44 0 43 1;
#X connect 45 0 44 0;
#X connect 46 0 45 0;
#X connect 47 0 41 0;
#X connect 48 0 64 0;
#X connect 49 0 46 0;
#X connect 50 0 1 0;
#X connect 51 0 54 0;
#X connect 51 0 60 0;
#X connect 52 0 61 0;
#X connect 53 0 52 0;
#X connect 54 0 55 0;
#X connect 55 0 56 0;
#X connect 55 1 57 0;
#X connect 56 0 58 1;
#X connect 57 0 58 1;
#X connect 58 0 59 0;
#X connect 59 0 48 0;
#X connect 60 0 53 0;
#X connect 61 0 58 0;
#X connect 62 0 51 0;
#X connect 63 0 24 0;
#X connect 64 0 47 0;
#X connect 65 0 67 0;
#X connect 66 0 65 0;
#X connect 66 0 74 0;
#X connect 67 0 75 0;
#X connect 68 0 67 1;
#X connect 69 0 68 0;
#X connect 69 0 68 1;
#X connect 70 0 69 0;
#X connect 71 0 70 0;
#X connect 72 0 66 0;
#X connect 73 0 88 0;
#X connect 74 0 71 0;
#X connect 75 0 0 0;
#X connect 76 0 79 0;
#X connect 76 0 85 0;
#X connect 77 0 86 0;
#X connect 78 0 77 0;
#X connect 79 0 80 0;
#X connect 80 0 81 0;
#X connect 80 1 82 0;
#X connect 81 0 83 1;
#X connect 82 0 83 1;
#X connect 83 0 84 0;
#X connect 84 0 73 0;
#X connect 85 0 78 0;
#X connect 86 0 83 0;
#X connect 87 0 76 0;
#X connect 88 0 72 0;
