#N canvas 1045 195 446 408 10;
#X obj 71 137 waterflow;
#X obj 70 161 *~ 0.2;
#X obj 173 136 waterflow;
#X obj 172 160 *~ 0.5;
#X obj 278 135 waterflow;
#X obj 277 159 *~ 0.8;
#X obj 173 48 loadbang;
#X msg 278 103 6;
#X msg 338 103 600;
#X msg 71 105 7;
#X msg 131 105 700;
#X msg 173 104 5;
#X msg 233 104 500;
#X obj 249 202 r farnflow;
#X obj 173 255 *~;
#X obj 172 366 outlet~;
#X obj 170 279 lop~ 2500;
#X obj 170 299 lop~ 2500;
#X obj 170 319 lop~ 2500;
#X obj 170 339 lop~ 2500;
#X connect 0 0 1 0;
#X connect 1 0 14 0;
#X connect 2 0 3 0;
#X connect 3 0 14 0;
#X connect 4 0 5 0;
#X connect 5 0 14 0;
#X connect 6 0 11 0;
#X connect 6 0 12 0;
#X connect 6 0 7 0;
#X connect 6 0 8 0;
#X connect 6 0 10 0;
#X connect 6 0 9 0;
#X connect 7 0 4 0;
#X connect 8 0 4 1;
#X connect 9 0 0 0;
#X connect 10 0 0 1;
#X connect 11 0 2 0;
#X connect 12 0 2 1;
#X connect 13 0 14 1;
#X connect 14 0 16 0;
#X connect 16 0 17 0;
#X connect 17 0 18 0;
#X connect 18 0 19 0;
#X connect 19 0 15 0;
