#N canvas 370 230 450 300 10;
#X obj 91 -141 output~;
#N canvas 482 38 450 300 test 1;
#X obj 93 -352 *~ 0.3;
#X obj 196 -220 *~ 0.125;
#X obj 196 -197 rzero~ -1;
#X obj 196 -174 rzero~ -1;
#X obj 196 -151 rzero~ -1;
#X obj 195 -323 rpole~ 0.87467;
#X obj 195 -346 *~ 0.12532;
#X obj 195 -300 *~ 0.01668;
#X obj 195 -277 cpole~ 0.9293 0.10812;
#X obj 195 -251 cpole~ 0.9293 -0.10812;
#X obj 67 -387 osc~ 350;
#X obj 29 -270 block~ 1024 1 16;
#X obj 204 -129 outlet~;
#X connect 0 0 6 0;
#X connect 1 0 2 0;
#X connect 2 0 3 0;
#X connect 3 0 4 0;
#X connect 4 0 12 0;
#X connect 5 0 7 0;
#X connect 6 0 5 0;
#X connect 7 0 8 0;
#X connect 8 0 9 0;
#X connect 8 1 9 1;
#X connect 9 0 1 0;
#X connect 10 0 0 0;
#X restore 101 -188 pd test;
#X connect 1 0 0 0;
#X connect 1 0 0 1;
