#N canvas 0 0 1920 997 10;
#N canvas 0 0 1920 997 waterhigh2 0;
#X obj -8 94 noise~;
#X obj 7 129 noise~;
#X obj -8 167 *~;
#X obj 7 148 *~ 0.41;
#X obj -9 186 hip~ 8000;
#X obj -9 205 hip~ 8000;
#X obj -9 223 hip~ 8000;
#X obj 51 209 noise~;
#X obj -10 244 *~;
#X obj 51 228 *~ 0.41;
#X obj 99 229 noise~;
#X obj -11 264 *~;
#X obj 99 248 *~ 0.41;
#X obj -10 284 cos~;
#X obj -11 505 bp~ 9300 15;
#X obj -10 561 outlet~;
#X obj -101 19 delread~ noise2 10;
#X obj -215 19 delread~ noise2 20;
#X obj -329 19 delread~ noise2 30;
#X obj -443 19 delread~ noise2 40;
#X obj -557 18 delread~ noise2 50;
#X obj 36 110 delwrite~ noise2 100;
#X obj -10 303 hip~ 1000;
#X obj -10 322 hip~ 1000;
#X obj -10 340 hip~ 1000;
#X obj -10 360 lop~ 1000;
#X obj -10 380 lop~ 1000;
#X obj -10 400 lop~ 1000;
#X obj -11 485 clip~ 0 0.05;
#X obj -10 540 *~;
#X obj 60 523 r high2;
#X connect 0 0 2 0;
#X connect 0 0 21 0;
#X connect 1 0 3 0;
#X connect 2 0 4 0;
#X connect 3 0 2 1;
#X connect 4 0 5 0;
#X connect 5 0 6 0;
#X connect 6 0 8 0;
#X connect 7 0 9 0;
#X connect 8 0 11 0;
#X connect 9 0 8 1;
#X connect 10 0 12 0;
#X connect 11 0 13 0;
#X connect 12 0 11 1;
#X connect 13 0 22 0;
#X connect 14 0 29 0;
#X connect 16 0 2 0;
#X connect 17 0 2 0;
#X connect 18 0 2 0;
#X connect 19 0 2 0;
#X connect 20 0 2 0;
#X connect 22 0 23 0;
#X connect 23 0 24 0;
#X connect 24 0 25 0;
#X connect 25 0 26 0;
#X connect 26 0 27 0;
#X connect 27 0 28 0;
#X connect 28 0 14 0;
#X connect 29 0 15 0;
#X connect 30 0 29 1;
#X restore 1199 410 pd waterhigh2;
#N canvas 0 0 1920 997 waterhigh1 0;
#X obj -8 94 noise~;
#X obj 7 129 noise~;
#X obj -8 167 *~;
#X obj 7 148 *~ 0.41;
#X obj -9 186 hip~ 8000;
#X obj -9 205 hip~ 8000;
#X obj -9 223 hip~ 8000;
#X obj 51 209 noise~;
#X obj -10 244 *~;
#X obj 51 228 *~ 0.41;
#X obj 99 229 noise~;
#X obj -11 264 *~;
#X obj 99 248 *~ 0.41;
#X obj -10 284 cos~;
#X obj 36 110 delwrite~ noise1 100;
#X obj -101 19 delread~ noise1 10;
#X obj -215 19 delread~ noise1 20;
#X obj -329 19 delread~ noise1 30;
#X obj -443 19 delread~ noise1 40;
#X obj -557 18 delread~ noise1 50;
#X obj -13 601 outlet~;
#X obj -10 340 hip~ 4000;
#X obj -10 322 hip~ 4000;
#X obj -10 303 hip~ 4000;
#X obj -10 360 lop~ 7000;
#X obj -11 456 bp~ 7300 25;
#X obj -10 380 lop~ 7000;
#X obj -10 400 lop~ 7000;
#X obj -11 485 clip~ 0.2 1;
#X obj -11 505 bp~ 7300 35;
#X obj -12 555 *~;
#X obj 109 538 r high1;
#X connect 0 0 2 0;
#X connect 0 0 14 0;
#X connect 1 0 3 0;
#X connect 2 0 4 0;
#X connect 3 0 2 1;
#X connect 4 0 5 0;
#X connect 5 0 6 0;
#X connect 6 0 8 0;
#X connect 7 0 9 0;
#X connect 8 0 11 0;
#X connect 9 0 8 1;
#X connect 10 0 12 0;
#X connect 11 0 13 0;
#X connect 12 0 11 1;
#X connect 13 0 23 0;
#X connect 15 0 2 0;
#X connect 16 0 2 0;
#X connect 17 0 2 0;
#X connect 18 0 2 0;
#X connect 19 0 2 0;
#X connect 21 0 24 0;
#X connect 22 0 21 0;
#X connect 23 0 22 0;
#X connect 24 0 26 0;
#X connect 25 0 28 0;
#X connect 26 0 27 0;
#X connect 27 0 25 0;
#X connect 28 0 29 0;
#X connect 29 0 30 0;
#X connect 30 0 20 0;
#X connect 31 0 30 1;
#X restore 1183 391 pd waterhigh1;
#N canvas 0 0 1920 997 waterhigh3 0;
#X obj -8 94 noise~;
#X obj 7 129 noise~;
#X obj -8 167 *~;
#X obj 7 148 *~ 0.41;
#X obj -9 186 hip~ 8000;
#X obj -9 205 hip~ 8000;
#X obj -9 223 hip~ 8000;
#X obj 51 209 noise~;
#X obj -10 244 *~;
#X obj 51 228 *~ 0.41;
#X obj 99 229 noise~;
#X obj -11 264 *~;
#X obj 99 248 *~ 0.41;
#X obj -10 284 cos~;
#X obj -10 400 lop~ 4000;
#X obj -11 456 bp~ 9300 15;
#X obj -11 505 bp~ 9300 15;
#X obj -12 592 outlet~;
#X obj -215 19 delread~ noise3 20;
#X obj 36 110 delwrite~ noise3 100;
#X obj -101 19 delread~ noise3 10;
#X obj -329 19 delread~ noise3 30;
#X obj -443 19 delread~ noise3 40;
#X obj -557 18 delread~ noise3 50;
#X obj -10 360 lop~ 4000;
#X obj -10 380 lop~ 4000;
#X obj -10 340 hip~ 4000;
#X obj -10 322 hip~ 4000;
#X obj -10 303 hip~ 4000;
#X obj -11 485 clip~ 0.1 1;
#X obj -11 546 *~;
#X obj 38 528 r high3;
#X connect 0 0 2 0;
#X connect 0 0 19 0;
#X connect 1 0 3 0;
#X connect 2 0 4 0;
#X connect 3 0 2 1;
#X connect 4 0 5 0;
#X connect 5 0 6 0;
#X connect 6 0 8 0;
#X connect 7 0 9 0;
#X connect 8 0 11 0;
#X connect 9 0 8 1;
#X connect 10 0 12 0;
#X connect 11 0 13 0;
#X connect 12 0 11 1;
#X connect 13 0 28 0;
#X connect 14 0 15 0;
#X connect 15 0 29 0;
#X connect 16 0 30 0;
#X connect 18 0 2 0;
#X connect 20 0 2 0;
#X connect 21 0 2 0;
#X connect 22 0 2 0;
#X connect 23 0 2 0;
#X connect 24 0 25 0;
#X connect 25 0 14 0;
#X connect 26 0 24 0;
#X connect 27 0 26 0;
#X connect 28 0 27 0;
#X connect 29 0 16 0;
#X connect 30 0 17 0;
#X connect 31 0 30 1;
#X restore 1216 429 pd waterhigh3;
#N canvas 0 0 1920 997 waterhigh4 0;
#X obj -8 94 noise~;
#X obj 7 129 noise~;
#X obj -8 167 *~;
#X obj 7 148 *~ 0.41;
#X obj -9 186 hip~ 8000;
#X obj -9 205 hip~ 8000;
#X obj -9 223 hip~ 8000;
#X obj 51 209 noise~;
#X obj -10 244 *~;
#X obj 51 228 *~ 0.41;
#X obj 99 229 noise~;
#X obj -11 264 *~;
#X obj 99 248 *~ 0.41;
#X obj -10 284 cos~;
#X obj -10 400 lop~ 4000;
#X obj -12 876 outlet~;
#X obj -215 19 delread~ noise3 20;
#X obj 36 110 delwrite~ noise3 100;
#X obj -101 19 delread~ noise3 10;
#X obj -329 19 delread~ noise3 30;
#X obj -443 19 delread~ noise3 40;
#X obj -557 18 delread~ noise3 50;
#X obj -10 360 lop~ 4000;
#X obj -10 380 lop~ 4000;
#X obj -11 830 *~;
#X obj 64 813 r high4;
#X obj -10 303 hip~ 500;
#X obj -10 322 hip~ 500;
#X obj -10 340 hip~ 500;
#X obj -11 485 clip~ 0.05 0.15;
#X obj -11 644 hip~ 1000;
#X obj -11 624 hip~ 1000;
#X obj -11 604 hip~ 1000;
#X obj -11 456 bp~ 4300 15;
#X obj -11 584 lop~ 2000;
#X obj -11 564 lop~ 2000;
#X obj -11 544 lop~ 2000;
#X obj -11 505 bp~ 3500 5;
#X obj -12 789 -~;
#X obj -11 715 lop~ 1000;
#X obj 59 759 hip~ 4000;
#X obj 59 740 hip~ 4000;
#X obj 58 720 hip~ 4000;
#X obj 58 701 hip~ 4000;
#X obj 58 681 hip~ 4000;
#X obj 57 661 hip~ 4000;
#X obj -11 809 bp~ 3000 10;
#X connect 0 0 2 0;
#X connect 0 0 17 0;
#X connect 1 0 3 0;
#X connect 2 0 4 0;
#X connect 3 0 2 1;
#X connect 4 0 5 0;
#X connect 5 0 6 0;
#X connect 6 0 8 0;
#X connect 7 0 9 0;
#X connect 8 0 11 0;
#X connect 9 0 8 1;
#X connect 10 0 12 0;
#X connect 11 0 13 0;
#X connect 12 0 11 1;
#X connect 13 0 26 0;
#X connect 14 0 33 0;
#X connect 16 0 2 0;
#X connect 18 0 2 0;
#X connect 19 0 2 0;
#X connect 20 0 2 0;
#X connect 21 0 2 0;
#X connect 22 0 23 0;
#X connect 23 0 14 0;
#X connect 24 0 15 0;
#X connect 25 0 24 1;
#X connect 26 0 27 0;
#X connect 27 0 28 0;
#X connect 28 0 22 0;
#X connect 29 0 37 0;
#X connect 30 0 39 0;
#X connect 30 0 45 0;
#X connect 31 0 30 0;
#X connect 32 0 31 0;
#X connect 33 0 29 0;
#X connect 34 0 32 0;
#X connect 35 0 34 0;
#X connect 36 0 35 0;
#X connect 37 0 36 0;
#X connect 38 0 46 0;
#X connect 39 0 38 0;
#X connect 40 0 38 1;
#X connect 41 0 40 0;
#X connect 42 0 41 0;
#X connect 43 0 42 0;
#X connect 44 0 43 0;
#X connect 45 0 44 0;
#X connect 46 0 24 0;
#X restore 1232 449 pd waterhigh4;
#N canvas 0 0 1920 997 watermid1 0;
#X obj 365 363 osc~;
#X obj 437 363 osc~;
#X obj 509 363 osc~;
#X obj 364 416 *~ 0.1;
#X obj 436 416 *~ 0.05;
#X obj 507 414 *~ 0.025;
#X obj 506 392 tanh~;
#X obj 435 392 tanh~;
#X obj 364 393 tanh~;
#X obj 447 456 *~ 0.5;
#X obj 436 224 metro 4;
#X obj 527 483 noise~;
#X obj 445 500 *~;
#X obj 524 539 +~ 1;
#X obj 526 508 /~ 15;
#X obj 423 694 outlet~;
#X obj 423 651 *~;
#X obj 460 640 r mid1;
#X obj 355 296 / 100;
#X obj 435 296 / 100;
#X obj 519 300 / 100;
#X obj 519 265 random 150000;
#X obj 437 265 random 100000;
#X obj 355 265 random 70000;
#X obj 422 527 lop~ 1000;
#X obj 422 546 hip~ 3000;
#X obj 425 597 bp~ 1000 12;
#X obj 436 198 loadbang;
#X obj 434 176 inlet;
#X connect 0 0 8 0;
#X connect 1 0 7 0;
#X connect 2 0 6 0;
#X connect 3 0 9 0;
#X connect 4 0 9 0;
#X connect 5 0 9 0;
#X connect 6 0 5 0;
#X connect 7 0 4 0;
#X connect 8 0 3 0;
#X connect 9 0 12 0;
#X connect 10 0 21 0;
#X connect 10 0 22 0;
#X connect 10 0 23 0;
#X connect 11 0 14 0;
#X connect 12 0 24 0;
#X connect 13 0 12 1;
#X connect 14 0 13 0;
#X connect 16 0 15 0;
#X connect 17 0 16 1;
#X connect 18 0 0 0;
#X connect 19 0 1 0;
#X connect 20 0 2 0;
#X connect 21 0 20 0;
#X connect 22 0 19 0;
#X connect 23 0 18 0;
#X connect 24 0 25 0;
#X connect 25 0 26 0;
#X connect 26 0 16 0;
#X connect 27 0 10 0;
#X connect 28 0 27 0;
#X restore 1254 471 pd watermid1;
#N canvas 0 0 1920 997 watermid2 0;
#X obj 365 363 osc~;
#X obj 437 363 osc~;
#X obj 509 363 osc~;
#X obj 364 416 *~ 0.1;
#X obj 436 416 *~ 0.05;
#X obj 506 392 tanh~;
#X obj 435 392 tanh~;
#X obj 364 393 tanh~;
#X obj 447 456 *~ 0.5;
#X obj 436 224 metro 4;
#X obj 540 479 noise~;
#X obj 445 500 *~;
#X obj 524 539 +~ 1;
#X obj 526 508 /~ 15;
#X obj 423 694 outlet~;
#X obj 423 651 *~;
#X obj 355 296 / 100;
#X obj 435 296 / 100;
#X obj 519 300 / 100;
#X obj 422 527 lop~ 1000;
#X obj 460 640 r mid2;
#X obj 422 546 hip~ 400;
#X obj 507 414 *~ 0.055;
#X obj 355 265 random 30000;
#X obj 437 265 random 50000;
#X obj 519 265 random 70000;
#X obj 425 597 bp~ 700 8;
#X obj 434 198 loadbang;
#X obj 433 168 inlet;
#X connect 0 0 7 0;
#X connect 1 0 6 0;
#X connect 2 0 5 0;
#X connect 3 0 8 0;
#X connect 4 0 8 0;
#X connect 5 0 22 0;
#X connect 6 0 4 0;
#X connect 7 0 3 0;
#X connect 8 0 11 0;
#X connect 9 0 23 0;
#X connect 9 0 24 0;
#X connect 9 0 25 0;
#X connect 10 0 13 0;
#X connect 11 0 19 0;
#X connect 12 0 11 1;
#X connect 13 0 12 0;
#X connect 15 0 14 0;
#X connect 16 0 0 0;
#X connect 17 0 1 0;
#X connect 18 0 2 0;
#X connect 19 0 21 0;
#X connect 20 0 15 1;
#X connect 21 0 26 0;
#X connect 22 0 8 0;
#X connect 23 0 16 0;
#X connect 24 0 17 0;
#X connect 25 0 18 0;
#X connect 26 0 15 0;
#X connect 27 0 9 0;
#X connect 28 0 27 0;
#X restore 1278 493 pd watermid2;
#N canvas 0 0 1920 997 watermid3 0;
#X obj 365 363 osc~;
#X obj 437 363 osc~;
#X obj 509 363 osc~;
#X obj 364 416 *~ 0.1;
#X obj 436 416 *~ 0.05;
#X obj 506 392 tanh~;
#X obj 435 392 tanh~;
#X obj 364 393 tanh~;
#X obj 447 456 *~ 0.5;
#X obj 436 224 metro 4;
#X obj 540 479 noise~;
#X obj 445 500 *~;
#X obj 524 539 +~ 1;
#X obj 526 508 /~ 15;
#X obj 423 694 outlet~;
#X obj 423 651 *~;
#X obj 355 296 / 100;
#X obj 435 296 / 100;
#X obj 519 300 / 100;
#X obj 422 527 lop~ 1000;
#X obj 422 546 hip~ 400;
#X obj 507 414 *~ 0.055;
#X obj 355 265 random 10000;
#X obj 437 265 random 30000;
#X obj 519 265 random 50000;
#X obj 460 640 r mid3;
#X obj 425 597 bp~ 300 7;
#X obj 425 179 loadbang;
#X obj 424 145 inlet;
#X connect 0 0 7 0;
#X connect 1 0 6 0;
#X connect 2 0 5 0;
#X connect 3 0 8 0;
#X connect 4 0 8 0;
#X connect 5 0 21 0;
#X connect 6 0 4 0;
#X connect 7 0 3 0;
#X connect 8 0 11 0;
#X connect 9 0 22 0;
#X connect 9 0 23 0;
#X connect 9 0 24 0;
#X connect 10 0 13 0;
#X connect 11 0 19 0;
#X connect 12 0 11 1;
#X connect 13 0 12 0;
#X connect 15 0 14 0;
#X connect 16 0 0 0;
#X connect 17 0 1 0;
#X connect 18 0 2 0;
#X connect 19 0 20 0;
#X connect 20 0 26 0;
#X connect 21 0 8 0;
#X connect 22 0 16 0;
#X connect 23 0 17 0;
#X connect 24 0 18 0;
#X connect 25 0 15 1;
#X connect 26 0 15 0;
#X connect 27 0 9 0;
#X connect 28 0 27 0;
#X restore 1298 516 pd watermid3;
#X obj 1136 663 outlet~;
#X obj 1352 371 inlet;
#X obj 1136 634 hip~ 500;
#X obj 584 129 noise~;
#X obj 599 164 noise~;
#X obj 584 202 *~;
#X obj 599 183 *~ 0.41;
#X obj 643 244 noise~;
#X obj 582 279 *~;
#X obj 643 263 *~ 0.41;
#X obj 635 353 *~;
#X obj 685 342 r noise;
#X obj 377 54 delread~ n 20;
#X obj 491 54 delread~ n 10;
#X obj 263 54 delread~ n 30;
#X obj 149 54 delread~ n 40;
#X obj 36 53 delread~ n 50;
#X obj 628 145 delwrite~ n 100;
#X obj 401 278 noise~;
#X obj 416 313 noise~;
#X obj 401 351 *~;
#X obj 416 332 *~ 0.41;
#X obj 460 393 noise~;
#X obj 399 428 *~;
#X obj 460 412 *~ 0.41;
#X obj 508 413 noise~;
#X obj 398 448 *~;
#X obj 508 432 *~ 0.41;
#X obj 402 501 *~;
#X obj 308 203 delread~ n2 10;
#X obj 194 203 delread~ n2 20;
#X obj 80 203 delread~ n2 30;
#X obj -34 203 delread~ n2 40;
#X obj -147 202 delread~ n2 50;
#X obj 445 294 delwrite~ n2 100;
#X obj 452 490 r noise2;
#X obj 1136 614 lop~ 6000;
#X obj 1136 594 lop~ 6000;
#X obj 1136 574 lop~ 6000;
#X obj 1136 534 lop~ 4000;
#X obj 1136 554 lop~ 4000;
#X obj 70 389 noise~;
#X obj 85 424 noise~;
#X obj 70 462 *~;
#X obj 85 443 *~ 0.41;
#X obj 129 504 noise~;
#X obj 68 539 *~;
#X obj 129 523 *~ 0.41;
#X obj 177 524 noise~;
#X obj 67 559 *~;
#X obj 177 543 *~ 0.41;
#X obj 68 579 cos~;
#X obj 71 612 *~;
#X obj 114 405 delwrite~ n2 100;
#X obj 69 518 hip~ 2000;
#X obj 69 500 hip~ 2000;
#X obj 69 481 hip~ 2000;
#X obj 121 601 r noise3;
#X obj -478 313 delread~ n3 50;
#X obj -365 314 delread~ n3 40;
#X obj -251 314 delread~ n3 30;
#X obj -137 314 delread~ n3 20;
#X obj -23 314 delread~ n3 10;
#X obj 69 647 hip~ 250;
#X obj 68 667 hip~ 250;
#X obj 68 687 hip~ 250;
#X obj 68 707 hip~ 250;
#X obj 68 726 lop~ 800;
#X obj 68 766 lop~ 800;
#X obj 68 786 lop~ 800;
#X obj 68 746 lop~ 800;
#X obj 400 407 hip~ 4000;
#X obj 400 389 hip~ 4000;
#X obj 400 370 hip~ 4000;
#X obj 583 240 hip~ 1000;
#X obj 583 221 hip~ 1000;
#X obj 583 258 hip~ 1000;
#X obj 399 536 lop~ 1550;
#X obj 399 556 lop~ 1550;
#X obj 399 576 lop~ 1550;
#X obj 399 596 lop~ 1550;
#X connect 0 0 46 0;
#X connect 1 0 46 0;
#X connect 2 0 46 0;
#X connect 3 0 46 0;
#X connect 4 0 46 0;
#X connect 5 0 46 0;
#X connect 6 0 46 0;
#X connect 8 0 4 0;
#X connect 8 0 5 0;
#X connect 8 0 6 0;
#X connect 9 0 7 0;
#X connect 10 0 12 0;
#X connect 10 0 24 0;
#X connect 11 0 13 0;
#X connect 12 0 82 0;
#X connect 13 0 12 1;
#X connect 14 0 16 0;
#X connect 15 0 17 0;
#X connect 16 0 15 1;
#X connect 17 0 46 0;
#X connect 18 0 17 1;
#X connect 19 0 12 0;
#X connect 20 0 12 0;
#X connect 21 0 12 0;
#X connect 22 0 12 0;
#X connect 23 0 12 0;
#X connect 25 0 27 0;
#X connect 25 0 41 0;
#X connect 26 0 28 0;
#X connect 27 0 80 0;
#X connect 28 0 27 1;
#X connect 29 0 31 0;
#X connect 30 0 33 0;
#X connect 31 0 30 1;
#X connect 32 0 34 0;
#X connect 33 0 35 0;
#X connect 34 0 33 1;
#X connect 35 0 84 0;
#X connect 36 0 27 0;
#X connect 37 0 27 0;
#X connect 38 0 27 0;
#X connect 39 0 27 0;
#X connect 40 0 27 0;
#X connect 42 0 35 1;
#X connect 43 0 9 0;
#X connect 44 0 43 0;
#X connect 45 0 44 0;
#X connect 46 0 47 0;
#X connect 47 0 45 0;
#X connect 48 0 50 0;
#X connect 48 0 60 0;
#X connect 49 0 51 0;
#X connect 50 0 63 0;
#X connect 51 0 50 1;
#X connect 52 0 54 0;
#X connect 53 0 56 0;
#X connect 54 0 53 1;
#X connect 55 0 57 0;
#X connect 56 0 58 0;
#X connect 57 0 56 1;
#X connect 58 0 59 0;
#X connect 59 0 70 0;
#X connect 61 0 53 0;
#X connect 62 0 61 0;
#X connect 63 0 62 0;
#X connect 64 0 59 1;
#X connect 65 0 50 0;
#X connect 66 0 50 0;
#X connect 67 0 50 0;
#X connect 68 0 50 0;
#X connect 69 0 50 0;
#X connect 70 0 71 0;
#X connect 71 0 72 0;
#X connect 72 0 73 0;
#X connect 73 0 74 0;
#X connect 74 0 77 0;
#X connect 75 0 76 0;
#X connect 76 0 46 0;
#X connect 77 0 75 0;
#X connect 78 0 30 0;
#X connect 79 0 78 0;
#X connect 80 0 79 0;
#X connect 81 0 83 0;
#X connect 82 0 81 0;
#X connect 83 0 15 0;
#X connect 84 0 85 0;
#X connect 85 0 86 0;
#X connect 86 0 87 0;
#X connect 87 0 46 0;
