#N canvas 0 0 1920 997 10;
#N canvas 0 0 1920 997 waterhigh2 0;
#X obj -8 94 noise~;
#X obj 7 129 noise~;
#X obj -8 167 *~;
#X obj 7 148 *~ 0.41;
#X obj -9 186 hip~ 8000;
#X obj -9 205 hip~ 8000;
#X obj -9 223 hip~ 8000;
#X obj 51 209 noise~;
#X obj -10 244 *~;
#X obj 51 228 *~ 0.41;
#X obj 99 229 noise~;
#X obj -11 264 *~;
#X obj 99 248 *~ 0.41;
#X obj -10 284 cos~;
#X obj -11 505 bp~ 9300 15;
#X obj -10 561 outlet~;
#X obj -101 19 delread~ noise2 10;
#X obj -215 19 delread~ noise2 20;
#X obj -329 19 delread~ noise2 30;
#X obj -443 19 delread~ noise2 40;
#X obj -557 18 delread~ noise2 50;
#X obj 36 110 delwrite~ noise2 100;
#X obj -10 303 hip~ 1000;
#X obj -10 322 hip~ 1000;
#X obj -10 340 hip~ 1000;
#X obj -10 360 lop~ 1000;
#X obj -10 380 lop~ 1000;
#X obj -10 400 lop~ 1000;
#X obj -11 485 clip~ 0 0.05;
#X obj -10 540 *~;
#X obj 60 523 r high2;
#X connect 0 0 2 0;
#X connect 0 0 21 0;
#X connect 1 0 3 0;
#X connect 2 0 4 0;
#X connect 3 0 2 1;
#X connect 4 0 5 0;
#X connect 5 0 6 0;
#X connect 6 0 8 0;
#X connect 7 0 9 0;
#X connect 8 0 11 0;
#X connect 9 0 8 1;
#X connect 10 0 12 0;
#X connect 11 0 13 0;
#X connect 12 0 11 1;
#X connect 13 0 22 0;
#X connect 14 0 29 0;
#X connect 16 0 2 0;
#X connect 17 0 2 0;
#X connect 18 0 2 0;
#X connect 19 0 2 0;
#X connect 20 0 2 0;
#X connect 22 0 23 0;
#X connect 23 0 24 0;
#X connect 24 0 25 0;
#X connect 25 0 26 0;
#X connect 26 0 27 0;
#X connect 27 0 28 0;
#X connect 28 0 14 0;
#X connect 29 0 15 0;
#X connect 30 0 29 1;
#X restore 1199 410 pd waterhigh2;
#N canvas 0 0 1920 997 waterhigh1 0;
#X obj -8 94 noise~;
#X obj 7 129 noise~;
#X obj -8 167 *~;
#X obj 7 148 *~ 0.41;
#X obj -9 186 hip~ 8000;
#X obj -9 205 hip~ 8000;
#X obj -9 223 hip~ 8000;
#X obj 51 209 noise~;
#X obj -10 244 *~;
#X obj 51 228 *~ 0.41;
#X obj 99 229 noise~;
#X obj -11 264 *~;
#X obj 99 248 *~ 0.41;
#X obj -10 284 cos~;
#X obj 36 110 delwrite~ noise1 100;
#X obj -101 19 delread~ noise1 10;
#X obj -215 19 delread~ noise1 20;
#X obj -329 19 delread~ noise1 30;
#X obj -443 19 delread~ noise1 40;
#X obj -557 18 delread~ noise1 50;
#X obj -13 601 outlet~;
#X obj -10 340 hip~ 4000;
#X obj -10 322 hip~ 4000;
#X obj -10 303 hip~ 4000;
#X obj -10 360 lop~ 7000;
#X obj -11 456 bp~ 7300 25;
#X obj -10 380 lop~ 7000;
#X obj -10 400 lop~ 7000;
#X obj -11 485 clip~ 0.2 1;
#X obj -11 505 bp~ 7300 35;
#X obj -12 555 *~;
#X obj 109 538 r high1;
#X connect 0 0 2 0;
#X connect 0 0 14 0;
#X connect 1 0 3 0;
#X connect 2 0 4 0;
#X connect 3 0 2 1;
#X connect 4 0 5 0;
#X connect 5 0 6 0;
#X connect 6 0 8 0;
#X connect 7 0 9 0;
#X connect 8 0 11 0;
#X connect 9 0 8 1;
#X connect 10 0 12 0;
#X connect 11 0 13 0;
#X connect 12 0 11 1;
#X connect 13 0 23 0;
#X connect 15 0 2 0;
#X connect 16 0 2 0;
#X connect 17 0 2 0;
#X connect 18 0 2 0;
#X connect 19 0 2 0;
#X connect 21 0 24 0;
#X connect 22 0 21 0;
#X connect 23 0 22 0;
#X connect 24 0 26 0;
#X connect 25 0 28 0;
#X connect 26 0 27 0;
#X connect 27 0 25 0;
#X connect 28 0 29 0;
#X connect 29 0 30 0;
#X connect 30 0 20 0;
#X connect 31 0 30 1;
#X restore 1183 391 pd waterhigh1;
#N canvas 0 0 1920 997 waterhigh3 0;
#X obj -8 94 noise~;
#X obj 7 129 noise~;
#X obj -8 167 *~;
#X obj 7 148 *~ 0.41;
#X obj -9 186 hip~ 8000;
#X obj -9 205 hip~ 8000;
#X obj -9 223 hip~ 8000;
#X obj 51 209 noise~;
#X obj -10 244 *~;
#X obj 51 228 *~ 0.41;
#X obj 99 229 noise~;
#X obj -11 264 *~;
#X obj 99 248 *~ 0.41;
#X obj -10 284 cos~;
#X obj -10 400 lop~ 4000;
#X obj -11 456 bp~ 9300 15;
#X obj -11 505 bp~ 9300 15;
#X obj -12 592 outlet~;
#X obj -215 19 delread~ noise3 20;
#X obj 36 110 delwrite~ noise3 100;
#X obj -101 19 delread~ noise3 10;
#X obj -329 19 delread~ noise3 30;
#X obj -443 19 delread~ noise3 40;
#X obj -557 18 delread~ noise3 50;
#X obj -10 360 lop~ 4000;
#X obj -10 380 lop~ 4000;
#X obj -10 340 hip~ 4000;
#X obj -10 322 hip~ 4000;
#X obj -10 303 hip~ 4000;
#X obj -11 485 clip~ 0.1 1;
#X obj -11 546 *~;
#X obj 38 528 r high3;
#X connect 0 0 2 0;
#X connect 0 0 19 0;
#X connect 1 0 3 0;
#X connect 2 0 4 0;
#X connect 3 0 2 1;
#X connect 4 0 5 0;
#X connect 5 0 6 0;
#X connect 6 0 8 0;
#X connect 7 0 9 0;
#X connect 8 0 11 0;
#X connect 9 0 8 1;
#X connect 10 0 12 0;
#X connect 11 0 13 0;
#X connect 12 0 11 1;
#X connect 13 0 28 0;
#X connect 14 0 15 0;
#X connect 15 0 29 0;
#X connect 16 0 30 0;
#X connect 18 0 2 0;
#X connect 20 0 2 0;
#X connect 21 0 2 0;
#X connect 22 0 2 0;
#X connect 23 0 2 0;
#X connect 24 0 25 0;
#X connect 25 0 14 0;
#X connect 26 0 24 0;
#X connect 27 0 26 0;
#X connect 28 0 27 0;
#X connect 29 0 16 0;
#X connect 30 0 17 0;
#X connect 31 0 30 1;
#X restore 1216 429 pd waterhigh3;
#N canvas 0 0 1920 997 waterhigh4 0;
#X obj -9 151 noise~;
#X obj 6 170 noise~;
#X obj -9 208 *~;
#X obj 6 189 *~ 0.41;
#X obj -9 227 hip~ 8000;
#X obj -9 246 hip~ 8000;
#X obj -9 265 hip~ 8000;
#X obj 52 249 noise~;
#X obj -9 284 *~;
#X obj 52 268 *~ 0.41;
#X obj 100 268 noise~;
#X obj -9 303 *~;
#X obj 100 287 *~ 0.41;
#X obj -9 322 cos~;
#X obj -9 436 lop~ 4000;
#X obj -9 113 delread~ noise3 20;
#X obj 55 167 delwrite~ noise3 100;
#X obj -9 132 delread~ noise3 10;
#X obj -9 94 delread~ noise3 30;
#X obj -9 75 delread~ noise3 40;
#X obj -9 56 delread~ noise3 50;
#X obj -9 398 lop~ 4000;
#X obj -9 417 lop~ 4000;
#X obj -10 772 *~;
#X obj 64 755 r high4;
#X obj -9 341 hip~ 500;
#X obj -9 360 hip~ 500;
#X obj -9 379 hip~ 500;
#X obj -9 474 clip~ 0.05 0.15;
#X obj -9 607 hip~ 1000;
#X obj -9 588 hip~ 1000;
#X obj -9 569 hip~ 1000;
#X obj -9 455 bp~ 4300 15;
#X obj -9 550 lop~ 2000;
#X obj -9 531 lop~ 2000;
#X obj -9 512 lop~ 2000;
#X obj -9 493 bp~ 3500 5;
#X obj -10 734 -~;
#X obj -10 715 lop~ 1000;
#X obj 59 718 hip~ 4000;
#X obj 59 699 hip~ 4000;
#X obj 59 680 hip~ 4000;
#X obj 59 661 hip~ 4000;
#X obj 59 642 hip~ 4000;
#X obj 59 623 hip~ 4000;
#X obj -10 753 bp~ 3000 10;
#X connect 0 0 2 0;
#X connect 0 0 16 0;
#X connect 1 0 3 0;
#X connect 2 0 4 0;
#X connect 3 0 2 1;
#X connect 4 0 5 0;
#X connect 5 0 6 0;
#X connect 6 0 8 0;
#X connect 7 0 9 0;
#X connect 8 0 11 0;
#X connect 9 0 8 1;
#X connect 10 0 12 0;
#X connect 11 0 13 0;
#X connect 12 0 11 1;
#X connect 13 0 25 0;
#X connect 14 0 32 0;
#X connect 15 0 2 0;
#X connect 17 0 2 0;
#X connect 18 0 2 0;
#X connect 19 0 2 0;
#X connect 20 0 2 0;
#X connect 21 0 22 0;
#X connect 22 0 14 0;
#X connect 24 0 23 1;
#X connect 25 0 26 0;
#X connect 26 0 27 0;
#X connect 27 0 21 0;
#X connect 28 0 36 0;
#X connect 29 0 38 0;
#X connect 29 0 44 0;
#X connect 30 0 29 0;
#X connect 31 0 30 0;
#X connect 32 0 28 0;
#X connect 33 0 31 0;
#X connect 34 0 33 0;
#X connect 35 0 34 0;
#X connect 36 0 35 0;
#X connect 37 0 45 0;
#X connect 38 0 37 0;
#X connect 39 0 37 1;
#X connect 40 0 39 0;
#X connect 41 0 40 0;
#X connect 42 0 41 0;
#X connect 43 0 42 0;
#X connect 44 0 43 0;
#X connect 45 0 23 0;
#X restore 1232 449 pd waterhigh4;
#X obj 1136 663 outlet~;
#X obj 1136 634 hip~ 500;
#X obj 1136 614 lop~ 6000;
#X obj 1136 594 lop~ 6000;
#X obj 1136 574 lop~ 6000;
#X obj 1136 534 lop~ 4000;
#X obj 1136 554 lop~ 4000;
#X connect 0 0 9 0;
#X connect 1 0 9 0;
#X connect 2 0 9 0;
#X connect 5 0 4 0;
#X connect 6 0 5 0;
#X connect 7 0 6 0;
#X connect 8 0 7 0;
#X connect 9 0 10 0;
#X connect 10 0 8 0;
