#N canvas -8 -8 1366 685 10;
#X obj 1989 -837 noise~;
#X obj 1989 -723 line;
#X obj 1989 -780 +~ 0.9;
#X obj 1989 -818 abs~;
#X obj 1989 -761 snapshot~;
#X obj 147 -574 line;
#X obj 147 -554 line;
#X obj 147 -534 line;
#X obj 147 -514 line;
#X obj 147 -494 line;
#X obj 147 -474 line;
#X obj 147 -454 line;
#X obj 147 -434 line;
#X obj 147 -414 line;
#X obj 147 -394 line;
#X obj 147 -374 line;
#X obj -123 -606 bng 15 250 50 0 empty empty empty 17 7 0 10 -262144
-1 -1;
#X obj 219 -668 metro 2;
#X obj 2129 -837 noise~;
#X obj 2129 -723 line;
#X obj 2129 -780 +~ 0.9;
#X obj 2129 -818 abs~;
#X obj 2129 -761 snapshot~;
#X obj 1849 -837 noise~;
#X obj 1849 -723 line;
#X obj 1849 -780 +~ 0.9;
#X obj 1849 -818 abs~;
#X obj 1849 -761 snapshot~;
#X obj 1429 -837 noise~;
#X obj 1429 -723 line;
#X obj 1429 -780 +~ 0.9;
#X obj 1429 -818 abs~;
#X obj 1429 -761 snapshot~;
#X obj 1709 -837 noise~;
#X obj 1709 -723 line;
#X obj 1709 -780 +~ 0.9;
#X obj 1709 -818 abs~;
#X obj 1709 -761 snapshot~;
#X obj 1569 -837 noise~;
#X obj 1569 -723 line;
#X obj 1569 -780 +~ 0.9;
#X obj 1569 -818 abs~;
#X obj 1569 -761 snapshot~;
#X obj 1709 -704 s rand1;
#X obj 1569 -704 s rand2;
#X obj 1429 -704 s rand3;
#X obj 1849 -704 s rand4;
#X obj 1989 -704 s rand5;
#X obj 2129 -704 s rand6;
#X obj 221 -357 *;
#X obj 221 -377 *;
#X obj 221 -397 *;
#X obj 221 -417 *;
#X obj 221 -437 *;
#X obj 221 -457 *;
#X obj 221 -477 *;
#X obj 221 -497 *;
#X obj 221 -517 *;
#X obj 221 -537 *;
#X obj 221 -557 *;
#X obj 266 -588 r rand1;
#X floatatom 1499 -706 5 0 0 0 - - -;
#X msg 1429 -742 \$1 100;
#X msg 1709 -742 \$1 100;
#X msg 1569 -742 \$1 100;
#X msg 2129 -742 \$1 100;
#X msg 1989 -742 \$1 100;
#X msg 1849 -742 \$1 100;
#X obj 1849 -799 *~ 0.2;
#X obj 1429 -799 *~ 0.2;
#X obj 1989 -799 *~ 0.2;
#X obj 2129 -799 *~ 0.2;
#X obj 1569 -799 *~ 0.2;
#X obj 1709 -799 *~ 0.2;
#X obj 12 -628 delay 1712;
#X floatatom 107 -630 5 0 0 0 - - -;
#X obj 147 -668 metro 1000;
#X obj 69 -666 random 2000;
#X obj 1043 -733 r rand1;
#X obj 1008 -716 *~;
#X obj 1176 -716 *~;
#X obj 1211 -733 r rand6;
#X msg 220 -591 0 2500;
#X msg 56 -591 0.003 2000;
#X msg 56 -571 0.1 2000;
#X msg 56 -551 0.01 2000;
#X msg 56 -531 0.4 2000;
#X msg 56 -511 0.4 2000;
#X msg 56 -491 0.0188 2000;
#X msg 56 -471 0.0164 2000;
#X msg 56 -451 0.001 2000;
#X msg 56 -431 0.1277 2000;
#X msg 56 -411 0.1417 2000;
#X msg 56 -391 0.2913 2000;
#X obj 220 -611 delay 2000;
#X obj 1008 -697 hip~ 2000;
#X obj 1176 -697 hip~ 2000;
#X msg -52 -591 0.033 2000;
#X msg -52 -571 1 2000;
#X msg -52 -551 0.1 2000;
#X msg -52 -531 4 2000;
#X msg -52 -511 4 2000;
#X msg -52 -491 0.188 2000;
#X msg -52 -471 0.164 2000;
#X msg -52 -451 0.005 2000;
#X msg -52 -431 1.277 2000;
#X msg -52 -411 1.417 2000;
#X msg -52 -391 2.913 2000;
#X obj 69 -647 + 800;
#X obj 147 -649 s metro1000;
#X obj 69 -685 r metro1000;
#X obj 466 -540 s high1_1;
#X obj 466 -521 s high2_1;
#X obj 466 -501 s high3_1;
#X obj 466 -480 s high4_1;
#X obj 466 -460 s mid1_1;
#X obj 466 -440 s mid2_1;
#X obj 466 -420 s mid3_1;
#X obj 466 -400 s noise_1;
#X obj 466 -380 s noise2_1;
#X obj 466 -360 s noise3_1;
#X obj 466 -340 s farnflow_1;
#X obj 177 187 *~;
#X obj 177 206 lop~ 2500;
#X obj 177 225 lop~ 2500;
#X obj 177 244 lop~ 2500;
#X obj 177 263 lop~ 2500;
#X obj -47 -34 osc~;
#X obj -47 -61 line~;
#X obj -6 62 *~;
#X obj 10 41 *~;
#X obj -47 -102 + 800;
#X obj 10 16 *~ 0.9;
#X obj 10 -4 lop~ 10;
#X obj 10 -24 clip~ 0 1;
#X obj -47 -82 pack 1 2.689;
#X obj -47 -122 * 1600;
#X obj 10 -45 fexpr~ $x1 - $x1[-1];
#X obj -6 88 *~ 0.3;
#X obj -47 -280 random 8192;
#X obj -47 -206 * 9;
#X obj -47 -229 / 4096;
#X obj 21 -254 > 4096;
#X obj 21 -232 sel 0 1;
#X msg 21 -209 -1;
#X msg 53 -209 1;
#X obj -47 -162 *;
#X obj -47 -141 / 23000;
#X obj -47 -301 t b;
#X obj -47 -253 mod 4096;
#X obj -47 -184 exp;
#X obj 136 -34 osc~;
#X obj 136 -61 line~;
#X obj 177 62 *~;
#X obj 193 41 *~;
#X obj 136 -102 + 800;
#X obj 193 16 *~ 0.9;
#X obj 193 -4 lop~ 10;
#X obj 193 -24 clip~ 0 1;
#X obj 136 -82 pack 1 2.689;
#X obj 136 -122 * 1600;
#X obj 193 -45 fexpr~ $x1 - $x1[-1];
#X obj 177 88 *~ 0.3;
#X obj 136 -280 random 8192;
#X obj 136 -206 * 9;
#X obj 136 -229 / 4096;
#X obj 204 -254 > 4096;
#X obj 204 -232 sel 0 1;
#X msg 204 -209 -1;
#X msg 236 -209 1;
#X obj 136 -162 *;
#X obj 136 -141 / 23000;
#X obj 136 -301 t b;
#X obj 136 -253 mod 4096;
#X obj 136 -184 exp;
#X obj 319 -34 osc~;
#X obj 319 -61 line~;
#X obj 360 62 *~;
#X obj 376 41 *~;
#X obj 319 -102 + 800;
#X obj 376 16 *~ 0.9;
#X obj 376 -4 lop~ 10;
#X obj 376 -24 clip~ 0 1;
#X obj 319 -82 pack 1 2.689;
#X obj 319 -122 * 1600;
#X obj 376 -45 fexpr~ $x1 - $x1[-1];
#X obj 360 88 *~ 0.3;
#X obj 319 -280 random 8192;
#X obj 319 -206 * 9;
#X obj 319 -229 / 4096;
#X obj 387 -254 > 4096;
#X obj 387 -232 sel 0 1;
#X msg 387 -209 -1;
#X msg 419 -209 1;
#X obj 319 -162 *;
#X obj 319 -141 / 23000;
#X obj 319 -301 t b;
#X obj 319 -253 mod 4096;
#X obj 319 -184 exp;
#X obj 295 170 r farnflow_1;
#X obj 177 827 *~;
#X obj 177 846 lop~ 2500;
#X obj 177 865 lop~ 2500;
#X obj 177 884 lop~ 2500;
#X obj 177 903 lop~ 2500;
#X obj -47 606 osc~;
#X obj -47 579 line~;
#X obj -6 702 *~;
#X obj 10 681 *~;
#X obj -47 538 + 800;
#X obj 10 656 *~ 0.9;
#X obj 10 636 lop~ 10;
#X obj 10 616 clip~ 0 1;
#X obj -47 558 pack 1 2.689;
#X obj -47 518 * 1600;
#X obj 10 595 fexpr~ $x1 - $x1[-1];
#X obj -6 728 *~ 0.3;
#X obj -47 360 random 8192;
#X obj -47 434 * 9;
#X obj -47 411 / 4096;
#X obj 21 386 > 4096;
#X obj 21 408 sel 0 1;
#X msg 21 431 -1;
#X msg 53 431 1;
#X obj -47 478 *;
#X obj -47 499 / 23000;
#X obj -47 339 t b;
#X obj -47 387 mod 4096;
#X obj -47 456 exp;
#X obj 136 606 osc~;
#X obj 136 579 line~;
#X obj 177 702 *~;
#X obj 193 681 *~;
#X obj 136 320 metro 6;
#X obj 136 538 + 800;
#X obj 193 656 *~ 0.9;
#X obj 193 636 lop~ 10;
#X obj 193 616 clip~ 0 1;
#X obj 136 558 pack 1 2.689;
#X obj 136 518 * 1600;
#X obj 193 595 fexpr~ $x1 - $x1[-1];
#X obj 177 728 *~ 0.3;
#X obj 136 360 random 8192;
#X obj 136 434 * 9;
#X obj 136 411 / 4096;
#X obj 204 386 > 4096;
#X obj 204 408 sel 0 1;
#X msg 204 431 -1;
#X msg 236 431 1;
#X obj 136 478 *;
#X obj 136 499 / 23000;
#X obj 136 339 t b;
#X obj 136 387 mod 4096;
#X obj 136 456 exp;
#X obj 319 606 osc~;
#X obj 319 579 line~;
#X obj 360 702 *~;
#X obj 376 681 *~;
#X obj 319 538 + 800;
#X obj 376 656 *~ 0.9;
#X obj 376 636 lop~ 10;
#X obj 376 616 clip~ 0 1;
#X obj 319 558 pack 1 2.689;
#X obj 319 518 * 1600;
#X obj 376 595 fexpr~ $x1 - $x1[-1];
#X obj 360 728 *~ 0.3;
#X obj 319 360 random 8192;
#X obj 319 434 * 9;
#X obj 319 411 / 4096;
#X obj 387 386 > 4096;
#X obj 387 408 sel 0 1;
#X msg 387 431 -1;
#X msg 419 431 1;
#X obj 319 478 *;
#X obj 319 499 / 23000;
#X obj 319 339 t b;
#X obj 319 387 mod 4096;
#X obj 319 456 exp;
#X obj 295 810 r farnflow_1;
#X obj -7 887 noise~;
#X obj 8 906 noise~;
#X obj -7 944 *~;
#X obj 8 925 *~ 0.41;
#X obj 53 985 noise~;
#X obj -7 1020 *~;
#X obj 53 1004 *~ 0.41;
#X obj 101 1004 noise~;
#X obj -7 1039 *~;
#X obj 101 1023 *~ 0.41;
#X obj -7 1058 cos~;
#X obj -7 1077 *~;
#X obj -7 1001 hip~ 2000;
#X obj -7 982 hip~ 2000;
#X obj -7 963 hip~ 2000;
#X obj -7 1096 hip~ 250;
#X obj -7 1115 hip~ 250;
#X obj -7 1134 hip~ 250;
#X obj -7 1153 hip~ 250;
#X obj -7 1172 lop~ 800;
#X obj -7 1210 lop~ 800;
#X obj -7 1229 lop~ 800;
#X obj -7 1191 lop~ 800;
#X obj 295 924 noise~;
#X obj 310 943 noise~;
#X obj 295 981 *~;
#X obj 310 962 *~ 0.41;
#X obj 355 1022 noise~;
#X obj 295 1057 *~;
#X obj 355 1041 *~ 0.41;
#X obj 403 1041 noise~;
#X obj 295 1076 *~;
#X obj 403 1060 *~ 0.41;
#X obj 295 1095 *~;
#X obj 295 1038 hip~ 4000;
#X obj 295 1019 hip~ 4000;
#X obj 295 1000 hip~ 4000;
#X obj 295 1114 lop~ 1550;
#X obj 295 1133 lop~ 1550;
#X obj 295 1152 lop~ 1550;
#X obj 295 1171 lop~ 1550;
#X obj 355 1192 noise~;
#X obj 370 1211 noise~;
#X obj 355 1249 *~;
#X obj 370 1230 *~ 0.41;
#X obj 415 1290 noise~;
#X obj 355 1325 *~;
#X obj 415 1309 *~ 0.41;
#X obj 355 1344 *~;
#X obj 355 1287 hip~ 1000;
#X obj 355 1268 hip~ 1000;
#X obj 355 1306 hip~ 1000;
#X obj 67 1764 osc~;
#X obj 145 1764 osc~;
#X obj 223 1764 osc~;
#X obj 67 1802 *~ 0.1;
#X obj 145 1802 *~ 0.05;
#X obj 223 1783 tanh~;
#X obj 145 1783 tanh~;
#X obj 67 1783 tanh~;
#X obj 145 1897 *~ 0.5;
#X obj 187 1862 noise~;
#X obj 145 1916 *~;
#X obj 187 1900 +~ 1;
#X obj 187 1881 /~ 15;
#X obj 145 1992 *~;
#X obj 67 1745 / 100;
#X obj 145 1745 / 100;
#X obj 223 1745 / 100;
#X obj 145 1935 lop~ 1000;
#X obj 145 1954 hip~ 400;
#X obj 223 1802 *~ 0.055;
#X obj 67 1726 random 10000;
#X obj 145 1726 random 30000;
#X obj 223 1726 random 50000;
#X obj 145 1973 bp~ 300 7;
#X obj 161 1448 osc~;
#X obj 239 1448 osc~;
#X obj 317 1448 osc~;
#X obj 161 1486 *~ 0.1;
#X obj 239 1486 *~ 0.05;
#X obj 317 1467 tanh~;
#X obj 239 1467 tanh~;
#X obj 161 1467 tanh~;
#X obj 239 1581 *~ 0.5;
#X obj 281 1546 noise~;
#X obj 239 1600 *~;
#X obj 281 1584 +~ 1;
#X obj 281 1565 /~ 15;
#X obj 239 1676 *~;
#X obj 161 1429 / 100;
#X obj 239 1429 / 100;
#X obj 317 1429 / 100;
#X obj 239 1619 lop~ 1000;
#X obj 239 1638 hip~ 400;
#X obj 317 1486 *~ 0.055;
#X obj 161 1410 random 30000;
#X obj 239 1410 random 50000;
#X obj 317 1410 random 70000;
#X obj 239 1657 bp~ 700 8;
#X obj -91 1448 osc~;
#X obj -7 1448 osc~;
#X obj 77 1448 osc~;
#X obj -91 1486 *~ 0.1;
#X obj -7 1486 *~ 0.05;
#X obj 77 1486 *~ 0.025;
#X obj 77 1467 tanh~;
#X obj -7 1467 tanh~;
#X obj -91 1467 tanh~;
#X obj -7 1587 *~ 0.5;
#X obj 42 1552 noise~;
#X obj -7 1606 *~;
#X obj 42 1590 +~ 1;
#X obj 42 1571 /~ 15;
#X obj -7 1682 *~;
#X obj -91 1429 / 100;
#X obj -7 1429 / 100;
#X obj 77 1429 / 100;
#X obj 77 1410 random 150000;
#X obj -7 1410 random 100000;
#X obj -91 1410 random 70000;
#X obj -7 1625 lop~ 1000;
#X obj -7 1644 hip~ 3000;
#X obj -7 1663 bp~ 1000 12;
#X obj -109 1824 noise~;
#X obj -94 1843 noise~;
#X obj -109 1881 *~;
#X obj -94 1862 *~ 0.41;
#X obj -109 1900 hip~ 8000;
#X obj -109 1919 hip~ 8000;
#X obj -109 1938 hip~ 8000;
#X obj -48 1922 noise~;
#X obj -109 1957 *~;
#X obj -48 1941 *~ 0.41;
#X obj 0 1941 noise~;
#X obj -109 1976 *~;
#X obj 0 1960 *~ 0.41;
#X obj -109 1995 cos~;
#X obj -109 2109 lop~ 4000;
#X obj -109 2071 lop~ 4000;
#X obj -109 2090 lop~ 4000;
#X obj -110 2462 *~;
#X obj -109 2014 hip~ 500;
#X obj -109 2033 hip~ 500;
#X obj -109 2052 hip~ 500;
#X obj -109 2147 clip~ 0.05 0.15;
#X obj -109 2280 hip~ 1000;
#X obj -109 2261 hip~ 1000;
#X obj -109 2242 hip~ 1000;
#X obj -109 2128 bp~ 4300 15;
#X obj -109 2223 lop~ 2000;
#X obj -109 2204 lop~ 2000;
#X obj -109 2185 lop~ 2000;
#X obj -109 2166 bp~ 3500 5;
#X obj -110 2407 -~;
#X obj -110 2388 lop~ 1000;
#X obj -41 2391 hip~ 4000;
#X obj -41 2372 hip~ 4000;
#X obj -41 2353 hip~ 4000;
#X obj -41 2334 hip~ 4000;
#X obj -41 2315 hip~ 4000;
#X obj -41 2296 hip~ 4000;
#X obj -110 2426 bp~ 3000 10;
#X obj 301 1821 noise~;
#X obj 316 1840 noise~;
#X obj 301 1878 *~;
#X obj 316 1859 *~ 0.41;
#X obj 301 1897 hip~ 8000;
#X obj 301 1916 hip~ 8000;
#X obj 301 1935 hip~ 8000;
#X obj 361 1919 noise~;
#X obj 301 1954 *~;
#X obj 361 1938 *~ 0.41;
#X obj 409 1938 noise~;
#X obj 301 1973 *~;
#X obj 409 1957 *~ 0.41;
#X obj 301 1992 cos~;
#X obj 301 2106 lop~ 4000;
#X obj 301 2125 bp~ 9300 15;
#X obj 301 2163 bp~ 9300 15;
#X obj 301 2068 lop~ 4000;
#X obj 301 2087 lop~ 4000;
#X obj 301 2049 hip~ 4000;
#X obj 301 2030 hip~ 4000;
#X obj 301 2011 hip~ 4000;
#X obj 301 2144 clip~ 0.1 1;
#X obj 301 2182 *~;
#X obj 19 2144 noise~;
#X obj 34 2163 noise~;
#X obj 19 2201 *~;
#X obj 34 2182 *~ 0.41;
#X obj 19 2220 hip~ 8000;
#X obj 19 2239 hip~ 8000;
#X obj 19 2258 hip~ 8000;
#X obj 79 2242 noise~;
#X obj 19 2277 *~;
#X obj 79 2261 *~ 0.41;
#X obj 127 2261 noise~;
#X obj 19 2296 *~;
#X obj 127 2280 *~ 0.41;
#X obj 19 2315 cos~;
#X obj 19 2467 bp~ 9300 15;
#X obj 19 2334 hip~ 1000;
#X obj 19 2353 hip~ 1000;
#X obj 19 2372 hip~ 1000;
#X obj 19 2391 lop~ 1000;
#X obj 19 2410 lop~ 1000;
#X obj 19 2429 lop~ 1000;
#X obj 19 2448 clip~ 0 0.05;
#X obj 19 2486 *~;
#X obj 175 2280 noise~;
#X obj 190 2299 noise~;
#X obj 175 2337 *~;
#X obj 190 2318 *~ 0.41;
#X obj 175 2356 hip~ 8000;
#X obj 175 2375 hip~ 8000;
#X obj 175 2394 hip~ 8000;
#X obj 235 2378 noise~;
#X obj 175 2413 *~;
#X obj 235 2397 *~ 0.41;
#X obj 283 2397 noise~;
#X obj 175 2432 *~;
#X obj 283 2416 *~ 0.41;
#X obj 175 2451 cos~;
#X obj 175 2508 hip~ 4000;
#X obj 175 2489 hip~ 4000;
#X obj 175 2470 hip~ 4000;
#X obj 175 2527 lop~ 7000;
#X obj 175 2584 bp~ 7300 25;
#X obj 175 2546 lop~ 7000;
#X obj 175 2565 lop~ 7000;
#X obj 175 2603 clip~ 0.2 1;
#X obj 175 2622 bp~ 7300 35;
#X obj 175 2641 *~;
#X obj 247 2624 r high1_1;
#X obj 91 2469 r high2_1;
#X obj 373 2165 r high3_1;
#X obj -86 2445 r high4_1;
#X obj 206 1975 r mid3_1;
#X obj 65 1665 r mid1_1;
#X obj 299 1659 r mid2_1;
#X obj 464 1327 r noise_1;
#X obj 452 1078 r noise2_1;
#X obj 25 1060 r noise3_1;
#X obj 273 -668 metro 4;
#X obj 273 -649 s 4metro;
#X obj -7 1309 r 4metro;
#X obj 239 1315 r 4metro;
#X obj 145 1631 r 4metro;
#X obj 314 -588 r rand3;
#X obj 362 -588 r rand5;
#X obj 410 -588 r rand2;
#X obj 458 -588 r rand6;
#X obj 506 -588 r rand4;
#X obj 219 -649 s 2metro;
#X obj 327 -668 metro 7;
#X obj 381 -668 metro 6;
#X obj 435 -797 loadbang;
#X obj 435 -814 bng 15 250 50 0 empty empty empty 17 7 0 10 -262144
-1 -1;
#X obj 435 -668 metro 5;
#X obj 327 -649 s 7metro;
#X obj 381 -649 s 6metro;
#X obj 435 -649 s 5metro;
#X obj -47 -320 r 7metro;
#X obj -47 320 r 7metro;
#X obj 136 -320 r 5metro;
#X obj 319 -320 r 6metro;
#X obj 319 320 r 6metro;
#X obj 489 -649 s farninit1;
#X obj 561 -649 s farninit2;
#X obj 633 -649 s farninit3;
#X msg 489 -668 500;
#X msg 561 -668 600;
#X msg 633 -668 700;
#X obj 178 -119 r farninit1;
#X obj 178 521 r farninit1;
#X obj -5 -119 r farninit3;
#X obj -5 521 r farninit3;
#X obj 361 521 r farninit2;
#X obj 361 -119 r farninit2;
#X obj -109 2657 throw~ wavesum;
#X obj 301 2201 throw~ wavesum;
#X obj 145 2011 throw~ wavesum;
#X obj 239 1695 throw~ wavesum;
#X obj -7 1701 throw~ wavesum;
#X obj 355 1363 throw~ wavesum;
#X obj 177 1246 throw~ wavesum;
#X obj 177 282 throw~ wavesum;
#X obj 1092 -817 catch~ wavesum;
#X obj 1008 -836 delread~ wavedelay 150;
#X obj 1176 -752 delread~ wavedelay 100;
#X obj 1091 -652 delwrite~ wavedelay;
#X obj 1053 -164 output~;
#X obj -109 1729 delread~ noise3_1 50;
#X obj -109 1748 delread~ noise3_1 40;
#X obj -109 1767 delread~ noise3_1 30;
#X obj -109 1786 delread~ noise3_1 20;
#X obj -109 1805 delread~ noise3_1 10;
#X obj 301 1726 delread~ noise4_1 50;
#X obj 301 1745 delread~ noise4_1 40;
#X obj 301 1764 delread~ noise4_1 30;
#X obj 301 1783 delread~ noise4_1 20;
#X obj 301 1802 delread~ noise4_1 10;
#X obj 19 2049 delread~ noise2_1 50;
#X obj 19 2068 delread~ noise2_1 40;
#X obj 19 2087 delread~ noise2_1 30;
#X obj 19 2106 delread~ noise2_1 20;
#X obj 19 2125 delread~ noise2_1 10;
#X obj 76 2160 delwrite~ noise2_1 50;
#X obj 358 1837 delwrite~ noise4_1 50;
#X obj -45 1840 delwrite~ noise3_1 50;
#X obj 232 2296 delwrite~ noise1_1 100;
#X obj 175 2185 delread~ noise1_1 50;
#X obj 175 2204 delread~ noise1_1 40;
#X obj 175 2223 delread~ noise1_1 30;
#X obj 175 2242 delread~ noise1_1 20;
#X obj 175 2262 delread~ noise1_1 10;
#X obj -7 792 delread~ n3_1 50;
#X obj -7 811 delread~ n3_1 40;
#X obj -7 830 delread~ n3_1 30;
#X obj -7 849 delread~ n3_1 20;
#X obj -7 868 delread~ n3_1 10;
#X obj 295 829 delread~ n2_1 50;
#X obj 295 848 delread~ n2_1 40;
#X obj 295 867 delread~ n2_1 30;
#X obj 295 886 delread~ n2_1 20;
#X obj 295 905 delread~ n2_1 10;
#X obj 352 940 delwrite~ n2_1 50;
#X obj 57 903 delwrite~ n3_1 50;
#X obj 419 1208 delwrite~ n_1 50;
#X obj 355 1173 delread~ n_1 10;
#X obj 355 1154 delread~ n_1 20;
#X obj 355 1135 delread~ n_1 30;
#X obj 355 1116 delread~ n_1 40;
#X obj 355 1097 delread~ n_1 50;
#X obj 1490 -778 r 2metro;
#X obj 1630 -778 r 2metro;
#X obj 1770 -778 r 2metro;
#X obj 1910 -778 r 2metro;
#X obj 2050 -778 r 2metro;
#X obj 2190 -778 r 2metro;
#X obj 794 -487 block~ 1024 1 16;
#X obj 976 -274 *~ 0.125;
#X obj 976 -251 rzero~ -1;
#X obj 976 -228 rzero~ -1;
#X obj 976 -205 rzero~ -1;
#X obj 975 -377 rpole~ 0.87467;
#X obj 975 -400 *~ 0.12532;
#X obj 975 -354 *~ 0.01668;
#X obj 975 -331 cpole~ 0.9293 0.10812;
#X obj 975 -305 cpole~ 0.9293 -0.10812;
#X obj 1126 -274 *~ 0.125;
#X obj 1126 -251 rzero~ -1;
#X obj 1126 -228 rzero~ -1;
#X obj 1126 -205 rzero~ -1;
#X obj 1125 -377 rpole~ 0.87467;
#X obj 1125 -400 *~ 0.12532;
#X obj 1125 -354 *~ 0.01668;
#X obj 1125 -331 cpole~ 0.9293 0.10812;
#X obj 1125 -305 cpole~ 0.9293 -0.10812;
#X connect 0 0 3 0;
#X connect 1 0 47 0;
#X connect 2 0 4 0;
#X connect 3 0 70 0;
#X connect 4 0 66 0;
#X connect 5 0 59 0;
#X connect 6 0 58 0;
#X connect 7 0 57 0;
#X connect 8 0 56 0;
#X connect 9 0 55 0;
#X connect 10 0 54 0;
#X connect 11 0 53 0;
#X connect 12 0 52 0;
#X connect 13 0 51 0;
#X connect 14 0 50 0;
#X connect 15 0 49 0;
#X connect 16 0 97 0;
#X connect 16 0 98 0;
#X connect 16 0 99 0;
#X connect 16 0 100 0;
#X connect 16 0 101 0;
#X connect 16 0 102 0;
#X connect 16 0 103 0;
#X connect 16 0 104 0;
#X connect 16 0 105 0;
#X connect 16 0 106 0;
#X connect 16 0 107 0;
#X connect 16 0 74 0;
#X connect 17 0 533 0;
#X connect 18 0 21 0;
#X connect 19 0 48 0;
#X connect 20 0 22 0;
#X connect 21 0 71 0;
#X connect 22 0 65 0;
#X connect 23 0 26 0;
#X connect 24 0 46 0;
#X connect 25 0 27 0;
#X connect 26 0 68 0;
#X connect 27 0 67 0;
#X connect 28 0 31 0;
#X connect 29 0 45 0;
#X connect 29 0 61 0;
#X connect 30 0 32 0;
#X connect 31 0 69 0;
#X connect 32 0 62 0;
#X connect 33 0 36 0;
#X connect 34 0 43 0;
#X connect 35 0 37 0;
#X connect 36 0 73 0;
#X connect 37 0 63 0;
#X connect 38 0 41 0;
#X connect 39 0 44 0;
#X connect 40 0 42 0;
#X connect 41 0 72 0;
#X connect 42 0 64 0;
#X connect 49 0 121 0;
#X connect 50 0 120 0;
#X connect 51 0 119 0;
#X connect 52 0 118 0;
#X connect 53 0 117 0;
#X connect 54 0 116 0;
#X connect 55 0 115 0;
#X connect 56 0 114 0;
#X connect 57 0 113 0;
#X connect 58 0 112 0;
#X connect 59 0 111 0;
#X connect 60 0 59 1;
#X connect 60 0 52 1;
#X connect 62 0 29 0;
#X connect 63 0 34 0;
#X connect 64 0 39 0;
#X connect 65 0 19 0;
#X connect 66 0 1 0;
#X connect 67 0 24 0;
#X connect 68 0 25 0;
#X connect 69 0 30 0;
#X connect 70 0 2 0;
#X connect 71 0 20 0;
#X connect 72 0 40 0;
#X connect 73 0 35 0;
#X connect 74 0 83 0;
#X connect 74 0 84 0;
#X connect 74 0 85 0;
#X connect 74 0 86 0;
#X connect 74 0 87 0;
#X connect 74 0 88 0;
#X connect 74 0 89 0;
#X connect 74 0 90 0;
#X connect 74 0 91 0;
#X connect 74 0 92 0;
#X connect 74 0 93 0;
#X connect 74 0 94 0;
#X connect 76 0 109 0;
#X connect 77 0 108 0;
#X connect 78 0 79 1;
#X connect 79 0 95 0;
#X connect 80 0 96 0;
#X connect 81 0 80 1;
#X connect 82 0 5 0;
#X connect 82 0 6 0;
#X connect 82 0 7 0;
#X connect 82 0 8 0;
#X connect 82 0 9 0;
#X connect 82 0 10 0;
#X connect 82 0 11 0;
#X connect 82 0 12 0;
#X connect 82 0 13 0;
#X connect 82 0 14 0;
#X connect 82 0 15 0;
#X connect 83 0 5 0;
#X connect 84 0 6 0;
#X connect 85 0 7 0;
#X connect 86 0 8 0;
#X connect 87 0 9 0;
#X connect 88 0 10 0;
#X connect 89 0 11 0;
#X connect 90 0 12 0;
#X connect 91 0 13 0;
#X connect 92 0 14 0;
#X connect 93 0 15 0;
#X connect 94 0 82 0;
#X connect 97 0 5 0;
#X connect 98 0 6 0;
#X connect 99 0 7 0;
#X connect 100 0 8 0;
#X connect 101 0 9 0;
#X connect 102 0 10 0;
#X connect 103 0 11 0;
#X connect 104 0 12 0;
#X connect 105 0 13 0;
#X connect 106 0 14 0;
#X connect 107 0 15 0;
#X connect 108 0 74 1;
#X connect 108 0 75 0;
#X connect 110 0 77 0;
#X connect 122 0 123 0;
#X connect 123 0 124 0;
#X connect 124 0 125 0;
#X connect 125 0 126 0;
#X connect 126 0 566 0;
#X connect 127 0 129 0;
#X connect 128 0 127 0;
#X connect 128 0 137 0;
#X connect 129 0 138 0;
#X connect 130 0 129 1;
#X connect 131 0 135 0;
#X connect 132 0 130 0;
#X connect 132 0 130 1;
#X connect 133 0 132 0;
#X connect 134 0 133 0;
#X connect 135 0 128 0;
#X connect 136 0 131 0;
#X connect 137 0 134 0;
#X connect 138 0 122 0;
#X connect 139 0 142 0;
#X connect 139 0 149 0;
#X connect 140 0 150 0;
#X connect 141 0 140 0;
#X connect 142 0 143 0;
#X connect 143 0 144 0;
#X connect 143 1 145 0;
#X connect 144 0 146 1;
#X connect 145 0 146 1;
#X connect 146 0 147 0;
#X connect 147 0 136 0;
#X connect 148 0 139 0;
#X connect 149 0 141 0;
#X connect 150 0 146 0;
#X connect 151 0 153 0;
#X connect 152 0 151 0;
#X connect 152 0 161 0;
#X connect 153 0 162 0;
#X connect 154 0 153 1;
#X connect 155 0 159 0;
#X connect 156 0 154 0;
#X connect 156 0 154 1;
#X connect 157 0 156 0;
#X connect 158 0 157 0;
#X connect 159 0 152 0;
#X connect 160 0 155 0;
#X connect 161 0 158 0;
#X connect 162 0 122 0;
#X connect 163 0 166 0;
#X connect 163 0 173 0;
#X connect 164 0 174 0;
#X connect 165 0 164 0;
#X connect 166 0 167 0;
#X connect 167 0 168 0;
#X connect 167 1 169 0;
#X connect 168 0 170 1;
#X connect 169 0 170 1;
#X connect 170 0 171 0;
#X connect 171 0 160 0;
#X connect 172 0 163 0;
#X connect 173 0 165 0;
#X connect 174 0 170 0;
#X connect 175 0 177 0;
#X connect 176 0 175 0;
#X connect 176 0 185 0;
#X connect 177 0 186 0;
#X connect 178 0 177 1;
#X connect 179 0 183 0;
#X connect 180 0 178 0;
#X connect 180 0 178 1;
#X connect 181 0 180 0;
#X connect 182 0 181 0;
#X connect 183 0 176 0;
#X connect 184 0 179 0;
#X connect 185 0 182 0;
#X connect 186 0 122 0;
#X connect 187 0 190 0;
#X connect 187 0 197 0;
#X connect 188 0 198 0;
#X connect 189 0 188 0;
#X connect 190 0 191 0;
#X connect 191 0 192 0;
#X connect 191 1 193 0;
#X connect 192 0 194 1;
#X connect 193 0 194 1;
#X connect 194 0 195 0;
#X connect 195 0 184 0;
#X connect 196 0 187 0;
#X connect 197 0 189 0;
#X connect 198 0 194 0;
#X connect 199 0 122 1;
#X connect 200 0 201 0;
#X connect 201 0 202 0;
#X connect 202 0 203 0;
#X connect 203 0 204 0;
#X connect 204 0 565 0;
#X connect 205 0 207 0;
#X connect 206 0 205 0;
#X connect 206 0 215 0;
#X connect 207 0 216 0;
#X connect 208 0 207 1;
#X connect 209 0 213 0;
#X connect 210 0 208 0;
#X connect 210 0 208 1;
#X connect 211 0 210 0;
#X connect 212 0 211 0;
#X connect 213 0 206 0;
#X connect 214 0 209 0;
#X connect 215 0 212 0;
#X connect 216 0 200 0;
#X connect 217 0 220 0;
#X connect 217 0 227 0;
#X connect 218 0 228 0;
#X connect 219 0 218 0;
#X connect 220 0 221 0;
#X connect 221 0 222 0;
#X connect 221 1 223 0;
#X connect 222 0 224 1;
#X connect 223 0 224 1;
#X connect 224 0 225 0;
#X connect 225 0 214 0;
#X connect 226 0 217 0;
#X connect 227 0 219 0;
#X connect 228 0 224 0;
#X connect 229 0 231 0;
#X connect 230 0 229 0;
#X connect 230 0 240 0;
#X connect 231 0 241 0;
#X connect 232 0 231 1;
#X connect 233 0 251 0;
#X connect 234 0 238 0;
#X connect 235 0 232 0;
#X connect 235 0 232 1;
#X connect 236 0 235 0;
#X connect 237 0 236 0;
#X connect 238 0 230 0;
#X connect 239 0 234 0;
#X connect 240 0 237 0;
#X connect 241 0 200 0;
#X connect 242 0 245 0;
#X connect 242 0 252 0;
#X connect 243 0 253 0;
#X connect 244 0 243 0;
#X connect 245 0 246 0;
#X connect 246 0 247 0;
#X connect 246 1 248 0;
#X connect 247 0 249 1;
#X connect 248 0 249 1;
#X connect 249 0 250 0;
#X connect 250 0 239 0;
#X connect 251 0 242 0;
#X connect 252 0 244 0;
#X connect 253 0 249 0;
#X connect 254 0 256 0;
#X connect 255 0 254 0;
#X connect 255 0 264 0;
#X connect 256 0 265 0;
#X connect 257 0 256 1;
#X connect 258 0 262 0;
#X connect 259 0 257 0;
#X connect 259 0 257 1;
#X connect 260 0 259 0;
#X connect 261 0 260 0;
#X connect 262 0 255 0;
#X connect 263 0 258 0;
#X connect 264 0 261 0;
#X connect 265 0 200 0;
#X connect 266 0 269 0;
#X connect 266 0 276 0;
#X connect 267 0 277 0;
#X connect 268 0 267 0;
#X connect 269 0 270 0;
#X connect 270 0 271 0;
#X connect 270 1 272 0;
#X connect 271 0 273 1;
#X connect 272 0 273 1;
#X connect 273 0 274 0;
#X connect 274 0 263 0;
#X connect 275 0 266 0;
#X connect 276 0 268 0;
#X connect 277 0 273 0;
#X connect 278 0 200 1;
#X connect 279 0 281 0;
#X connect 279 0 607 0;
#X connect 280 0 282 0;
#X connect 281 0 293 0;
#X connect 282 0 281 1;
#X connect 283 0 285 0;
#X connect 284 0 287 0;
#X connect 285 0 284 1;
#X connect 286 0 288 0;
#X connect 287 0 289 0;
#X connect 288 0 287 1;
#X connect 289 0 290 0;
#X connect 290 0 294 0;
#X connect 291 0 284 0;
#X connect 292 0 291 0;
#X connect 293 0 292 0;
#X connect 294 0 295 0;
#X connect 295 0 296 0;
#X connect 296 0 297 0;
#X connect 297 0 298 0;
#X connect 298 0 301 0;
#X connect 299 0 300 0;
#X connect 300 0 565 0;
#X connect 301 0 299 0;
#X connect 302 0 304 0;
#X connect 302 0 606 0;
#X connect 303 0 305 0;
#X connect 304 0 315 0;
#X connect 305 0 304 1;
#X connect 306 0 308 0;
#X connect 307 0 310 0;
#X connect 308 0 307 1;
#X connect 309 0 311 0;
#X connect 310 0 312 0;
#X connect 311 0 310 1;
#X connect 312 0 316 0;
#X connect 313 0 307 0;
#X connect 314 0 313 0;
#X connect 315 0 314 0;
#X connect 316 0 317 0;
#X connect 317 0 318 0;
#X connect 318 0 319 0;
#X connect 319 0 565 0;
#X connect 320 0 322 0;
#X connect 320 0 608 0;
#X connect 321 0 323 0;
#X connect 322 0 329 0;
#X connect 323 0 322 1;
#X connect 324 0 326 0;
#X connect 325 0 327 0;
#X connect 326 0 325 1;
#X connect 327 0 564 0;
#X connect 328 0 330 0;
#X connect 329 0 328 0;
#X connect 330 0 325 0;
#X connect 331 0 338 0;
#X connect 332 0 337 0;
#X connect 333 0 336 0;
#X connect 334 0 339 0;
#X connect 335 0 339 0;
#X connect 336 0 350 0;
#X connect 337 0 335 0;
#X connect 338 0 334 0;
#X connect 339 0 341 0;
#X connect 340 0 343 0;
#X connect 341 0 348 0;
#X connect 342 0 341 1;
#X connect 343 0 342 0;
#X connect 344 0 561 0;
#X connect 345 0 331 0;
#X connect 346 0 332 0;
#X connect 347 0 333 0;
#X connect 348 0 349 0;
#X connect 349 0 354 0;
#X connect 350 0 339 0;
#X connect 351 0 345 0;
#X connect 352 0 346 0;
#X connect 353 0 347 0;
#X connect 354 0 344 0;
#X connect 355 0 362 0;
#X connect 356 0 361 0;
#X connect 357 0 360 0;
#X connect 358 0 363 0;
#X connect 359 0 363 0;
#X connect 360 0 374 0;
#X connect 361 0 359 0;
#X connect 362 0 358 0;
#X connect 363 0 365 0;
#X connect 364 0 367 0;
#X connect 365 0 372 0;
#X connect 366 0 365 1;
#X connect 367 0 366 0;
#X connect 368 0 562 0;
#X connect 369 0 355 0;
#X connect 370 0 356 0;
#X connect 371 0 357 0;
#X connect 372 0 373 0;
#X connect 373 0 378 0;
#X connect 374 0 363 0;
#X connect 375 0 369 0;
#X connect 376 0 370 0;
#X connect 377 0 371 0;
#X connect 378 0 368 0;
#X connect 379 0 387 0;
#X connect 380 0 386 0;
#X connect 381 0 385 0;
#X connect 382 0 388 0;
#X connect 383 0 388 0;
#X connect 384 0 388 0;
#X connect 385 0 384 0;
#X connect 386 0 383 0;
#X connect 387 0 382 0;
#X connect 388 0 390 0;
#X connect 389 0 392 0;
#X connect 390 0 400 0;
#X connect 391 0 390 1;
#X connect 392 0 391 0;
#X connect 393 0 563 0;
#X connect 394 0 379 0;
#X connect 395 0 380 0;
#X connect 396 0 381 0;
#X connect 397 0 396 0;
#X connect 398 0 395 0;
#X connect 399 0 394 0;
#X connect 400 0 401 0;
#X connect 401 0 402 0;
#X connect 402 0 393 0;
#X connect 403 0 405 0;
#X connect 403 0 589 0;
#X connect 404 0 406 0;
#X connect 405 0 407 0;
#X connect 406 0 405 1;
#X connect 407 0 408 0;
#X connect 408 0 409 0;
#X connect 409 0 411 0;
#X connect 410 0 412 0;
#X connect 411 0 414 0;
#X connect 412 0 411 1;
#X connect 413 0 415 0;
#X connect 414 0 416 0;
#X connect 415 0 414 1;
#X connect 416 0 421 0;
#X connect 417 0 428 0;
#X connect 418 0 419 0;
#X connect 419 0 417 0;
#X connect 420 0 559 0;
#X connect 421 0 422 0;
#X connect 422 0 423 0;
#X connect 423 0 418 0;
#X connect 424 0 432 0;
#X connect 425 0 434 0;
#X connect 425 0 440 0;
#X connect 426 0 425 0;
#X connect 427 0 426 0;
#X connect 428 0 424 0;
#X connect 429 0 427 0;
#X connect 430 0 429 0;
#X connect 431 0 430 0;
#X connect 432 0 431 0;
#X connect 433 0 441 0;
#X connect 434 0 433 0;
#X connect 435 0 433 1;
#X connect 436 0 435 0;
#X connect 437 0 436 0;
#X connect 438 0 437 0;
#X connect 439 0 438 0;
#X connect 440 0 439 0;
#X connect 441 0 420 0;
#X connect 442 0 444 0;
#X connect 442 0 588 0;
#X connect 443 0 445 0;
#X connect 444 0 446 0;
#X connect 445 0 444 1;
#X connect 446 0 447 0;
#X connect 447 0 448 0;
#X connect 448 0 450 0;
#X connect 449 0 451 0;
#X connect 450 0 453 0;
#X connect 451 0 450 1;
#X connect 452 0 454 0;
#X connect 453 0 455 0;
#X connect 454 0 453 1;
#X connect 455 0 463 0;
#X connect 456 0 457 0;
#X connect 457 0 464 0;
#X connect 458 0 465 0;
#X connect 459 0 460 0;
#X connect 460 0 456 0;
#X connect 461 0 459 0;
#X connect 462 0 461 0;
#X connect 463 0 462 0;
#X connect 464 0 458 0;
#X connect 465 0 560 0;
#X connect 466 0 468 0;
#X connect 466 0 587 0;
#X connect 467 0 469 0;
#X connect 468 0 470 0;
#X connect 469 0 468 1;
#X connect 470 0 471 0;
#X connect 471 0 472 0;
#X connect 472 0 474 0;
#X connect 473 0 475 0;
#X connect 474 0 477 0;
#X connect 475 0 474 1;
#X connect 476 0 478 0;
#X connect 477 0 479 0;
#X connect 478 0 477 1;
#X connect 479 0 481 0;
#X connect 480 0 488 0;
#X connect 481 0 482 0;
#X connect 482 0 483 0;
#X connect 483 0 484 0;
#X connect 484 0 485 0;
#X connect 485 0 486 0;
#X connect 486 0 487 0;
#X connect 487 0 480 0;
#X connect 488 0 559 0;
#X connect 489 0 491 0;
#X connect 489 0 590 0;
#X connect 490 0 492 0;
#X connect 491 0 493 0;
#X connect 492 0 491 1;
#X connect 493 0 494 0;
#X connect 494 0 495 0;
#X connect 495 0 497 0;
#X connect 496 0 498 0;
#X connect 497 0 500 0;
#X connect 498 0 497 1;
#X connect 499 0 501 0;
#X connect 500 0 502 0;
#X connect 501 0 500 1;
#X connect 502 0 505 0;
#X connect 503 0 506 0;
#X connect 504 0 503 0;
#X connect 505 0 504 0;
#X connect 506 0 508 0;
#X connect 507 0 510 0;
#X connect 508 0 509 0;
#X connect 509 0 507 0;
#X connect 510 0 511 0;
#X connect 511 0 512 0;
#X connect 512 0 559 0;
#X connect 513 0 512 1;
#X connect 514 0 488 1;
#X connect 515 0 465 1;
#X connect 516 0 420 1;
#X connect 517 0 344 1;
#X connect 518 0 393 1;
#X connect 519 0 368 1;
#X connect 520 0 327 1;
#X connect 521 0 312 1;
#X connect 522 0 290 1;
#X connect 523 0 524 0;
#X connect 525 0 397 0;
#X connect 525 0 398 0;
#X connect 525 0 399 0;
#X connect 526 0 375 0;
#X connect 526 0 376 0;
#X connect 526 0 377 0;
#X connect 527 0 351 0;
#X connect 527 0 352 0;
#X connect 527 0 353 0;
#X connect 528 0 57 1;
#X connect 528 0 54 1;
#X connect 529 0 50 1;
#X connect 529 0 56 1;
#X connect 530 0 58 1;
#X connect 530 0 49 1;
#X connect 531 0 52 1;
#X connect 531 0 55 1;
#X connect 532 0 51 1;
#X connect 532 0 53 1;
#X connect 534 0 539 0;
#X connect 535 0 540 0;
#X connect 536 0 538 0;
#X connect 536 0 550 0;
#X connect 536 0 551 0;
#X connect 536 0 552 0;
#X connect 536 0 535 0;
#X connect 536 0 534 0;
#X connect 536 0 523 0;
#X connect 536 0 17 0;
#X connect 536 0 76 0;
#X connect 537 0 536 0;
#X connect 538 0 541 0;
#X connect 542 0 148 0;
#X connect 543 0 226 0;
#X connect 544 0 172 0;
#X connect 545 0 196 0;
#X connect 546 0 275 0;
#X connect 550 0 547 0;
#X connect 551 0 548 0;
#X connect 552 0 549 0;
#X connect 553 0 155 1;
#X connect 554 0 234 1;
#X connect 555 0 131 1;
#X connect 556 0 209 1;
#X connect 557 0 258 1;
#X connect 558 0 179 1;
#X connect 567 0 79 0;
#X connect 567 0 80 0;
#X connect 567 0 570 0;
#X connect 567 0 626 0;
#X connect 567 0 635 0;
#X connect 568 0 79 0;
#X connect 569 0 80 0;
#X connect 572 0 405 0;
#X connect 573 0 405 0;
#X connect 574 0 405 0;
#X connect 575 0 405 0;
#X connect 576 0 405 0;
#X connect 577 0 444 0;
#X connect 578 0 444 0;
#X connect 579 0 444 0;
#X connect 580 0 444 0;
#X connect 581 0 444 0;
#X connect 582 0 468 0;
#X connect 583 0 468 0;
#X connect 584 0 468 0;
#X connect 585 0 468 0;
#X connect 586 0 468 0;
#X connect 591 0 491 0;
#X connect 592 0 491 0;
#X connect 593 0 491 0;
#X connect 594 0 491 0;
#X connect 595 0 491 0;
#X connect 596 0 281 0;
#X connect 597 0 281 0;
#X connect 598 0 281 0;
#X connect 599 0 281 0;
#X connect 600 0 281 0;
#X connect 601 0 304 0;
#X connect 602 0 304 0;
#X connect 603 0 304 0;
#X connect 604 0 304 0;
#X connect 605 0 304 0;
#X connect 609 0 322 0;
#X connect 610 0 322 0;
#X connect 611 0 322 0;
#X connect 612 0 322 0;
#X connect 613 0 322 0;
#X connect 614 0 32 0;
#X connect 615 0 42 0;
#X connect 616 0 37 0;
#X connect 617 0 27 0;
#X connect 618 0 4 0;
#X connect 619 0 22 0;
#X connect 621 0 622 0;
#X connect 622 0 623 0;
#X connect 623 0 624 0;
#X connect 624 0 571 0;
#X connect 625 0 627 0;
#X connect 626 0 625 0;
#X connect 627 0 628 0;
#X connect 628 0 629 0;
#X connect 628 1 629 1;
#X connect 629 0 621 0;
#X connect 630 0 631 0;
#X connect 631 0 632 0;
#X connect 632 0 633 0;
#X connect 633 0 571 1;
#X connect 634 0 636 0;
#X connect 635 0 634 0;
#X connect 636 0 637 0;
#X connect 637 0 638 0;
#X connect 637 1 638 1;
#X connect 638 0 630 0;
