#N canvas 882 0 958 988 10;
#X obj 1040 282 hsl 128 15 0 1 0 0 high1 empty High1 50 8 0 10 -258113
-1 -1 0 1;
#X obj 1040 302 hsl 128 15 0 1 0 0 high2 empty High2 50 8 0 10 -258113
-1 -1 0 1;
#X obj 1040 322 hsl 128 15 0 1 0 0 high3 empty High3 50 8 0 10 -258113
-1 -1 0 1;
#X obj 1222 264 r high1;
#X floatatom 1172 281 5 0 0 0 - - -;
#X floatatom 1172 301 5 0 0 0 - - -;
#X floatatom 1172 321 5 0 0 0 - - -;
#X obj 1222 284 r high2;
#X obj 1222 304 r high3;
#X obj 1040 342 hsl 128 15 0 4 0 0 high4 empty High4 50 8 0 10 -258113
-1 -1 0 1;
#X floatatom 1172 342 5 0 0 0 - - -;
#X obj 1222 325 r high4;
#X obj 1040 362 hsl 128 15 0 10 0 0 mid1 empty Mid1 50 8 0 10 -260097
-1 -1 0 1;
#X floatatom 1172 362 5 0 0 0 - - -;
#X obj 1222 345 r mid1;
#X obj 1040 382 hsl 128 15 0 1 0 0 mid2 empty Mid2 50 8 0 10 -260097
-1 -1 0 1;
#X floatatom 1172 382 5 0 0 0 - - -;
#X obj 1222 365 r mid2;
#X obj 1040 402 hsl 128 15 0 1 0 0 mid3 empty Mid3 50 8 0 10 -260097
-1 -1 0 1;
#X floatatom 1172 402 5 0 0 0 - - -;
#X obj 1222 385 r mid3;
#X obj 793 513 bng 15 250 50 0 empty empty empty 17 7 0 10 -262144
-1 -1;
#X obj 1040 422 hsl 128 15 0 0.02 0 0 noise empty Noise1 50 8 0 10
-257985 -1 -1 0 1;
#X floatatom 1172 422 5 0 0 0 - - -;
#X obj 1222 405 r noise;
#X obj 1040 442 hsl 128 15 0 5 0 0 noise2 empty Noise2 50 8 0 10 -257985
-1 -1 0 1;
#X floatatom 1172 442 5 0 0 0 - - -;
#X obj 1222 425 r noise2;
#X obj 881 693 delread~ water2 30;
#X obj 1022 641 delwrite~ water2 30;
#X obj 727 678 delread~ water1 30;
#X obj 514 601 delwrite~ water1 30;
#X obj 1040 462 hsl 128 15 0 10 0 0 noise3 empty Noise3 50 8 0 10 -257985
-1 -1 0 1;
#X floatatom 1172 462 5 0 0 0 - - -;
#X obj 1222 445 r noise3;
#X obj 789 557 waterflow1;
#X obj 1040 482 hsl 128 15 0 10 0 0 farnflow empty Farnflow 50 8 0
10 -4034 -1 -1 0 1;
#X floatatom 1172 482 5 0 0 0 - - -;
#X obj 1222 465 r farnflow;
#X obj 983 561 waterflow1;
#X obj 600 560 waterflow1;
#X obj 1052 562 running_water2;
#X obj 1144 563 running_water2;
#X obj 539 537 running_water2;
#X obj 811 593 running_water2;
#X obj 515 513 running_water2;
#X obj 781 843 output~;
#X obj 1304 124 noise~;
#X obj 1304 238 line;
#X obj 1304 181 +~ 0.9;
#X obj 1304 143 abs~;
#X obj 1304 200 snapshot~;
#X obj 878 120 loadbang;
#X obj 878 103 bng 15 250 50 0 empty empty empty 17 7 0 10 -262144
-1 -1;
#X obj 716 248 line;
#X obj 716 268 line;
#X obj 716 288 line;
#X obj 716 308 line;
#X obj 716 328 line;
#X obj 716 348 line;
#X obj 716 368 line;
#X obj 716 388 line;
#X obj 716 408 line;
#X obj 716 428 line;
#X obj 716 448 line;
#X obj 446 216 bng 15 250 50 0 empty empty empty 17 7 0 10 -262144
-1 -1;
#X obj 946 139 metro 2;
#X obj 946 120 loadbang;
#X obj 946 103 bng 15 250 50 0 empty empty empty 17 7 0 10 -262144
-1 -1;
#X obj 946 159 s metrowave;
#X obj 1444 124 noise~;
#X obj 1444 238 line;
#X obj 1444 181 +~ 0.9;
#X obj 1444 143 abs~;
#X obj 1444 200 snapshot~;
#X obj 1444 287 noise~;
#X obj 1444 401 line;
#X obj 1444 344 +~ 0.9;
#X obj 1444 306 abs~;
#X obj 1444 363 snapshot~;
#X obj 1304 287 noise~;
#X obj 1304 401 line;
#X obj 1304 344 +~ 0.9;
#X obj 1304 306 abs~;
#X obj 1304 363 snapshot~;
#X obj 1304 450 noise~;
#X obj 1304 564 line;
#X obj 1304 507 +~ 0.9;
#X obj 1304 469 abs~;
#X obj 1304 526 snapshot~;
#X obj 1444 450 noise~;
#X obj 1444 564 line;
#X obj 1444 507 +~ 0.9;
#X obj 1444 469 abs~;
#X obj 1444 526 snapshot~;
#X obj 1304 583 s rand1;
#X obj 1444 583 s rand2;
#X obj 1304 420 s rand3;
#X obj 1444 420 s rand4;
#X obj 1304 257 s rand5;
#X obj 1444 257 s rand6;
#X obj 790 465 *;
#X obj 790 445 *;
#X obj 790 425 *;
#X obj 790 405 *;
#X obj 790 385 *;
#X obj 790 365 *;
#X obj 790 345 *;
#X obj 790 325 *;
#X obj 790 305 *;
#X obj 790 285 *;
#X obj 790 265 *;
#X obj 835 234 r rand1;
#X obj 883 234 r rand2;
#X obj 931 234 r rand3;
#X obj 979 234 r rand4;
#X obj 1027 234 r rand5;
#X obj 1075 234 r rand6;
#X obj 1365 183 r metrowave;
#X obj 1505 183 r metrowave;
#X obj 1505 346 r metrowave;
#X obj 1365 346 r metrowave;
#X obj 1365 509 r metrowave;
#X obj 1505 509 r metrowave;
#X floatatom 1376 429 5 0 0 0 - - -;
#X msg 1304 382 \$1 100;
#X msg 1304 545 \$1 100;
#X msg 1444 545 \$1 100;
#X msg 1444 219 \$1 100;
#X msg 1304 219 \$1 100;
#X msg 1444 382 \$1 100;
#X obj 1444 325 *~ 0.2;
#X obj 1304 325 *~ 0.2;
#X obj 1304 162 *~ 0.2;
#X obj 1444 162 *~ 0.2;
#X obj 1444 488 *~ 0.2;
#X obj 1304 488 *~ 0.2;
#X obj 581 194 delay 1712;
#X floatatom 676 192 5 0 0 0 - - -;
#X obj 879 139 metro 1000;
#X obj 733 708 delread~ water2 0;
#X obj 887 723 delread~ water1 0;
#X obj 638 156 random 2000;
#X obj 771 739 r rand1;
#X obj 756 760 *~;
#X obj 882 766 *~;
#X obj 897 747 r rand6;
#X msg 789 231 0 2500;
#X msg 625 231 0.003 2000;
#X msg 625 251 0.1 2000;
#X msg 625 271 0.01 2000;
#X msg 625 291 0.4 2000;
#X msg 625 311 0.4 2000;
#X msg 625 331 0.0188 2000;
#X msg 625 351 0.0164 2000;
#X msg 625 371 0.001 2000;
#X msg 625 391 0.1277 2000;
#X msg 625 411 0.1417 2000;
#X msg 625 431 0.2913 2000;
#X obj 789 211 delay 2000;
#X obj 782 804 hip~ 2000;
#X obj 908 805 hip~ 2000;
#X msg 517 231 0.033 2000;
#X msg 517 251 1 2000;
#X msg 517 271 0.1 2000;
#X msg 517 291 4 2000;
#X msg 517 311 4 2000;
#X msg 517 331 0.188 2000;
#X msg 517 351 0.164 2000;
#X msg 517 371 0.005 2000;
#X msg 517 391 1.277 2000;
#X msg 517 411 1.417 2000;
#X msg 517 431 2.913 2000;
#X obj 638 175 + 800;
#X connect 3 0 4 0;
#X connect 7 0 5 0;
#X connect 8 0 6 0;
#X connect 11 0 10 0;
#X connect 14 0 13 0;
#X connect 17 0 16 0;
#X connect 20 0 19 0;
#X connect 21 0 35 0;
#X connect 21 0 39 0;
#X connect 21 0 40 0;
#X connect 24 0 23 0;
#X connect 27 0 26 0;
#X connect 28 0 145 0;
#X connect 30 0 144 0;
#X connect 34 0 33 0;
#X connect 35 0 144 0;
#X connect 35 0 145 0;
#X connect 38 0 37 0;
#X connect 39 0 29 0;
#X connect 40 0 31 0;
#X connect 41 0 29 0;
#X connect 42 0 29 0;
#X connect 43 0 31 0;
#X connect 44 0 145 0;
#X connect 44 0 144 0;
#X connect 45 0 31 0;
#X connect 47 0 50 0;
#X connect 48 0 99 0;
#X connect 49 0 51 0;
#X connect 50 0 133 0;
#X connect 51 0 129 0;
#X connect 52 0 139 0;
#X connect 53 0 52 0;
#X connect 54 0 111 0;
#X connect 55 0 110 0;
#X connect 56 0 109 0;
#X connect 57 0 108 0;
#X connect 58 0 107 0;
#X connect 59 0 106 0;
#X connect 60 0 105 0;
#X connect 61 0 104 0;
#X connect 62 0 103 0;
#X connect 63 0 102 0;
#X connect 64 0 101 0;
#X connect 65 0 162 0;
#X connect 65 0 163 0;
#X connect 65 0 164 0;
#X connect 65 0 165 0;
#X connect 65 0 166 0;
#X connect 65 0 167 0;
#X connect 65 0 168 0;
#X connect 65 0 169 0;
#X connect 65 0 170 0;
#X connect 65 0 171 0;
#X connect 65 0 172 0;
#X connect 65 0 137 0;
#X connect 66 0 69 0;
#X connect 67 0 66 0;
#X connect 68 0 67 0;
#X connect 70 0 73 0;
#X connect 71 0 100 0;
#X connect 72 0 74 0;
#X connect 73 0 134 0;
#X connect 74 0 128 0;
#X connect 75 0 78 0;
#X connect 76 0 98 0;
#X connect 77 0 79 0;
#X connect 78 0 131 0;
#X connect 79 0 130 0;
#X connect 80 0 83 0;
#X connect 81 0 97 0;
#X connect 81 0 124 0;
#X connect 82 0 84 0;
#X connect 83 0 132 0;
#X connect 84 0 125 0;
#X connect 85 0 88 0;
#X connect 86 0 95 0;
#X connect 87 0 89 0;
#X connect 88 0 136 0;
#X connect 89 0 126 0;
#X connect 90 0 93 0;
#X connect 91 0 96 0;
#X connect 92 0 94 0;
#X connect 93 0 135 0;
#X connect 94 0 127 0;
#X connect 101 0 36 0;
#X connect 102 0 32 0;
#X connect 103 0 25 0;
#X connect 104 0 22 0;
#X connect 105 0 18 0;
#X connect 106 0 15 0;
#X connect 107 0 12 0;
#X connect 108 0 9 0;
#X connect 109 0 2 0;
#X connect 110 0 1 0;
#X connect 111 0 0 0;
#X connect 112 0 111 1;
#X connect 112 0 104 1;
#X connect 113 0 109 1;
#X connect 113 0 106 1;
#X connect 114 0 102 1;
#X connect 114 0 108 1;
#X connect 115 0 110 1;
#X connect 115 0 101 1;
#X connect 116 0 104 1;
#X connect 116 0 107 1;
#X connect 117 0 103 1;
#X connect 117 0 105 1;
#X connect 118 0 51 0;
#X connect 119 0 74 0;
#X connect 120 0 79 0;
#X connect 121 0 84 0;
#X connect 122 0 89 0;
#X connect 123 0 94 0;
#X connect 125 0 81 0;
#X connect 126 0 86 0;
#X connect 127 0 91 0;
#X connect 128 0 71 0;
#X connect 129 0 48 0;
#X connect 130 0 76 0;
#X connect 131 0 77 0;
#X connect 132 0 82 0;
#X connect 133 0 49 0;
#X connect 134 0 72 0;
#X connect 135 0 92 0;
#X connect 136 0 87 0;
#X connect 137 0 148 0;
#X connect 137 0 149 0;
#X connect 137 0 150 0;
#X connect 137 0 151 0;
#X connect 137 0 152 0;
#X connect 137 0 153 0;
#X connect 137 0 154 0;
#X connect 137 0 155 0;
#X connect 137 0 156 0;
#X connect 137 0 157 0;
#X connect 137 0 158 0;
#X connect 137 0 159 0;
#X connect 139 0 142 0;
#X connect 140 0 144 0;
#X connect 141 0 145 0;
#X connect 142 0 173 0;
#X connect 143 0 144 1;
#X connect 144 0 160 0;
#X connect 144 0 46 0;
#X connect 145 0 161 0;
#X connect 145 0 46 1;
#X connect 146 0 145 1;
#X connect 147 0 54 0;
#X connect 147 0 55 0;
#X connect 147 0 56 0;
#X connect 147 0 57 0;
#X connect 147 0 58 0;
#X connect 147 0 59 0;
#X connect 147 0 60 0;
#X connect 147 0 61 0;
#X connect 147 0 62 0;
#X connect 147 0 63 0;
#X connect 147 0 64 0;
#X connect 148 0 54 0;
#X connect 149 0 55 0;
#X connect 150 0 56 0;
#X connect 151 0 57 0;
#X connect 152 0 58 0;
#X connect 153 0 59 0;
#X connect 154 0 60 0;
#X connect 155 0 61 0;
#X connect 156 0 62 0;
#X connect 157 0 63 0;
#X connect 158 0 64 0;
#X connect 159 0 147 0;
#X connect 160 0 46 0;
#X connect 161 0 46 1;
#X connect 162 0 54 0;
#X connect 163 0 55 0;
#X connect 164 0 56 0;
#X connect 165 0 57 0;
#X connect 166 0 58 0;
#X connect 167 0 59 0;
#X connect 168 0 60 0;
#X connect 169 0 61 0;
#X connect 170 0 62 0;
#X connect 171 0 63 0;
#X connect 172 0 64 0;
#X connect 173 0 137 1;
#X connect 173 0 138 0;
