#N canvas 581 259 535 471 10;
#X obj 225 278 *~ 0.2;
#X obj 164 101 noise~;
#X obj 215 381 dac~;
#X obj 311 167 spigot;
#X obj 311 62 t f f;
#X obj 367 212 sel 0;
#X obj 367 241 0;
#X obj 311 213 - 1;
#X obj 312 237 * -1;
#X obj 311 30 r distance;
#X obj 344 119 < 20;
#X obj 311 191 / 20;
#X connect 0 0 2 0;
#X connect 0 0 2 1;
#X connect 1 0 0 0;
#X connect 3 0 11 0;
#X connect 4 0 3 0;
#X connect 4 1 10 0;
#X connect 5 0 6 0;
#X connect 6 0 0 1;
#X connect 7 0 8 0;
#X connect 8 0 0 1;
#X connect 9 0 4 0;
#X connect 10 0 3 1;
#X connect 10 0 5 0;
#X connect 11 0 7 0;
