#N canvas 1 0 1599 818 10;
#N canvas 0 0 1600 818 bubbles 0;
#X text 40 906 Reference: http://aspress.co.uk/sd/practical13.html
;
#X obj 199 531 osc~;
#X obj 199 494 line~;
#X obj 240 636 *~;
#X obj 256 615 *~;
#X obj 199 413 + 800;
#X obj 256 586 *~ 0.9;
#X obj 256 567 lop~ 10;
#X obj 256 548 clip~ 0 1;
#X obj 199 393 * 1600;
#X obj 199 433 pack 1 22.689;
#X obj 567 528 osc~;
#X obj 567 491 line~;
#X obj 608 634 *~;
#X obj 624 613 *~;
#X obj 624 583 *~ 0.9;
#X obj 624 564 lop~ 10;
#X obj 624 545 clip~ 0 1;
#X obj 567 390 * 1600;
#X obj 567 430 pack 1 22.689;
#X obj 941 528 osc~;
#X obj 982 633 *~;
#X obj 998 612 *~;
#X obj 999 583 *~ 0.9;
#X obj 999 564 lop~ 10;
#X obj 999 545 clip~ 0 1;
#X obj 941 390 * 1600;
#X obj 941 430 pack 1 22.689;
#X obj 383 531 osc~;
#X obj 383 494 line~;
#X obj 424 636 *~;
#X obj 440 615 *~;
#X obj 383 413 + 800;
#X obj 440 588 *~ 0.9;
#X obj 440 568 lop~ 10;
#X obj 440 548 clip~ 0 1;
#X obj 383 393 * 1600;
#X obj 383 433 pack 1 22.689;
#X obj 757 528 osc~;
#X obj 757 491 line~;
#X obj 798 633 *~;
#X obj 814 612 *~;
#X obj 814 583 *~ 0.9;
#X obj 814 564 lop~ 10;
#N canvas 683 0 667 670 bilexp 0;
#X obj 227 158 / 4096;
#X obj 295 136 > 4096;
#X obj 295 155 sel 0 1;
#X msg 295 178 -1;
#X msg 327 178 1;
#X obj 227 222 *;
#X obj 227 41 t b;
#X obj 227 21 inlet;
#X obj 227 260 outlet;
#X obj 227 139 mod 4096;
#X obj 227 196 exp;
#X obj 227 241 / 23000;
#X obj 227 177 * 9;
#X obj 227 91 random 10192;
#X msg 235 70 seed 46082;
#X obj 253 47 loadbang;
#X connect 0 0 12 0;
#X connect 1 0 2 0;
#X connect 2 0 3 0;
#X connect 2 1 4 0;
#X connect 3 0 5 1;
#X connect 4 0 5 1;
#X connect 5 0 11 0;
#X connect 6 0 13 0;
#X connect 7 0 6 0;
#X connect 9 0 0 0;
#X connect 10 0 5 0;
#X connect 11 0 8 0;
#X connect 12 0 10 0;
#X connect 13 0 1 0;
#X connect 13 0 9 0;
#X connect 14 0 13 0;
#X connect 15 0 14 0;
#X restore 757 369 pd bilexp;
#X obj 814 545 clip~ 0 1;
#X obj 757 390 * 1600;
#X obj 757 430 pack 1 22.689;
#X obj 567 410 + 600;
#X obj 757 410 + 600;
#X obj 941 410 + 400;
#X obj 941 491 line~;
#N canvas 683 0 667 670 bilexp 0;
#X obj 227 158 / 4096;
#X obj 295 136 > 4096;
#X obj 295 155 sel 0 1;
#X msg 295 178 -1;
#X msg 327 178 1;
#X obj 227 222 *;
#X obj 227 41 t b;
#X obj 227 21 inlet;
#X obj 227 260 outlet;
#X obj 227 139 mod 4096;
#X obj 227 196 exp;
#X obj 227 241 / 23000;
#X obj 227 177 * 9;
#X obj 227 91 random 10192;
#X msg 235 70 seed 46082;
#X obj 253 47 loadbang;
#X connect 0 0 12 0;
#X connect 1 0 2 0;
#X connect 2 0 3 0;
#X connect 2 1 4 0;
#X connect 3 0 5 1;
#X connect 4 0 5 1;
#X connect 5 0 11 0;
#X connect 6 0 13 0;
#X connect 7 0 6 0;
#X connect 9 0 0 0;
#X connect 10 0 5 0;
#X connect 11 0 8 0;
#X connect 12 0 10 0;
#X connect 13 0 1 0;
#X connect 13 0 9 0;
#X connect 14 0 13 0;
#X connect 15 0 14 0;
#X restore 941 369 pd bilexp;
#N canvas 683 0 667 670 bilexp 0;
#X obj 227 158 / 4096;
#X obj 295 136 > 4096;
#X obj 295 155 sel 0 1;
#X msg 295 178 -1;
#X msg 327 178 1;
#X obj 227 222 *;
#X obj 227 41 t b;
#X obj 227 21 inlet;
#X obj 227 260 outlet;
#X obj 227 139 mod 4096;
#X obj 227 196 exp;
#X obj 227 241 / 23000;
#X obj 227 177 * 9;
#X obj 227 91 random 10192;
#X msg 235 70 seed 46082;
#X obj 253 47 loadbang;
#X connect 0 0 12 0;
#X connect 1 0 2 0;
#X connect 2 0 3 0;
#X connect 2 1 4 0;
#X connect 3 0 5 1;
#X connect 4 0 5 1;
#X connect 5 0 11 0;
#X connect 6 0 13 0;
#X connect 7 0 6 0;
#X connect 9 0 0 0;
#X connect 10 0 5 0;
#X connect 11 0 8 0;
#X connect 12 0 10 0;
#X connect 13 0 1 0;
#X connect 13 0 9 0;
#X connect 14 0 13 0;
#X connect 15 0 14 0;
#X restore 567 369 pd bilexp;
#N canvas 683 0 667 670 bilexp 0;
#X obj 227 158 / 4096;
#X obj 295 136 > 4096;
#X obj 295 155 sel 0 1;
#X msg 295 178 -1;
#X msg 327 178 1;
#X obj 227 222 *;
#X obj 227 41 t b;
#X obj 227 21 inlet;
#X obj 227 260 outlet;
#X obj 227 139 mod 4096;
#X obj 227 196 exp;
#X obj 227 241 / 23000;
#X obj 227 177 * 9;
#X obj 227 91 random 10192;
#X msg 235 70 seed 46082;
#X obj 253 47 loadbang;
#X connect 0 0 12 0;
#X connect 1 0 2 0;
#X connect 2 0 3 0;
#X connect 2 1 4 0;
#X connect 3 0 5 1;
#X connect 4 0 5 1;
#X connect 5 0 11 0;
#X connect 6 0 13 0;
#X connect 7 0 6 0;
#X connect 9 0 0 0;
#X connect 10 0 5 0;
#X connect 11 0 8 0;
#X connect 12 0 10 0;
#X connect 13 0 1 0;
#X connect 13 0 9 0;
#X connect 14 0 13 0;
#X connect 15 0 14 0;
#X restore 383 372 pd bilexp;
#N canvas 683 0 667 670 bilexp 0;
#X obj 227 158 / 4096;
#X obj 295 136 > 4096;
#X obj 295 155 sel 0 1;
#X msg 295 178 -1;
#X msg 327 178 1;
#X obj 227 222 *;
#X obj 227 41 t b;
#X obj 227 21 inlet;
#X obj 227 260 outlet;
#X obj 227 139 mod 4096;
#X obj 227 196 exp;
#X obj 227 241 / 23000;
#X obj 227 177 * 9;
#X obj 227 91 random 10192;
#X msg 235 70 seed 46082;
#X obj 253 47 loadbang;
#X connect 0 0 12 0;
#X connect 1 0 2 0;
#X connect 2 0 3 0;
#X connect 2 1 4 0;
#X connect 3 0 5 1;
#X connect 4 0 5 1;
#X connect 5 0 11 0;
#X connect 6 0 13 0;
#X connect 7 0 6 0;
#X connect 9 0 0 0;
#X connect 10 0 5 0;
#X connect 11 0 8 0;
#X connect 12 0 10 0;
#X connect 13 0 1 0;
#X connect 13 0 9 0;
#X connect 14 0 13 0;
#X connect 15 0 14 0;
#X restore 199 372 pd bilexp;
#X obj 999 507 rzero_rev~ 1;
#X obj 999 526 *~ -1;
#X obj 814 507 rzero_rev~ 1;
#X obj 814 526 *~ -1;
#X obj 624 507 rzero_rev~ 1;
#X obj 624 526 *~ -1;
#X obj 440 510 rzero_rev~ 1;
#X obj 440 529 *~ -1;
#X obj 256 510 rzero_rev~ 1;
#X obj 256 529 *~ -1;
#X msg 941 459 \$1 22.689;
#X msg 757 459 \$1 22.689;
#X msg 567 459 \$1 22.689;
#X msg 383 459 \$1 22.689;
#X msg 199 459 \$1 22.689;
#X obj 1069 485 sig~ 1;
#X obj 883 486 sig~ 1;
#X obj 693 485 sig~ 1;
#X obj 508 488 sig~ 1;
#X obj 319 484 sig~ 1;
#X obj 199 272 r masterbang;
#X obj 239 743 s~ bubble1l;
#X obj 423 743 s~ bubble1r;
#X obj 607 745 s~ bubble2l;
#X obj 799 745 s~ bubble2r;
#X obj 981 745 s~ bubble3l;
#X obj 1054 745 s~ bubble3r;
#X obj 471 246 bng 15 250 50 0 empty empty empty 17 7 0 10 -262144
-1 -1;
#X obj 239 693 lop~ 500;
#X obj 423 693 lop~ 500;
#X obj 607 693 lop~ 500;
#X obj 799 693 lop~ 500;
#X obj 981 693 lop~ 500;
#X obj 1054 693 lop~ 500;
#X obj 199 352 metro 50;
#X obj 567 349 metro 70;
#X obj 941 349 metro 120;
#X obj 239 713 lop~ 500;
#X obj 423 713 lop~ 500;
#X obj 607 713 lop~ 500;
#X obj 799 713 lop~ 500;
#X obj 981 713 lop~ 500;
#X obj 1054 713 lop~ 500;
#X obj 982 659 *~ 3;
#X obj 798 659 *~ 3;
#X obj 608 660 *~ 3;
#X obj 424 662 *~ 3;
#X obj 239 662 *~ 3;
#X connect 1 0 3 0;
#X connect 2 0 1 0;
#X connect 2 0 64 0;
#X connect 3 0 103 0;
#X connect 4 0 3 1;
#X connect 5 0 10 0;
#X connect 6 0 4 0;
#X connect 6 0 4 1;
#X connect 7 0 6 0;
#X connect 8 0 7 0;
#X connect 9 0 5 0;
#X connect 10 0 70 0;
#X connect 11 0 13 0;
#X connect 12 0 11 0;
#X connect 12 0 60 0;
#X connect 13 0 101 0;
#X connect 14 0 13 1;
#X connect 15 0 14 0;
#X connect 15 0 14 1;
#X connect 16 0 15 0;
#X connect 17 0 16 0;
#X connect 18 0 48 0;
#X connect 19 0 68 0;
#X connect 20 0 21 0;
#X connect 21 0 99 0;
#X connect 22 0 21 1;
#X connect 23 0 22 0;
#X connect 23 0 22 1;
#X connect 24 0 23 0;
#X connect 25 0 24 0;
#X connect 26 0 50 0;
#X connect 27 0 66 0;
#X connect 28 0 30 0;
#X connect 29 0 28 0;
#X connect 29 0 62 0;
#X connect 30 0 102 0;
#X connect 31 0 30 1;
#X connect 32 0 37 0;
#X connect 33 0 31 0;
#X connect 33 0 31 1;
#X connect 34 0 33 0;
#X connect 35 0 34 0;
#X connect 36 0 32 0;
#X connect 37 0 69 0;
#X connect 38 0 40 0;
#X connect 39 0 38 0;
#X connect 39 0 58 0;
#X connect 40 0 100 0;
#X connect 41 0 40 1;
#X connect 42 0 41 0;
#X connect 42 0 41 1;
#X connect 43 0 42 0;
#X connect 44 0 46 0;
#X connect 45 0 43 0;
#X connect 46 0 49 0;
#X connect 47 0 67 0;
#X connect 48 0 19 0;
#X connect 49 0 47 0;
#X connect 50 0 27 0;
#X connect 51 0 20 0;
#X connect 51 0 56 0;
#X connect 52 0 26 0;
#X connect 53 0 18 0;
#X connect 54 0 36 0;
#X connect 55 0 9 0;
#X connect 56 0 57 0;
#X connect 57 0 25 0;
#X connect 58 0 59 0;
#X connect 59 0 45 0;
#X connect 60 0 61 0;
#X connect 61 0 17 0;
#X connect 62 0 63 0;
#X connect 63 0 35 0;
#X connect 64 0 65 0;
#X connect 65 0 8 0;
#X connect 66 0 51 0;
#X connect 67 0 39 0;
#X connect 68 0 12 0;
#X connect 69 0 29 0;
#X connect 70 0 2 0;
#X connect 71 0 56 1;
#X connect 72 0 58 1;
#X connect 73 0 60 1;
#X connect 74 0 62 1;
#X connect 75 0 64 1;
#X connect 76 0 90 0;
#X connect 76 0 91 0;
#X connect 76 0 92 0;
#X connect 83 0 90 0;
#X connect 83 0 91 0;
#X connect 83 0 92 0;
#X connect 84 0 93 0;
#X connect 85 0 94 0;
#X connect 86 0 95 0;
#X connect 87 0 96 0;
#X connect 88 0 97 0;
#X connect 89 0 98 0;
#X connect 90 0 55 0;
#X connect 90 0 54 0;
#X connect 91 0 53 0;
#X connect 91 0 44 0;
#X connect 92 0 52 0;
#X connect 93 0 77 0;
#X connect 94 0 78 0;
#X connect 95 0 79 0;
#X connect 96 0 80 0;
#X connect 97 0 81 0;
#X connect 98 0 82 0;
#X connect 99 0 88 0;
#X connect 99 0 89 0;
#X connect 100 0 87 0;
#X connect 101 0 86 0;
#X connect 102 0 85 0;
#X connect 103 0 84 0;
#X coords 0 818 1 817 300 55 0;
#X restore 224 121 pd bubbles;
#N canvas 444 6 759 802 rand_env 0;
#X floatatom 452 288 5 0 0 0 - - -;
#X obj 452 269 / 1000;
#X obj 452 306 pack f;
#X msg 452 325 \$1 50;
#X obj 452 231 random 1000;
#X obj 452 250 + 400;
#X obj 416 357 inlet;
#X obj 452 344 line~;
#X obj 452 363 min~ 1;
#X obj 452 410 *~;
#X obj 452 459 outlet;
#X obj 452 429 snapshot~;
#X obj 372 217 r metro5;
#X connect 0 0 2 0;
#X connect 1 0 0 0;
#X connect 2 0 3 0;
#X connect 3 0 7 0;
#X connect 4 0 5 0;
#X connect 5 0 1 0;
#X connect 6 0 9 1;
#X connect 7 0 8 0;
#X connect 8 0 9 0;
#X connect 9 0 11 0;
#X connect 11 0 10 0;
#X connect 12 0 4 0;
#X connect 12 0 11 0;
#X restore 224 83 pd rand_env;
#N canvas 0 0 1920 997 watermixer 0;
#X obj 814 345 r~ flow4r;
#X obj 1033 -121 r~ flow4l;
#X obj 794 326 r~ flow3r;
#X obj 1013 -140 r~ flow3l;
#X obj 774 307 r~ flow2r;
#X obj 993 -159 r~ flow2l;
#X obj 754 288 r~ flow1r;
#X obj 973 -178 r~ flow1l;
#X obj 1053 -102 r~ flow5l;
#X obj 834 364 r~ flow5r;
#X obj 1135 -26 r~ bubble1l;
#X obj 916 440 r~ bubble1r;
#X obj 1155 -7 r~ bubble2l;
#X obj 936 459 r~ bubble2r;
#X obj 1175 12 r~ bubble3l;
#X obj 956 478 r~ bubble3r;
#X obj 974 289 *~;
#X obj 755 754 *~;
#X obj 994 270 *~;
#X obj 775 735 *~;
#X obj 1014 251 *~;
#X obj 795 716 *~;
#X obj 1034 232 *~;
#X obj 815 697 *~;
#X obj 1054 213 *~;
#X obj 835 678 *~;
#X obj 1074 194 *~;
#X obj 855 659 *~;
#X obj 1094 175 *~;
#X obj 875 640 *~;
#X obj 1114 156 *~;
#X obj 895 621 *~;
#X obj 1134 137 *~;
#X obj 915 602 *~;
#X obj 1154 118 *~;
#X obj 935 583 *~;
#X obj 1174 99 *~;
#X obj 955 564 *~;
#X obj 1194 80 *~;
#X obj 976 545 *~;
#X obj 1073 -83 r~ flow6l;
#X obj 854 383 r~ flow6r;
#X obj 1093 -64 r~ flow7l;
#X obj 874 402 r~ flow7r;
#X obj 1113 -45 r~ flow8l;
#X obj 894 421 r~ flow8r;
#X obj 1194 31 r~ noisel;
#X obj 976 497 r~ noiser;
#X obj 1000 786 *~;
#X obj 1048 786 *~;
#X obj 1063 690 r~ master_env;
#X obj 402 -65 r noiselevel;
#X obj 258 -99 r blevel;
#X obj -174 -241 r levels;
#X obj -246 -29 * 0.41;
#X obj 42 -126 * 0.606;
#X obj -390 -29 * 0.67;
#X obj -174 -28 * 0.3;
#X obj -102 -27 * 0.4;
#X obj -318 -29 * 1;
#N canvas 683 0 667 670 variator 0;
#X obj 699 232 inlet;
#X obj 731 285 outlet;
#X obj 746 184 snapshot~;
#X obj 746 127 pack f;
#X obj 746 203 / 100;
#X obj 746 222 min 1;
#X msg 746 146 \$1 1000;
#X obj 746 107 max 75;
#X obj 746 88 random 145;
#X obj 731 259 *;
#X obj 746 165 line~;
#X obj 699 60 r metro50;
#X connect 0 0 9 0;
#X connect 2 0 4 0;
#X connect 3 0 6 0;
#X connect 4 0 5 0;
#X connect 5 0 9 1;
#X connect 6 0 10 0;
#X connect 7 0 3 0;
#X connect 8 0 7 0;
#X connect 9 0 1 0;
#X connect 10 0 2 0;
#X connect 11 0 2 0;
#X connect 11 0 8 0;
#X restore -246 -48 pd variator;
#N canvas 683 0 667 670 variator 0;
#X obj 243 337 inlet;
#X obj 275 390 outlet;
#X obj 290 296 snapshot~;
#X obj 290 239 pack f;
#X obj 290 315 / 100;
#X obj 290 334 min 1;
#X msg 290 258 \$1 1000;
#X obj 290 219 max 75;
#X obj 290 200 random 145;
#X obj 275 371 *;
#X obj 290 277 line~;
#X obj 243 172 r metro50;
#X connect 0 0 9 0;
#X connect 2 0 4 0;
#X connect 3 0 6 0;
#X connect 4 0 5 0;
#X connect 5 0 9 1;
#X connect 6 0 10 0;
#X connect 7 0 3 0;
#X connect 8 0 7 0;
#X connect 9 0 1 0;
#X connect 10 0 2 0;
#X connect 11 0 2 0;
#X connect 11 0 8 0;
#X restore -318 -48 pd variator;
#N canvas 683 0 667 670 variator 0;
#X obj 225 346 inlet;
#X obj 257 399 outlet;
#X obj 272 305 snapshot~;
#X obj 272 248 pack f;
#X obj 272 324 / 100;
#X obj 272 343 min 1;
#X msg 272 267 \$1 1000;
#X obj 272 228 max 75;
#X obj 272 209 random 145;
#X obj 257 379 *;
#X obj 272 286 line~;
#X obj 225 181 r metro50;
#X connect 0 0 9 0;
#X connect 2 0 4 0;
#X connect 3 0 6 0;
#X connect 4 0 5 0;
#X connect 5 0 9 1;
#X connect 6 0 10 0;
#X connect 7 0 3 0;
#X connect 8 0 7 0;
#X connect 9 0 1 0;
#X connect 10 0 2 0;
#X connect 11 0 2 0;
#X connect 11 0 8 0;
#X restore -390 -48 pd variator;
#N canvas 683 0 667 670 variator 0;
#X obj 156 268 inlet;
#X obj 188 321 outlet;
#X obj 203 226 snapshot~;
#X obj 203 169 pack f;
#X obj 203 245 / 100;
#X obj 203 264 min 1;
#X msg 203 188 \$1 1000;
#X obj 203 149 max 75;
#X obj 203 130 random 145;
#X obj 188 301 *;
#X obj 203 207 line~;
#X obj 156 102 r metro50;
#X connect 0 0 9 0;
#X connect 2 0 4 0;
#X connect 3 0 6 0;
#X connect 4 0 5 0;
#X connect 5 0 9 1;
#X connect 6 0 10 0;
#X connect 7 0 3 0;
#X connect 8 0 7 0;
#X connect 9 0 1 0;
#X connect 10 0 2 0;
#X connect 11 0 2 0;
#X connect 11 0 8 0;
#X restore -102 -46 pd variator;
#N canvas 683 0 667 670 variator 0;
#X obj 246 359 inlet;
#X obj 278 412 outlet;
#X obj 293 318 snapshot~;
#X obj 293 261 pack f;
#X obj 293 337 / 100;
#X obj 293 356 min 1;
#X msg 293 280 \$1 1000;
#X obj 293 241 max 75;
#X obj 293 222 random 145;
#X obj 278 393 *;
#X obj 293 299 line~;
#X obj 246 194 r metro50;
#X connect 0 0 9 0;
#X connect 2 0 4 0;
#X connect 3 0 6 0;
#X connect 4 0 5 0;
#X connect 5 0 9 1;
#X connect 6 0 10 0;
#X connect 7 0 3 0;
#X connect 8 0 7 0;
#X connect 9 0 1 0;
#X connect 10 0 2 0;
#X connect 11 0 2 0;
#X connect 11 0 8 0;
#X restore -174 -47 pd variator;
#N canvas 0 0 784 802 variator 0;
#X obj 337 350 inlet;
#X obj 369 403 outlet;
#X obj 384 299 snapshot~;
#X obj 384 242 pack f;
#X obj 384 318 / 100;
#X obj 384 337 min 1;
#X msg 384 261 \$1 1000;
#X obj 384 222 max 75;
#X obj 384 203 random 145;
#X obj 369 374 *;
#X obj 384 280 line~;
#X obj 337 175 r metro50;
#X connect 0 0 9 0;
#X connect 2 0 4 0;
#X connect 3 0 6 0;
#X connect 4 0 5 0;
#X connect 5 0 9 1;
#X connect 6 0 10 0;
#X connect 7 0 3 0;
#X connect 8 0 7 0;
#X connect 9 0 1 0;
#X connect 10 0 2 0;
#X connect 11 0 2 0;
#X connect 11 0 8 0;
#X restore 402 -46 pd variator;
#N canvas 0 0 784 802 variator 0;
#X obj 321 412 inlet;
#X obj 353 465 outlet;
#X obj 368 369 snapshot~;
#X obj 368 312 pack f;
#X obj 368 388 / 100;
#X obj 368 407 min 1;
#X msg 368 331 \$1 1000;
#X obj 368 292 max 75;
#X obj 368 273 random 145;
#X obj 353 444 *;
#X obj 368 350 line~;
#X obj 321 245 r metro50;
#X connect 0 0 9 0;
#X connect 2 0 4 0;
#X connect 3 0 6 0;
#X connect 4 0 5 0;
#X connect 5 0 9 1;
#X connect 6 0 10 0;
#X connect 7 0 3 0;
#X connect 8 0 7 0;
#X connect 9 0 1 0;
#X connect 10 0 2 0;
#X connect 11 0 2 0;
#X connect 11 0 8 0;
#X restore 186 -46 pd variator;
#N canvas 0 0 784 802 variator 0;
#X obj 323 437 inlet;
#X obj 355 490 outlet;
#X obj 370 389 snapshot~;
#X obj 370 332 pack f;
#X obj 370 408 / 100;
#X obj 370 427 min 1;
#X msg 370 351 \$1 1000;
#X obj 370 312 max 75;
#X obj 370 293 random 145;
#X obj 355 464 *;
#X obj 370 370 line~;
#X obj 323 265 r metro50;
#X connect 0 0 9 0;
#X connect 2 0 4 0;
#X connect 3 0 6 0;
#X connect 4 0 5 0;
#X connect 5 0 9 1;
#X connect 6 0 10 0;
#X connect 7 0 3 0;
#X connect 8 0 7 0;
#X connect 9 0 1 0;
#X connect 10 0 2 0;
#X connect 11 0 2 0;
#X connect 11 0 8 0;
#X restore 258 -46 pd variator;
#N canvas 349 33 667 648 variator 0;
#X obj 259 319 snapshot~;
#X obj 259 262 pack f;
#X obj 259 338 / 100;
#X obj 259 357 min 1;
#X msg 259 281 \$1 1000;
#X obj 259 242 max 75;
#X obj 259 223 random 145;
#X obj 244 394 *;
#X obj 212 361 inlet;
#X obj 244 414 outlet;
#X obj 259 300 line~;
#X obj 212 195 r metro50;
#X connect 0 0 2 0;
#X connect 1 0 4 0;
#X connect 2 0 3 0;
#X connect 3 0 7 1;
#X connect 4 0 10 0;
#X connect 5 0 1 0;
#X connect 6 0 5 0;
#X connect 7 0 9 0;
#X connect 8 0 7 0;
#X connect 10 0 0 0;
#X connect 11 0 0 0;
#X connect 11 0 6 0;
#X restore 330 -46 pd variator;
#N canvas 0 0 784 802 variator 0;
#X obj 340 404 inlet;
#X obj 372 457 outlet;
#X obj 387 359 snapshot~;
#X obj 387 302 pack f;
#X obj 387 378 / 100;
#X obj 387 397 min 1;
#X msg 387 321 \$1 1000;
#X obj 387 282 max 75;
#X obj 387 263 random 145;
#X obj 372 434 *;
#X obj 387 340 line~;
#X obj 340 235 r metro50;
#X connect 0 0 9 0;
#X connect 2 0 4 0;
#X connect 3 0 6 0;
#X connect 4 0 5 0;
#X connect 5 0 9 1;
#X connect 6 0 10 0;
#X connect 7 0 3 0;
#X connect 8 0 7 0;
#X connect 9 0 1 0;
#X connect 10 0 2 0;
#X connect 11 0 2 0;
#X connect 11 0 8 0;
#X restore 114 -46 pd variator;
#N canvas 0 0 784 802 variator 0;
#X obj 341 395 inlet;
#X obj 373 448 outlet;
#X obj 388 354 snapshot~;
#X obj 388 297 pack f;
#X obj 388 373 / 100;
#X obj 388 392 min 1;
#X msg 388 316 \$1 1000;
#X obj 388 277 max 75;
#X obj 388 258 random 145;
#X obj 373 429 *;
#X obj 388 335 line~;
#X obj 341 230 r metro50;
#X connect 0 0 9 0;
#X connect 2 0 4 0;
#X connect 3 0 6 0;
#X connect 4 0 5 0;
#X connect 5 0 9 1;
#X connect 6 0 10 0;
#X connect 7 0 3 0;
#X connect 8 0 7 0;
#X connect 9 0 1 0;
#X connect 10 0 2 0;
#X connect 11 0 2 0;
#X connect 11 0 8 0;
#X restore -30 -46 pd variator;
#N canvas 0 0 784 802 variator 0;
#X obj 351 423 inlet;
#X obj 383 476 outlet;
#X obj 398 380 snapshot~;
#X obj 398 323 pack f;
#X obj 398 399 / 100;
#X obj 398 418 min 1;
#X msg 398 342 \$1 1000;
#X obj 398 303 max 75;
#X obj 398 284 random 145;
#X obj 383 455 *;
#X obj 398 361 line~;
#X obj 351 256 r metro50;
#X connect 0 0 9 0;
#X connect 2 0 4 0;
#X connect 3 0 6 0;
#X connect 4 0 5 0;
#X connect 5 0 9 1;
#X connect 6 0 10 0;
#X connect 7 0 3 0;
#X connect 8 0 7 0;
#X connect 9 0 1 0;
#X connect 10 0 2 0;
#X connect 11 0 2 0;
#X connect 11 0 8 0;
#X restore 42 -46 pd variator;
#X obj -246 -67 r 1ktrigger;
#X obj 1048 805 outlet~;
#X obj 1000 805 outlet~;
#X obj 94 847 throw~ busr;
#X obj 172 848 throw~ busl;
#X obj 1197 115 +~;
#X obj 1182 134 +~;
#X obj 1167 153 +~;
#X obj 1152 172 +~;
#X obj 1137 191 +~;
#X obj 1122 210 +~;
#X obj 1107 229 +~;
#X obj 1092 248 +~;
#X obj 1077 267 +~;
#X obj 1062 286 +~;
#X obj 1047 305 +~;
#X obj 979 580 +~;
#X obj 964 599 +~;
#X obj 949 618 +~;
#X obj 934 637 +~;
#X obj 919 656 +~;
#X obj 904 675 +~;
#X obj 889 694 +~;
#X obj 874 713 +~;
#X obj 859 732 +~;
#X obj 844 751 +~;
#X obj 829 770 +~;
#X connect 0 0 23 0;
#X connect 1 0 22 0;
#X connect 2 0 21 0;
#X connect 3 0 20 0;
#X connect 4 0 19 0;
#X connect 5 0 18 0;
#X connect 6 0 17 0;
#X connect 7 0 16 0;
#X connect 8 0 24 0;
#X connect 9 0 25 0;
#X connect 10 0 32 0;
#X connect 11 0 33 0;
#X connect 12 0 34 0;
#X connect 13 0 35 0;
#X connect 14 0 36 0;
#X connect 15 0 37 0;
#X connect 16 0 87 0;
#X connect 17 0 98 0;
#X connect 18 0 86 0;
#X connect 19 0 97 0;
#X connect 20 0 85 0;
#X connect 21 0 96 0;
#X connect 22 0 84 0;
#X connect 23 0 95 0;
#X connect 24 0 83 0;
#X connect 25 0 94 0;
#X connect 26 0 82 0;
#X connect 27 0 93 0;
#X connect 28 0 81 0;
#X connect 29 0 92 0;
#X connect 30 0 80 0;
#X connect 31 0 91 0;
#X connect 32 0 79 0;
#X connect 33 0 90 0;
#X connect 34 0 78 0;
#X connect 35 0 89 0;
#X connect 36 0 77 0;
#X connect 37 0 88 0;
#X connect 38 0 77 1;
#X connect 39 0 88 1;
#X connect 40 0 26 0;
#X connect 41 0 27 0;
#X connect 42 0 28 0;
#X connect 43 0 29 0;
#X connect 44 0 30 0;
#X connect 45 0 31 0;
#X connect 46 0 38 0;
#X connect 47 0 39 0;
#X connect 48 0 74 0;
#X connect 49 0 73 0;
#X connect 50 0 48 1;
#X connect 50 0 49 1;
#X connect 51 0 65 0;
#X connect 52 0 68 0;
#X connect 52 0 67 0;
#X connect 52 0 66 0;
#X connect 53 0 62 0;
#X connect 53 0 64 0;
#X connect 53 0 63 0;
#X connect 53 0 55 0;
#X connect 53 0 61 0;
#X connect 54 0 21 1;
#X connect 54 0 20 1;
#X connect 55 0 71 0;
#X connect 55 0 70 0;
#X connect 55 0 69 0;
#X connect 56 0 17 1;
#X connect 56 0 16 1;
#X connect 57 0 23 1;
#X connect 57 0 22 1;
#X connect 58 0 25 1;
#X connect 58 0 24 1;
#X connect 59 0 19 1;
#X connect 59 0 18 1;
#X connect 60 0 54 0;
#X connect 61 0 59 0;
#X connect 62 0 56 0;
#X connect 63 0 58 0;
#X connect 64 0 57 0;
#X connect 65 0 39 1;
#X connect 65 0 38 1;
#X connect 66 0 33 1;
#X connect 66 0 32 1;
#X connect 67 0 35 1;
#X connect 67 0 34 1;
#X connect 68 0 37 1;
#X connect 68 0 36 1;
#X connect 69 0 31 1;
#X connect 69 0 30 1;
#X connect 70 0 27 1;
#X connect 70 0 26 1;
#X connect 71 0 29 1;
#X connect 71 0 28 1;
#X connect 72 0 60 0;
#X connect 77 0 78 1;
#X connect 78 0 79 1;
#X connect 79 0 80 1;
#X connect 80 0 81 1;
#X connect 81 0 82 1;
#X connect 82 0 83 1;
#X connect 83 0 84 1;
#X connect 84 0 85 1;
#X connect 85 0 86 1;
#X connect 86 0 87 1;
#X connect 87 0 49 0;
#X connect 88 0 89 1;
#X connect 89 0 90 1;
#X connect 90 0 91 1;
#X connect 91 0 92 1;
#X connect 92 0 93 1;
#X connect 93 0 94 1;
#X connect 94 0 95 1;
#X connect 95 0 96 1;
#X connect 96 0 97 1;
#X connect 97 0 98 1;
#X connect 98 0 48 0;
#X coords 0 997 1 996 210 226 0;
#X restore 224 197 pd watermixer;
#N canvas 0 0 1600 818 input_env 0;
#X obj -811 255 abs;
#X floatatom -811 274 5 0 0 0 - - -;
#X obj -811 292 pack f;
#X obj -811 349 snapshot~;
#X floatatom -811 369 5 0 0 0 - - -;
#X obj -431 464 spigot;
#X obj -381 464 spigot;
#X msg -381 551 0 5000;
#X obj -431 607 s~ master_env;
#X obj -889 385 s levels;
#X msg -431 551 1 500;
#X obj -751 368 s param;
#X obj -751 349 snapshot~;
#X msg -751 309 \$1 150;
#X obj -291 464 spigot;
#X obj -291 637 snapshot~;
#X obj -291 656 s noiselevel;
#X msg -221 551 0 2500;
#X obj -81 637 snapshot~;
#X msg -11 551 100 3500;
#X obj -81 656 s blpf;
#X obj 109 464 spigot;
#X obj 109 637 snapshot~;
#X obj 109 656 s brate;
#X msg 109 553 2 500;
#X msg -811 311 \$1 700;
#X obj -691 349 snapshot~;
#X obj -691 368 s blevel;
#X msg -811 194 0;
#X obj 109 239 inlet;
#X obj -811 410 abs;
#X floatatom -811 448 5 0 0 0 - - -;
#X obj -811 516 spigot;
#X obj -761 516 spigot;
#X obj -811 429 * 10;
#X obj -810 664 snapshot~;
#X obj -810 683 s 1ktrigger;
#X obj -761 477 < 9;
#X obj -811 477 > 9;
#X obj -594 576 pack f;
#X obj -657 542 * 2;
#X msg -811 595 \$1 5;
#X msg -761 593 \$1 15;
#X msg -291 553 0.07 500;
#X msg -691 309 \$1 2050;
#X msg 179 551 20 1500;
#X msg -81 553 1100 1500;
#X obj -291 588 line~;
#X obj -431 588 line~;
#X obj -81 588 line~;
#X obj 109 588 line~;
#X obj -811 630 line~;
#X obj -691 330 line~;
#X obj -751 330 line~;
#X obj -811 330 line~;
#X obj -291 529 change;
#X obj -221 529 change;
#X obj -81 529 change;
#X obj -11 529 change;
#X obj 109 529 change;
#X obj 179 529 change;
#X obj -811 569 change;
#X obj -761 569 change;
#X obj 109 425 > 4;
#X obj -381 529 change;
#X obj -431 529 change;
#X obj -431 425 > 1;
#X obj -291 425 > 1;
#X obj -221 425 < 1;
#X obj -81 425 > 6;
#X obj -11 425 < 6;
#X obj -625 332 r metro5;
#X obj 109 348 abs;
#X obj -81 348 abs;
#X obj -291 348 abs;
#X obj -431 348 abs;
#X obj -431 367 * 10;
#X obj -291 367 * 10;
#X obj -81 367 * 10;
#X obj 109 367 * 10;
#X obj 179 464 spigot;
#X obj 179 424 < 4;
#X obj -11 464 spigot;
#X obj -81 464 spigot;
#X obj -221 464 spigot;
#X obj -382 425 < 1;
#X obj -657 561 pack f;
#X obj -812 175 r masterbang;
#X connect 0 0 1 0;
#X connect 1 0 2 0;
#X connect 2 0 25 0;
#X connect 2 0 13 0;
#X connect 2 0 44 0;
#X connect 3 0 4 0;
#X connect 4 0 9 0;
#X connect 4 0 30 0;
#X connect 4 0 39 0;
#X connect 4 0 40 0;
#X connect 5 0 65 0;
#X connect 6 0 64 0;
#X connect 7 0 48 0;
#X connect 10 0 48 0;
#X connect 12 0 11 0;
#X connect 13 0 53 0;
#X connect 14 0 55 0;
#X connect 15 0 16 0;
#X connect 17 0 47 0;
#X connect 18 0 20 0;
#X connect 19 0 49 0;
#X connect 21 0 59 0;
#X connect 22 0 23 0;
#X connect 24 0 50 0;
#X connect 25 0 54 0;
#X connect 26 0 27 0;
#X connect 28 0 0 0;
#X connect 28 0 72 0;
#X connect 28 0 73 0;
#X connect 28 0 74 0;
#X connect 28 0 75 0;
#X connect 29 0 0 0;
#X connect 29 0 72 0;
#X connect 29 0 73 0;
#X connect 29 0 74 0;
#X connect 29 0 75 0;
#X connect 30 0 34 0;
#X connect 31 0 37 0;
#X connect 31 0 38 0;
#X connect 32 0 61 0;
#X connect 33 0 62 0;
#X connect 34 0 31 0;
#X connect 35 0 36 0;
#X connect 37 0 33 0;
#X connect 37 0 33 1;
#X connect 38 0 32 0;
#X connect 38 0 32 1;
#X connect 39 0 42 0;
#X connect 40 0 86 0;
#X connect 41 0 51 0;
#X connect 42 0 51 0;
#X connect 43 0 47 0;
#X connect 44 0 52 0;
#X connect 45 0 50 0;
#X connect 46 0 49 0;
#X connect 47 0 15 0;
#X connect 48 0 8 0;
#X connect 49 0 18 0;
#X connect 50 0 22 0;
#X connect 51 0 35 0;
#X connect 52 0 26 0;
#X connect 53 0 12 0;
#X connect 54 0 3 0;
#X connect 55 0 43 0;
#X connect 56 0 17 0;
#X connect 57 0 46 0;
#X connect 58 0 19 0;
#X connect 59 0 24 0;
#X connect 60 0 45 0;
#X connect 61 0 41 0;
#X connect 62 0 42 0;
#X connect 63 0 21 0;
#X connect 63 0 21 1;
#X connect 64 0 7 0;
#X connect 65 0 10 0;
#X connect 66 0 5 0;
#X connect 66 0 5 1;
#X connect 67 0 14 0;
#X connect 67 0 14 1;
#X connect 68 0 84 0;
#X connect 68 0 84 1;
#X connect 69 0 83 0;
#X connect 69 0 83 1;
#X connect 70 0 82 0;
#X connect 70 0 82 1;
#X connect 71 0 3 0;
#X connect 71 0 12 0;
#X connect 71 0 26 0;
#X connect 71 0 35 0;
#X connect 71 0 15 0;
#X connect 71 0 18 0;
#X connect 71 0 22 0;
#X connect 72 0 79 0;
#X connect 73 0 78 0;
#X connect 74 0 77 0;
#X connect 75 0 76 0;
#X connect 76 0 66 0;
#X connect 76 0 85 0;
#X connect 77 0 67 0;
#X connect 77 0 68 0;
#X connect 78 0 69 0;
#X connect 78 0 70 0;
#X connect 79 0 63 0;
#X connect 79 0 81 0;
#X connect 80 0 60 0;
#X connect 81 0 80 0;
#X connect 81 0 80 1;
#X connect 82 0 58 0;
#X connect 83 0 57 0;
#X connect 84 0 56 0;
#X connect 85 0 6 0;
#X connect 85 0 6 1;
#X connect 86 0 41 0;
#X connect 87 0 28 0;
#X coords 0 818 1 817 210 30 0;
#X restore 224 102 pd input_env;
#N canvas 800 0 784 802 noise 0;
#X obj 10 251 noise~;
#X obj 9 429 s~ noisel;
#X obj 89 429 s~ noiser;
#X obj 9 286 bp~ 400 5;
#X obj 10 326 bp~ 400 5;
#X obj 10 364 bp~ 400 5;
#X obj 117 154 r param;
#N canvas 0 0 1366 686 variator 0;
#X obj 841 29 loadbang;
#X floatatom 888 248 5 0 0 0 - - -;
#X msg 841 48 1;
#X obj 888 191 snapshot~;
#X obj 888 134 pack f;
#X obj 888 210 / 100;
#X obj 888 229 min 1;
#X obj 841 67 metro 50;
#X msg 888 153 \$1 1000;
#X obj 888 114 max 75;
#X obj 888 95 random 145;
#X obj 873 266 *;
#X obj 841 233 inlet;
#X obj 873 286 outlet;
#X obj 888 172 line~;
#X connect 0 0 2 0;
#X connect 1 0 11 1;
#X connect 2 0 7 0;
#X connect 3 0 5 0;
#X connect 4 0 8 0;
#X connect 5 0 6 0;
#X connect 6 0 1 0;
#X connect 7 0 3 0;
#X connect 7 0 10 0;
#X connect 8 0 14 0;
#X connect 9 0 4 0;
#X connect 10 0 9 0;
#X connect 11 0 13 0;
#X connect 12 0 11 0;
#X connect 14 0 3 0;
#X restore 117 203 pd variator;
#X obj 117 177 * 1100;
#X obj 10 385 *~ 0.7;
#X connect 0 0 3 0;
#X connect 3 0 4 0;
#X connect 4 0 5 0;
#X connect 5 0 9 0;
#X connect 6 0 8 0;
#X connect 7 0 3 1;
#X connect 7 0 4 1;
#X connect 7 0 5 1;
#X connect 8 0 7 0;
#X connect 9 0 1 0;
#X connect 9 0 2 0;
#X coords 0 802 1 801 300 55 0;
#X restore 224 140 pd noise;
#X obj 223 270 *~;
#X obj 281 269 *~;
#X obj 390 204 r waterMovementLevel @hv_param 0 10 0;
#X obj 224 -13 r waterMovementVelocity @hv_param 0 1 0;
#X obj 151 36 knob 32 32 0 1 0 0 empty empty empty 0 -8 0 8 -262144
-1 -1 400 1;
#X obj 331 189 knob 32 32 0 1 0 0 empty empty empty 0 -8 0 8 -262144
-1 -1 3100 1;
#X obj 649 282 loadbang;
#X obj 779 332 metro 5;
#X obj 779 351 s metro5;
#X obj 849 351 s metro10;
#X obj 649 351 s metro2;
#X obj 849 332 metro 10;
#X obj 649 332 metro 2;
#X obj 568 333 s masterbang;
#X obj 709 332 metro 3;
#X obj 709 351 s metro3;
#X obj 919 351 s metro50;
#X obj 919 332 metro 50;
#X obj 223 445 output~;
#X obj 643 254 bng 15 250 50 0 empty empty empty 17 7 0 10 -262144
-1 -1;
#N canvas 0 0 1600 818 flow 0;
#X floatatom 8 387 5 0 0 0 - - -;
#X floatatom 8 424 5 0 0 0 - - -;
#X obj 8 492 osc~;
#X obj 8 405 max 100;
#X obj 8 368 random 500;
#X obj 8 587 hip~ 150;
#X obj 8 568 hip~ 150;
#X obj 8 606 hip~ 150;
#X obj 8 625 *~ 0.15;
#X floatatom 123 387 5 0 0 0 - - -;
#X floatatom 123 424 5 0 0 0 - - -;
#X obj 123 492 osc~;
#X obj 123 405 max 100;
#X obj 123 368 random 500;
#X obj 123 587 hip~ 150;
#X obj 123 568 hip~ 150;
#X obj 123 606 hip~ 150;
#X msg 171 331 seed 6009;
#X msg 56 332 seed 20000;
#X floatatom 248 387 5 0 0 0 - - -;
#X floatatom 248 424 5 0 0 0 - - -;
#X obj 248 492 osc~;
#X obj 248 368 random 500;
#X obj 248 587 hip~ 150;
#X obj 248 568 hip~ 150;
#X obj 248 606 hip~ 150;
#X obj 248 625 *~ 0.15;
#X floatatom 363 387 5 0 0 0 - - -;
#X floatatom 363 424 5 0 0 0 - - -;
#X obj 363 492 osc~;
#X obj 363 368 random 500;
#X obj 363 587 hip~ 150;
#X obj 363 568 hip~ 150;
#X obj 363 606 hip~ 150;
#X msg 296 332 seed 2000;
#X msg 411 331 seed 609;
#X obj 248 405 + 500;
#X obj 363 405 + 500;
#X floatatom 478 387 5 0 0 0 - - -;
#X floatatom 478 424 5 0 0 0 - - -;
#X obj 478 492 osc~;
#X obj 478 368 random 500;
#X obj 478 587 hip~ 150;
#X obj 478 568 hip~ 150;
#X obj 478 606 hip~ 150;
#X floatatom 593 387 5 0 0 0 - - -;
#X floatatom 593 424 5 0 0 0 - - -;
#X obj 593 492 osc~;
#X obj 593 368 random 500;
#X obj 593 587 hip~ 150;
#X obj 593 568 hip~ 150;
#X obj 593 606 hip~ 150;
#X msg 526 332 seed 2000;
#X msg 641 331 seed 609;
#X obj 478 405 + 1000;
#X obj 593 405 + 1000;
#X floatatom 708 387 5 0 0 0 - - -;
#X floatatom 708 424 5 0 0 0 - - -;
#X obj 708 492 osc~;
#X obj 708 368 random 500;
#X obj 708 587 hip~ 150;
#X obj 708 568 hip~ 150;
#X obj 708 606 hip~ 150;
#X floatatom 823 387 5 0 0 0 - - -;
#X floatatom 823 424 5 0 0 0 - - -;
#X obj 823 492 osc~;
#X obj 823 368 random 500;
#X obj 823 587 hip~ 150;
#X obj 823 568 hip~ 150;
#X obj 823 606 hip~ 150;
#X msg 756 332 seed 2000;
#X msg 871 331 seed 609;
#X obj 708 405 + 1500;
#X obj 823 405 + 1500;
#X obj 478 625 *~ 0.1;
#X obj 708 625 *~ 0.1;
#X obj 823 625 *~ 0.1;
#X obj 56 112 r masterbang;
#X obj 353 141 r metro3;
#X obj 708 132 r metro2;
#X obj 23 468 line;
#X obj 143 468 line;
#X obj 263 468 line;
#X obj 383 468 line;
#X obj 493 468 line;
#X obj 613 468 line;
#X obj 733 468 line;
#X obj 853 468 line;
#X obj 733 449 pack 0 1;
#X obj 613 449 pack 0 1;
#X obj 493 449 pack 0 1;
#X obj 383 449 pack 0 1;
#X obj 263 449 pack 0 1;
#X obj 143 449 pack 0 1;
#X obj 23 449 pack 0 1;
#X obj 478 511 lop~ 300;
#X obj 478 530 lop~ 300;
#X obj 478 549 lop~ 300;
#X obj 593 511 lop~ 300;
#X obj 593 530 lop~ 300;
#X obj 593 549 lop~ 300;
#X obj 708 511 lop~ 300;
#X obj 708 530 lop~ 300;
#X obj 708 549 lop~ 300;
#X obj 823 511 lop~ 300;
#X obj 823 530 lop~ 300;
#X obj 823 549 lop~ 300;
#X obj 853 449 pack 0 1;
#X obj 363 511 lop~ 300;
#X obj 363 530 lop~ 300;
#X obj 363 549 lop~ 300;
#X obj 248 511 lop~ 300;
#X obj 248 530 lop~ 300;
#X obj 248 549 lop~ 300;
#X obj 123 511 lop~ 300;
#X obj 123 530 lop~ 300;
#X obj 123 549 lop~ 300;
#X obj 8 511 lop~ 300;
#X obj 8 530 lop~ 300;
#X obj 8 549 lop~ 300;
#X obj 708 644 s~ flow4l;
#X obj 823 644 s~ flow4r;
#X obj 478 644 s~ flow3l;
#X obj 593 644 s~ flow3r;
#X obj 593 625 *~ 0.1;
#X obj 248 644 s~ flow2l;
#X obj 363 644 s~ flow2r;
#X obj 363 625 *~ 0.2;
#X obj 8 644 s~ flow1l;
#X obj 123 644 s~ flow1r;
#X obj 123 625 *~ 0.2;
#X connect 0 0 3 0;
#X connect 1 0 94 0;
#X connect 2 0 117 0;
#X connect 3 0 1 0;
#X connect 4 0 0 0;
#X connect 5 0 7 0;
#X connect 6 0 5 0;
#X connect 7 0 8 0;
#X connect 8 0 128 0;
#X connect 9 0 12 0;
#X connect 10 0 93 0;
#X connect 11 0 114 0;
#X connect 12 0 10 0;
#X connect 13 0 9 0;
#X connect 14 0 16 0;
#X connect 15 0 14 0;
#X connect 16 0 130 0;
#X connect 17 0 13 0;
#X connect 18 0 4 0;
#X connect 19 0 36 0;
#X connect 20 0 92 0;
#X connect 21 0 111 0;
#X connect 22 0 19 0;
#X connect 23 0 25 0;
#X connect 24 0 23 0;
#X connect 25 0 26 0;
#X connect 26 0 125 0;
#X connect 27 0 37 0;
#X connect 28 0 91 0;
#X connect 29 0 108 0;
#X connect 30 0 27 0;
#X connect 31 0 33 0;
#X connect 32 0 31 0;
#X connect 33 0 127 0;
#X connect 34 0 22 0;
#X connect 35 0 30 0;
#X connect 36 0 20 0;
#X connect 37 0 28 0;
#X connect 38 0 54 0;
#X connect 39 0 90 0;
#X connect 40 0 95 0;
#X connect 41 0 38 0;
#X connect 42 0 44 0;
#X connect 43 0 42 0;
#X connect 44 0 74 0;
#X connect 45 0 55 0;
#X connect 46 0 89 0;
#X connect 47 0 98 0;
#X connect 48 0 45 0;
#X connect 49 0 51 0;
#X connect 50 0 49 0;
#X connect 51 0 124 0;
#X connect 52 0 41 0;
#X connect 53 0 48 0;
#X connect 54 0 39 0;
#X connect 55 0 46 0;
#X connect 56 0 72 0;
#X connect 57 0 88 0;
#X connect 58 0 101 0;
#X connect 59 0 56 0;
#X connect 60 0 62 0;
#X connect 61 0 60 0;
#X connect 62 0 75 0;
#X connect 63 0 73 0;
#X connect 64 0 107 0;
#X connect 65 0 104 0;
#X connect 66 0 63 0;
#X connect 67 0 69 0;
#X connect 68 0 67 0;
#X connect 69 0 76 0;
#X connect 70 0 59 0;
#X connect 71 0 66 0;
#X connect 72 0 57 0;
#X connect 73 0 64 0;
#X connect 74 0 122 0;
#X connect 75 0 120 0;
#X connect 76 0 121 0;
#X connect 77 0 18 0;
#X connect 77 0 17 0;
#X connect 77 0 34 0;
#X connect 77 0 35 0;
#X connect 77 0 52 0;
#X connect 77 0 53 0;
#X connect 77 0 70 0;
#X connect 77 0 71 0;
#X connect 78 0 4 0;
#X connect 78 0 13 0;
#X connect 78 0 22 0;
#X connect 78 0 30 0;
#X connect 78 0 41 0;
#X connect 78 0 48 0;
#X connect 79 0 59 0;
#X connect 79 0 66 0;
#X connect 80 0 2 0;
#X connect 81 0 11 0;
#X connect 82 0 21 0;
#X connect 83 0 29 0;
#X connect 84 0 40 0;
#X connect 85 0 47 0;
#X connect 86 0 58 0;
#X connect 87 0 65 0;
#X connect 88 0 86 0;
#X connect 89 0 85 0;
#X connect 90 0 84 0;
#X connect 91 0 83 0;
#X connect 92 0 82 0;
#X connect 93 0 81 0;
#X connect 94 0 80 0;
#X connect 95 0 96 0;
#X connect 96 0 97 0;
#X connect 97 0 43 0;
#X connect 98 0 99 0;
#X connect 99 0 100 0;
#X connect 100 0 50 0;
#X connect 101 0 102 0;
#X connect 102 0 103 0;
#X connect 103 0 61 0;
#X connect 104 0 105 0;
#X connect 105 0 106 0;
#X connect 106 0 68 0;
#X connect 107 0 87 0;
#X connect 108 0 109 0;
#X connect 109 0 110 0;
#X connect 110 0 32 0;
#X connect 111 0 112 0;
#X connect 112 0 113 0;
#X connect 113 0 24 0;
#X connect 114 0 115 0;
#X connect 115 0 116 0;
#X connect 116 0 15 0;
#X connect 117 0 118 0;
#X connect 118 0 119 0;
#X connect 119 0 6 0;
#X connect 124 0 123 0;
#X connect 127 0 126 0;
#X connect 130 0 129 0;
#X coords 0 818 1 817 300 55 0;
#X restore 224 178 pd flow;
#N canvas 0 0 1600 818 flow2 0;
#X floatatom 28 588 5 0 0 0 - - -;
#X floatatom 28 625 5 0 0 0 - - -;
#X obj 28 643 osc~;
#X obj 28 662 lop~ 400;
#X obj 28 681 lop~ 400;
#X obj 28 700 lop~ 400;
#X obj 28 569 random 500;
#X obj 28 738 hip~ 150;
#X obj 28 719 hip~ 150;
#X obj 28 757 hip~ 150;
#X obj 28 776 *~ 0.15;
#X floatatom 143 588 5 0 0 0 - - -;
#X floatatom 143 625 5 0 0 0 - - -;
#X obj 143 643 osc~;
#X obj 143 662 lop~ 400;
#X obj 143 681 lop~ 400;
#X obj 143 700 lop~ 400;
#X obj 143 569 random 500;
#X obj 143 738 hip~ 150;
#X obj 143 719 hip~ 150;
#X obj 143 757 hip~ 150;
#X msg 191 532 seed 6009;
#X msg 76 533 seed 20000;
#X obj 143 776 *~ 0.15;
#X floatatom 268 588 5 0 0 0 - - -;
#X floatatom 268 625 5 0 0 0 - - -;
#X obj 268 643 osc~;
#X obj 268 662 lop~ 400;
#X obj 268 681 lop~ 400;
#X obj 268 700 lop~ 400;
#X obj 268 569 random 500;
#X obj 268 738 hip~ 150;
#X obj 268 719 hip~ 150;
#X obj 268 757 hip~ 150;
#X obj 268 776 *~ 0.15;
#X floatatom 383 588 5 0 0 0 - - -;
#X floatatom 383 625 5 0 0 0 - - -;
#X obj 383 643 osc~;
#X obj 383 662 lop~ 400;
#X obj 383 681 lop~ 400;
#X obj 383 700 lop~ 400;
#X obj 383 569 random 500;
#X obj 383 738 hip~ 150;
#X obj 383 719 hip~ 150;
#X obj 383 757 hip~ 150;
#X obj 383 776 *~ 0.15;
#X msg 316 533 seed 2000;
#X msg 431 532 seed 609;
#X floatatom 498 588 5 0 0 0 - - -;
#X floatatom 498 625 5 0 0 0 - - -;
#X obj 498 643 osc~;
#X obj 498 662 lop~ 400;
#X obj 498 681 lop~ 400;
#X obj 498 700 lop~ 400;
#X obj 498 569 random 500;
#X obj 498 738 hip~ 150;
#X obj 498 719 hip~ 150;
#X obj 498 757 hip~ 150;
#X obj 498 776 *~ 0.15;
#X floatatom 613 588 5 0 0 0 - - -;
#X floatatom 613 625 5 0 0 0 - - -;
#X obj 613 643 osc~;
#X obj 613 662 lop~ 400;
#X obj 613 681 lop~ 400;
#X obj 613 700 lop~ 400;
#X obj 613 569 random 500;
#X obj 613 738 hip~ 150;
#X obj 613 719 hip~ 150;
#X obj 613 757 hip~ 150;
#X obj 613 776 *~ 0.15;
#X msg 546 533 seed 2000;
#X msg 661 532 seed 609;
#X floatatom 728 588 5 0 0 0 - - -;
#X floatatom 728 625 5 0 0 0 - - -;
#X obj 728 643 osc~;
#X obj 728 662 lop~ 400;
#X obj 728 681 lop~ 400;
#X obj 728 700 lop~ 400;
#X obj 728 569 random 500;
#X obj 728 738 hip~ 150;
#X obj 728 719 hip~ 150;
#X obj 728 757 hip~ 150;
#X obj 728 776 *~ 0.15;
#X floatatom 843 588 5 0 0 0 - - -;
#X floatatom 843 625 5 0 0 0 - - -;
#X obj 843 643 osc~;
#X obj 843 662 lop~ 400;
#X obj 843 681 lop~ 400;
#X obj 843 700 lop~ 400;
#X obj 843 569 random 500;
#X obj 843 738 hip~ 150;
#X obj 843 719 hip~ 150;
#X obj 843 757 hip~ 150;
#X obj 843 776 *~ 0.15;
#X msg 776 533 seed 2000;
#X msg 891 532 seed 609;
#X obj 28 606 + 2000;
#X obj 143 606 + 2000;
#X obj 268 606 + 2500;
#X obj 383 606 + 2500;
#X obj 498 606 + 3000;
#X obj 613 606 + 3000;
#X obj 728 606 + 3500;
#X obj 843 606 + 3500;
#X obj 431 293 r masterbang;
#X obj 28 513 r metro5;
#X obj 143 513 r metro5;
#X obj 268 513 r metro5;
#X obj 383 513 r metro5;
#X obj 498 513 r metro5;
#X obj 613 513 r metro5;
#X obj 728 513 r metro5;
#X obj 843 513 r metro5;
#X obj 728 795 s~ flow8l;
#X obj 843 795 s~ flow8r;
#X obj 498 795 s~ flow7l;
#X obj 613 795 s~ flow7r;
#X obj 268 795 s~ flow6l;
#X obj 383 795 s~ flow6r;
#X obj 28 795 s~ flow5l;
#X obj 143 795 s~ flow5r;
#X connect 0 0 96 0;
#X connect 1 0 2 0;
#X connect 2 0 3 0;
#X connect 3 0 4 0;
#X connect 4 0 5 0;
#X connect 5 0 8 0;
#X connect 6 0 0 0;
#X connect 7 0 9 0;
#X connect 8 0 7 0;
#X connect 9 0 10 0;
#X connect 10 0 119 0;
#X connect 11 0 97 0;
#X connect 12 0 13 0;
#X connect 13 0 14 0;
#X connect 14 0 15 0;
#X connect 15 0 16 0;
#X connect 16 0 19 0;
#X connect 17 0 11 0;
#X connect 18 0 20 0;
#X connect 19 0 18 0;
#X connect 20 0 23 0;
#X connect 21 0 17 0;
#X connect 22 0 6 0;
#X connect 23 0 120 0;
#X connect 24 0 98 0;
#X connect 25 0 26 0;
#X connect 26 0 27 0;
#X connect 27 0 28 0;
#X connect 28 0 29 0;
#X connect 29 0 32 0;
#X connect 30 0 24 0;
#X connect 31 0 33 0;
#X connect 32 0 31 0;
#X connect 33 0 34 0;
#X connect 34 0 117 0;
#X connect 35 0 99 0;
#X connect 36 0 37 0;
#X connect 37 0 38 0;
#X connect 38 0 39 0;
#X connect 39 0 40 0;
#X connect 40 0 43 0;
#X connect 41 0 35 0;
#X connect 42 0 44 0;
#X connect 43 0 42 0;
#X connect 44 0 45 0;
#X connect 45 0 118 0;
#X connect 46 0 30 0;
#X connect 47 0 41 0;
#X connect 48 0 100 0;
#X connect 49 0 50 0;
#X connect 50 0 51 0;
#X connect 51 0 52 0;
#X connect 52 0 53 0;
#X connect 53 0 56 0;
#X connect 54 0 48 0;
#X connect 55 0 57 0;
#X connect 56 0 55 0;
#X connect 57 0 58 0;
#X connect 58 0 115 0;
#X connect 59 0 101 0;
#X connect 60 0 61 0;
#X connect 61 0 62 0;
#X connect 62 0 63 0;
#X connect 63 0 64 0;
#X connect 64 0 67 0;
#X connect 65 0 59 0;
#X connect 66 0 68 0;
#X connect 67 0 66 0;
#X connect 68 0 69 0;
#X connect 69 0 116 0;
#X connect 70 0 54 0;
#X connect 71 0 65 0;
#X connect 72 0 102 0;
#X connect 73 0 74 0;
#X connect 74 0 75 0;
#X connect 75 0 76 0;
#X connect 76 0 77 0;
#X connect 77 0 80 0;
#X connect 78 0 72 0;
#X connect 79 0 81 0;
#X connect 80 0 79 0;
#X connect 81 0 82 0;
#X connect 82 0 113 0;
#X connect 83 0 103 0;
#X connect 84 0 85 0;
#X connect 85 0 86 0;
#X connect 86 0 87 0;
#X connect 87 0 88 0;
#X connect 88 0 91 0;
#X connect 89 0 83 0;
#X connect 90 0 92 0;
#X connect 91 0 90 0;
#X connect 92 0 93 0;
#X connect 93 0 114 0;
#X connect 94 0 78 0;
#X connect 95 0 89 0;
#X connect 96 0 1 0;
#X connect 97 0 12 0;
#X connect 98 0 25 0;
#X connect 99 0 36 0;
#X connect 100 0 49 0;
#X connect 101 0 60 0;
#X connect 102 0 73 0;
#X connect 103 0 84 0;
#X connect 104 0 22 0;
#X connect 104 0 21 0;
#X connect 104 0 46 0;
#X connect 104 0 47 0;
#X connect 104 0 70 0;
#X connect 104 0 94 0;
#X connect 104 0 71 0;
#X connect 104 0 95 0;
#X connect 105 0 6 0;
#X connect 106 0 17 0;
#X connect 107 0 30 0;
#X connect 108 0 41 0;
#X connect 109 0 54 0;
#X connect 110 0 65 0;
#X connect 111 0 78 0;
#X connect 112 0 89 0;
#X coords 0 818 1 817 300 55 0;
#X restore 224 159 pd flow2;
#X connect 1 0 3 0;
#X connect 2 0 6 0;
#X connect 2 1 5 0;
#X connect 5 0 23 0;
#X connect 6 0 23 1;
#X connect 9 0 1 0;
#X connect 10 0 6 1;
#X connect 10 0 5 1;
#X connect 11 0 17 0;
#X connect 11 0 12 0;
#X connect 11 0 16 0;
#X connect 11 0 18 0;
#X connect 11 0 19 0;
#X connect 11 0 22 0;
#X connect 12 0 13 0;
#X connect 16 0 14 0;
#X connect 17 0 15 0;
#X connect 19 0 20 0;
#X connect 22 0 21 0;
#X connect 24 0 11 0;
