#N canvas -8 -8 1920 997 10;
#X obj 597 1269 clip~ -1 1;
#X obj 654 1285 bp~ 800 1;
#X obj 654 1304 *~ -0.15;
#X obj 5 -671 noise~;
#X obj 5 -562 bp~;
#X obj 58 -719 noise~;
#X obj 58 -662 line;
#X obj 5 -543 clip~ -1 1;
#X obj 58 -681 pack~ 0 650;
#X msg 58 -579 20;
#X obj 659 -484 bng 15 250 50 0 empty empty empty 17 7 0 10 -262144
-1 -1;
#X obj 659 -467 loadbang;
#X obj 659 -448 metro 250;
#X obj 659 -391 / 1000;
#X obj 659 -372 pack 0 500;
#X obj 659 -353 line;
#X obj 659 -410 + 250;
#X obj 659 -429 random 650;
#X obj 56 -610 loadbang;
#X obj 58 -700 *~ 50;
#X obj 5 -505 lop~ 200;
#X obj 5 -524 lop~ 200;
#X obj 5 -486 hip~ 50;
#X obj 5 -448 clip~ -1 1;
#X obj 5 -467 *~ 100;
#X obj 265 -336 *~;
#X obj 265 -355 lop~ 150;
#X obj 135 -671 noise~;
#X obj 135 -562 bp~;
#X obj 188 -719 noise~;
#X obj 188 -662 line;
#X obj 135 -543 clip~ -1 1;
#X obj 188 -681 pack~ 0 650;
#X msg 188 -579 20;
#X obj 186 -610 loadbang;
#X obj 188 -700 *~ 50;
#X obj 135 -505 lop~ 200;
#X obj 135 -524 lop~ 200;
#X obj 135 -486 hip~ 50;
#X obj 135 -448 clip~ -1 1;
#X obj 135 -467 *~ 100;
#X obj 265 -671 noise~;
#X obj 265 -562 bp~;
#X obj 318 -719 noise~;
#X obj 318 -662 line;
#X obj 265 -543 clip~ -1 1;
#X obj 318 -681 pack~ 0 650;
#X msg 318 -579 20;
#X obj 316 -610 loadbang;
#X obj 318 -700 *~ 50;
#X obj 265 -505 lop~ 200;
#X obj 265 -524 lop~ 200;
#X obj 265 -486 hip~ 50;
#X obj 265 -448 clip~ -1 1;
#X obj 265 -467 *~ 100;
#X obj 395 -671 noise~;
#X obj 395 -562 bp~;
#X obj 448 -719 noise~;
#X obj 448 -662 line;
#X obj 395 -543 clip~ -1 1;
#X obj 448 -681 pack~ 0 650;
#X msg 448 -579 20;
#X obj 446 -610 loadbang;
#X obj 448 -700 *~ 50;
#X obj 395 -505 lop~ 200;
#X obj 395 -524 lop~ 200;
#X obj 395 -486 hip~ 50;
#X obj 395 -448 clip~ -1 1;
#X obj 395 -467 *~ 100;
#X obj 525 -671 noise~;
#X obj 525 -562 bp~;
#X obj 578 -719 noise~;
#X obj 578 -662 line;
#X obj 525 -543 clip~ -1 1;
#X obj 578 -681 pack~ 0 650;
#X msg 578 -579 20;
#X obj 576 -610 loadbang;
#X obj 578 -700 *~ 50;
#X obj 525 -505 lop~ 200;
#X obj 525 -524 lop~ 200;
#X obj 525 -486 hip~ 50;
#X obj 525 -448 clip~ -1 1;
#X obj 525 -467 *~ 100;
#X obj 740 -431 s 250metro;
#X obj 248 -190 noise~;
#X obj 248 -81 bp~;
#X obj 301 -238 noise~;
#X obj 301 -181 line;
#X obj 248 -62 clip~ -1 1;
#X obj 301 -200 pack~ 0 650;
#X msg 301 -98 20;
#X obj 378 -190 noise~;
#X obj 378 -81 bp~;
#X obj 431 -238 noise~;
#X obj 431 -181 line;
#X obj 378 -62 clip~ -1 1;
#X obj 431 -200 pack~ 0 650;
#X msg 431 -98 20;
#X obj 508 -190 noise~;
#X obj 508 -81 bp~;
#X obj 561 -238 noise~;
#X obj 561 -181 line;
#X obj 508 -62 clip~ -1 1;
#X obj 561 -200 pack~ 0 650;
#X msg 561 -98 20;
#X obj 5 -200 noise~;
#X obj 5 -91 bp~;
#X obj 58 -248 noise~;
#X obj 58 -191 line;
#X obj 5 -72 clip~ -1 1;
#X obj 58 -210 pack~ 0 650;
#X msg 58 -108 20;
#X obj 135 -200 noise~;
#X obj 135 -91 bp~;
#X obj 188 -248 noise~;
#X obj 188 -191 line;
#X obj 135 -72 clip~ -1 1;
#X obj 188 -210 pack~ 0 650;
#X msg 188 -108 20;
#X obj 667 62 / 1000;
#X obj 667 81 pack 0 500;
#X obj 667 100 line;
#X obj 508 -24 lop~ 500;
#X obj 508 -43 lop~ 500;
#X obj 378 -43 lop~ 500;
#X obj 378 -24 lop~ 500;
#X obj 248 -24 lop~ 500;
#X obj 248 -43 lop~ 500;
#X obj 135 -53 lop~ 500;
#X obj 135 -34 lop~ 500;
#X obj 5 -34 lop~ 500;
#X obj 5 -53 lop~ 500;
#X obj 508 -4 hip~ 100;
#X obj 378 -4 hip~ 100;
#X obj 248 -4 hip~ 100;
#X obj 135 -14 hip~ 100;
#X obj 5 -14 hip~ 100;
#X obj 667 43 + 250;
#X obj 508 25 *~ 0.015;
#X obj 378 25 *~ 0.015;
#X obj 248 25 *~ 0.015;
#X obj 135 17 *~ 0.015;
#X obj 5 17 *~ 0.015;
#X obj 667 24 random 650;
#X obj 56 -139 loadbang;
#X obj 186 -139 loadbang;
#X obj 316 -139 loadbang;
#X obj 446 -139 loadbang;
#X obj 556 -139 loadbang;
#X obj 249 117 *~;
#X obj 58 -229 *~ 150;
#X obj 188 -229 *~ 150;
#X obj 301 -219 *~ 150;
#X obj 431 -219 *~ 150;
#X obj 561 -219 *~ 150;
#X obj 667 5 r 250metro;
#X obj 758 268 noise~;
#X obj 758 377 bp~;
#X obj 811 220 noise~;
#X obj 811 277 line;
#X obj 758 396 clip~ -1 1;
#X obj 811 258 pack~ 0 650;
#X msg 811 360 20;
#X obj 758 453 hip~ 100;
#X obj 369 271 noise~;
#X obj 369 380 bp~;
#X obj 422 223 noise~;
#X obj 422 280 line;
#X obj 369 399 clip~ -1 1;
#X msg 422 363 20;
#X obj 499 271 noise~;
#X obj 499 380 bp~;
#X obj 552 223 noise~;
#X obj 552 280 line;
#X obj 499 399 clip~ -1 1;
#X msg 552 363 20;
#X obj 629 271 noise~;
#X obj 629 380 bp~;
#X obj 682 223 noise~;
#X obj 682 280 line;
#X obj 629 399 clip~ -1 1;
#X msg 682 363 20;
#X obj -4 261 noise~;
#X obj -4 370 bp~;
#X obj 49 213 noise~;
#X obj 49 270 line;
#X obj -4 389 clip~ -1 1;
#X msg 49 353 20;
#X obj 126 261 noise~;
#X obj 126 370 bp~;
#X obj 179 213 noise~;
#X obj 179 270 line;
#X obj 126 389 clip~ -1 1;
#X msg 179 353 20;
#X obj 256 261 noise~;
#X obj 256 370 bp~;
#X obj 309 213 noise~;
#X obj 309 270 line;
#X obj 256 389 clip~ -1 1;
#X msg 309 353 20;
#X obj 629 456 hip~ 900;
#X obj 499 456 hip~ 900;
#X obj 369 456 hip~ 900;
#X obj 256 446 hip~ 900;
#X obj 126 446 hip~ 900;
#X obj -4 446 hip~ 900;
#X obj 819 539 / 1000;
#X obj 819 558 pack 0 500;
#X obj 819 577 line;
#X obj 629 437 lop~ 1000;
#X obj 758 434 lop~ 1000;
#X obj 758 415 lop~ 1000;
#X obj 629 418 lop~ 1000;
#X obj 499 418 lop~ 1000;
#X obj 499 437 lop~ 1000;
#X obj 369 437 lop~ 1000;
#X obj 369 418 lop~ 1000;
#X obj 256 408 lop~ 1000;
#X obj 256 427 lop~ 1000;
#X obj 126 408 lop~ 1000;
#X obj 126 427 lop~ 1000;
#X obj -4 408 lop~ 1000;
#X obj -4 427 lop~ 1000;
#X obj -4 465 *~ 0.01;
#X obj 126 465 *~ 0.01;
#X obj 256 465 *~ 0.01;
#X obj 369 475 *~ 0.01;
#X obj 499 475 *~ 0.01;
#X obj 629 475 *~ 0.01;
#X obj 758 472 *~ 0.01;
#X obj 819 501 random 350;
#X obj 49 329 loadbang;
#X obj 179 329 loadbang;
#X obj 309 329 loadbang;
#X obj 419 329 loadbang;
#X obj 549 329 loadbang;
#X obj 679 329 loadbang;
#X obj 809 329 loadbang;
#X obj 368 594 *~;
#X obj 552 261 pack~ 0 50;
#X obj 682 261 pack~ 0 50;
#X obj 422 261 pack~ 0 50;
#X obj 309 251 pack~ 0 50;
#X obj 179 251 pack~ 0 50;
#X obj 49 251 pack~ 0 50;
#X obj 819 520 + 150;
#X obj 811 239 *~ 150;
#X obj 682 242 *~ 350;
#X obj 552 242 *~ 350;
#X obj 422 242 *~ 350;
#X obj 309 232 *~ 350;
#X obj 179 232 *~ 350;
#X obj 49 232 *~ 350;
#X obj 819 482 r 250metro;
#X obj 28 799 *~;
#X obj -3 599 noise~;
#X obj 73 600 noise~;
#X obj 28 742 /~ 10;
#X obj -3 656 lop~ 1500;
#X obj -3 618 lop~ 1500;
#X obj 73 676 lop~ 100;
#X obj 73 638 lop~ 100;
#X obj 73 619 lop~ 100;
#X obj 73 657 lop~ 100;
#X obj -3 675 lop~ 100;
#X obj -3 637 lop~ 1500;
#X obj 28 780 bp~ 1000 10;
#X obj 28 761 *~ 0.0005;
#X obj 28 723 /~;
#X obj 73 815 bp~ 500 3;
#X obj 73 834 *~ -1;
#X obj 28 866 clip~ -1 1;
#X obj 28 885 hip~ 400;
#X obj 255 717 noise~;
#X obj 329 718 noise~;
#X obj 285 859 /~ 10;
#X obj 255 774 lop~ 1500;
#X obj 255 736 lop~ 1500;
#X obj 329 794 lop~ 100;
#X obj 329 756 lop~ 100;
#X obj 329 737 lop~ 100;
#X obj 329 775 lop~ 100;
#X obj 255 793 lop~ 100;
#X obj 255 755 lop~ 1500;
#X obj 285 878 *~ 0.0005;
#X obj 285 840 /~;
#X obj 285 935 clip~ -0.5 0.5;
#X obj 383 718 noise~;
#X obj 461 719 noise~;
#X obj 415 862 /~ 10;
#X obj 383 775 lop~ 1500;
#X obj 383 737 lop~ 1500;
#X obj 461 795 lop~ 100;
#X obj 461 757 lop~ 100;
#X obj 461 738 lop~ 100;
#X obj 461 776 lop~ 100;
#X obj 383 794 lop~ 100;
#X obj 383 756 lop~ 1500;
#X obj 415 881 *~ 0.0005;
#X obj 415 843 /~;
#X obj 415 900 lop~ 1000;
#X obj 415 976 clip~ -0.4 0.4;
#X obj 415 919 lop~ 1000;
#X obj 415 938 lop~ 1000;
#X obj 127 716 noise~;
#X obj 201 717 noise~;
#X obj 157 858 /~ 10;
#X obj 127 773 lop~ 1500;
#X obj 127 735 lop~ 1500;
#X obj 201 793 lop~ 100;
#X obj 201 755 lop~ 100;
#X obj 201 736 lop~ 100;
#X obj 201 774 lop~ 100;
#X obj 127 792 lop~ 100;
#X obj 127 754 lop~ 1500;
#X obj 157 877 *~ 0.0005;
#X obj 157 839 /~;
#X obj 157 934 clip~ -0.5 0.5;
#X obj 157 896 hip~ 2000;
#X obj 285 897 bp~ 700 10;
#X obj 515 719 noise~;
#X obj 593 720 noise~;
#X obj 547 863 /~ 10;
#X obj 515 776 lop~ 1500;
#X obj 515 738 lop~ 1500;
#X obj 593 796 lop~ 100;
#X obj 593 758 lop~ 100;
#X obj 593 739 lop~ 100;
#X obj 593 777 lop~ 100;
#X obj 515 795 lop~ 100;
#X obj 515 757 lop~ 1500;
#X obj 547 882 *~ 0.0005;
#X obj 547 844 /~;
#X obj 547 901 clip~ -0.1 0.1;
#X obj 157 915 *~ 0.161;
#X obj 415 957 *~ 1;
#X obj 547 920 *~ 0.096;
#X obj 285 916 *~ 0.154;
#X obj 647 720 noise~;
#X obj 726 720 noise~;
#X obj 679 864 /~ 10;
#X obj 647 777 lop~ 1500;
#X obj 647 739 lop~ 1500;
#X obj 726 796 lop~ 100;
#X obj 726 758 lop~ 100;
#X obj 726 739 lop~ 100;
#X obj 726 777 lop~ 100;
#X obj 647 796 lop~ 100;
#X obj 647 758 lop~ 1500;
#X obj 679 845 /~;
#X obj 679 902 lop~ 200;
#X obj 679 921 lop~ 200;
#X obj 679 940 lop~ 200;
#X obj 679 883 *~ 0.001;
#X obj 679 959 *~ 0.4;
#X obj 679 978 clip~ -0.8 0.8;
#X obj 416 1107 hip~ 1000;
#X obj 416 1126 hip~ 1000;
#X obj 154 1356 *~;
#X obj 224 1231 *~;
#X obj 194 1057 env~;
#X obj 194 1038 lop~ 1;
#X msg 239 1114 bang;
#X obj 239 1133 random 30;
#X obj 239 1171 line~;
#X msg 239 1152 1 \, 0 \$1;
#X obj 239 1203 *~;
#X obj 311 1169 + 1500;
#X obj 311 1150 * 500;
#X obj 158 985 noise~;
#X obj 65 1231 *~;
#X obj 34 1057 env~;
#X obj 34 1038 lop~ 1;
#X msg 79 1114 bang;
#X obj 79 1133 random 30;
#X obj 79 1171 line~;
#X msg 79 1152 1 \, 0 \$1;
#X obj 79 1203 *~;
#X obj -2 985 noise~;
#X obj 224 1250 *~ 0.5;
#X obj 159 1215 bp~ 4000 1;
#X obj 194 1076 moses 40;
#X obj 239 1095 moses 40.1;
#X obj 34 1076 moses 55;
#X obj 79 1095 moses 55.2;
#X obj -2 1215 bp~ 5000 1;
#X obj 311 1282 / 1000;
#X obj 311 1301 pack 0 500;
#X obj 311 1320 line;
#X floatatom 311 1339 5 0 0 0 - - -;
#X obj 311 1263 + 250;
#X obj 311 1244 random 650;
#X obj 154 1337 *~;
#X obj 311 1225 r 250metro;
#X obj 446 1253 *~;
#X obj 515 1288 *~ -1;
#X obj 445 1361 delwrite~ crackle1 2000;
#X obj 515 1269 bp~ 400 2;
#X obj 445 1304 hip~ 1000;
#X obj 445 1323 hip~ 1000;
#X obj 445 1342 hip~ 1000;
#X obj 666 1164 delread~ crackle1 2000;
#X obj 528 1164 delread~ crackle1 1225;
#X obj 597 1250 lop~ 700;
#X obj 446 1234 catch~ firesum;
#X obj 249 136 *~;
#X obj 265 -317 *~;
#X obj 368 613 *~;
#X obj 28 904 *~;
#X obj 416 1145 *~;
#X obj 416 1164 throw~ firesum;
#X obj 154 1375 throw~ firesum;
#X obj 28 923 throw~ firesum;
#X obj 368 632 throw~ firesum;
#X obj 249 155 throw~ firesum;
#X obj 265 -298 throw~ firesum;
#X obj 597 1378 outlet~;
#X obj 654 1378 outlet~;
#X connect 0 0 1 0;
#X connect 0 0 416 0;
#X connect 0 0 417 0;
#X connect 1 0 2 0;
#X connect 2 0 417 0;
#X connect 2 0 416 0;
#X connect 3 0 4 0;
#X connect 4 0 7 0;
#X connect 5 0 19 0;
#X connect 6 0 4 1;
#X connect 7 0 21 0;
#X connect 8 0 6 0;
#X connect 9 0 4 2;
#X connect 10 0 11 0;
#X connect 11 0 12 0;
#X connect 12 0 17 0;
#X connect 12 0 83 0;
#X connect 13 0 14 0;
#X connect 14 0 15 0;
#X connect 15 0 25 1;
#X connect 16 0 13 0;
#X connect 17 0 16 0;
#X connect 18 0 9 0;
#X connect 19 0 8 0;
#X connect 20 0 22 0;
#X connect 21 0 20 0;
#X connect 22 0 24 0;
#X connect 23 0 26 0;
#X connect 24 0 23 0;
#X connect 25 0 406 0;
#X connect 26 0 25 0;
#X connect 27 0 28 0;
#X connect 28 0 31 0;
#X connect 29 0 35 0;
#X connect 30 0 28 1;
#X connect 31 0 37 0;
#X connect 32 0 30 0;
#X connect 33 0 28 2;
#X connect 34 0 33 0;
#X connect 35 0 32 0;
#X connect 36 0 38 0;
#X connect 37 0 36 0;
#X connect 38 0 40 0;
#X connect 39 0 26 0;
#X connect 40 0 39 0;
#X connect 41 0 42 0;
#X connect 42 0 45 0;
#X connect 43 0 49 0;
#X connect 44 0 42 1;
#X connect 45 0 51 0;
#X connect 46 0 44 0;
#X connect 47 0 42 2;
#X connect 48 0 47 0;
#X connect 49 0 46 0;
#X connect 50 0 52 0;
#X connect 51 0 50 0;
#X connect 52 0 54 0;
#X connect 53 0 26 0;
#X connect 54 0 53 0;
#X connect 55 0 56 0;
#X connect 56 0 59 0;
#X connect 57 0 63 0;
#X connect 58 0 56 1;
#X connect 59 0 65 0;
#X connect 60 0 58 0;
#X connect 61 0 56 2;
#X connect 62 0 61 0;
#X connect 63 0 60 0;
#X connect 64 0 66 0;
#X connect 65 0 64 0;
#X connect 66 0 68 0;
#X connect 67 0 26 0;
#X connect 68 0 67 0;
#X connect 69 0 70 0;
#X connect 70 0 73 0;
#X connect 71 0 77 0;
#X connect 72 0 70 1;
#X connect 73 0 79 0;
#X connect 74 0 72 0;
#X connect 75 0 70 2;
#X connect 76 0 75 0;
#X connect 77 0 74 0;
#X connect 78 0 80 0;
#X connect 79 0 78 0;
#X connect 80 0 82 0;
#X connect 81 0 26 0;
#X connect 82 0 81 0;
#X connect 84 0 85 0;
#X connect 85 0 88 0;
#X connect 86 0 152 0;
#X connect 87 0 85 1;
#X connect 88 0 127 0;
#X connect 89 0 87 0;
#X connect 90 0 85 2;
#X connect 91 0 92 0;
#X connect 92 0 95 0;
#X connect 93 0 153 0;
#X connect 94 0 92 1;
#X connect 95 0 124 0;
#X connect 96 0 94 0;
#X connect 97 0 92 2;
#X connect 98 0 99 0;
#X connect 99 0 102 0;
#X connect 100 0 154 0;
#X connect 101 0 99 1;
#X connect 102 0 123 0;
#X connect 103 0 101 0;
#X connect 104 0 99 2;
#X connect 105 0 106 0;
#X connect 106 0 109 0;
#X connect 107 0 150 0;
#X connect 108 0 106 1;
#X connect 109 0 131 0;
#X connect 110 0 108 0;
#X connect 111 0 106 2;
#X connect 112 0 113 0;
#X connect 113 0 116 0;
#X connect 114 0 151 0;
#X connect 115 0 113 1;
#X connect 116 0 128 0;
#X connect 117 0 115 0;
#X connect 118 0 113 2;
#X connect 119 0 120 0;
#X connect 120 0 121 0;
#X connect 121 0 149 1;
#X connect 122 0 132 0;
#X connect 123 0 122 0;
#X connect 124 0 125 0;
#X connect 125 0 133 0;
#X connect 126 0 134 0;
#X connect 127 0 126 0;
#X connect 128 0 129 0;
#X connect 129 0 135 0;
#X connect 130 0 136 0;
#X connect 131 0 130 0;
#X connect 132 0 138 0;
#X connect 133 0 139 0;
#X connect 134 0 140 0;
#X connect 135 0 141 0;
#X connect 136 0 142 0;
#X connect 137 0 119 0;
#X connect 138 0 149 0;
#X connect 139 0 149 0;
#X connect 140 0 149 0;
#X connect 141 0 149 0;
#X connect 142 0 149 0;
#X connect 143 0 137 0;
#X connect 144 0 111 0;
#X connect 145 0 118 0;
#X connect 146 0 90 0;
#X connect 147 0 97 0;
#X connect 148 0 104 0;
#X connect 149 0 405 0;
#X connect 150 0 110 0;
#X connect 151 0 117 0;
#X connect 152 0 89 0;
#X connect 153 0 96 0;
#X connect 154 0 103 0;
#X connect 155 0 143 0;
#X connect 156 0 157 0;
#X connect 157 0 160 0;
#X connect 158 0 246 0;
#X connect 159 0 157 1;
#X connect 160 0 211 0;
#X connect 161 0 159 0;
#X connect 162 0 157 2;
#X connect 163 0 229 0;
#X connect 164 0 165 0;
#X connect 165 0 168 0;
#X connect 166 0 249 0;
#X connect 167 0 165 1;
#X connect 168 0 216 0;
#X connect 169 0 165 2;
#X connect 170 0 171 0;
#X connect 171 0 174 0;
#X connect 172 0 248 0;
#X connect 173 0 171 1;
#X connect 174 0 213 0;
#X connect 175 0 171 2;
#X connect 176 0 177 0;
#X connect 177 0 180 0;
#X connect 178 0 247 0;
#X connect 179 0 177 1;
#X connect 180 0 212 0;
#X connect 181 0 177 2;
#X connect 182 0 183 0;
#X connect 183 0 186 0;
#X connect 184 0 252 0;
#X connect 185 0 183 1;
#X connect 186 0 221 0;
#X connect 187 0 183 2;
#X connect 188 0 189 0;
#X connect 189 0 192 0;
#X connect 190 0 251 0;
#X connect 191 0 189 1;
#X connect 192 0 219 0;
#X connect 193 0 189 2;
#X connect 194 0 195 0;
#X connect 195 0 198 0;
#X connect 196 0 250 0;
#X connect 197 0 195 1;
#X connect 198 0 217 0;
#X connect 199 0 195 2;
#X connect 200 0 228 0;
#X connect 201 0 227 0;
#X connect 202 0 226 0;
#X connect 203 0 225 0;
#X connect 204 0 224 0;
#X connect 205 0 223 0;
#X connect 206 0 207 0;
#X connect 207 0 208 0;
#X connect 208 0 238 1;
#X connect 209 0 200 0;
#X connect 210 0 163 0;
#X connect 211 0 210 0;
#X connect 212 0 209 0;
#X connect 213 0 214 0;
#X connect 214 0 201 0;
#X connect 215 0 202 0;
#X connect 216 0 215 0;
#X connect 217 0 218 0;
#X connect 218 0 203 0;
#X connect 219 0 220 0;
#X connect 220 0 204 0;
#X connect 221 0 222 0;
#X connect 222 0 205 0;
#X connect 223 0 238 0;
#X connect 224 0 238 0;
#X connect 225 0 238 0;
#X connect 226 0 238 0;
#X connect 227 0 238 0;
#X connect 228 0 238 0;
#X connect 229 0 238 0;
#X connect 230 0 245 0;
#X connect 231 0 187 0;
#X connect 232 0 193 0;
#X connect 233 0 199 0;
#X connect 234 0 169 0;
#X connect 235 0 175 0;
#X connect 236 0 181 0;
#X connect 237 0 162 0;
#X connect 238 0 407 0;
#X connect 239 0 173 0;
#X connect 240 0 179 0;
#X connect 241 0 167 0;
#X connect 242 0 197 0;
#X connect 243 0 191 0;
#X connect 244 0 185 0;
#X connect 245 0 206 0;
#X connect 246 0 161 0;
#X connect 247 0 240 0;
#X connect 248 0 239 0;
#X connect 249 0 241 0;
#X connect 250 0 242 0;
#X connect 251 0 243 0;
#X connect 252 0 244 0;
#X connect 253 0 230 0;
#X connect 254 0 269 0;
#X connect 254 0 271 0;
#X connect 255 0 259 0;
#X connect 256 0 262 0;
#X connect 257 0 267 0;
#X connect 258 0 264 0;
#X connect 259 0 265 0;
#X connect 260 0 268 1;
#X connect 261 0 263 0;
#X connect 262 0 261 0;
#X connect 263 0 260 0;
#X connect 264 0 268 0;
#X connect 265 0 258 0;
#X connect 266 0 254 0;
#X connect 267 0 266 0;
#X connect 268 0 257 0;
#X connect 269 0 270 0;
#X connect 270 0 271 0;
#X connect 271 0 272 0;
#X connect 272 0 408 0;
#X connect 273 0 277 0;
#X connect 274 0 280 0;
#X connect 275 0 284 0;
#X connect 276 0 282 0;
#X connect 277 0 283 0;
#X connect 278 0 285 1;
#X connect 279 0 281 0;
#X connect 280 0 279 0;
#X connect 281 0 278 0;
#X connect 282 0 285 0;
#X connect 283 0 276 0;
#X connect 284 0 319 0;
#X connect 285 0 275 0;
#X connect 286 0 356 0;
#X connect 287 0 291 0;
#X connect 288 0 294 0;
#X connect 289 0 298 0;
#X connect 290 0 296 0;
#X connect 291 0 297 0;
#X connect 292 0 299 1;
#X connect 293 0 295 0;
#X connect 294 0 293 0;
#X connect 295 0 292 0;
#X connect 296 0 299 0;
#X connect 297 0 290 0;
#X connect 298 0 300 0;
#X connect 299 0 289 0;
#X connect 300 0 302 0;
#X connect 301 0 356 0;
#X connect 302 0 303 0;
#X connect 303 0 335 0;
#X connect 304 0 308 0;
#X connect 305 0 311 0;
#X connect 306 0 315 0;
#X connect 307 0 313 0;
#X connect 308 0 314 0;
#X connect 309 0 316 1;
#X connect 310 0 312 0;
#X connect 311 0 310 0;
#X connect 312 0 309 0;
#X connect 313 0 316 0;
#X connect 314 0 307 0;
#X connect 315 0 318 0;
#X connect 316 0 306 0;
#X connect 317 0 356 0;
#X connect 318 0 334 0;
#X connect 319 0 337 0;
#X connect 320 0 324 0;
#X connect 321 0 327 0;
#X connect 322 0 331 0;
#X connect 323 0 329 0;
#X connect 324 0 330 0;
#X connect 325 0 332 1;
#X connect 326 0 328 0;
#X connect 327 0 326 0;
#X connect 328 0 325 0;
#X connect 329 0 332 0;
#X connect 330 0 323 0;
#X connect 331 0 333 0;
#X connect 332 0 322 0;
#X connect 333 0 336 0;
#X connect 334 0 317 0;
#X connect 335 0 301 0;
#X connect 336 0 356 0;
#X connect 337 0 286 0;
#X connect 338 0 342 0;
#X connect 339 0 345 0;
#X connect 340 0 353 0;
#X connect 341 0 347 0;
#X connect 342 0 348 0;
#X connect 343 0 349 1;
#X connect 344 0 346 0;
#X connect 345 0 344 0;
#X connect 346 0 343 0;
#X connect 347 0 349 0;
#X connect 348 0 341 0;
#X connect 349 0 340 0;
#X connect 350 0 351 0;
#X connect 351 0 352 0;
#X connect 352 0 354 0;
#X connect 353 0 350 0;
#X connect 354 0 355 0;
#X connect 355 0 356 0;
#X connect 356 0 357 0;
#X connect 357 0 409 0;
#X connect 358 0 411 0;
#X connect 359 0 379 0;
#X connect 360 0 381 0;
#X connect 361 0 360 0;
#X connect 362 0 363 0;
#X connect 363 0 365 0;
#X connect 363 0 368 0;
#X connect 364 0 366 0;
#X connect 364 0 366 1;
#X connect 365 0 364 0;
#X connect 366 0 359 1;
#X connect 368 0 367 0;
#X connect 369 0 361 0;
#X connect 369 0 380 0;
#X connect 370 0 392 0;
#X connect 371 0 383 0;
#X connect 372 0 371 0;
#X connect 373 0 374 0;
#X connect 374 0 376 0;
#X connect 375 0 377 0;
#X connect 375 0 377 1;
#X connect 376 0 375 0;
#X connect 377 0 370 1;
#X connect 378 0 372 0;
#X connect 378 0 385 0;
#X connect 379 0 392 0;
#X connect 380 0 359 0;
#X connect 381 1 382 0;
#X connect 382 0 362 0;
#X connect 383 1 384 0;
#X connect 384 0 373 0;
#X connect 385 0 370 0;
#X connect 386 0 387 0;
#X connect 387 0 388 0;
#X connect 388 0 392 1;
#X connect 388 0 389 0;
#X connect 390 0 386 0;
#X connect 391 0 390 0;
#X connect 392 0 358 0;
#X connect 393 0 391 0;
#X connect 394 0 397 0;
#X connect 394 0 398 0;
#X connect 395 0 398 0;
#X connect 397 0 395 0;
#X connect 398 0 399 0;
#X connect 399 0 400 0;
#X connect 400 0 396 0;
#X connect 401 0 403 0;
#X connect 402 0 403 0;
#X connect 403 0 0 0;
#X connect 404 0 394 0;
#X connect 404 0 403 0;
#X connect 405 0 414 0;
#X connect 406 0 415 0;
#X connect 407 0 413 0;
#X connect 408 0 412 0;
#X connect 409 0 410 0;
