#N canvas 0 0 1920 997 10;
#X obj 327 414 output~;
#N canvas -8 -8 1920 997 crackle1 0;
#X obj 82 418 outlet~;
#X obj 90 248 *~;
#X obj 105 112 vsl 15 128 0 1 0 0 empty empty empty 0 -9 0 10 -244296
-1 -1 1200 1;
#X obj 90 -186 noise~;
#X obj 133 -186 noise~;
#X obj 121 -8 /~ 10;
#X obj 60 -105 lop~ 1500;
#X obj 60 -145 lop~ 1500;
#X obj 135 -84 lop~ 100;
#X obj 135 -124 lop~ 100;
#X obj 135 -144 lop~ 100;
#X obj 135 -104 lop~ 100;
#X obj 60 -85 lop~ 100;
#X obj 60 -125 lop~ 1500;
#X obj 93 48 bp~ 1000 10;
#X obj 99 16 *~ 0.0005;
#X obj 112 -36 /~;
#X obj 115 312 bp~ 500 3;
#X obj 115 331 *~ -1;
#X obj 82 365 clip~ -1 1;
#X obj 82 391 hip~ 400;
#X connect 1 0 17 0;
#X connect 1 0 19 0;
#X connect 2 0 1 1;
#X connect 3 0 7 0;
#X connect 4 0 10 0;
#X connect 5 0 15 0;
#X connect 6 0 12 0;
#X connect 7 0 13 0;
#X connect 8 0 16 1;
#X connect 9 0 11 0;
#X connect 10 0 9 0;
#X connect 11 0 8 0;
#X connect 12 0 16 0;
#X connect 13 0 6 0;
#X connect 14 0 1 0;
#X connect 15 0 14 0;
#X connect 16 0 5 0;
#X connect 17 0 18 0;
#X connect 18 0 19 0;
#X connect 19 0 20 0;
#X connect 20 0 0 0;
#X coords 0 -1 1 1 25 150 2 100 100;
#X restore 663 -105 pd crackle1;
#N canvas -8 -8 1920 997 crackle2 0;
#X obj 90 267 outlet~;
#X obj 90 248 *~;
#X obj 105 112 vsl 15 128 0 1 0 0 empty empty empty 0 -9 0 10 -257985
-1 -1 3500 1;
#X obj -445 -272 noise~;
#X obj -371 -271 noise~;
#X obj -385 -127 /~ 10;
#X obj -445 -213 lop~ 1500;
#X obj -445 -253 lop~ 1500;
#X obj -371 -192 lop~ 100;
#X obj -371 -232 lop~ 100;
#X obj -371 -252 lop~ 100;
#X obj -371 -212 lop~ 100;
#X obj -445 -193 lop~ 100;
#X obj -445 -233 lop~ 1500;
#X obj -385 -108 *~ 0.0005;
#X obj -385 -146 /~;
#X obj -385 -51 clip~ -0.5 0.5;
#X obj -245 -368 noise~;
#X obj -202 -368 noise~;
#X obj -214 -190 /~ 10;
#X obj -275 -287 lop~ 1500;
#X obj -275 -327 lop~ 1500;
#X obj -200 -266 lop~ 100;
#X obj -200 -306 lop~ 100;
#X obj -200 -326 lop~ 100;
#X obj -200 -286 lop~ 100;
#X obj -275 -267 lop~ 100;
#X obj -275 -307 lop~ 1500;
#X obj -236 -166 *~ 0.0005;
#X obj -223 -218 /~;
#X obj -242 -134 lop~ 1000;
#X obj -242 -52 clip~ -0.4 0.4;
#X obj -242 -114 lop~ 1000;
#X obj -242 -94 lop~ 1000;
#X obj -625 -272 noise~;
#X obj -550 -271 noise~;
#X obj -565 -127 /~ 10;
#X obj -625 -213 lop~ 1500;
#X obj -625 -253 lop~ 1500;
#X obj -550 -192 lop~ 100;
#X obj -550 -232 lop~ 100;
#X obj -550 -252 lop~ 100;
#X obj -550 -212 lop~ 100;
#X obj -625 -193 lop~ 100;
#X obj -625 -233 lop~ 1500;
#X obj -565 -108 *~ 0.0005;
#X obj -565 -146 /~;
#X obj -565 -51 clip~ -0.5 0.5;
#X obj -565 -89 hip~ 2000;
#X obj -385 -89 bp~ 700 10;
#X obj -103 -312 noise~;
#X obj -60 -312 noise~;
#X obj -72 -134 /~ 10;
#X obj -133 -231 lop~ 1500;
#X obj -133 -271 lop~ 1500;
#X obj -58 -210 lop~ 100;
#X obj -58 -250 lop~ 100;
#X obj -58 -270 lop~ 100;
#X obj -58 -230 lop~ 100;
#X obj -133 -211 lop~ 100;
#X obj -133 -251 lop~ 1500;
#X obj -94 -110 *~ 0.0005;
#X obj -81 -162 /~;
#X obj -97 -69 clip~ -0.1 0.1;
#X obj -565 -70 *~ 0.161;
#X obj -242 -71 *~ 1;
#X obj -97 -50 *~ 0.096;
#X obj -385 -70 *~ 0.154;
#X obj 86 -369 noise~;
#X obj 129 -369 noise~;
#X obj 117 -191 /~ 10;
#X obj 56 -288 lop~ 1500;
#X obj 56 -328 lop~ 1500;
#X obj 131 -267 lop~ 100;
#X obj 131 -307 lop~ 100;
#X obj 131 -327 lop~ 100;
#X obj 131 -287 lop~ 100;
#X obj 56 -268 lop~ 100;
#X obj 56 -308 lop~ 1500;
#X obj 108 -219 /~;
#X obj 89 -135 lop~ 200;
#X obj 89 -115 lop~ 200;
#X obj 89 -95 lop~ 200;
#X obj 95 -167 *~ 0.001;
#X obj 89 -72 *~ 0.4;
#X obj 89 -53 clip~ -0.8 0.8;
#X obj 0 146 hip~ 1000;
#X obj 0 166 hip~ 1000;
#X connect 1 0 0 0;
#X connect 2 0 1 1;
#X connect 3 0 7 0;
#X connect 4 0 10 0;
#X connect 5 0 14 0;
#X connect 6 0 12 0;
#X connect 7 0 13 0;
#X connect 8 0 15 1;
#X connect 9 0 11 0;
#X connect 10 0 9 0;
#X connect 11 0 8 0;
#X connect 12 0 15 0;
#X connect 13 0 6 0;
#X connect 14 0 49 0;
#X connect 15 0 5 0;
#X connect 16 0 86 0;
#X connect 17 0 21 0;
#X connect 18 0 24 0;
#X connect 19 0 28 0;
#X connect 20 0 26 0;
#X connect 21 0 27 0;
#X connect 22 0 29 1;
#X connect 23 0 25 0;
#X connect 24 0 23 0;
#X connect 25 0 22 0;
#X connect 26 0 29 0;
#X connect 27 0 20 0;
#X connect 28 0 30 0;
#X connect 29 0 19 0;
#X connect 30 0 32 0;
#X connect 31 0 86 0;
#X connect 32 0 33 0;
#X connect 33 0 65 0;
#X connect 34 0 38 0;
#X connect 35 0 41 0;
#X connect 36 0 45 0;
#X connect 37 0 43 0;
#X connect 38 0 44 0;
#X connect 39 0 46 1;
#X connect 40 0 42 0;
#X connect 41 0 40 0;
#X connect 42 0 39 0;
#X connect 43 0 46 0;
#X connect 44 0 37 0;
#X connect 45 0 48 0;
#X connect 46 0 36 0;
#X connect 47 0 86 0;
#X connect 48 0 64 0;
#X connect 49 0 67 0;
#X connect 50 0 54 0;
#X connect 51 0 57 0;
#X connect 52 0 61 0;
#X connect 53 0 59 0;
#X connect 54 0 60 0;
#X connect 55 0 62 1;
#X connect 56 0 58 0;
#X connect 57 0 56 0;
#X connect 58 0 55 0;
#X connect 59 0 62 0;
#X connect 60 0 53 0;
#X connect 61 0 63 0;
#X connect 62 0 52 0;
#X connect 63 0 66 0;
#X connect 64 0 47 0;
#X connect 65 0 31 0;
#X connect 66 0 86 0;
#X connect 67 0 16 0;
#X connect 68 0 72 0;
#X connect 69 0 75 0;
#X connect 70 0 83 0;
#X connect 71 0 77 0;
#X connect 72 0 78 0;
#X connect 73 0 79 1;
#X connect 74 0 76 0;
#X connect 75 0 74 0;
#X connect 76 0 73 0;
#X connect 77 0 79 0;
#X connect 78 0 71 0;
#X connect 79 0 70 0;
#X connect 80 0 81 0;
#X connect 81 0 82 0;
#X connect 82 0 84 0;
#X connect 83 0 80 0;
#X connect 84 0 85 0;
#X connect 85 0 86 0;
#X connect 86 0 87 0;
#X connect 87 0 1 0;
#X coords 0 -1 1 1 25 150 2 100 100;
#X restore 741 -105 pd crackle2;
#N canvas -8 -8 1920 997 crackle3 0;
#X obj 90 267 outlet~;
#X obj 90 248 *~;
#X obj 105 112 vsl 15 128 0 1 0 0 empty empty empty 0 -9 0 10 -262130
-1 -1 600 1;
#X obj 61 26 *~;
#X obj 74 -264 env~;
#X obj 74 -288 lop~ 1;
#X msg 125 -198 bang;
#X obj 125 -175 random 30;
#X obj 125 -131 line~;
#X msg 125 -152 1 \, 0 \$1;
#X obj 125 -103 *~;
#X obj 164 -46 + 1500;
#X obj 163 -68 * 500;
#X obj 57 -320 noise~;
#X obj -99 26 *~;
#X obj -86 -264 env~;
#X obj -86 -288 lop~ 1;
#X msg -35 -198 bang;
#X obj -35 -175 random 30;
#X obj -35 -131 line~;
#X msg -35 -152 1 \, 0 \$1;
#X obj -35 -103 *~;
#X obj -103 -320 noise~;
#X obj 62 45 *~ 0.5;
#X floatatom 174 3 10 0 0 0 - - -;
#X obj 61 -19 bp~ 4000 1;
#X floatatom 268 -221 5 0 0 0 - - -;
#X obj 74 -241 moses 40;
#X obj 125 -220 moses 40.1;
#X obj -86 -241 moses 55;
#X obj -35 -220 moses 55.2;
#X obj -99 -19 bp~ 5000 1;
#X obj -12 -57 bng 15 250 50 0 empty empty empty 17 7 0 10 -262144
-1 -1;
#X obj -12 -19 loadbang;
#X obj -12 0 metro 250;
#X obj -12 57 / 1000;
#X obj -12 76 pack 0 500;
#X obj -12 95 line;
#X floatatom 22 180 5 0 0 0 - - -;
#X obj -12 38 + 250;
#X obj -12 19 random 650;
#X obj -24 192 *~;
#X connect 1 0 0 0;
#X connect 2 0 1 1;
#X connect 3 0 23 0;
#X connect 4 0 26 0;
#X connect 4 0 27 0;
#X connect 5 0 4 0;
#X connect 6 0 7 0;
#X connect 7 0 9 0;
#X connect 7 0 12 0;
#X connect 8 0 10 0;
#X connect 8 0 10 1;
#X connect 9 0 8 0;
#X connect 10 0 3 1;
#X connect 12 0 11 0;
#X connect 13 0 5 0;
#X connect 13 0 25 0;
#X connect 14 0 41 0;
#X connect 15 0 29 0;
#X connect 16 0 15 0;
#X connect 17 0 18 0;
#X connect 18 0 20 0;
#X connect 19 0 21 0;
#X connect 19 0 21 1;
#X connect 20 0 19 0;
#X connect 21 0 14 1;
#X connect 22 0 16 0;
#X connect 22 0 31 0;
#X connect 23 0 41 0;
#X connect 25 0 3 0;
#X connect 27 1 28 0;
#X connect 28 0 6 0;
#X connect 29 1 30 0;
#X connect 30 0 17 0;
#X connect 31 0 14 0;
#X connect 32 0 33 0;
#X connect 33 0 34 0;
#X connect 34 0 40 0;
#X connect 35 0 36 0;
#X connect 36 0 37 0;
#X connect 37 0 41 1;
#X connect 37 0 38 0;
#X connect 39 0 35 0;
#X connect 40 0 39 0;
#X connect 41 0 1 0;
#X coords 0 -1 1 1 25 150 2 100 100;
#X restore 818 -105 pd crackle3;
#N canvas -8 -8 1920 997 rumble1 0;
#X obj 90 267 outlet~;
#X obj 90 248 *~;
#X obj 105 112 vsl 15 128 0 0.1 0 0 empty empty empty 0 -9 0 10 -86277
-1 -1 5100 1;
#X obj 432 -514 noise~;
#X obj 432 -405 bp~;
#X obj 485 -562 noise~;
#X obj 485 -505 line;
#X obj 432 -386 clip~ -1 1;
#X obj 485 -524 pack~ 0 650;
#X msg 485 -422 20;
#X obj 562 -514 noise~;
#X obj 562 -405 bp~;
#X obj 615 -562 noise~;
#X obj 615 -505 line;
#X obj 562 -386 clip~ -1 1;
#X obj 615 -524 pack~ 0 650;
#X msg 615 -422 20;
#X obj 692 -514 noise~;
#X obj 692 -405 bp~;
#X obj 745 -562 noise~;
#X obj 745 -505 line;
#X obj 692 -386 clip~ -1 1;
#X obj 745 -524 pack~ 0 650;
#X msg 745 -422 20;
#X obj 189 -524 noise~;
#X obj 189 -415 bp~;
#X obj 242 -572 noise~;
#X obj 242 -515 line;
#X obj 189 -396 clip~ -1 1;
#X obj 242 -534 pack~ 0 650;
#X msg 242 -432 20;
#X obj 319 -524 noise~;
#X obj 319 -415 bp~;
#X obj 372 -572 noise~;
#X obj 372 -515 line;
#X obj 319 -396 clip~ -1 1;
#X obj 372 -534 pack~ 0 650;
#X msg 372 -432 20;
#X obj 101 -276 bng 15 250 50 0 empty empty empty 17 7 0 10 -262144
-1 -1;
#X obj 101 -238 loadbang;
#X obj 101 -219 metro 250;
#X obj 101 -162 / 1000;
#X obj 101 -143 pack 0 500;
#X obj 101 -124 line;
#X floatatom 135 -39 5 0 0 0 - - -;
#X obj 101 -181 + 250;
#X obj 101 -200 random 650;
#X obj 240 -463 loadbang;
#X obj 370 -463 loadbang;
#X obj 500 -463 loadbang;
#X obj 630 -463 loadbang;
#X obj 740 -463 loadbang;
#X obj 242 -553 *~ 50;
#X obj 372 -553 *~ 50;
#X obj 485 -543 *~ 50;
#X obj 615 -543 *~ 50;
#X obj 745 -543 *~ 50;
#X obj 692 -348 lop~ 200;
#X obj 692 -367 lop~ 200;
#X obj 562 -367 lop~ 200;
#X obj 562 -348 lop~ 200;
#X obj 431 -348 lop~ 200;
#X obj 432 -367 lop~ 200;
#X obj 319 -377 lop~ 200;
#X obj 319 -358 lop~ 200;
#X obj 189 -358 lop~ 200;
#X obj 189 -377 lop~ 200;
#X obj 189 -338 hip~ 50;
#X obj 319 -338 hip~ 50;
#X obj 432 -328 hip~ 50;
#X obj 562 -328 hip~ 50;
#X obj 692 -328 hip~ 50;
#X obj 187 -234 clip~ -1 1;
#X obj 319 -237 clip~ -1 1;
#X obj 432 -229 clip~ -1 1;
#X obj 562 -229 clip~ -1 1;
#X obj 692 -229 clip~ -1 1;
#X obj 188 -284 *~ 100;
#X obj 318 -284 *~ 100;
#X obj 428 -284 *~ 100;
#X obj 558 -284 *~ 100;
#X obj 688 -284 *~ 100;
#X obj 89 -27 *~;
#X obj 249 -98 lop~ 150;
#X connect 1 0 0 0;
#X connect 2 0 1 1;
#X connect 3 0 4 0;
#X connect 4 0 7 0;
#X connect 5 0 54 0;
#X connect 6 0 4 1;
#X connect 7 0 62 0;
#X connect 8 0 6 0;
#X connect 9 0 4 2;
#X connect 10 0 11 0;
#X connect 11 0 14 0;
#X connect 12 0 55 0;
#X connect 13 0 11 1;
#X connect 14 0 59 0;
#X connect 15 0 13 0;
#X connect 16 0 11 2;
#X connect 17 0 18 0;
#X connect 18 0 21 0;
#X connect 19 0 56 0;
#X connect 20 0 18 1;
#X connect 21 0 58 0;
#X connect 22 0 20 0;
#X connect 23 0 18 2;
#X connect 24 0 25 0;
#X connect 25 0 28 0;
#X connect 26 0 52 0;
#X connect 27 0 25 1;
#X connect 28 0 66 0;
#X connect 29 0 27 0;
#X connect 30 0 25 2;
#X connect 31 0 32 0;
#X connect 32 0 35 0;
#X connect 33 0 53 0;
#X connect 34 0 32 1;
#X connect 35 0 63 0;
#X connect 36 0 34 0;
#X connect 37 0 32 2;
#X connect 38 0 39 0;
#X connect 39 0 40 0;
#X connect 40 0 46 0;
#X connect 41 0 42 0;
#X connect 42 0 43 0;
#X connect 43 0 82 1;
#X connect 43 0 44 0;
#X connect 45 0 41 0;
#X connect 46 0 45 0;
#X connect 47 0 30 0;
#X connect 48 0 37 0;
#X connect 49 0 9 0;
#X connect 50 0 16 0;
#X connect 51 0 23 0;
#X connect 52 0 29 0;
#X connect 53 0 36 0;
#X connect 54 0 8 0;
#X connect 55 0 15 0;
#X connect 56 0 22 0;
#X connect 57 0 71 0;
#X connect 58 0 57 0;
#X connect 59 0 60 0;
#X connect 60 0 70 0;
#X connect 61 0 69 0;
#X connect 62 0 61 0;
#X connect 63 0 64 0;
#X connect 64 0 68 0;
#X connect 65 0 67 0;
#X connect 66 0 65 0;
#X connect 67 0 77 0;
#X connect 68 0 78 0;
#X connect 69 0 79 0;
#X connect 70 0 80 0;
#X connect 71 0 81 0;
#X connect 72 0 83 0;
#X connect 73 0 83 0;
#X connect 74 0 83 0;
#X connect 75 0 83 0;
#X connect 76 0 83 0;
#X connect 77 0 72 0;
#X connect 78 0 73 0;
#X connect 79 0 74 0;
#X connect 80 0 75 0;
#X connect 81 0 76 0;
#X connect 82 0 1 0;
#X connect 83 0 82 0;
#X coords 0 -1 1 1 25 150 2 100 100;
#X restore 398 -108 pd rumble1;
#N canvas 544 0 1226 847 rumble2 0;
#X obj 90 267 outlet~;
#X obj 90 248 *~;
#X obj 105 112 vsl 15 128 0 1 0 0 empty empty empty 0 -9 0 10 -258113
-1 -1 10300 1;
#X obj 409 -455 noise~;
#X obj 409 -346 bp~;
#X obj 462 -503 noise~;
#X obj 462 -446 line;
#X obj 409 -327 clip~ -1 1;
#X obj 462 -465 pack~ 0 650;
#X msg 462 -363 20;
#X obj 539 -455 noise~;
#X obj 539 -346 bp~;
#X obj 592 -503 noise~;
#X obj 592 -446 line;
#X obj 539 -327 clip~ -1 1;
#X obj 592 -465 pack~ 0 650;
#X msg 592 -363 20;
#X obj 669 -455 noise~;
#X obj 669 -346 bp~;
#X obj 722 -503 noise~;
#X obj 722 -446 line;
#X obj 669 -327 clip~ -1 1;
#X obj 722 -465 pack~ 0 650;
#X msg 722 -363 20;
#X obj 166 -465 noise~;
#X obj 166 -356 bp~;
#X obj 219 -513 noise~;
#X obj 219 -456 line;
#X obj 166 -337 clip~ -1 1;
#X obj 219 -475 pack~ 0 650;
#X msg 219 -373 20;
#X obj 296 -465 noise~;
#X obj 296 -356 bp~;
#X obj 349 -513 noise~;
#X obj 349 -456 line;
#X obj 296 -337 clip~ -1 1;
#X obj 349 -475 pack~ 0 650;
#X msg 349 -373 20;
#X obj 78 -217 bng 15 250 50 0 empty empty empty 17 7 0 10 -262144
-1 -1;
#X obj 78 -179 loadbang;
#X obj 78 -160 metro 250;
#X obj 78 -103 / 1000;
#X obj 78 -84 pack 0 500;
#X obj 78 -65 line;
#X floatatom 112 20 5 0 0 0 - - -;
#X obj 669 -289 lop~ 500;
#X obj 669 -308 lop~ 500;
#X obj 539 -308 lop~ 500;
#X obj 539 -289 lop~ 500;
#X obj 409 -289 lop~ 500;
#X obj 409 -308 lop~ 500;
#X obj 296 -318 lop~ 500;
#X obj 296 -299 lop~ 500;
#X obj 166 -299 lop~ 500;
#X obj 166 -318 lop~ 500;
#X obj 669 -269 hip~ 100;
#X obj 539 -269 hip~ 100;
#X obj 409 -269 hip~ 100;
#X obj 296 -279 hip~ 100;
#X obj 166 -279 hip~ 100;
#X obj 78 -122 + 250;
#X obj 669 -240 *~ 0.015;
#X obj 539 -240 *~ 0.015;
#X obj 409 -240 *~ 0.015;
#X obj 296 -248 *~ 0.015;
#X obj 166 -248 *~ 0.015;
#X obj 78 -141 random 650;
#X obj 217 -404 loadbang;
#X obj 347 -404 loadbang;
#X obj 477 -404 loadbang;
#X obj 607 -404 loadbang;
#X obj 717 -404 loadbang;
#X obj 62 23 *~;
#X obj 219 -494 *~ 150;
#X obj 349 -494 *~ 150;
#X obj 462 -484 *~ 150;
#X obj 592 -484 *~ 150;
#X obj 722 -484 *~ 150;
#X connect 1 0 0 0;
#X connect 2 0 1 1;
#X connect 3 0 4 0;
#X connect 4 0 7 0;
#X connect 5 0 75 0;
#X connect 6 0 4 1;
#X connect 7 0 50 0;
#X connect 8 0 6 0;
#X connect 9 0 4 2;
#X connect 10 0 11 0;
#X connect 11 0 14 0;
#X connect 12 0 76 0;
#X connect 13 0 11 1;
#X connect 14 0 47 0;
#X connect 15 0 13 0;
#X connect 16 0 11 2;
#X connect 17 0 18 0;
#X connect 18 0 21 0;
#X connect 19 0 77 0;
#X connect 20 0 18 1;
#X connect 21 0 46 0;
#X connect 22 0 20 0;
#X connect 23 0 18 2;
#X connect 24 0 25 0;
#X connect 25 0 28 0;
#X connect 26 0 73 0;
#X connect 27 0 25 1;
#X connect 28 0 54 0;
#X connect 29 0 27 0;
#X connect 30 0 25 2;
#X connect 31 0 32 0;
#X connect 32 0 35 0;
#X connect 33 0 74 0;
#X connect 34 0 32 1;
#X connect 35 0 51 0;
#X connect 36 0 34 0;
#X connect 37 0 32 2;
#X connect 38 0 39 0;
#X connect 39 0 40 0;
#X connect 40 0 66 0;
#X connect 41 0 42 0;
#X connect 42 0 43 0;
#X connect 43 0 44 0;
#X connect 43 0 72 1;
#X connect 45 0 55 0;
#X connect 46 0 45 0;
#X connect 47 0 48 0;
#X connect 48 0 56 0;
#X connect 49 0 57 0;
#X connect 50 0 49 0;
#X connect 51 0 52 0;
#X connect 52 0 58 0;
#X connect 53 0 59 0;
#X connect 54 0 53 0;
#X connect 55 0 61 0;
#X connect 56 0 62 0;
#X connect 57 0 63 0;
#X connect 58 0 64 0;
#X connect 59 0 65 0;
#X connect 60 0 41 0;
#X connect 61 0 72 0;
#X connect 62 0 72 0;
#X connect 63 0 72 0;
#X connect 64 0 72 0;
#X connect 65 0 72 0;
#X connect 66 0 60 0;
#X connect 67 0 30 0;
#X connect 68 0 37 0;
#X connect 69 0 9 0;
#X connect 70 0 16 0;
#X connect 71 0 23 0;
#X connect 72 0 1 0;
#X connect 73 0 29 0;
#X connect 74 0 36 0;
#X connect 75 0 8 0;
#X connect 76 0 15 0;
#X connect 77 0 22 0;
#X coords 0 -1 1 1 25 150 2 100 100;
#X restore 468 -108 pd rumble2;
#N canvas 482 1 1289 829 rumble3 0;
#X obj 90 267 outlet~;
#X obj 90 248 *~;
#X obj 105 112 vsl 15 128 0 1 0 0 empty empty empty 0 -9 0 10 -260097
-1 -1 7100 1;
#X obj 411 -474 noise~;
#X obj 411 -365 bp~;
#X obj 464 -522 noise~;
#X obj 464 -465 line;
#X obj 411 -346 clip~ -1 1;
#X obj 464 -484 pack~ 0 650;
#X msg 464 -382 20;
#X obj 411 -288 hip~ 100;
#X obj 22 -471 noise~;
#X obj 22 -362 bp~;
#X obj 75 -519 noise~;
#X obj 75 -462 line;
#X obj 22 -343 clip~ -1 1;
#X msg 75 -379 20;
#X obj 152 -471 noise~;
#X obj 152 -362 bp~;
#X obj 205 -519 noise~;
#X obj 205 -462 line;
#X obj 152 -343 clip~ -1 1;
#X msg 205 -379 20;
#X obj 282 -471 noise~;
#X obj 282 -362 bp~;
#X obj 335 -519 noise~;
#X obj 335 -462 line;
#X obj 282 -343 clip~ -1 1;
#X msg 335 -379 20;
#X obj -351 -481 noise~;
#X obj -351 -372 bp~;
#X obj -298 -529 noise~;
#X obj -298 -472 line;
#X obj -351 -353 clip~ -1 1;
#X msg -298 -389 20;
#X obj -221 -481 noise~;
#X obj -221 -372 bp~;
#X obj -168 -529 noise~;
#X obj -168 -472 line;
#X obj -221 -353 clip~ -1 1;
#X msg -168 -389 20;
#X obj -91 -481 noise~;
#X obj -91 -372 bp~;
#X obj -38 -529 noise~;
#X obj -38 -472 line;
#X obj -91 -353 clip~ -1 1;
#X msg -38 -389 20;
#X obj 282 -285 hip~ 900;
#X obj 152 -285 hip~ 900;
#X obj 22 -285 hip~ 900;
#X obj -91 -295 hip~ 900;
#X obj -221 -295 hip~ 900;
#X obj -351 -295 hip~ 900;
#X obj 102 -168 bng 15 250 50 0 empty empty empty 17 7 0 10 -262144
-1 -1;
#X obj 102 -130 loadbang;
#X obj 102 -111 metro 250;
#X obj 102 -54 / 1000;
#X obj 102 -35 pack 0 500;
#X obj 102 -16 line;
#X floatatom 134 11 5 0 0 0 - - -;
#X obj 282 -305 lop~ 1000;
#X obj 411 -308 lop~ 1000;
#X obj 411 -327 lop~ 1000;
#X obj 282 -324 lop~ 1000;
#X obj 152 -324 lop~ 1000;
#X obj 152 -305 lop~ 1000;
#X obj 22 -305 lop~ 1000;
#X obj 22 -324 lop~ 1000;
#X obj -91 -334 lop~ 1000;
#X obj -91 -315 lop~ 1000;
#X obj -221 -334 lop~ 1000;
#X obj -221 -315 lop~ 1000;
#X obj -351 -334 lop~ 1000;
#X obj -351 -315 lop~ 1000;
#X obj -351 -264 *~ 0.01;
#X obj -221 -264 *~ 0.01;
#X obj -91 -264 *~ 0.01;
#X obj 22 -256 *~ 0.01;
#X obj 152 -256 *~ 0.01;
#X obj 282 -256 *~ 0.01;
#X obj 411 -257 *~ 0.01;
#X obj 102 -92 random 350;
#X obj -298 -413 loadbang;
#X obj -168 -413 loadbang;
#X obj -38 -413 loadbang;
#X obj 72 -413 loadbang;
#X obj 202 -413 loadbang;
#X obj 332 -413 loadbang;
#X obj 462 -413 loadbang;
#X obj 61 22 *~;
#X obj 205 -481 pack~ 0 50;
#X obj 335 -481 pack~ 0 50;
#X obj 75 -481 pack~ 0 50;
#X obj -38 -491 pack~ 0 50;
#X obj -168 -491 pack~ 0 50;
#X obj -298 -491 pack~ 0 50;
#X obj 102 -73 + 150;
#X obj 464 -503 *~ 150;
#X obj 335 -500 *~ 350;
#X obj 205 -500 *~ 350;
#X obj 75 -500 *~ 350;
#X obj -38 -510 *~ 350;
#X obj -168 -510 *~ 350;
#X obj -298 -510 *~ 350;
#X connect 1 0 0 0;
#X connect 2 0 1 1;
#X connect 3 0 4 0;
#X connect 4 0 7 0;
#X connect 5 0 97 0;
#X connect 6 0 4 1;
#X connect 7 0 62 0;
#X connect 8 0 6 0;
#X connect 9 0 4 2;
#X connect 10 0 80 0;
#X connect 11 0 12 0;
#X connect 12 0 15 0;
#X connect 13 0 100 0;
#X connect 14 0 12 1;
#X connect 15 0 67 0;
#X connect 16 0 12 2;
#X connect 17 0 18 0;
#X connect 18 0 21 0;
#X connect 19 0 99 0;
#X connect 20 0 18 1;
#X connect 21 0 64 0;
#X connect 22 0 18 2;
#X connect 23 0 24 0;
#X connect 24 0 27 0;
#X connect 25 0 98 0;
#X connect 26 0 24 1;
#X connect 27 0 63 0;
#X connect 28 0 24 2;
#X connect 29 0 30 0;
#X connect 30 0 33 0;
#X connect 31 0 103 0;
#X connect 32 0 30 1;
#X connect 33 0 72 0;
#X connect 34 0 30 2;
#X connect 35 0 36 0;
#X connect 36 0 39 0;
#X connect 37 0 102 0;
#X connect 38 0 36 1;
#X connect 39 0 70 0;
#X connect 40 0 36 2;
#X connect 41 0 42 0;
#X connect 42 0 45 0;
#X connect 43 0 101 0;
#X connect 44 0 42 1;
#X connect 45 0 68 0;
#X connect 46 0 42 2;
#X connect 47 0 79 0;
#X connect 48 0 78 0;
#X connect 49 0 77 0;
#X connect 50 0 76 0;
#X connect 51 0 75 0;
#X connect 52 0 74 0;
#X connect 53 0 54 0;
#X connect 54 0 55 0;
#X connect 55 0 81 0;
#X connect 56 0 57 0;
#X connect 57 0 58 0;
#X connect 58 0 59 0;
#X connect 58 0 89 1;
#X connect 60 0 47 0;
#X connect 61 0 10 0;
#X connect 62 0 61 0;
#X connect 63 0 60 0;
#X connect 64 0 65 0;
#X connect 65 0 48 0;
#X connect 66 0 49 0;
#X connect 67 0 66 0;
#X connect 68 0 69 0;
#X connect 69 0 50 0;
#X connect 70 0 71 0;
#X connect 71 0 51 0;
#X connect 72 0 73 0;
#X connect 73 0 52 0;
#X connect 74 0 89 0;
#X connect 75 0 89 0;
#X connect 76 0 89 0;
#X connect 77 0 89 0;
#X connect 78 0 89 0;
#X connect 79 0 89 0;
#X connect 80 0 89 0;
#X connect 81 0 96 0;
#X connect 82 0 34 0;
#X connect 83 0 40 0;
#X connect 84 0 46 0;
#X connect 85 0 16 0;
#X connect 86 0 22 0;
#X connect 87 0 28 0;
#X connect 88 0 9 0;
#X connect 89 0 1 0;
#X connect 90 0 20 0;
#X connect 91 0 26 0;
#X connect 92 0 14 0;
#X connect 93 0 44 0;
#X connect 94 0 38 0;
#X connect 95 0 32 0;
#X connect 96 0 56 0;
#X connect 97 0 8 0;
#X connect 98 0 91 0;
#X connect 99 0 90 0;
#X connect 100 0 92 0;
#X connect 101 0 93 0;
#X connect 102 0 94 0;
#X connect 103 0 95 0;
#X coords 0 -1 1 1 25 150 2 100 100;
#X restore 538 -108 pd rumble3;
#X obj 468 75 throw~ out1;
#N canvas -8 -8 1920 997 delay 0;
#X obj -78 244 *~;
#X obj -39 290 *~ -1;
#X obj -79 399 delwrite~ crackle1 2000;
#X obj -39 271 bp~ 400 2;
#X obj -79 336 hip~ 1000;
#X obj -79 356 hip~ 1000;
#X obj -79 376 hip~ 1000;
#X obj -78 224 catch~ out2;
#X obj 105 110 vsl 15 128 0 1 0 0 empty empty empty 0 -9 0 10 -4032
-1 -1 12700 1;
#X obj 132 347 delread~ crackle1 2000;
#X obj 112 327 delread~ crackle1 1225;
#X obj 131 473 throw~ out1;
#X obj 126 413 lop~ 700;
#X connect 0 0 3 0;
#X connect 0 0 4 0;
#X connect 1 0 4 0;
#X connect 3 0 1 0;
#X connect 4 0 5 0;
#X connect 5 0 6 0;
#X connect 6 0 2 0;
#X connect 7 0 0 0;
#X connect 8 0 0 1;
#X connect 9 0 12 0;
#X connect 10 0 12 0;
#X connect 12 0 11 0;
#X coords 0 -1 1 1 25 150 2 100 100;
#X restore 905 -104 pd delay;
#X obj 325 285 catch~ out1;
#X obj 819 75 throw~ out3;
#X obj 384 306 catch~ out3;
#X obj 663 75 throw~ out2;
#X obj 349 340 clip~ -1 1;
#X obj 412 357 bp~ 800 1;
#X obj 412 377 *~ -0.15;
#X connect 1 0 10 0;
#X connect 1 0 12 0;
#X connect 2 0 10 0;
#X connect 2 0 12 0;
#X connect 3 0 10 0;
#X connect 3 0 12 0;
#X connect 4 0 7 0;
#X connect 5 0 7 0;
#X connect 6 0 7 0;
#X connect 9 0 13 0;
#X connect 11 0 13 0;
#X connect 13 0 0 0;
#X connect 13 0 0 1;
#X connect 13 0 14 0;
#X connect 14 0 15 0;
#X connect 15 0 0 1;
#X connect 15 0 0 0;
