#N canvas 0 0 1920 997 10;
#X obj 1187 641 output~;
#X obj 695 -99 noise~;
#X obj 769 -98 noise~;
#X obj 755 46 /~ 10;
#X obj 695 -40 lop~ 1500;
#X obj 695 -80 lop~ 1500;
#X obj 769 -19 lop~ 100;
#X obj 769 -59 lop~ 100;
#X obj 769 -79 lop~ 100;
#X obj 769 -39 lop~ 100;
#X obj 695 -20 lop~ 100;
#X obj 695 -60 lop~ 1500;
#X obj 755 65 *~ 0.0005;
#X obj 755 27 /~;
#X obj 755 122 clip~ -0.5 0.5;
#X obj 895 -121 noise~;
#X obj 938 -121 noise~;
#X obj 926 57 /~ 10;
#X obj 865 -40 lop~ 1500;
#X obj 865 -80 lop~ 1500;
#X obj 940 -19 lop~ 100;
#X obj 940 -59 lop~ 100;
#X obj 940 -79 lop~ 100;
#X obj 940 -39 lop~ 100;
#X obj 865 -20 lop~ 100;
#X obj 865 -60 lop~ 1500;
#X obj 904 81 *~ 0.0005;
#X obj 917 29 /~;
#X obj 898 113 lop~ 1000;
#X obj 898 195 clip~ -0.4 0.4;
#X obj 898 133 lop~ 1000;
#X obj 898 153 lop~ 1000;
#X obj 515 -99 noise~;
#X obj 590 -98 noise~;
#X obj 575 46 /~ 10;
#X obj 515 -40 lop~ 1500;
#X obj 515 -80 lop~ 1500;
#X obj 590 -19 lop~ 100;
#X obj 590 -59 lop~ 100;
#X obj 590 -79 lop~ 100;
#X obj 590 -39 lop~ 100;
#X obj 515 -20 lop~ 100;
#X obj 515 -60 lop~ 1500;
#X obj 575 65 *~ 0.0005;
#X obj 575 27 /~;
#X obj 575 122 clip~ -0.5 0.5;
#X obj 575 84 hip~ 2000;
#X obj 1151 299 noise~;
#X obj 1151 348 bp~;
#X obj 1204 251 noise~;
#X obj 1204 308 line;
#X obj 1204 270 *~ 250;
#X obj 1151 367 clip~ -1 1;
#X obj 1204 289 pack~ 0 650;
#X msg 1204 331 20;
#X obj 462 144 catch~ out1;
#X obj 1281 299 noise~;
#X obj 1281 348 bp~;
#X obj 1334 251 noise~;
#X obj 1334 308 line;
#X obj 1334 270 *~ 250;
#X obj 1281 367 clip~ -1 1;
#X obj 1334 289 pack~ 0 650;
#X msg 1334 331 20;
#X obj 1411 299 noise~;
#X obj 1411 348 bp~;
#X obj 1464 251 noise~;
#X obj 1464 308 line;
#X obj 1464 270 *~ 250;
#X obj 1411 367 clip~ -1 1;
#X obj 1464 289 pack~ 0 650;
#X msg 1464 331 20;
#X obj 778 289 noise~;
#X obj 778 338 bp~;
#X obj 831 241 noise~;
#X obj 831 298 line;
#X obj 831 260 *~ 250;
#X obj 778 357 clip~ -1 1;
#X obj 831 279 pack~ 0 650;
#X msg 831 321 20;
#X obj 908 289 noise~;
#X obj 908 338 bp~;
#X obj 961 241 noise~;
#X obj 961 298 line;
#X obj 961 260 *~ 250;
#X obj 908 357 clip~ -1 1;
#X obj 961 279 pack~ 0 650;
#X msg 961 321 20;
#X obj 1038 289 noise~;
#X obj 1038 338 bp~;
#X obj 1091 241 noise~;
#X obj 1091 298 line;
#X obj 1091 260 *~ 250;
#X obj 1038 357 clip~ -1 1;
#X obj 1091 279 pack~ 0 650;
#X msg 1091 321 20;
#X obj 462 165 *~ 0.015;
#X obj 755 84 bp~ 700 10;
#X obj 1037 -122 noise~;
#X obj 1080 -122 noise~;
#X obj 1068 56 /~ 10;
#X obj 1007 -41 lop~ 1500;
#X obj 1007 -81 lop~ 1500;
#X obj 1082 -20 lop~ 100;
#X obj 1082 -60 lop~ 100;
#X obj 1082 -80 lop~ 100;
#X obj 1082 -40 lop~ 100;
#X obj 1007 -21 lop~ 100;
#X obj 1007 -61 lop~ 1500;
#X obj 1046 80 *~ 0.0005;
#X obj 1059 28 /~;
#X obj 1043 121 clip~ -0.1 0.1;
#X obj 462 184 hip~ 100;
#X obj 462 204 hip~ 100;
#X obj 822 535 bng 15 250 50 0 empty empty empty 17 7 0 10 -262144
-1 -1;
#X obj 575 103 *~ 0.161;
#X obj 898 176 *~ 1;
#X obj 1043 140 *~ 0.096;
#X obj 575 141 throw~ crackle;
#X obj 755 141 throw~ crackle;
#X obj 898 214 throw~ crackle;
#X obj 1043 159 throw~ crackle;
#X obj 1362 569 *~;
#X obj 1463 550 knob 32 32 0 1 0 0 empty empty empty 0 -8 0 8 -262144
-1 -1 1000 1;
#X obj 619 702 catch~ out1;
#X obj 822 573 loadbang;
#X obj 822 592 metro 250;
#X obj 804 717 *~;
#X obj 803 746 throw~ out2;
#X obj 822 649 / 1000;
#X obj 822 668 pack 0 500;
#X obj 822 687 line;
#X floatatom 854 714 5 0 0 0 - - -;
#X obj 1115 581 catch~ out2;
#X obj 1411 405 lop~ 500;
#X obj 1411 386 lop~ 500;
#X obj 1281 386 lop~ 500;
#X obj 1281 405 lop~ 500;
#X obj 1151 405 lop~ 500;
#X obj 1151 386 lop~ 500;
#X obj 1038 376 lop~ 500;
#X obj 1038 395 lop~ 500;
#X obj 908 395 lop~ 500;
#X obj 908 376 lop~ 500;
#X obj 1361 505 catch~ crackle;
#X obj 755 103 *~ 0.154;
#X obj 1411 425 hip~ 100;
#X obj 1281 425 hip~ 100;
#X obj 1151 425 hip~ 100;
#X obj 1038 415 hip~ 100;
#X obj 908 415 hip~ 100;
#X obj 778 415 hip~ 100;
#X obj 389 292 noise~;
#X obj 389 341 bp~;
#X obj 442 244 noise~;
#X obj 442 301 line;
#X obj 442 263 *~ 250;
#X obj 389 360 clip~ -1 1;
#X obj 442 282 pack~ 0 650;
#X msg 442 324 20;
#X obj 519 292 noise~;
#X obj 519 341 bp~;
#X obj 572 244 noise~;
#X obj 572 301 line;
#X obj 572 263 *~ 250;
#X obj 519 360 clip~ -1 1;
#X obj 572 282 pack~ 0 650;
#X msg 572 324 20;
#X obj 649 292 noise~;
#X obj 649 341 bp~;
#X obj 702 244 noise~;
#X obj 702 301 line;
#X obj 702 263 *~ 250;
#X obj 649 360 clip~ -1 1;
#X obj 702 282 pack~ 0 650;
#X msg 702 324 20;
#X obj 16 282 noise~;
#X obj 16 331 bp~;
#X obj 69 234 noise~;
#X obj 69 291 line;
#X obj 69 253 *~ 250;
#X obj 16 350 clip~ -1 1;
#X obj 69 272 pack~ 0 650;
#X msg 69 314 20;
#X obj 146 282 noise~;
#X obj 146 331 bp~;
#X obj 199 234 noise~;
#X obj 199 291 line;
#X obj 199 253 *~ 250;
#X obj 146 350 clip~ -1 1;
#X obj 199 272 pack~ 0 650;
#X msg 199 314 20;
#X obj 276 282 noise~;
#X obj 276 331 bp~;
#X obj 329 234 noise~;
#X obj 329 291 line;
#X obj 329 253 *~ 250;
#X obj 276 350 clip~ -1 1;
#X obj 329 272 pack~ 0 650;
#X msg 329 314 20;
#X obj 649 418 hip~ 900;
#X obj 519 418 hip~ 900;
#X obj 389 418 hip~ 900;
#X obj 276 408 hip~ 900;
#X obj 146 408 hip~ 900;
#X obj 16 408 hip~ 900;
#X obj 1226 -122 noise~;
#X obj 1269 -122 noise~;
#X obj 1257 56 /~ 10;
#X obj 1196 -41 lop~ 1500;
#X obj 1196 -81 lop~ 1500;
#X obj 1271 -20 lop~ 100;
#X obj 1271 -60 lop~ 100;
#X obj 1271 -80 lop~ 100;
#X obj 1271 -40 lop~ 100;
#X obj 1196 -21 lop~ 100;
#X obj 1196 -61 lop~ 1500;
#X obj 1248 28 /~;
#X obj 1229 213 throw~ crackle;
#X obj 1229 112 lop~ 200;
#X obj 1229 132 lop~ 200;
#X obj 1229 152 lop~ 200;
#X obj 1235 80 *~ 0.001;
#X obj 469 535 bng 15 250 50 0 empty empty empty 17 7 0 10 -262144
-1 -1;
#X obj 469 573 loadbang;
#X obj 469 592 metro 250;
#X obj 451 717 *~;
#X obj 450 746 throw~ out2;
#X obj 469 630 + 150;
#X obj 469 649 / 1000;
#X obj 469 668 pack 0 500;
#X obj 469 687 line;
#X floatatom 501 714 5 0 0 0 - - -;
#X obj 822 630 + 250;
#X obj 649 398 lop~ 1000;
#X obj 778 395 lop~ 1000;
#X obj 778 376 lop~ 1000;
#X obj 649 379 lop~ 1000;
#X obj 519 379 lop~ 1000;
#X obj 519 398 lop~ 1000;
#X obj 389 398 lop~ 1000;
#X obj 389 379 lop~ 1000;
#X obj 276 369 lop~ 1000;
#X obj 276 388 lop~ 1000;
#X obj 146 369 lop~ 1000;
#X obj 146 388 lop~ 1000;
#X obj 16 369 lop~ 1000;
#X obj 16 388 lop~ 1000;
#X obj 1411 454 *~ 0.015;
#X obj 1281 454 *~ 0.015;
#X obj 1151 454 *~ 0.015;
#X obj 1038 446 *~ 0.015;
#X obj 908 446 *~ 0.015;
#X obj 16 439 *~ 0.01;
#X obj 146 439 *~ 0.01;
#X obj 276 439 *~ 0.01;
#X obj 389 447 *~ 0.01;
#X obj 519 447 *~ 0.01;
#X obj 649 447 *~ 0.01;
#X obj 778 446 *~ 0.01;
#X obj 1229 175 *~ 0.4;
#X obj 1364 532 lop~ 1000;
#X obj 1381 637 delwrite~ crackle1 1000;
#X obj 1225 562 delread~ crackle1 888;
#X obj 1205 542 delread~ crackle1 525;
#X obj 822 611 random 650;
#X obj 469 611 random 350;
#X obj 1229 194 clip~ -0.8 0.8;
#X connect 1 0 5 0;
#X connect 2 0 8 0;
#X connect 3 0 12 0;
#X connect 4 0 10 0;
#X connect 5 0 11 0;
#X connect 6 0 13 1;
#X connect 7 0 9 0;
#X connect 8 0 7 0;
#X connect 9 0 6 0;
#X connect 10 0 13 0;
#X connect 11 0 4 0;
#X connect 12 0 97 0;
#X connect 13 0 3 0;
#X connect 14 0 119 0;
#X connect 15 0 19 0;
#X connect 16 0 22 0;
#X connect 17 0 26 0;
#X connect 18 0 24 0;
#X connect 19 0 25 0;
#X connect 20 0 27 1;
#X connect 21 0 23 0;
#X connect 22 0 21 0;
#X connect 23 0 20 0;
#X connect 24 0 27 0;
#X connect 25 0 18 0;
#X connect 26 0 28 0;
#X connect 27 0 17 0;
#X connect 28 0 30 0;
#X connect 29 0 120 0;
#X connect 30 0 31 0;
#X connect 31 0 116 0;
#X connect 32 0 36 0;
#X connect 33 0 39 0;
#X connect 34 0 43 0;
#X connect 35 0 41 0;
#X connect 36 0 42 0;
#X connect 37 0 44 1;
#X connect 38 0 40 0;
#X connect 39 0 38 0;
#X connect 40 0 37 0;
#X connect 41 0 44 0;
#X connect 42 0 35 0;
#X connect 43 0 46 0;
#X connect 44 0 34 0;
#X connect 45 0 118 0;
#X connect 46 0 115 0;
#X connect 47 0 48 0;
#X connect 48 0 52 0;
#X connect 49 0 51 0;
#X connect 50 0 48 1;
#X connect 51 0 53 0;
#X connect 52 0 139 0;
#X connect 53 0 50 0;
#X connect 54 0 48 2;
#X connect 55 0 96 0;
#X connect 56 0 57 0;
#X connect 57 0 61 0;
#X connect 58 0 60 0;
#X connect 59 0 57 1;
#X connect 60 0 62 0;
#X connect 61 0 136 0;
#X connect 62 0 59 0;
#X connect 63 0 57 2;
#X connect 64 0 65 0;
#X connect 65 0 69 0;
#X connect 66 0 68 0;
#X connect 67 0 65 1;
#X connect 68 0 70 0;
#X connect 69 0 135 0;
#X connect 70 0 67 0;
#X connect 71 0 65 2;
#X connect 72 0 73 0;
#X connect 73 0 77 0;
#X connect 74 0 76 0;
#X connect 75 0 73 1;
#X connect 76 0 78 0;
#X connect 77 0 236 0;
#X connect 78 0 75 0;
#X connect 79 0 73 2;
#X connect 80 0 81 0;
#X connect 81 0 85 0;
#X connect 82 0 84 0;
#X connect 83 0 81 1;
#X connect 84 0 86 0;
#X connect 85 0 143 0;
#X connect 86 0 83 0;
#X connect 87 0 81 2;
#X connect 88 0 89 0;
#X connect 89 0 93 0;
#X connect 90 0 92 0;
#X connect 91 0 89 1;
#X connect 92 0 94 0;
#X connect 93 0 140 0;
#X connect 94 0 91 0;
#X connect 95 0 89 2;
#X connect 96 0 112 0;
#X connect 97 0 145 0;
#X connect 98 0 102 0;
#X connect 99 0 105 0;
#X connect 100 0 109 0;
#X connect 101 0 107 0;
#X connect 102 0 108 0;
#X connect 103 0 110 1;
#X connect 104 0 106 0;
#X connect 105 0 104 0;
#X connect 106 0 103 0;
#X connect 107 0 110 0;
#X connect 108 0 101 0;
#X connect 109 0 111 0;
#X connect 110 0 100 0;
#X connect 111 0 117 0;
#X connect 112 0 113 0;
#X connect 114 0 125 0;
#X connect 115 0 45 0;
#X connect 116 0 29 0;
#X connect 117 0 121 0;
#X connect 122 0 0 1;
#X connect 122 0 0 0;
#X connect 122 0 262 0;
#X connect 123 0 122 1;
#X connect 124 0 127 0;
#X connect 125 0 126 0;
#X connect 126 0 265 0;
#X connect 127 0 128 0;
#X connect 129 0 130 0;
#X connect 130 0 131 0;
#X connect 131 0 127 1;
#X connect 131 0 132 0;
#X connect 133 0 0 0;
#X connect 133 0 0 1;
#X connect 134 0 146 0;
#X connect 135 0 134 0;
#X connect 136 0 137 0;
#X connect 137 0 147 0;
#X connect 138 0 148 0;
#X connect 139 0 138 0;
#X connect 140 0 141 0;
#X connect 141 0 149 0;
#X connect 142 0 150 0;
#X connect 143 0 142 0;
#X connect 144 0 261 0;
#X connect 145 0 14 0;
#X connect 146 0 248 0;
#X connect 147 0 249 0;
#X connect 148 0 250 0;
#X connect 149 0 251 0;
#X connect 150 0 252 0;
#X connect 151 0 259 0;
#X connect 152 0 153 0;
#X connect 153 0 157 0;
#X connect 154 0 156 0;
#X connect 155 0 153 1;
#X connect 156 0 158 0;
#X connect 157 0 241 0;
#X connect 158 0 155 0;
#X connect 159 0 153 2;
#X connect 160 0 161 0;
#X connect 161 0 165 0;
#X connect 162 0 164 0;
#X connect 163 0 161 1;
#X connect 164 0 166 0;
#X connect 165 0 238 0;
#X connect 166 0 163 0;
#X connect 167 0 161 2;
#X connect 168 0 169 0;
#X connect 169 0 173 0;
#X connect 170 0 172 0;
#X connect 171 0 169 1;
#X connect 172 0 174 0;
#X connect 173 0 237 0;
#X connect 174 0 171 0;
#X connect 175 0 169 2;
#X connect 176 0 177 0;
#X connect 177 0 181 0;
#X connect 178 0 180 0;
#X connect 179 0 177 1;
#X connect 180 0 182 0;
#X connect 181 0 246 0;
#X connect 182 0 179 0;
#X connect 183 0 177 2;
#X connect 184 0 185 0;
#X connect 185 0 189 0;
#X connect 186 0 188 0;
#X connect 187 0 185 1;
#X connect 188 0 190 0;
#X connect 189 0 244 0;
#X connect 190 0 187 0;
#X connect 191 0 185 2;
#X connect 192 0 193 0;
#X connect 193 0 197 0;
#X connect 194 0 196 0;
#X connect 195 0 193 1;
#X connect 196 0 198 0;
#X connect 197 0 242 0;
#X connect 198 0 195 0;
#X connect 199 0 193 2;
#X connect 200 0 258 0;
#X connect 201 0 257 0;
#X connect 202 0 256 0;
#X connect 203 0 255 0;
#X connect 204 0 254 0;
#X connect 205 0 253 0;
#X connect 206 0 210 0;
#X connect 207 0 213 0;
#X connect 208 0 222 0;
#X connect 209 0 215 0;
#X connect 210 0 216 0;
#X connect 211 0 217 1;
#X connect 212 0 214 0;
#X connect 213 0 212 0;
#X connect 214 0 211 0;
#X connect 215 0 217 0;
#X connect 216 0 209 0;
#X connect 217 0 208 0;
#X connect 219 0 220 0;
#X connect 220 0 221 0;
#X connect 221 0 260 0;
#X connect 222 0 219 0;
#X connect 223 0 224 0;
#X connect 224 0 225 0;
#X connect 225 0 266 0;
#X connect 226 0 227 0;
#X connect 228 0 229 0;
#X connect 229 0 230 0;
#X connect 230 0 231 0;
#X connect 231 0 226 1;
#X connect 231 0 232 0;
#X connect 233 0 129 0;
#X connect 234 0 200 0;
#X connect 235 0 151 0;
#X connect 236 0 235 0;
#X connect 237 0 234 0;
#X connect 238 0 239 0;
#X connect 239 0 201 0;
#X connect 240 0 202 0;
#X connect 241 0 240 0;
#X connect 242 0 243 0;
#X connect 243 0 203 0;
#X connect 244 0 245 0;
#X connect 245 0 204 0;
#X connect 246 0 247 0;
#X connect 247 0 205 0;
#X connect 248 0 127 0;
#X connect 249 0 127 0;
#X connect 250 0 127 0;
#X connect 251 0 127 0;
#X connect 252 0 127 0;
#X connect 253 0 226 0;
#X connect 254 0 226 0;
#X connect 255 0 226 0;
#X connect 256 0 226 0;
#X connect 257 0 226 0;
#X connect 258 0 226 0;
#X connect 259 0 226 0;
#X connect 260 0 267 0;
#X connect 261 0 122 0;
#X connect 263 0 0 1;
#X connect 263 0 0 0;
#X connect 264 0 0 0;
#X connect 264 0 0 1;
#X connect 265 0 233 0;
#X connect 266 0 228 0;
#X connect 267 0 218 0;
