#N canvas 0 0 450 300 10;
#X obj 152 -2027 noise~;
#X obj 195 -2027 noise~;
#X obj 162 -1738 *~;
#X obj 183 -1849 /~ 10;
#X obj 239 -1875 knob 32 32 0 1 0 0 empty empty empty 0 -8 0 8 -262144
-1 -1 0 1;
#X obj 122 -1946 lop~ 1500;
#X obj 122 -1986 lop~ 1500;
#X obj 197 -1925 lop~ 100;
#X obj 197 -1965 lop~ 100;
#X obj 197 -1985 lop~ 100;
#X obj 197 -1945 lop~ 100;
#X obj 122 -1926 lop~ 100;
#X obj 122 -1966 lop~ 1500;
#X obj 155 -1793 bp~ 1000 10;
#X obj 161 -1825 *~ 0.0005;
#X obj 174 -1877 /~;
#X connect 0 0 6 0;
#X connect 1 0 9 0;
#X connect 3 0 14 0;
#X connect 4 0 2 1;
#X connect 5 0 11 0;
#X connect 6 0 12 0;
#X connect 7 0 15 1;
#X connect 8 0 10 0;
#X connect 9 0 8 0;
#X connect 10 0 7 0;
#X connect 11 0 15 0;
#X connect 12 0 5 0;
#X connect 13 0 2 0;
#X connect 14 0 13 0;
#X connect 15 0 3 0;
