#N canvas 0 50 764 404 10;
#X obj 274 74 noise~;
#X obj 344 74 noise~;
#X obj 300 212 /~ 10;
#X obj 274 131 lop~ 1500;
#X obj 274 93 lop~ 1500;
#X obj 344 150 lop~ 100;
#X obj 344 112 lop~ 100;
#X obj 344 93 lop~ 100;
#X obj 344 131 lop~ 100;
#X obj 274 150 lop~ 100;
#X obj 274 112 lop~ 1500;
#X obj 300 250 bp~ 1000 10;
#X obj 300 231 *~ 0.0005;
#X obj 300 193 /~;
#X obj 300 298 dac~;
#X obj 300 269 *~ 1;
#X connect 0 0 4 0;
#X connect 1 0 7 0;
#X connect 2 0 12 0;
#X connect 3 0 9 0;
#X connect 4 0 10 0;
#X connect 5 0 13 1;
#X connect 6 0 8 0;
#X connect 7 0 6 0;
#X connect 8 0 5 0;
#X connect 9 0 13 0;
#X connect 10 0 3 0;
#X connect 11 0 15 0;
#X connect 12 0 11 0;
#X connect 13 0 2 0;
#X connect 15 0 14 0;
#X connect 15 0 14 1;
