#N canvas -1928 -8 1920 997 10;
#N canvas 0 0 1198 973 thunder 0;
#X obj 14 173 bp~;
#X obj 346 45 / 10000;
#X floatatom 346 83 5 0 0 0 - - -;
#X obj 346 26 random 2000;
#X obj 346 64 + 0.8;
#X obj 21 80 line;
#X obj 21 137 line;
#X obj 81 -13 delay 150;
#X msg 21 6 1000 100;
#X obj 15 343 *~;
#X obj 21 99 expr $f1 * $f2;
#X obj 15 362 lop~ 2000;
#X obj 146 -13 delay 600;
#X obj 110 287 line~;
#X msg 110 224 1 20;
#X obj 51 137 loadbang;
#X msg 51 156 0.419;
#X obj 973 -353 bng 50 250 50 0 empty empty empty 17 7 0 10 -258113
-1 -1;
#X obj 973 -289 tgl 15 0 empty empty empty 17 7 0 10 -262144 -1 -1
0 1;
#X obj 973 -238 bng 15 250 50 0 empty empty empty 17 7 0 10 -262144
-1 -1;
#X obj 1029 -238 bng 15 250 50 0 empty empty empty 17 7 0 10 -262144
-1 -1;
#X obj 973 -272 moses 1;
#X obj 1029 -221 tgl 15 0 empty empty empty 17 7 0 10 -262144 -1 -1
0 1;
#X obj 1029 -185 bng 15 250 50 0 empty empty empty 17 7 0 10 -262144
-1 -1;
#X obj 1068 -185 bng 15 250 50 0 empty empty empty 17 7 0 10 -262144
-1 -1;
#X obj 1029 -204 moses 1;
#X obj 973 -221 tgl 15 0 empty empty empty 17 7 0 10 -262144 -1 -1
0 1;
#X obj 973 -185 bng 15 250 50 0 empty empty empty 17 7 0 10 -262144
-1 -1;
#X obj 1012 -185 bng 15 250 50 0 empty empty empty 17 7 0 10 -262144
-1 -1;
#X obj 973 -204 moses 1;
#X obj 81 -49 r trig1;
#X obj 13 -52 noise~;
#X obj 17 755 bp~;
#X obj 209 590 / 10000;
#X floatatom 209 628 5 0 0 0 - - -;
#X obj 209 571 random 2000;
#X obj 209 609 + 0.8;
#X obj 24 662 line;
#X obj 18 1119 *~;
#X msg 84 588 600 500;
#X obj 149 569 delay 600;
#X obj 54 719 loadbang;
#X msg 54 738 0.419;
#X obj 84 533 r trig1;
#X obj 33 928 r trig1;
#X obj 84 569 delay 100;
#X msg 149 588 100 1500;
#X obj 18 852 *~ 5;
#X obj 18 871 clip~ -0.9 0.9;
#X obj 18 890 lop~ 1000;
#X msg 24 588 5000 50;
#X obj 110 156 r trig1;
#X obj 15 419 noise~;
#X obj 81 419 noise~;
#X obj 81 498 lop~ 100;
#X obj 81 458 lop~ 100;
#X obj 81 438 lop~ 100;
#X obj 81 478 lop~ 100;
#X obj 16 537 pow~;
#X obj 16 556 *~ 1;
#X obj 18 909 lop~ 1000;
#X obj 79 977 delay 300;
#X obj 17 812 *~;
#X obj 17 774 *~;
#X obj 17 831 *~;
#X obj 17 793 *~;
#X obj 41 758 osc~ 13;
#X obj 41 796 osc~ 10;
#X obj 41 815 osc~ 7;
#X obj 41 777 osc~ 17;
#X obj 139 977 delay 850;
#X obj 199 977 delay 1150;
#X obj 265 977 delay 2000;
#X obj 33 1040 line~;
#X msg 33 977 0.9 50;
#X obj 108 751 r trig1;
#X obj 108 873 line;
#X msg 108 810 1000 50;
#X obj 164 810 delay 2500;
#X msg 164 828 200 4000;
#X msg 265 996 0 3500;
#X msg 139 996 0.35 300;
#X msg 79 996 0.55 500;
#X msg 200 996 0.15 500;
#X obj 15 438 lop~ 1000;
#X obj 15 457 lop~ 1000;
#X obj 15 476 lop~ 1000;
#X obj 15 495 lop~ 1000;
#X obj 1427 -247 -~;
#X obj 1450 -293 bp~ 400 4;
#X obj 1450 -272 *~ 0.4;
#X obj 1121 -314 metro 100;
#X obj 1121 -333 loadbang;
#X obj 1121 -295 s mmetro;
#X obj 346 7 r mmetro;
#X obj 209 552 r mmetro;
#X obj 21 118 pack 0 100;
#X obj 331 990 / 10000;
#X floatatom 331 1028 5 0 0 0 - - -;
#X obj 331 971 random 2000;
#X obj 331 1009 + 0.8;
#X obj 331 1065 line;
#X obj 331 952 r mmetro;
#X obj 331 1084 sig~;
#X obj 33 1100 *~;
#X obj 331 1046 pack 0 100;
#X obj 1427 -189 /~ 2;
#X obj 1427 -208 hip~ 30;
#X obj 1427 -228 hip~ 30;
#X obj 209 646 pack 0 100;
#X obj 209 665 line~;
#X obj 24 681 *~;
#X obj 24 700 unsig~;
#X obj 18 1483 *~;
#X obj 18 1176 noise~;
#X obj 108 1176 noise~;
#X obj 18 1233 lop~ 1500;
#X obj 18 1195 lop~ 1500;
#X obj 108 1215 lop~ 100;
#X obj 18 1252 lop~ 100;
#X obj 18 1214 lop~ 1500;
#X obj 18 1271 pow~;
#X obj 18 1290 *~;
#X obj 18 1309 *~ 1;
#X obj 108 1255 lop~ 1200;
#X obj 108 1235 lop~ 1200;
#X obj 108 1195 lop~ 1200;
#X obj 18 1328 sqrt~;
#X obj 18 1347 +~;
#X obj 18 1404 lop~ 125;
#X obj 18 1385 lop~ 125;
#X obj 18 1366 lop~ 125;
#X obj 72 1448 line~;
#X obj 108 1385 delay 700;
#X msg 172 1404 0.55 700;
#X msg 108 1404 0.75 700;
#X obj 172 1385 delay 1400;
#X obj 237 1385 delay 2100;
#X obj 304 1385 delay 3100;
#X obj 18 1502 *~ 7;
#X obj 72 1467 *~;
#X obj 370 1357 / 10000;
#X floatatom 370 1395 5 0 0 0 - - -;
#X obj 370 1338 random 2000;
#X obj 370 1376 + 0.8;
#X obj 370 1432 line;
#X obj 370 1319 r mmetro;
#X obj 370 1451 sig~;
#X obj 370 1413 pack 0 100;
#X obj 18 1521 lop~ 1000;
#X obj 18 1540 lop~ 1000;
#X obj 18 1559 lop~ 1000;
#X obj 72 1317 r trig1;
#X msg 237 1404 0.85 1000;
#X msg 72 1385 1 200;
#X obj 72 1337 r trig1;
#X obj 146 224 delay 100;
#X obj 210 224 delay 2100;
#X obj 110 175 delay 120;
#X msg 146 243 0.5 2000;
#X msg 210 243 0.35 5000;
#X obj 275 224 delay 7500;
#X msg 146 6 100 5500;
#X obj 452 173 bp~;
#X obj 814 45 / 10000;
#X floatatom 814 83 5 0 0 0 - - -;
#X obj 814 26 random 2000;
#X obj 814 64 + 0.8;
#X obj 459 80 line;
#X obj 459 137 line;
#X obj 453 343 *~;
#X obj 459 99 expr $f1 * $f2;
#X obj 453 362 lop~ 2000;
#X obj 548 287 line~;
#X msg 548 224 1 20;
#X obj 489 137 loadbang;
#X msg 489 156 0.419;
#X obj 451 -52 noise~;
#X obj 455 755 bp~;
#X obj 647 590 / 10000;
#X floatatom 647 628 5 0 0 0 - - -;
#X obj 647 571 random 2000;
#X obj 647 609 + 0.8;
#X obj 462 662 line;
#X obj 456 1119 *~;
#X msg 522 588 600 500;
#X obj 587 569 delay 600;
#X obj 492 719 loadbang;
#X msg 492 738 0.419;
#X obj 522 569 delay 100;
#X msg 587 588 100 1500;
#X obj 456 852 *~ 5;
#X obj 456 871 clip~ -0.9 0.9;
#X obj 456 890 lop~ 1000;
#X msg 462 588 5000 50;
#X obj 453 419 noise~;
#X obj 519 419 noise~;
#X obj 519 498 lop~ 100;
#X obj 519 458 lop~ 100;
#X obj 519 438 lop~ 100;
#X obj 519 478 lop~ 100;
#X obj 454 537 pow~;
#X obj 454 556 *~ 1;
#X obj 456 909 lop~ 1000;
#X obj 517 977 delay 300;
#X obj 455 812 *~;
#X obj 455 774 *~;
#X obj 455 831 *~;
#X obj 455 793 *~;
#X obj 479 758 osc~ 13;
#X obj 479 796 osc~ 10;
#X obj 479 815 osc~ 7;
#X obj 479 777 osc~ 17;
#X obj 577 977 delay 850;
#X obj 637 977 delay 1150;
#X obj 703 977 delay 2000;
#X obj 471 1040 line~;
#X msg 471 977 0.9 50;
#X obj 546 873 line;
#X msg 546 810 1000 50;
#X obj 602 810 delay 2500;
#X msg 602 828 200 4000;
#X msg 703 996 0 3500;
#X msg 577 996 0.35 300;
#X msg 517 996 0.55 500;
#X msg 638 996 0.15 500;
#X obj 453 438 lop~ 1000;
#X obj 453 457 lop~ 1000;
#X obj 453 476 lop~ 1000;
#X obj 453 495 lop~ 1000;
#X obj 814 7 r mmetro;
#X obj 647 552 r mmetro;
#X obj 459 118 pack 0 100;
#X obj 769 990 / 10000;
#X floatatom 769 1028 5 0 0 0 - - -;
#X obj 769 971 random 2000;
#X obj 769 1009 + 0.8;
#X obj 769 1065 line;
#X obj 769 952 r mmetro;
#X obj 769 1084 sig~;
#X obj 471 1100 *~;
#X obj 769 1046 pack 0 100;
#X obj 647 646 pack 0 100;
#X obj 647 665 line~;
#X obj 462 681 *~;
#X obj 462 700 unsig~;
#X obj 456 1483 *~;
#X obj 456 1176 noise~;
#X obj 546 1176 noise~;
#X obj 456 1233 lop~ 1500;
#X obj 456 1195 lop~ 1500;
#X obj 546 1215 lop~ 100;
#X obj 456 1252 lop~ 100;
#X obj 456 1214 lop~ 1500;
#X obj 456 1271 pow~;
#X obj 456 1290 *~;
#X obj 456 1309 *~ 1;
#X obj 546 1255 lop~ 1200;
#X obj 546 1235 lop~ 1200;
#X obj 546 1195 lop~ 1200;
#X obj 456 1328 sqrt~;
#X obj 456 1347 +~;
#X obj 456 1404 lop~ 125;
#X obj 456 1385 lop~ 125;
#X obj 456 1366 lop~ 125;
#X obj 510 1448 line~;
#X obj 546 1385 delay 700;
#X msg 610 1404 0.55 700;
#X msg 546 1404 0.75 700;
#X obj 610 1385 delay 1400;
#X obj 675 1385 delay 2100;
#X obj 742 1385 delay 3100;
#X obj 456 1502 *~ 7;
#X obj 510 1467 *~;
#X obj 808 1357 / 10000;
#X floatatom 808 1395 5 0 0 0 - - -;
#X obj 808 1338 random 2000;
#X obj 808 1376 + 0.8;
#X obj 808 1432 line;
#X obj 808 1319 r mmetro;
#X obj 808 1451 sig~;
#X obj 808 1413 pack 0 100;
#X obj 456 1521 lop~ 1000;
#X obj 456 1540 lop~ 1000;
#X obj 456 1559 lop~ 1000;
#X msg 675 1404 0.85 1000;
#X msg 510 1385 1 200;
#X obj 584 224 delay 100;
#X obj 648 224 delay 2100;
#X obj 548 175 delay 120;
#X msg 584 243 0.5 2000;
#X msg 648 243 0.35 5000;
#X obj 713 224 delay 7500;
#X msg 584 6 100 5500;
#X obj 892 173 bp~;
#X obj 1214 45 / 10000;
#X floatatom 1214 83 5 0 0 0 - - -;
#X obj 1214 26 random 2000;
#X obj 1214 64 + 0.8;
#X obj 899 80 line;
#X obj 899 137 line;
#X obj 959 -13 delay 150;
#X obj 893 343 *~;
#X obj 899 99 expr $f1 * $f2;
#X obj 893 362 lop~ 2000;
#X obj 1024 -13 delay 600;
#X obj 988 287 line~;
#X msg 988 224 1 20;
#X obj 929 137 loadbang;
#X msg 929 156 0.419;
#X obj 891 -52 noise~;
#X obj 895 755 bp~;
#X obj 1087 590 / 10000;
#X floatatom 1087 628 5 0 0 0 - - -;
#X obj 1087 571 random 2000;
#X obj 1087 609 + 0.8;
#X obj 902 662 line;
#X obj 896 1119 *~;
#X msg 962 588 600 500;
#X obj 1027 569 delay 600;
#X obj 932 719 loadbang;
#X msg 932 738 0.419;
#X obj 962 569 delay 100;
#X msg 1027 588 100 1500;
#X obj 896 852 *~ 5;
#X obj 896 871 clip~ -0.9 0.9;
#X obj 896 890 lop~ 1000;
#X msg 902 588 5000 50;
#X obj 893 419 noise~;
#X obj 959 419 noise~;
#X obj 959 498 lop~ 100;
#X obj 959 458 lop~ 100;
#X obj 959 438 lop~ 100;
#X obj 959 478 lop~ 100;
#X obj 894 537 pow~;
#X obj 894 556 *~ 1;
#X obj 896 909 lop~ 1000;
#X obj 957 977 delay 300;
#X obj 895 812 *~;
#X obj 895 774 *~;
#X obj 895 831 *~;
#X obj 895 793 *~;
#X obj 919 758 osc~ 13;
#X obj 919 796 osc~ 10;
#X obj 919 815 osc~ 7;
#X obj 919 777 osc~ 17;
#X obj 1017 977 delay 850;
#X obj 1077 977 delay 1150;
#X obj 1143 977 delay 2000;
#X obj 911 1040 line~;
#X msg 911 977 0.9 50;
#X obj 986 873 line;
#X msg 986 810 1000 50;
#X obj 1042 810 delay 2500;
#X msg 1042 828 200 4000;
#X msg 1143 996 0 3500;
#X msg 1017 996 0.35 300;
#X msg 957 996 0.55 500;
#X msg 1078 996 0.15 500;
#X obj 893 438 lop~ 1000;
#X obj 893 457 lop~ 1000;
#X obj 893 476 lop~ 1000;
#X obj 893 495 lop~ 1000;
#X obj 1214 7 r mmetro;
#X obj 1087 552 r mmetro;
#X obj 899 118 pack 0 100;
#X obj 1209 990 / 10000;
#X floatatom 1209 1028 5 0 0 0 - - -;
#X obj 1209 971 random 2000;
#X obj 1209 1009 + 0.8;
#X obj 1209 1065 line;
#X obj 1209 952 r mmetro;
#X obj 1209 1084 sig~;
#X obj 911 1100 *~;
#X obj 1209 1046 pack 0 100;
#X obj 1087 646 pack 0 100;
#X obj 1087 665 line~;
#X obj 902 681 *~;
#X obj 902 700 unsig~;
#X obj 896 1483 *~;
#X obj 896 1176 noise~;
#X obj 986 1176 noise~;
#X obj 896 1233 lop~ 1500;
#X obj 896 1195 lop~ 1500;
#X obj 986 1215 lop~ 100;
#X obj 896 1252 lop~ 100;
#X obj 896 1214 lop~ 1500;
#X obj 896 1271 pow~;
#X obj 896 1290 *~;
#X obj 896 1309 *~ 1;
#X obj 986 1255 lop~ 1200;
#X obj 986 1235 lop~ 1200;
#X obj 986 1195 lop~ 1200;
#X obj 896 1328 sqrt~;
#X obj 896 1347 +~;
#X obj 896 1404 lop~ 125;
#X obj 896 1385 lop~ 125;
#X obj 896 1366 lop~ 125;
#X obj 950 1448 line~;
#X obj 986 1385 delay 700;
#X msg 1050 1404 0.55 700;
#X msg 986 1404 0.75 700;
#X obj 1050 1385 delay 1400;
#X obj 1115 1385 delay 2100;
#X obj 1182 1385 delay 3100;
#X obj 896 1502 *~ 7;
#X obj 950 1467 *~;
#X obj 1248 1357 / 10000;
#X floatatom 1248 1395 5 0 0 0 - - -;
#X obj 1248 1338 random 2000;
#X obj 1248 1376 + 0.8;
#X obj 1248 1432 line;
#X obj 1248 1319 r mmetro;
#X obj 1248 1451 sig~;
#X obj 1248 1413 pack 0 100;
#X obj 896 1521 lop~ 1000;
#X obj 896 1540 lop~ 1000;
#X obj 896 1559 lop~ 1000;
#X msg 1115 1404 0.85 1000;
#X msg 950 1385 1 200;
#X obj 1024 224 delay 100;
#X obj 1088 224 delay 2100;
#X obj 988 175 delay 120;
#X msg 1024 243 0.5 2000;
#X msg 1088 243 0.35 5000;
#X obj 1153 224 delay 7500;
#X msg 1024 6 100 5500;
#X obj 1322 173 bp~;
#X obj 1644 45 / 10000;
#X floatatom 1644 83 5 0 0 0 - - -;
#X obj 1644 26 random 2000;
#X obj 1644 64 + 0.8;
#X obj 1329 80 line;
#X obj 1329 137 line;
#X obj 1389 -13 delay 150;
#X obj 1323 343 *~;
#X obj 1329 99 expr $f1 * $f2;
#X obj 1454 -13 delay 600;
#X obj 1418 287 line~;
#X msg 1418 224 1 20;
#X obj 1359 137 loadbang;
#X msg 1359 156 0.419;
#X obj 1321 -52 noise~;
#X obj 1325 755 bp~;
#X obj 1517 590 / 10000;
#X floatatom 1517 628 5 0 0 0 - - -;
#X obj 1517 571 random 2000;
#X obj 1517 609 + 0.8;
#X obj 1332 662 line;
#X obj 1326 1119 *~;
#X msg 1392 588 600 500;
#X obj 1457 569 delay 600;
#X obj 1362 719 loadbang;
#X msg 1362 738 0.419;
#X obj 1392 569 delay 100;
#X msg 1457 588 100 1500;
#X obj 1326 852 *~ 5;
#X obj 1326 871 clip~ -0.9 0.9;
#X obj 1326 890 lop~ 1000;
#X msg 1332 588 5000 50;
#X obj 1323 419 noise~;
#X obj 1389 498 lop~ 100;
#X obj 1389 458 lop~ 100;
#X obj 1389 438 lop~ 100;
#X obj 1389 478 lop~ 100;
#X obj 1324 537 pow~;
#X obj 1324 556 *~ 1;
#X obj 1326 909 lop~ 1000;
#X obj 1387 977 delay 300;
#X obj 1325 812 *~;
#X obj 1325 774 *~;
#X obj 1325 831 *~;
#X obj 1325 793 *~;
#X obj 1349 758 osc~ 13;
#X obj 1349 796 osc~ 10;
#X obj 1349 815 osc~ 7;
#X obj 1349 777 osc~ 17;
#X obj 1447 977 delay 850;
#X obj 1507 977 delay 1150;
#X obj 1573 977 delay 2000;
#X obj 1341 1040 line~;
#X msg 1341 977 0.9 50;
#X obj 1416 873 line;
#X msg 1416 810 1000 50;
#X obj 1472 810 delay 2500;
#X msg 1472 828 200 4000;
#X msg 1573 996 0 3500;
#X msg 1447 996 0.35 300;
#X msg 1387 996 0.55 500;
#X msg 1508 996 0.15 500;
#X obj 1323 438 lop~ 1000;
#X obj 1323 457 lop~ 1000;
#X obj 1323 476 lop~ 1000;
#X obj 1323 495 lop~ 1000;
#X obj 1644 7 r mmetro;
#X obj 1517 552 r mmetro;
#X obj 1329 118 pack 0 100;
#X obj 1639 990 / 10000;
#X floatatom 1639 1028 5 0 0 0 - - -;
#X obj 1639 971 random 2000;
#X obj 1639 1009 + 0.8;
#X obj 1639 1065 line;
#X obj 1639 952 r mmetro;
#X obj 1639 1084 sig~;
#X obj 1341 1100 *~;
#X obj 1639 1046 pack 0 100;
#X obj 1517 646 pack 0 100;
#X obj 1517 665 line~;
#X obj 1332 681 *~;
#X obj 1332 700 unsig~;
#X obj 1326 1483 *~;
#X obj 1326 1176 noise~;
#X obj 1416 1176 noise~;
#X obj 1326 1233 lop~ 1500;
#X obj 1326 1195 lop~ 1500;
#X obj 1416 1215 lop~ 100;
#X obj 1326 1252 lop~ 100;
#X obj 1326 1214 lop~ 1500;
#X obj 1326 1271 pow~;
#X obj 1326 1290 *~;
#X obj 1326 1309 *~ 1;
#X obj 1416 1255 lop~ 1200;
#X obj 1416 1235 lop~ 1200;
#X obj 1416 1195 lop~ 1200;
#X obj 1326 1328 sqrt~;
#X obj 1326 1347 +~;
#X obj 1326 1404 lop~ 125;
#X obj 1326 1385 lop~ 125;
#X obj 1326 1366 lop~ 125;
#X obj 1380 1448 line~;
#X obj 1416 1385 delay 700;
#X msg 1480 1404 0.55 700;
#X msg 1416 1404 0.75 700;
#X obj 1480 1385 delay 1400;
#X obj 1545 1385 delay 2100;
#X obj 1612 1385 delay 3100;
#X obj 1326 1502 *~ 7;
#X obj 1380 1467 *~;
#X obj 1678 1357 / 10000;
#X floatatom 1678 1395 5 0 0 0 - - -;
#X obj 1678 1338 random 2000;
#X obj 1678 1376 + 0.8;
#X obj 1678 1432 line;
#X obj 1678 1319 r mmetro;
#X obj 1678 1451 sig~;
#X obj 1678 1413 pack 0 100;
#X obj 1326 1521 lop~ 1000;
#X obj 1326 1540 lop~ 1000;
#X obj 1326 1559 lop~ 1000;
#X msg 1545 1404 0.85 1000;
#X msg 1380 1385 1 200;
#X obj 1454 224 delay 100;
#X obj 1418 175 delay 120;
#X msg 1518 243 0.35 5000;
#X msg 1454 6 100 5500;
#X obj 519 -49 r trig2;
#X obj 548 156 r trig2;
#X obj 522 533 r trig2;
#X obj 546 751 r trig2;
#X obj 510 1337 r trig2;
#X obj 950 1337 r trig3;
#X obj 911 928 r trig3;
#X obj 986 751 r trig3;
#X obj 962 533 r trig3;
#X obj 988 156 r trig3;
#X obj 959 -49 r trig3;
#X obj 1389 -49 r trig4;
#X obj 1418 156 r trig4;
#X obj 1389 419 r trig4;
#X obj 1392 533 r trig4;
#X obj 1416 751 r trig4;
#X obj 1341 928 r trig4;
#X obj 1380 1337 r trig4;
#X obj 456 1578 *~ 1.5;
#X obj 519 -13 delay 100;
#X obj 456 1138 *~ 0.75;
#X obj 18 1578 *~ 1.5;
#X obj 896 1578 *~ 1.5;
#X obj 1326 1578 *~ 1.5;
#X msg 713 243 0 5500;
#X msg 1153 243 0 5500;
#X msg 1583 243 0 5500;
#X obj 1323 362 lop~ 3000;
#X obj 1518 224 delay 2500;
#X obj 1583 224 delay 7000;
#X msg 1454 243 0.4 2000;
#X obj 1552 -57 bng 15 250 50 0 empty empty empty 17 7 0 10 -262144
-1 -1;
#X msg 1329 6 1000 100;
#X msg 1389 6 400 550;
#X msg 959 6 400 550;
#X msg 519 6 400 550;
#X msg 81 6 400 550;
#X obj 584 -13 delay 600;
#X msg 899 6 1000 100;
#X msg 459 6 1000 100;
#X obj 18 1138 *~ 0.75;
#X obj 896 1138 *~ 0.75;
#X obj 1326 1138 *~ 0.75;
#X msg 275 243 0 5500;
#X obj 471 928 r trig2;
#X floatatom 194 -193 10 0 0 0 - - -;
#X obj 1590 -173 delwrite~ thund1 1000;
#X obj 1173 -188 delread~ thund1 200;
#X obj 1293 -188 delread~ thund1 100;
#X obj 453 381 *~ 0.19;
#X obj 893 381 *~ 0.19;
#X obj 1323 381 *~ 0.19;
#X obj 15 381 *~ 0.19;
#X obj 287 -161 spigot;
#X obj 362 -161 spigot;
#X obj 435 -161 spigot;
#X obj 507 -161 spigot;
#X obj 386 -264 + 200;
#X obj 287 -122 delay;
#X obj 362 -122 delay;
#X obj 435 -122 delay;
#X obj 507 -122 delay;
#X obj 518 -283 random 600;
#X obj 584 -283 random 600;
#X floatatom 533 -226 5 0 0 0 - - -;
#X floatatom 578 -225 5 0 0 0 - - -;
#X floatatom 618 -225 5 0 0 0 - - -;
#X floatatom 660 -225 5 0 0 0 - - -;
#X obj 386 -283 random 300;
#X obj 452 -283 random 500;
#X obj 287 -101 s thundtrig;
#X obj 362 -101 s thundtrig;
#X obj 435 -101 s thundtrig;
#X obj 507 -101 s thundtrig;
#X obj 881 -370 r thundtrig;
#X floatatom 289 -247 5 0 0 0 - - -;
#X obj 188 -300 metro 500;
#X obj 189 -248 random 10000;
#X obj 452 -264 + 400;
#X obj 320 -283 shuffle 4;
#X obj 518 -264 + 200;
#X obj 584 -264 + 100;
#X obj 189 -229 + 5000;
#X obj 1293 -169 *~ 0.5;
#X obj 1173 -169 *~ 0.5;
#X msg 1182 1404 0 10000;
#X msg 1612 1404 0 11000;
#X msg 742 1404 0 12000;
#X msg 304 1404 0 10000;
#X obj 320 -180 >= 1;
#X obj 395 -180 >= 2;
#X obj 468 -180 >= 3;
#X obj 540 -180 >= 4;
#X obj 973 -111 s thund1;
#X obj 1012 -130 s thund2;
#X obj 1029 -149 s thund3;
#X obj 1068 -168 s thund4;
#X obj 365 397 throw~ thundout;
#X obj 803 397 throw~ thundout;
#X obj 1243 397 throw~ thundout;
#X obj 1673 397 throw~ thundout;
#X obj 1676 1154 throw~ thundout;
#X obj 1246 1154 throw~ thundout;
#X obj 806 1154 throw~ thundout;
#X obj 368 1154 throw~ thundout;
#X obj 368 1594 throw~ thundout;
#X obj 806 1594 throw~ thundout;
#X obj 1246 1594 throw~ thundout;
#X obj 1676 1594 throw~ thundout;
#X obj 1428 -332 catch~ thundout;
#X obj 188 -332 loadbang;
#X obj 1414 -122 outlet~ thunderr;
#X obj 1524 -123 outlet~ thunderl;
#X connect 0 0 9 0;
#X connect 1 0 4 0;
#X connect 2 0 10 1;
#X connect 3 0 1 0;
#X connect 4 0 2 0;
#X connect 5 0 10 0;
#X connect 6 0 0 1;
#X connect 7 0 591 0;
#X connect 8 0 5 0;
#X connect 9 0 11 0;
#X connect 10 0 96 0;
#X connect 11 0 607 0;
#X connect 12 0 162 0;
#X connect 13 0 9 1;
#X connect 14 0 13 0;
#X connect 15 0 16 0;
#X connect 16 0 0 2;
#X connect 17 0 18 0;
#X connect 18 0 21 0;
#X connect 19 0 26 0;
#X connect 20 0 22 0;
#X connect 21 0 19 0;
#X connect 21 1 20 0;
#X connect 22 0 25 0;
#X connect 23 0 650 0;
#X connect 24 0 651 0;
#X connect 25 0 23 0;
#X connect 25 1 24 0;
#X connect 26 0 29 0;
#X connect 27 0 648 0;
#X connect 28 0 649 0;
#X connect 29 0 27 0;
#X connect 29 1 28 0;
#X connect 30 0 8 0;
#X connect 30 0 7 0;
#X connect 30 0 12 0;
#X connect 31 0 0 0;
#X connect 32 0 63 0;
#X connect 33 0 36 0;
#X connect 34 0 109 0;
#X connect 35 0 33 0;
#X connect 36 0 34 0;
#X connect 37 0 111 0;
#X connect 38 0 595 0;
#X connect 39 0 37 0;
#X connect 40 0 46 0;
#X connect 41 0 42 0;
#X connect 42 0 32 2;
#X connect 43 0 50 0;
#X connect 43 0 40 0;
#X connect 43 0 45 0;
#X connect 44 0 74 0;
#X connect 44 0 61 0;
#X connect 44 0 70 0;
#X connect 44 0 71 0;
#X connect 44 0 72 0;
#X connect 45 0 39 0;
#X connect 46 0 37 0;
#X connect 47 0 48 0;
#X connect 48 0 49 0;
#X connect 49 0 60 0;
#X connect 50 0 37 0;
#X connect 51 0 158 0;
#X connect 52 0 84 0;
#X connect 53 0 56 0;
#X connect 54 0 58 1;
#X connect 55 0 57 0;
#X connect 56 0 55 0;
#X connect 57 0 54 0;
#X connect 58 0 59 0;
#X connect 59 0 32 0;
#X connect 60 0 38 0;
#X connect 61 0 82 0;
#X connect 62 0 64 0;
#X connect 63 0 65 0;
#X connect 64 0 47 0;
#X connect 65 0 62 0;
#X connect 66 0 63 1;
#X connect 67 0 62 1;
#X connect 68 0 64 1;
#X connect 69 0 65 1;
#X connect 70 0 81 0;
#X connect 71 0 83 0;
#X connect 72 0 80 0;
#X connect 73 0 104 0;
#X connect 74 0 73 0;
#X connect 75 0 77 0;
#X connect 75 0 78 0;
#X connect 76 0 49 1;
#X connect 76 0 60 1;
#X connect 77 0 76 0;
#X connect 78 0 79 0;
#X connect 79 0 76 0;
#X connect 80 0 73 0;
#X connect 81 0 73 0;
#X connect 82 0 73 0;
#X connect 83 0 73 0;
#X connect 84 0 85 0;
#X connect 85 0 86 0;
#X connect 86 0 87 0;
#X connect 87 0 58 0;
#X connect 88 0 108 0;
#X connect 89 0 90 0;
#X connect 90 0 88 1;
#X connect 91 0 93 0;
#X connect 92 0 91 0;
#X connect 94 0 3 0;
#X connect 95 0 35 0;
#X connect 96 0 6 0;
#X connect 97 0 100 0;
#X connect 98 0 105 0;
#X connect 99 0 97 0;
#X connect 100 0 98 0;
#X connect 101 0 103 0;
#X connect 102 0 99 0;
#X connect 103 0 104 1;
#X connect 104 0 38 1;
#X connect 105 0 101 0;
#X connect 106 0 601 0;
#X connect 106 0 666 0;
#X connect 106 0 667 0;
#X connect 107 0 106 0;
#X connect 108 0 107 0;
#X connect 109 0 110 0;
#X connect 110 0 111 1;
#X connect 111 0 112 0;
#X connect 112 0 32 1;
#X connect 113 0 139 0;
#X connect 114 0 117 0;
#X connect 115 0 126 0;
#X connect 116 0 119 0;
#X connect 117 0 120 0;
#X connect 118 0 125 0;
#X connect 119 0 121 0;
#X connect 120 0 116 0;
#X connect 121 0 122 0;
#X connect 122 0 123 0;
#X connect 123 0 127 0;
#X connect 124 0 121 1;
#X connect 124 0 128 1;
#X connect 124 0 122 1;
#X connect 125 0 124 0;
#X connect 126 0 118 0;
#X connect 127 0 128 0;
#X connect 128 0 131 0;
#X connect 129 0 113 0;
#X connect 130 0 129 0;
#X connect 131 0 130 0;
#X connect 132 0 140 0;
#X connect 133 0 135 0;
#X connect 134 0 132 0;
#X connect 135 0 132 0;
#X connect 136 0 134 0;
#X connect 137 0 153 0;
#X connect 138 0 643 0;
#X connect 139 0 149 0;
#X connect 140 0 113 1;
#X connect 141 0 144 0;
#X connect 142 0 148 0;
#X connect 143 0 141 0;
#X connect 144 0 142 0;
#X connect 145 0 147 0;
#X connect 146 0 143 0;
#X connect 147 0 140 1;
#X connect 148 0 145 0;
#X connect 149 0 150 0;
#X connect 150 0 151 0;
#X connect 151 0 576 0;
#X connect 153 0 132 0;
#X connect 154 0 132 0;
#X connect 155 0 154 0;
#X connect 155 0 133 0;
#X connect 155 0 136 0;
#X connect 155 0 137 0;
#X connect 155 0 138 0;
#X connect 156 0 159 0;
#X connect 157 0 160 0;
#X connect 158 0 14 0;
#X connect 158 0 156 0;
#X connect 158 0 157 0;
#X connect 158 0 161 0;
#X connect 159 0 13 0;
#X connect 160 0 13 0;
#X connect 161 0 598 0;
#X connect 162 0 5 0;
#X connect 163 0 170 0;
#X connect 164 0 167 0;
#X connect 165 0 171 1;
#X connect 166 0 164 0;
#X connect 167 0 165 0;
#X connect 168 0 171 0;
#X connect 169 0 163 1;
#X connect 170 0 172 0;
#X connect 171 0 232 0;
#X connect 172 0 604 0;
#X connect 173 0 170 1;
#X connect 174 0 173 0;
#X connect 175 0 176 0;
#X connect 176 0 163 2;
#X connect 177 0 163 0;
#X connect 178 0 206 0;
#X connect 179 0 182 0;
#X connect 180 0 242 0;
#X connect 181 0 179 0;
#X connect 182 0 180 0;
#X connect 183 0 244 0;
#X connect 184 0 575 0;
#X connect 185 0 183 0;
#X connect 186 0 190 0;
#X connect 187 0 188 0;
#X connect 188 0 178 2;
#X connect 189 0 185 0;
#X connect 190 0 183 0;
#X connect 191 0 192 0;
#X connect 192 0 193 0;
#X connect 193 0 203 0;
#X connect 194 0 183 0;
#X connect 195 0 226 0;
#X connect 196 0 199 0;
#X connect 197 0 201 1;
#X connect 198 0 200 0;
#X connect 199 0 198 0;
#X connect 200 0 197 0;
#X connect 201 0 202 0;
#X connect 202 0 178 0;
#X connect 203 0 184 0;
#X connect 204 0 224 0;
#X connect 205 0 207 0;
#X connect 206 0 208 0;
#X connect 207 0 191 0;
#X connect 208 0 205 0;
#X connect 209 0 206 1;
#X connect 210 0 205 1;
#X connect 211 0 207 1;
#X connect 212 0 208 1;
#X connect 213 0 223 0;
#X connect 214 0 225 0;
#X connect 215 0 222 0;
#X connect 216 0 240 0;
#X connect 217 0 216 0;
#X connect 218 0 193 1;
#X connect 218 0 203 1;
#X connect 219 0 218 0;
#X connect 220 0 221 0;
#X connect 221 0 218 0;
#X connect 222 0 216 0;
#X connect 223 0 216 0;
#X connect 224 0 216 0;
#X connect 225 0 216 0;
#X connect 226 0 227 0;
#X connect 227 0 228 0;
#X connect 228 0 229 0;
#X connect 229 0 201 0;
#X connect 230 0 166 0;
#X connect 231 0 181 0;
#X connect 232 0 169 0;
#X connect 233 0 236 0;
#X connect 234 0 241 0;
#X connect 235 0 233 0;
#X connect 236 0 234 0;
#X connect 237 0 239 0;
#X connect 238 0 235 0;
#X connect 239 0 240 1;
#X connect 240 0 184 1;
#X connect 241 0 237 0;
#X connect 242 0 243 0;
#X connect 243 0 244 1;
#X connect 244 0 245 0;
#X connect 245 0 178 1;
#X connect 246 0 272 0;
#X connect 247 0 250 0;
#X connect 248 0 259 0;
#X connect 249 0 252 0;
#X connect 250 0 253 0;
#X connect 251 0 258 0;
#X connect 252 0 254 0;
#X connect 253 0 249 0;
#X connect 254 0 255 0;
#X connect 255 0 256 0;
#X connect 256 0 260 0;
#X connect 257 0 254 1;
#X connect 257 0 261 1;
#X connect 257 0 255 1;
#X connect 258 0 257 0;
#X connect 259 0 251 0;
#X connect 260 0 261 0;
#X connect 261 0 264 0;
#X connect 262 0 246 0;
#X connect 263 0 262 0;
#X connect 264 0 263 0;
#X connect 265 0 273 0;
#X connect 266 0 268 0;
#X connect 267 0 265 0;
#X connect 268 0 265 0;
#X connect 269 0 267 0;
#X connect 270 0 285 0;
#X connect 271 0 642 0;
#X connect 272 0 282 0;
#X connect 273 0 246 1;
#X connect 274 0 277 0;
#X connect 275 0 281 0;
#X connect 276 0 274 0;
#X connect 277 0 275 0;
#X connect 278 0 280 0;
#X connect 279 0 276 0;
#X connect 280 0 273 1;
#X connect 281 0 278 0;
#X connect 282 0 283 0;
#X connect 283 0 284 0;
#X connect 284 0 573 0;
#X connect 285 0 265 0;
#X connect 286 0 265 0;
#X connect 287 0 290 0;
#X connect 288 0 291 0;
#X connect 289 0 174 0;
#X connect 289 0 287 0;
#X connect 289 0 288 0;
#X connect 289 0 292 0;
#X connect 290 0 173 0;
#X connect 291 0 173 0;
#X connect 292 0 579 0;
#X connect 293 0 168 0;
#X connect 294 0 302 0;
#X connect 295 0 298 0;
#X connect 296 0 303 1;
#X connect 297 0 295 0;
#X connect 298 0 296 0;
#X connect 299 0 303 0;
#X connect 300 0 294 1;
#X connect 301 0 589 0;
#X connect 302 0 304 0;
#X connect 303 0 365 0;
#X connect 304 0 605 0;
#X connect 305 0 426 0;
#X connect 306 0 302 1;
#X connect 307 0 306 0;
#X connect 308 0 309 0;
#X connect 309 0 294 2;
#X connect 310 0 294 0;
#X connect 311 0 339 0;
#X connect 312 0 315 0;
#X connect 313 0 375 0;
#X connect 314 0 312 0;
#X connect 315 0 313 0;
#X connect 316 0 377 0;
#X connect 317 0 596 0;
#X connect 318 0 316 0;
#X connect 319 0 323 0;
#X connect 320 0 321 0;
#X connect 321 0 311 2;
#X connect 322 0 318 0;
#X connect 323 0 316 0;
#X connect 324 0 325 0;
#X connect 325 0 326 0;
#X connect 326 0 336 0;
#X connect 327 0 316 0;
#X connect 328 0 359 0;
#X connect 329 0 332 0;
#X connect 330 0 334 1;
#X connect 331 0 333 0;
#X connect 332 0 331 0;
#X connect 333 0 330 0;
#X connect 334 0 335 0;
#X connect 335 0 311 0;
#X connect 336 0 317 0;
#X connect 337 0 357 0;
#X connect 338 0 340 0;
#X connect 339 0 341 0;
#X connect 340 0 324 0;
#X connect 341 0 338 0;
#X connect 342 0 339 1;
#X connect 343 0 338 1;
#X connect 344 0 340 1;
#X connect 345 0 341 1;
#X connect 346 0 356 0;
#X connect 347 0 358 0;
#X connect 348 0 355 0;
#X connect 349 0 373 0;
#X connect 350 0 349 0;
#X connect 351 0 326 1;
#X connect 351 0 336 1;
#X connect 352 0 351 0;
#X connect 353 0 354 0;
#X connect 354 0 351 0;
#X connect 355 0 349 0;
#X connect 356 0 349 0;
#X connect 357 0 349 0;
#X connect 358 0 349 0;
#X connect 359 0 360 0;
#X connect 360 0 361 0;
#X connect 361 0 362 0;
#X connect 362 0 334 0;
#X connect 363 0 297 0;
#X connect 364 0 314 0;
#X connect 365 0 300 0;
#X connect 366 0 369 0;
#X connect 367 0 374 0;
#X connect 368 0 366 0;
#X connect 369 0 367 0;
#X connect 370 0 372 0;
#X connect 371 0 368 0;
#X connect 372 0 373 1;
#X connect 373 0 317 1;
#X connect 374 0 370 0;
#X connect 375 0 376 0;
#X connect 376 0 377 1;
#X connect 377 0 378 0;
#X connect 378 0 311 1;
#X connect 379 0 405 0;
#X connect 380 0 383 0;
#X connect 381 0 392 0;
#X connect 382 0 385 0;
#X connect 383 0 386 0;
#X connect 384 0 391 0;
#X connect 385 0 387 0;
#X connect 386 0 382 0;
#X connect 387 0 388 0;
#X connect 388 0 389 0;
#X connect 389 0 393 0;
#X connect 390 0 387 1;
#X connect 390 0 394 1;
#X connect 390 0 388 1;
#X connect 391 0 390 0;
#X connect 392 0 384 0;
#X connect 393 0 394 0;
#X connect 394 0 397 0;
#X connect 395 0 379 0;
#X connect 396 0 395 0;
#X connect 397 0 396 0;
#X connect 398 0 406 0;
#X connect 399 0 401 0;
#X connect 400 0 398 0;
#X connect 401 0 398 0;
#X connect 402 0 400 0;
#X connect 403 0 418 0;
#X connect 404 0 640 0;
#X connect 405 0 415 0;
#X connect 406 0 379 1;
#X connect 407 0 410 0;
#X connect 408 0 414 0;
#X connect 409 0 407 0;
#X connect 410 0 408 0;
#X connect 411 0 413 0;
#X connect 412 0 409 0;
#X connect 413 0 406 1;
#X connect 414 0 411 0;
#X connect 415 0 416 0;
#X connect 416 0 417 0;
#X connect 417 0 577 0;
#X connect 418 0 398 0;
#X connect 419 0 398 0;
#X connect 420 0 423 0;
#X connect 421 0 424 0;
#X connect 422 0 307 0;
#X connect 422 0 420 0;
#X connect 422 0 421 0;
#X connect 422 0 425 0;
#X connect 423 0 306 0;
#X connect 424 0 306 0;
#X connect 425 0 580 0;
#X connect 426 0 299 0;
#X connect 427 0 435 0;
#X connect 428 0 431 0;
#X connect 429 0 436 1;
#X connect 430 0 428 0;
#X connect 431 0 429 0;
#X connect 432 0 436 0;
#X connect 433 0 427 1;
#X connect 434 0 588 0;
#X connect 435 0 582 0;
#X connect 436 0 496 0;
#X connect 437 0 554 0;
#X connect 438 0 435 1;
#X connect 439 0 438 0;
#X connect 440 0 441 0;
#X connect 441 0 427 2;
#X connect 442 0 427 0;
#X connect 443 0 470 0;
#X connect 444 0 447 0;
#X connect 445 0 506 0;
#X connect 446 0 444 0;
#X connect 447 0 445 0;
#X connect 448 0 508 0;
#X connect 449 0 597 0;
#X connect 450 0 448 0;
#X connect 451 0 455 0;
#X connect 452 0 453 0;
#X connect 453 0 443 2;
#X connect 454 0 450 0;
#X connect 455 0 448 0;
#X connect 456 0 457 0;
#X connect 457 0 458 0;
#X connect 458 0 467 0;
#X connect 459 0 448 0;
#X connect 460 0 490 0;
#X connect 461 0 465 1;
#X connect 462 0 464 0;
#X connect 463 0 462 0;
#X connect 464 0 461 0;
#X connect 465 0 466 0;
#X connect 466 0 443 0;
#X connect 467 0 449 0;
#X connect 468 0 488 0;
#X connect 469 0 471 0;
#X connect 470 0 472 0;
#X connect 471 0 456 0;
#X connect 472 0 469 0;
#X connect 473 0 470 1;
#X connect 474 0 469 1;
#X connect 475 0 471 1;
#X connect 476 0 472 1;
#X connect 477 0 487 0;
#X connect 478 0 489 0;
#X connect 479 0 486 0;
#X connect 480 0 504 0;
#X connect 481 0 480 0;
#X connect 482 0 458 1;
#X connect 482 0 467 1;
#X connect 483 0 482 0;
#X connect 484 0 485 0;
#X connect 485 0 482 0;
#X connect 486 0 480 0;
#X connect 487 0 480 0;
#X connect 488 0 480 0;
#X connect 489 0 480 0;
#X connect 490 0 491 0;
#X connect 491 0 492 0;
#X connect 492 0 493 0;
#X connect 493 0 465 0;
#X connect 494 0 430 0;
#X connect 495 0 446 0;
#X connect 496 0 433 0;
#X connect 497 0 500 0;
#X connect 498 0 505 0;
#X connect 499 0 497 0;
#X connect 500 0 498 0;
#X connect 501 0 503 0;
#X connect 502 0 499 0;
#X connect 503 0 504 1;
#X connect 504 0 449 1;
#X connect 505 0 501 0;
#X connect 506 0 507 0;
#X connect 507 0 508 1;
#X connect 508 0 509 0;
#X connect 509 0 443 1;
#X connect 510 0 536 0;
#X connect 511 0 514 0;
#X connect 512 0 523 0;
#X connect 513 0 516 0;
#X connect 514 0 517 0;
#X connect 515 0 522 0;
#X connect 516 0 518 0;
#X connect 517 0 513 0;
#X connect 518 0 519 0;
#X connect 519 0 520 0;
#X connect 520 0 524 0;
#X connect 521 0 518 1;
#X connect 521 0 525 1;
#X connect 521 0 519 1;
#X connect 522 0 521 0;
#X connect 523 0 515 0;
#X connect 524 0 525 0;
#X connect 525 0 528 0;
#X connect 526 0 510 0;
#X connect 527 0 526 0;
#X connect 528 0 527 0;
#X connect 529 0 537 0;
#X connect 530 0 532 0;
#X connect 531 0 529 0;
#X connect 532 0 529 0;
#X connect 533 0 531 0;
#X connect 534 0 549 0;
#X connect 535 0 641 0;
#X connect 536 0 546 0;
#X connect 537 0 510 1;
#X connect 538 0 541 0;
#X connect 539 0 545 0;
#X connect 540 0 538 0;
#X connect 541 0 539 0;
#X connect 542 0 544 0;
#X connect 543 0 540 0;
#X connect 544 0 537 1;
#X connect 545 0 542 0;
#X connect 546 0 547 0;
#X connect 547 0 548 0;
#X connect 548 0 578 0;
#X connect 549 0 529 0;
#X connect 550 0 529 0;
#X connect 551 0 585 0;
#X connect 552 0 439 0;
#X connect 552 0 551 0;
#X connect 552 0 583 0;
#X connect 552 0 584 0;
#X connect 553 0 438 0;
#X connect 554 0 432 0;
#X connect 555 0 594 0;
#X connect 555 0 574 0;
#X connect 555 0 592 0;
#X connect 556 0 289 0;
#X connect 557 0 194 0;
#X connect 557 0 186 0;
#X connect 557 0 189 0;
#X connect 558 0 219 0;
#X connect 558 0 220 0;
#X connect 559 0 286 0;
#X connect 559 0 266 0;
#X connect 559 0 269 0;
#X connect 559 0 270 0;
#X connect 559 0 271 0;
#X connect 560 0 419 0;
#X connect 560 0 399 0;
#X connect 560 0 402 0;
#X connect 560 0 403 0;
#X connect 560 0 404 0;
#X connect 561 0 350 0;
#X connect 561 0 337 0;
#X connect 561 0 346 0;
#X connect 561 0 347 0;
#X connect 561 0 348 0;
#X connect 562 0 352 0;
#X connect 562 0 353 0;
#X connect 563 0 327 0;
#X connect 563 0 319 0;
#X connect 563 0 322 0;
#X connect 564 0 422 0;
#X connect 565 0 593 0;
#X connect 565 0 301 0;
#X connect 565 0 305 0;
#X connect 566 0 587 0;
#X connect 566 0 434 0;
#X connect 566 0 437 0;
#X connect 567 0 552 0;
#X connect 568 0 463 0;
#X connect 569 0 459 0;
#X connect 569 0 451 0;
#X connect 569 0 454 0;
#X connect 570 0 483 0;
#X connect 570 0 484 0;
#X connect 571 0 481 0;
#X connect 571 0 468 0;
#X connect 571 0 477 0;
#X connect 571 0 478 0;
#X connect 571 0 479 0;
#X connect 572 0 550 0;
#X connect 572 0 530 0;
#X connect 572 0 533 0;
#X connect 572 0 534 0;
#X connect 572 0 535 0;
#X connect 573 0 661 0;
#X connect 574 0 590 0;
#X connect 575 0 658 0;
#X connect 576 0 660 0;
#X connect 577 0 662 0;
#X connect 578 0 663 0;
#X connect 579 0 173 0;
#X connect 580 0 306 0;
#X connect 581 0 438 0;
#X connect 582 0 606 0;
#X connect 583 0 553 0;
#X connect 584 0 581 0;
#X connect 585 0 438 0;
#X connect 586 0 437 0;
#X connect 586 0 434 0;
#X connect 586 0 587 0;
#X connect 586 0 552 0;
#X connect 587 0 432 0;
#X connect 588 0 432 0;
#X connect 589 0 299 0;
#X connect 590 0 168 0;
#X connect 591 0 5 0;
#X connect 592 0 293 0;
#X connect 593 0 299 0;
#X connect 594 0 168 0;
#X connect 595 0 659 0;
#X connect 596 0 657 0;
#X connect 597 0 656 0;
#X connect 598 0 13 0;
#X connect 599 0 217 0;
#X connect 599 0 204 0;
#X connect 599 0 213 0;
#X connect 599 0 214 0;
#X connect 599 0 215 0;
#X connect 602 0 639 0;
#X connect 603 0 638 0;
#X connect 604 0 653 0;
#X connect 605 0 654 0;
#X connect 606 0 655 0;
#X connect 607 0 652 0;
#X connect 608 0 613 0;
#X connect 609 0 614 0;
#X connect 610 0 615 0;
#X connect 611 0 616 0;
#X connect 612 0 613 1;
#X connect 612 0 619 0;
#X connect 613 0 625 0;
#X connect 614 0 626 0;
#X connect 615 0 627 0;
#X connect 616 0 628 0;
#X connect 617 0 635 0;
#X connect 618 0 636 0;
#X connect 623 0 612 0;
#X connect 624 0 633 0;
#X connect 629 0 17 0;
#X connect 631 0 623 0;
#X connect 631 0 624 0;
#X connect 631 0 617 0;
#X connect 631 0 618 0;
#X connect 631 0 608 0;
#X connect 631 0 609 0;
#X connect 631 0 610 0;
#X connect 631 0 611 0;
#X connect 631 0 632 0;
#X connect 631 0 634 0;
#X connect 632 0 637 0;
#X connect 633 0 614 1;
#X connect 633 0 620 0;
#X connect 634 0 630 0;
#X connect 634 0 644 0;
#X connect 634 0 645 0;
#X connect 634 0 646 0;
#X connect 634 0 647 0;
#X connect 635 0 615 1;
#X connect 635 0 621 0;
#X connect 636 0 616 1;
#X connect 636 0 622 0;
#X connect 637 0 600 0;
#X connect 637 0 631 1;
#X connect 638 0 667 0;
#X connect 639 0 666 0;
#X connect 640 0 398 0;
#X connect 641 0 529 0;
#X connect 642 0 265 0;
#X connect 643 0 132 0;
#X connect 644 0 608 1;
#X connect 645 0 609 1;
#X connect 646 0 610 1;
#X connect 647 0 611 1;
#X connect 664 0 88 0;
#X connect 664 0 89 0;
#X connect 665 0 631 0;
#X restore 56 -375 pd thunder;
#N canvas -8 -8 1920 997 waves 1;
#X obj 653 -524 bng 50 250 50 0 empty empty empty 17 7 0 10 -4032 -1
-1;
#X obj 653 -460 tgl 15 0 empty empty empty 17 7 0 10 -262144 -1 -1
0 1;
#X obj 653 -409 bng 15 250 50 0 empty empty empty 17 7 0 10 -262144
-1 -1;
#X obj 709 -409 bng 15 250 50 0 empty empty empty 17 7 0 10 -262144
-1 -1;
#X obj 653 -443 moses 1;
#X obj 709 -392 tgl 15 0 empty empty empty 17 7 0 10 -262144 -1 -1
0 1;
#X obj 709 -356 bng 15 250 50 0 empty empty empty 17 7 0 10 -262144
-1 -1;
#X obj 748 -356 bng 15 250 50 0 empty empty empty 17 7 0 10 -262144
-1 -1;
#X obj 709 -375 moses 1;
#X obj 653 -392 tgl 15 0 empty empty empty 17 7 0 10 -262144 -1 -1
0 1;
#X obj 653 -356 bng 15 250 50 0 empty empty empty 17 7 0 10 -262144
-1 -1;
#X obj 692 -356 bng 15 250 50 0 empty empty empty 17 7 0 10 -262144
-1 -1;
#X obj 653 -375 moses 1;
#X floatatom 51 -379 10 0 0 0 - - -;
#X obj 144 -347 spigot;
#X obj 219 -347 spigot;
#X obj 292 -347 spigot;
#X obj 364 -347 spigot;
#X obj 243 -450 + 200;
#X obj 144 -308 delay;
#X obj 219 -308 delay;
#X obj 292 -308 delay;
#X obj 364 -308 delay;
#X obj 375 -469 random 600;
#X obj 441 -469 random 600;
#X floatatom 390 -412 5 0 0 0 - - -;
#X floatatom 435 -411 5 0 0 0 - - -;
#X floatatom 475 -411 5 0 0 0 - - -;
#X floatatom 517 -411 5 0 0 0 - - -;
#X obj 243 -469 random 300;
#X obj 309 -469 random 500;
#X floatatom 146 -433 5 0 0 0 - - -;
#X obj 45 -486 metro 500;
#X obj 46 -434 random 10000;
#X obj 309 -450 + 400;
#X obj 177 -469 shuffle 4;
#X obj 375 -450 + 200;
#X obj 441 -450 + 100;
#X obj 46 -415 + 5000;
#X obj 177 -366 >= 1;
#X obj 252 -366 >= 2;
#X obj 325 -366 >= 3;
#X obj 397 -366 >= 4;
#X obj 144 -287 s wavetrig;
#X obj 219 -287 s wavetrig;
#X obj 292 -287 s wavetrig;
#X obj 364 -287 s wavetrig;
#X obj 653 -282 s wave1;
#X obj 692 -301 s wave2;
#X obj 709 -320 s wave3;
#X obj 748 -339 s wave4;
#X obj 561 -541 r wavetrig;
#X obj 725 -85 hsl 128 15 0 1 0 0 high1 empty High1 50 8 0 10 -258113
-1 -1 0 1;
#X obj 725 -65 hsl 128 15 0 1 0 0 high2 empty High2 50 8 0 10 -258113
-1 -1 0 1;
#X obj 725 -45 hsl 128 15 0 1 0 0 high3 empty High3 50 8 0 10 -258113
-1 -1 0 1;
#X floatatom 857 -86 5 0 0 0 - - -;
#X floatatom 857 -66 5 0 0 0 - - -;
#X floatatom 857 -46 5 0 0 0 - - -;
#X obj 725 -25 hsl 128 15 0 4 0 0 high4 empty High4 50 8 0 10 -258113
-1 -1 0 1;
#X floatatom 857 -25 5 0 0 0 - - -;
#X obj 725 -5 hsl 128 15 0 10 0 0 mid1 empty Mid1 50 8 0 10 -260097
-1 -1 0 1;
#X floatatom 857 -5 5 0 0 0 - - -;
#X obj 725 15 hsl 128 15 0 1 0 0 mid2 empty Mid2 50 8 0 10 -260097
-1 -1 0 1;
#X floatatom 857 15 5 0 0 0 - - -;
#X obj 725 35 hsl 128 15 0 1 0 0 mid3 empty Mid3 50 8 0 10 -260097
-1 -1 0 1;
#X floatatom 857 35 5 0 0 0 - - -;
#X obj 725 55 hsl 128 15 0 0.02 0 0 noise empty Noise1 50 8 0 10 -257985
-1 -1 0 1;
#X floatatom 857 55 5 0 0 0 - - -;
#X obj 725 75 hsl 128 15 0 5 0 0 noise2 empty Noise2 50 8 0 10 -257985
-1 -1 0 1;
#X floatatom 857 75 5 0 0 0 - - -;
#X obj 725 95 hsl 128 15 0 10 0 0 noise3 empty Noise3 50 8 0 10 -257985
-1 -1 0 1;
#X floatatom 857 95 5 0 0 0 - - -;
#X obj 725 115 hsl 128 15 0 10 0 0 farnflow empty Farnflow 50 8 0 10
-4034 -1 -1 0 1;
#X floatatom 857 115 5 0 0 0 - - -;
#X obj 443 -247 loadbang;
#X obj 443 -264 bng 15 250 50 0 empty empty empty 17 7 0 10 -262144
-1 -1;
#X obj 281 -119 line;
#X obj 281 -99 line;
#X obj 281 -79 line;
#X obj 281 -59 line;
#X obj 281 -39 line;
#X obj 281 -19 line;
#X obj 281 1 line;
#X obj 281 21 line;
#X obj 281 41 line;
#X obj 281 61 line;
#X obj 281 81 line;
#X obj 11 -151 bng 15 250 50 0 empty empty empty 17 7 0 10 -262144
-1 -1;
#X obj 511 -228 metro 2;
#X obj 511 -247 loadbang;
#X obj 511 -264 bng 15 250 50 0 empty empty empty 17 7 0 10 -262144
-1 -1;
#X obj 511 -208 s metrowave;
#X obj 355 98 *;
#X obj 355 78 *;
#X obj 355 58 *;
#X obj 355 38 *;
#X obj 355 18 *;
#X obj 355 -2 *;
#X obj 355 -22 *;
#X obj 355 -42 *;
#X obj 355 -62 *;
#X obj 355 -82 *;
#X obj 355 -102 *;
#X obj 146 -173 delay 1712;
#X floatatom 241 -175 5 0 0 0 - - -;
#X obj 444 -228 metro 1000;
#X obj 203 -211 random 2000;
#X msg 354 -136 0 2500;
#X msg 190 -136 0.003 2000;
#X msg 190 -116 0.1 2000;
#X msg 190 -96 0.01 2000;
#X msg 190 -76 0.4 2000;
#X msg 190 -56 0.4 2000;
#X msg 190 -36 0.0188 2000;
#X msg 190 -16 0.0164 2000;
#X msg 190 4 0.001 2000;
#X msg 190 24 0.1277 2000;
#X msg 190 44 0.1417 2000;
#X msg 190 64 0.2913 2000;
#X obj 354 -156 delay 2000;
#X msg 82 -136 0.033 2000;
#X msg 82 -116 1 2000;
#X msg 82 -96 0.1 2000;
#X msg 82 -76 4 2000;
#X msg 82 -56 4 2000;
#X msg 82 -36 0.188 2000;
#X msg 82 -16 0.164 2000;
#X msg 82 4 0.005 2000;
#X msg 82 24 1.277 2000;
#X msg 82 44 1.417 2000;
#X msg 82 64 2.913 2000;
#X obj 203 -192 + 800;
#X obj 401 -133 r waverand1;
#X obj 473 -133 r waverand2;
#X obj 545 -133 r waverand3;
#X obj 617 -133 r waverand4;
#X obj 689 -133 r waverand5;
#X obj 761 -133 r waverand6;
#X obj 857 -593 noise~;
#X obj 857 -479 line;
#X obj 857 -536 +~ 0.9;
#X obj 857 -574 abs~;
#X obj 857 -517 snapshot~;
#X obj 997 -593 noise~;
#X obj 997 -479 line;
#X obj 997 -536 +~ 0.9;
#X obj 997 -574 abs~;
#X obj 997 -517 snapshot~;
#X obj 997 -430 noise~;
#X obj 997 -316 line;
#X obj 997 -373 +~ 0.9;
#X obj 997 -411 abs~;
#X obj 997 -354 snapshot~;
#X obj 857 -430 noise~;
#X obj 857 -316 line;
#X obj 857 -373 +~ 0.9;
#X obj 857 -411 abs~;
#X obj 857 -354 snapshot~;
#X obj 857 -267 noise~;
#X obj 857 -153 line;
#X obj 857 -210 +~ 0.9;
#X obj 857 -248 abs~;
#X obj 857 -191 snapshot~;
#X obj 997 -267 noise~;
#X obj 997 -153 line;
#X obj 997 -210 +~ 0.9;
#X obj 997 -248 abs~;
#X obj 997 -191 snapshot~;
#X obj 918 -534 r metrowave;
#X obj 1058 -534 r metrowave;
#X obj 1058 -371 r metrowave;
#X obj 918 -371 r metrowave;
#X obj 918 -208 r metrowave;
#X obj 1058 -208 r metrowave;
#X msg 857 -335 \$1 100;
#X msg 857 -172 \$1 100;
#X msg 997 -172 \$1 100;
#X msg 997 -498 \$1 100;
#X msg 857 -498 \$1 100;
#X msg 997 -335 \$1 100;
#X obj 997 -392 *~ 0.2;
#X obj 857 -392 *~ 0.2;
#X obj 857 -555 *~ 0.2;
#X obj 997 -555 *~ 0.2;
#X obj 997 -229 *~ 0.2;
#X obj 857 -229 *~ 0.2;
#X obj 857 -134 s waverand1;
#X obj 997 -134 s waverand2;
#X obj 997 -297 s waverand4;
#X obj 857 -297 s waverand3;
#X obj 857 -460 s waverand5;
#X obj 997 -460 s waverand6;
#X obj 45 -518 loadbang;
#X obj 1183 -441 s wave1;
#X obj 1222 -460 s wave2;
#X obj 1239 -479 s wave3;
#X obj 1278 -498 s wave4;
#X obj 907 98 r wavefarnflow1;
#X obj 907 78 r wavenoise31;
#X obj 907 58 r wavenoise21;
#X obj 907 38 r wavenoise1;
#X obj 907 18 r wavemid31;
#X obj 907 -2 r wavemid21;
#X obj 907 -22 r wavemid11;
#X obj 907 -42 r wavehigh41;
#X obj 907 -63 r wavehigh31;
#X obj 907 -103 s wavehigh11;
#X obj 907 -83 s wavehigh21;
#N canvas 0 0 1920 997 waterhigh2 0;
#X obj -8 94 noise~;
#X obj 7 129 noise~;
#X obj -8 167 *~;
#X obj 7 148 *~ 0.41;
#X obj -9 186 hip~ 8000;
#X obj -9 205 hip~ 8000;
#X obj -9 223 hip~ 8000;
#X obj 51 209 noise~;
#X obj -10 244 *~;
#X obj 51 228 *~ 0.41;
#X obj 99 229 noise~;
#X obj -11 264 *~;
#X obj 99 248 *~ 0.41;
#X obj -10 284 cos~;
#X obj -11 505 bp~ 9300 15;
#X obj -10 561 outlet~;
#X obj -101 19 delread~ noise2 10;
#X obj -215 19 delread~ noise2 20;
#X obj -329 19 delread~ noise2 30;
#X obj -443 19 delread~ noise2 40;
#X obj -557 18 delread~ noise2 50;
#X obj 36 110 delwrite~ noise2 100;
#X obj -10 303 hip~ 1000;
#X obj -10 322 hip~ 1000;
#X obj -10 340 hip~ 1000;
#X obj -10 360 lop~ 1000;
#X obj -10 380 lop~ 1000;
#X obj -10 400 lop~ 1000;
#X obj -11 485 clip~ 0 0.05;
#X obj -10 540 *~;
#X obj 60 523 r high2;
#X connect 0 0 2 0;
#X connect 0 0 21 0;
#X connect 1 0 3 0;
#X connect 2 0 4 0;
#X connect 3 0 2 1;
#X connect 4 0 5 0;
#X connect 5 0 6 0;
#X connect 6 0 8 0;
#X connect 7 0 9 0;
#X connect 8 0 11 0;
#X connect 9 0 8 1;
#X connect 10 0 12 0;
#X connect 11 0 13 0;
#X connect 12 0 11 1;
#X connect 13 0 22 0;
#X connect 14 0 29 0;
#X connect 16 0 2 0;
#X connect 17 0 2 0;
#X connect 18 0 2 0;
#X connect 19 0 2 0;
#X connect 20 0 2 0;
#X connect 22 0 23 0;
#X connect 23 0 24 0;
#X connect 24 0 25 0;
#X connect 25 0 26 0;
#X connect 26 0 27 0;
#X connect 27 0 28 0;
#X connect 28 0 14 0;
#X connect 29 0 15 0;
#X connect 30 0 29 1;
#X restore 1219 534 pd waterhigh2;
#N canvas 0 0 1920 997 waterhigh1 0;
#X obj -8 94 noise~;
#X obj 7 129 noise~;
#X obj -8 167 *~;
#X obj 7 148 *~ 0.41;
#X obj -9 186 hip~ 8000;
#X obj -9 205 hip~ 8000;
#X obj -9 223 hip~ 8000;
#X obj 51 209 noise~;
#X obj -10 244 *~;
#X obj 51 228 *~ 0.41;
#X obj 99 229 noise~;
#X obj -11 264 *~;
#X obj 99 248 *~ 0.41;
#X obj -10 284 cos~;
#X obj 36 110 delwrite~ noise1 100;
#X obj -101 19 delread~ noise1 10;
#X obj -215 19 delread~ noise1 20;
#X obj -329 19 delread~ noise1 30;
#X obj -443 19 delread~ noise1 40;
#X obj -557 18 delread~ noise1 50;
#X obj -13 601 outlet~;
#X obj -10 340 hip~ 4000;
#X obj -10 322 hip~ 4000;
#X obj -10 303 hip~ 4000;
#X obj -10 360 lop~ 7000;
#X obj -11 456 bp~ 7300 25;
#X obj -10 380 lop~ 7000;
#X obj -10 400 lop~ 7000;
#X obj -11 485 clip~ 0.2 1;
#X obj -11 505 bp~ 7300 35;
#X obj -12 555 *~;
#X obj 109 538 r high1;
#X connect 0 0 2 0;
#X connect 0 0 14 0;
#X connect 1 0 3 0;
#X connect 2 0 4 0;
#X connect 3 0 2 1;
#X connect 4 0 5 0;
#X connect 5 0 6 0;
#X connect 6 0 8 0;
#X connect 7 0 9 0;
#X connect 8 0 11 0;
#X connect 9 0 8 1;
#X connect 10 0 12 0;
#X connect 11 0 13 0;
#X connect 12 0 11 1;
#X connect 13 0 23 0;
#X connect 15 0 2 0;
#X connect 16 0 2 0;
#X connect 17 0 2 0;
#X connect 18 0 2 0;
#X connect 19 0 2 0;
#X connect 21 0 24 0;
#X connect 22 0 21 0;
#X connect 23 0 22 0;
#X connect 24 0 26 0;
#X connect 25 0 28 0;
#X connect 26 0 27 0;
#X connect 27 0 25 0;
#X connect 28 0 29 0;
#X connect 29 0 30 0;
#X connect 30 0 20 0;
#X connect 31 0 30 1;
#X restore 1203 515 pd waterhigh1;
#N canvas 0 0 1920 997 waterhigh3 0;
#X obj -8 94 noise~;
#X obj 7 129 noise~;
#X obj -8 167 *~;
#X obj 7 148 *~ 0.41;
#X obj -9 186 hip~ 8000;
#X obj -9 205 hip~ 8000;
#X obj -9 223 hip~ 8000;
#X obj 51 209 noise~;
#X obj -10 244 *~;
#X obj 51 228 *~ 0.41;
#X obj 99 229 noise~;
#X obj -11 264 *~;
#X obj 99 248 *~ 0.41;
#X obj -10 284 cos~;
#X obj -10 400 lop~ 4000;
#X obj -11 456 bp~ 9300 15;
#X obj -11 505 bp~ 9300 15;
#X obj -12 592 outlet~;
#X obj -215 19 delread~ noise3 20;
#X obj 36 110 delwrite~ noise3 100;
#X obj -101 19 delread~ noise3 10;
#X obj -329 19 delread~ noise3 30;
#X obj -443 19 delread~ noise3 40;
#X obj -557 18 delread~ noise3 50;
#X obj -10 360 lop~ 4000;
#X obj -10 380 lop~ 4000;
#X obj -10 340 hip~ 4000;
#X obj -10 322 hip~ 4000;
#X obj -10 303 hip~ 4000;
#X obj -11 485 clip~ 0.1 1;
#X obj -11 546 *~;
#X obj 38 528 r high3;
#X connect 0 0 2 0;
#X connect 0 0 19 0;
#X connect 1 0 3 0;
#X connect 2 0 4 0;
#X connect 3 0 2 1;
#X connect 4 0 5 0;
#X connect 5 0 6 0;
#X connect 6 0 8 0;
#X connect 7 0 9 0;
#X connect 8 0 11 0;
#X connect 9 0 8 1;
#X connect 10 0 12 0;
#X connect 11 0 13 0;
#X connect 12 0 11 1;
#X connect 13 0 28 0;
#X connect 14 0 15 0;
#X connect 15 0 29 0;
#X connect 16 0 30 0;
#X connect 18 0 2 0;
#X connect 20 0 2 0;
#X connect 21 0 2 0;
#X connect 22 0 2 0;
#X connect 23 0 2 0;
#X connect 24 0 25 0;
#X connect 25 0 14 0;
#X connect 26 0 24 0;
#X connect 27 0 26 0;
#X connect 28 0 27 0;
#X connect 29 0 16 0;
#X connect 30 0 17 0;
#X connect 31 0 30 1;
#X restore 1236 553 pd waterhigh3;
#N canvas 0 0 1920 997 waterhigh4 0;
#X obj -8 94 noise~;
#X obj 7 129 noise~;
#X obj -8 167 *~;
#X obj 7 148 *~ 0.41;
#X obj -9 186 hip~ 8000;
#X obj -9 205 hip~ 8000;
#X obj -9 223 hip~ 8000;
#X obj 51 209 noise~;
#X obj -10 244 *~;
#X obj 51 228 *~ 0.41;
#X obj 99 229 noise~;
#X obj -11 264 *~;
#X obj 99 248 *~ 0.41;
#X obj -10 284 cos~;
#X obj -10 400 lop~ 4000;
#X obj -12 876 outlet~;
#X obj -215 19 delread~ noise3 20;
#X obj 36 110 delwrite~ noise3 100;
#X obj -101 19 delread~ noise3 10;
#X obj -329 19 delread~ noise3 30;
#X obj -443 19 delread~ noise3 40;
#X obj -557 18 delread~ noise3 50;
#X obj -10 360 lop~ 4000;
#X obj -10 380 lop~ 4000;
#X obj -11 830 *~;
#X obj 64 813 r high4;
#X obj -10 303 hip~ 500;
#X obj -10 322 hip~ 500;
#X obj -10 340 hip~ 500;
#X obj -11 485 clip~ 0.05 0.15;
#X obj -11 644 hip~ 1000;
#X obj -11 624 hip~ 1000;
#X obj -11 604 hip~ 1000;
#X obj -11 456 bp~ 4300 15;
#X obj -11 584 lop~ 2000;
#X obj -11 564 lop~ 2000;
#X obj -11 544 lop~ 2000;
#X obj -11 505 bp~ 3500 5;
#X obj -12 789 -~;
#X obj -11 715 lop~ 1000;
#X obj 59 759 hip~ 4000;
#X obj 59 740 hip~ 4000;
#X obj 58 720 hip~ 4000;
#X obj 58 701 hip~ 4000;
#X obj 58 681 hip~ 4000;
#X obj 57 661 hip~ 4000;
#X obj -11 809 bp~ 3000 10;
#X connect 0 0 2 0;
#X connect 0 0 17 0;
#X connect 1 0 3 0;
#X connect 2 0 4 0;
#X connect 3 0 2 1;
#X connect 4 0 5 0;
#X connect 5 0 6 0;
#X connect 6 0 8 0;
#X connect 7 0 9 0;
#X connect 8 0 11 0;
#X connect 9 0 8 1;
#X connect 10 0 12 0;
#X connect 11 0 13 0;
#X connect 12 0 11 1;
#X connect 13 0 26 0;
#X connect 14 0 33 0;
#X connect 16 0 2 0;
#X connect 18 0 2 0;
#X connect 19 0 2 0;
#X connect 20 0 2 0;
#X connect 21 0 2 0;
#X connect 22 0 23 0;
#X connect 23 0 14 0;
#X connect 24 0 15 0;
#X connect 25 0 24 1;
#X connect 26 0 27 0;
#X connect 27 0 28 0;
#X connect 28 0 22 0;
#X connect 29 0 37 0;
#X connect 30 0 39 0;
#X connect 30 0 45 0;
#X connect 31 0 30 0;
#X connect 32 0 31 0;
#X connect 33 0 29 0;
#X connect 34 0 32 0;
#X connect 35 0 34 0;
#X connect 36 0 35 0;
#X connect 37 0 36 0;
#X connect 38 0 46 0;
#X connect 39 0 38 0;
#X connect 40 0 38 1;
#X connect 41 0 40 0;
#X connect 42 0 41 0;
#X connect 43 0 42 0;
#X connect 44 0 43 0;
#X connect 45 0 44 0;
#X connect 46 0 24 0;
#X restore 1252 573 pd waterhigh4;
#N canvas 0 0 1920 997 watermid1 0;
#X obj 365 363 osc~;
#X obj 437 363 osc~;
#X obj 509 363 osc~;
#X obj 364 416 *~ 0.1;
#X obj 436 416 *~ 0.05;
#X obj 507 414 *~ 0.025;
#X obj 506 392 tanh~;
#X obj 435 392 tanh~;
#X obj 364 393 tanh~;
#X obj 447 456 *~ 0.5;
#X obj 436 224 metro 4;
#X obj 527 483 noise~;
#X obj 445 500 *~;
#X obj 524 539 +~ 1;
#X obj 526 508 /~ 15;
#X obj 423 694 outlet~;
#X obj 423 651 *~;
#X obj 460 640 r mid1;
#X obj 355 296 / 100;
#X obj 435 296 / 100;
#X obj 519 300 / 100;
#X obj 519 265 random 150000;
#X obj 437 265 random 100000;
#X obj 355 265 random 70000;
#X obj 422 527 lop~ 1000;
#X obj 422 546 hip~ 3000;
#X obj 425 597 bp~ 1000 12;
#X obj 436 198 loadbang;
#X obj 434 176 inlet;
#X connect 0 0 8 0;
#X connect 1 0 7 0;
#X connect 2 0 6 0;
#X connect 3 0 9 0;
#X connect 4 0 9 0;
#X connect 5 0 9 0;
#X connect 6 0 5 0;
#X connect 7 0 4 0;
#X connect 8 0 3 0;
#X connect 9 0 12 0;
#X connect 10 0 21 0;
#X connect 10 0 22 0;
#X connect 10 0 23 0;
#X connect 11 0 14 0;
#X connect 12 0 24 0;
#X connect 13 0 12 1;
#X connect 14 0 13 0;
#X connect 16 0 15 0;
#X connect 17 0 16 1;
#X connect 18 0 0 0;
#X connect 19 0 1 0;
#X connect 20 0 2 0;
#X connect 21 0 20 0;
#X connect 22 0 19 0;
#X connect 23 0 18 0;
#X connect 24 0 25 0;
#X connect 25 0 26 0;
#X connect 26 0 16 0;
#X connect 27 0 10 0;
#X connect 28 0 27 0;
#X restore 1274 595 pd watermid1;
#N canvas 0 0 1920 997 watermid2 0;
#X obj 365 363 osc~;
#X obj 437 363 osc~;
#X obj 509 363 osc~;
#X obj 364 416 *~ 0.1;
#X obj 436 416 *~ 0.05;
#X obj 506 392 tanh~;
#X obj 435 392 tanh~;
#X obj 364 393 tanh~;
#X obj 447 456 *~ 0.5;
#X obj 436 224 metro 4;
#X obj 540 479 noise~;
#X obj 445 500 *~;
#X obj 524 539 +~ 1;
#X obj 526 508 /~ 15;
#X obj 423 694 outlet~;
#X obj 423 651 *~;
#X obj 355 296 / 100;
#X obj 435 296 / 100;
#X obj 519 300 / 100;
#X obj 422 527 lop~ 1000;
#X obj 460 640 r mid2;
#X obj 422 546 hip~ 400;
#X obj 507 414 *~ 0.055;
#X obj 355 265 random 30000;
#X obj 437 265 random 50000;
#X obj 519 265 random 70000;
#X obj 425 597 bp~ 700 8;
#X obj 434 198 loadbang;
#X obj 433 168 inlet;
#X connect 0 0 7 0;
#X connect 1 0 6 0;
#X connect 2 0 5 0;
#X connect 3 0 8 0;
#X connect 4 0 8 0;
#X connect 5 0 22 0;
#X connect 6 0 4 0;
#X connect 7 0 3 0;
#X connect 8 0 11 0;
#X connect 9 0 23 0;
#X connect 9 0 24 0;
#X connect 9 0 25 0;
#X connect 10 0 13 0;
#X connect 11 0 19 0;
#X connect 12 0 11 1;
#X connect 13 0 12 0;
#X connect 15 0 14 0;
#X connect 16 0 0 0;
#X connect 17 0 1 0;
#X connect 18 0 2 0;
#X connect 19 0 21 0;
#X connect 20 0 15 1;
#X connect 21 0 26 0;
#X connect 22 0 8 0;
#X connect 23 0 16 0;
#X connect 24 0 17 0;
#X connect 25 0 18 0;
#X connect 26 0 15 0;
#X connect 27 0 9 0;
#X connect 28 0 27 0;
#X restore 1298 617 pd watermid2;
#N canvas 0 0 1920 997 watermid3 0;
#X obj 365 363 osc~;
#X obj 437 363 osc~;
#X obj 509 363 osc~;
#X obj 364 416 *~ 0.1;
#X obj 436 416 *~ 0.05;
#X obj 506 392 tanh~;
#X obj 435 392 tanh~;
#X obj 364 393 tanh~;
#X obj 447 456 *~ 0.5;
#X obj 436 224 metro 4;
#X obj 540 479 noise~;
#X obj 445 500 *~;
#X obj 524 539 +~ 1;
#X obj 526 508 /~ 15;
#X obj 423 694 outlet~;
#X obj 423 651 *~;
#X obj 355 296 / 100;
#X obj 435 296 / 100;
#X obj 519 300 / 100;
#X obj 422 527 lop~ 1000;
#X obj 422 546 hip~ 400;
#X obj 507 414 *~ 0.055;
#X obj 355 265 random 10000;
#X obj 437 265 random 30000;
#X obj 519 265 random 50000;
#X obj 460 640 r mid3;
#X obj 425 597 bp~ 300 7;
#X obj 425 179 loadbang;
#X obj 424 145 inlet;
#X connect 0 0 7 0;
#X connect 1 0 6 0;
#X connect 2 0 5 0;
#X connect 3 0 8 0;
#X connect 4 0 8 0;
#X connect 5 0 21 0;
#X connect 6 0 4 0;
#X connect 7 0 3 0;
#X connect 8 0 11 0;
#X connect 9 0 22 0;
#X connect 9 0 23 0;
#X connect 9 0 24 0;
#X connect 10 0 13 0;
#X connect 11 0 19 0;
#X connect 12 0 11 1;
#X connect 13 0 12 0;
#X connect 15 0 14 0;
#X connect 16 0 0 0;
#X connect 17 0 1 0;
#X connect 18 0 2 0;
#X connect 19 0 20 0;
#X connect 20 0 26 0;
#X connect 21 0 8 0;
#X connect 22 0 16 0;
#X connect 23 0 17 0;
#X connect 24 0 18 0;
#X connect 25 0 15 1;
#X connect 26 0 15 0;
#X connect 27 0 9 0;
#X connect 28 0 27 0;
#X restore 1318 640 pd watermid3;
#X obj 1156 787 outlet~;
#X obj 1372 495 inlet;
#X obj 1156 758 hip~ 500;
#X obj 604 253 noise~;
#X obj 619 288 noise~;
#X obj 604 326 *~;
#X obj 619 307 *~ 0.41;
#X obj 663 368 noise~;
#X obj 602 403 *~;
#X obj 663 387 *~ 0.41;
#X obj 655 477 *~;
#X obj 705 466 r noise;
#X obj 397 178 delread~ n 20;
#X obj 511 178 delread~ n 10;
#X obj 283 178 delread~ n 30;
#X obj 169 178 delread~ n 40;
#X obj 56 177 delread~ n 50;
#X obj 648 269 delwrite~ n 100;
#X obj 421 402 noise~;
#X obj 436 437 noise~;
#X obj 421 475 *~;
#X obj 436 456 *~ 0.41;
#X obj 480 517 noise~;
#X obj 419 552 *~;
#X obj 480 536 *~ 0.41;
#X obj 528 537 noise~;
#X obj 418 572 *~;
#X obj 528 556 *~ 0.41;
#X obj 422 625 *~;
#X obj 328 327 delread~ n2 10;
#X obj 214 327 delread~ n2 20;
#X obj 100 327 delread~ n2 30;
#X obj -14 327 delread~ n2 40;
#X obj -127 326 delread~ n2 50;
#X obj 465 418 delwrite~ n2 100;
#X obj 472 614 r noise2;
#X obj 1156 738 lop~ 6000;
#X obj 1156 718 lop~ 6000;
#X obj 1156 698 lop~ 6000;
#X obj 1156 658 lop~ 4000;
#X obj 1156 678 lop~ 4000;
#X obj 90 513 noise~;
#X obj 105 548 noise~;
#X obj 90 586 *~;
#X obj 105 567 *~ 0.41;
#X obj 149 628 noise~;
#X obj 88 663 *~;
#X obj 149 647 *~ 0.41;
#X obj 197 648 noise~;
#X obj 87 683 *~;
#X obj 197 667 *~ 0.41;
#X obj 88 703 cos~;
#X obj 91 736 *~;
#X obj 134 529 delwrite~ n2 100;
#X obj 89 642 hip~ 2000;
#X obj 89 624 hip~ 2000;
#X obj 89 605 hip~ 2000;
#X obj 141 725 r noise3;
#X obj -458 437 delread~ n3 50;
#X obj -345 438 delread~ n3 40;
#X obj -231 438 delread~ n3 30;
#X obj -117 438 delread~ n3 20;
#X obj -3 438 delread~ n3 10;
#X obj 89 771 hip~ 250;
#X obj 88 791 hip~ 250;
#X obj 88 811 hip~ 250;
#X obj 88 831 hip~ 250;
#X obj 88 850 lop~ 800;
#X obj 88 890 lop~ 800;
#X obj 88 910 lop~ 800;
#X obj 88 870 lop~ 800;
#X obj 420 531 hip~ 4000;
#X obj 420 513 hip~ 4000;
#X obj 420 494 hip~ 4000;
#X obj 603 364 hip~ 1000;
#X obj 603 345 hip~ 1000;
#X obj 603 382 hip~ 1000;
#X obj 419 660 lop~ 1550;
#X obj 419 680 lop~ 1550;
#X obj 419 700 lop~ 1550;
#X obj 419 720 lop~ 1550;
#X connect 0 0 1 0;
#X connect 1 0 4 0;
#X connect 2 0 9 0;
#X connect 3 0 5 0;
#X connect 4 0 2 0;
#X connect 4 1 3 0;
#X connect 5 0 8 0;
#X connect 6 0 49 0;
#X connect 7 0 50 0;
#X connect 8 0 6 0;
#X connect 8 1 7 0;
#X connect 9 0 12 0;
#X connect 10 0 47 0;
#X connect 11 0 48 0;
#X connect 12 0 10 0;
#X connect 12 1 11 0;
#X connect 14 0 19 0;
#X connect 15 0 20 0;
#X connect 16 0 21 0;
#X connect 17 0 22 0;
#X connect 18 0 19 1;
#X connect 18 0 25 0;
#X connect 19 0 43 0;
#X connect 20 0 44 0;
#X connect 21 0 45 0;
#X connect 22 0 46 0;
#X connect 23 0 36 0;
#X connect 24 0 37 0;
#X connect 29 0 18 0;
#X connect 30 0 34 0;
#X connect 32 0 29 0;
#X connect 32 0 30 0;
#X connect 32 0 23 0;
#X connect 32 0 24 0;
#X connect 32 0 14 0;
#X connect 32 0 15 0;
#X connect 32 0 16 0;
#X connect 32 0 17 0;
#X connect 32 0 33 0;
#X connect 32 0 35 0;
#X connect 33 0 38 0;
#X connect 34 0 20 1;
#X connect 34 0 26 0;
#X connect 35 0 31 0;
#X connect 35 0 39 0;
#X connect 35 0 40 0;
#X connect 35 0 41 0;
#X connect 35 0 42 0;
#X connect 36 0 21 1;
#X connect 36 0 27 0;
#X connect 37 0 22 1;
#X connect 37 0 28 0;
#X connect 38 0 13 0;
#X connect 38 0 32 1;
#X connect 39 0 14 1;
#X connect 40 0 15 1;
#X connect 41 0 16 1;
#X connect 42 0 17 1;
#X connect 51 0 0 0;
#X connect 74 0 105 0;
#X connect 75 0 74 0;
#X connect 76 0 102 0;
#X connect 77 0 101 0;
#X connect 78 0 100 0;
#X connect 79 0 99 0;
#X connect 80 0 98 0;
#X connect 81 0 97 0;
#X connect 82 0 96 0;
#X connect 83 0 95 0;
#X connect 84 0 94 0;
#X connect 85 0 93 0;
#X connect 86 0 92 0;
#X connect 87 0 120 0;
#X connect 87 0 121 0;
#X connect 87 0 122 0;
#X connect 87 0 123 0;
#X connect 87 0 124 0;
#X connect 87 0 125 0;
#X connect 87 0 126 0;
#X connect 87 0 127 0;
#X connect 87 0 128 0;
#X connect 87 0 129 0;
#X connect 87 0 130 0;
#X connect 87 0 103 0;
#X connect 88 0 91 0;
#X connect 89 0 88 0;
#X connect 90 0 89 0;
#X connect 92 0 72 0;
#X connect 93 0 70 0;
#X connect 94 0 68 0;
#X connect 95 0 66 0;
#X connect 96 0 64 0;
#X connect 97 0 62 0;
#X connect 98 0 60 0;
#X connect 99 0 58 0;
#X connect 100 0 54 0;
#X connect 101 0 53 0;
#X connect 102 0 52 0;
#X connect 103 0 108 0;
#X connect 103 0 109 0;
#X connect 103 0 110 0;
#X connect 103 0 111 0;
#X connect 103 0 112 0;
#X connect 103 0 113 0;
#X connect 103 0 114 0;
#X connect 103 0 115 0;
#X connect 103 0 116 0;
#X connect 103 0 117 0;
#X connect 103 0 118 0;
#X connect 103 0 119 0;
#X connect 105 0 106 0;
#X connect 106 0 131 0;
#X connect 107 0 76 0;
#X connect 107 0 77 0;
#X connect 107 0 78 0;
#X connect 107 0 79 0;
#X connect 107 0 80 0;
#X connect 107 0 81 0;
#X connect 107 0 82 0;
#X connect 107 0 83 0;
#X connect 107 0 84 0;
#X connect 107 0 85 0;
#X connect 107 0 86 0;
#X connect 108 0 76 0;
#X connect 109 0 77 0;
#X connect 110 0 78 0;
#X connect 111 0 79 0;
#X connect 112 0 80 0;
#X connect 113 0 81 0;
#X connect 114 0 82 0;
#X connect 115 0 83 0;
#X connect 116 0 84 0;
#X connect 117 0 85 0;
#X connect 118 0 86 0;
#X connect 119 0 107 0;
#X connect 120 0 76 0;
#X connect 121 0 77 0;
#X connect 122 0 78 0;
#X connect 123 0 79 0;
#X connect 124 0 80 0;
#X connect 125 0 81 0;
#X connect 126 0 82 0;
#X connect 127 0 83 0;
#X connect 128 0 84 0;
#X connect 129 0 85 0;
#X connect 130 0 86 0;
#X connect 131 0 103 1;
#X connect 131 0 104 0;
#X connect 132 0 102 1;
#X connect 132 0 95 1;
#X connect 133 0 100 1;
#X connect 133 0 97 1;
#X connect 134 0 93 1;
#X connect 134 0 99 1;
#X connect 135 0 101 1;
#X connect 135 0 92 1;
#X connect 136 0 95 1;
#X connect 136 0 98 1;
#X connect 137 0 94 1;
#X connect 137 0 96 1;
#X connect 138 0 141 0;
#X connect 139 0 190 0;
#X connect 140 0 142 0;
#X connect 141 0 182 0;
#X connect 142 0 178 0;
#X connect 143 0 146 0;
#X connect 144 0 191 0;
#X connect 145 0 147 0;
#X connect 146 0 183 0;
#X connect 147 0 177 0;
#X connect 148 0 151 0;
#X connect 149 0 188 0;
#X connect 150 0 152 0;
#X connect 151 0 180 0;
#X connect 152 0 179 0;
#X connect 153 0 156 0;
#X connect 154 0 189 0;
#X connect 155 0 157 0;
#X connect 156 0 181 0;
#X connect 157 0 174 0;
#X connect 158 0 161 0;
#X connect 159 0 186 0;
#X connect 160 0 162 0;
#X connect 161 0 185 0;
#X connect 162 0 175 0;
#X connect 163 0 166 0;
#X connect 164 0 187 0;
#X connect 165 0 167 0;
#X connect 166 0 184 0;
#X connect 167 0 176 0;
#X connect 168 0 142 0;
#X connect 169 0 147 0;
#X connect 170 0 152 0;
#X connect 171 0 157 0;
#X connect 172 0 162 0;
#X connect 173 0 167 0;
#X connect 174 0 154 0;
#X connect 175 0 159 0;
#X connect 176 0 164 0;
#X connect 177 0 144 0;
#X connect 178 0 139 0;
#X connect 179 0 149 0;
#X connect 180 0 150 0;
#X connect 181 0 155 0;
#X connect 182 0 140 0;
#X connect 183 0 145 0;
#X connect 184 0 165 0;
#X connect 185 0 160 0;
#X connect 192 0 32 0;
#X connect 197 0 73 0;
#X connect 198 0 71 0;
#X connect 199 0 69 0;
#X connect 200 0 67 0;
#X connect 201 0 65 0;
#X connect 202 0 63 0;
#X connect 203 0 61 0;
#X connect 204 0 59 0;
#X connect 205 0 57 0;
#X connect 208 0 254 0;
#X connect 209 0 254 0;
#X connect 210 0 254 0;
#X connect 211 0 254 0;
#X connect 212 0 254 0;
#X connect 213 0 254 0;
#X connect 214 0 254 0;
#X connect 216 0 212 0;
#X connect 216 0 213 0;
#X connect 216 0 214 0;
#X connect 217 0 215 0;
#X connect 218 0 220 0;
#X connect 218 0 232 0;
#X connect 219 0 221 0;
#X connect 220 0 290 0;
#X connect 221 0 220 1;
#X connect 222 0 224 0;
#X connect 223 0 225 0;
#X connect 224 0 223 1;
#X connect 225 0 254 0;
#X connect 226 0 225 1;
#X connect 227 0 220 0;
#X connect 228 0 220 0;
#X connect 229 0 220 0;
#X connect 230 0 220 0;
#X connect 231 0 220 0;
#X connect 233 0 235 0;
#X connect 233 0 249 0;
#X connect 234 0 236 0;
#X connect 235 0 288 0;
#X connect 236 0 235 1;
#X connect 237 0 239 0;
#X connect 238 0 241 0;
#X connect 239 0 238 1;
#X connect 240 0 242 0;
#X connect 241 0 243 0;
#X connect 242 0 241 1;
#X connect 243 0 292 0;
#X connect 244 0 235 0;
#X connect 245 0 235 0;
#X connect 246 0 235 0;
#X connect 247 0 235 0;
#X connect 248 0 235 0;
#X connect 250 0 243 1;
#X connect 251 0 217 0;
#X connect 252 0 251 0;
#X connect 253 0 252 0;
#X connect 254 0 255 0;
#X connect 255 0 253 0;
#X connect 256 0 258 0;
#X connect 256 0 268 0;
#X connect 257 0 259 0;
#X connect 258 0 271 0;
#X connect 259 0 258 1;
#X connect 260 0 262 0;
#X connect 261 0 264 0;
#X connect 262 0 261 1;
#X connect 263 0 265 0;
#X connect 264 0 266 0;
#X connect 265 0 264 1;
#X connect 266 0 267 0;
#X connect 267 0 278 0;
#X connect 269 0 261 0;
#X connect 270 0 269 0;
#X connect 271 0 270 0;
#X connect 272 0 267 1;
#X connect 273 0 258 0;
#X connect 274 0 258 0;
#X connect 275 0 258 0;
#X connect 276 0 258 0;
#X connect 277 0 258 0;
#X connect 278 0 279 0;
#X connect 279 0 280 0;
#X connect 280 0 281 0;
#X connect 281 0 282 0;
#X connect 282 0 285 0;
#X connect 283 0 284 0;
#X connect 284 0 254 0;
#X connect 285 0 283 0;
#X connect 286 0 238 0;
#X connect 287 0 286 0;
#X connect 288 0 287 0;
#X connect 289 0 291 0;
#X connect 290 0 289 0;
#X connect 291 0 223 0;
#X connect 292 0 293 0;
#X connect 293 0 294 0;
#X connect 294 0 295 0;
#X connect 295 0 254 0;
#X restore 196 -368 pd waves;
