#N canvas 97 141 450 537 10;
#X obj 152 -2027 noise~;
#X obj 195 -2027 noise~;
#X obj 168 -1673 *~;
#X obj 183 -1849 /~ 10;
#X obj 239 -1875 knob 32 32 0 1 0 0 empty empty empty 0 -8 0 8 -262144
-1 -1 3100 1;
#X obj 122 -1946 lop~ 1500;
#X obj 122 -1986 lop~ 1500;
#X obj 197 -1925 lop~ 100;
#X obj 197 -1965 lop~ 100;
#X obj 197 -1985 lop~ 100;
#X obj 197 -1945 lop~ 100;
#X obj 122 -1926 lop~ 100;
#X obj 122 -1966 lop~ 1500;
#X obj 155 -1793 bp~ 1000 10;
#X obj 174 -1877 /~;
#X obj 235 -1588 output~;
#X obj 168 -1735 clip~ -0.9 0.9;
#X obj 168 -1714 lop~ 500;
#X obj 168 -1695 lop~ 500;
#X obj 302 -2026 noise~;
#X obj 345 -2026 noise~;
#X obj 318 -1672 *~;
#X obj 333 -1848 /~ 10;
#X obj 389 -1874 knob 32 32 0 1 0 0 empty empty empty 0 -8 0 8 -262144
-1 -1 3100 1;
#X obj 272 -1945 lop~ 1500;
#X obj 272 -1985 lop~ 1500;
#X obj 347 -1924 lop~ 100;
#X obj 347 -1964 lop~ 100;
#X obj 347 -1984 lop~ 100;
#X obj 347 -1944 lop~ 100;
#X obj 272 -1925 lop~ 100;
#X obj 272 -1965 lop~ 1500;
#X obj 324 -1876 /~;
#X obj 318 -1713 hip~ 2500;
#X obj 318 -1694 hip~ 2500;
#X obj 311 -1824 *~ 0.05;
#X obj 161 -1825 *~ 0.5;
#X obj 318 -1734 clip~ -0.05 0.05;
#X obj 305 -1792 bp~ 1000 1;
#X connect 0 0 6 0;
#X connect 1 0 9 0;
#X connect 2 0 15 0;
#X connect 2 0 15 1;
#X connect 3 0 36 0;
#X connect 4 0 2 1;
#X connect 5 0 11 0;
#X connect 6 0 12 0;
#X connect 7 0 14 1;
#X connect 8 0 10 0;
#X connect 9 0 8 0;
#X connect 10 0 7 0;
#X connect 11 0 14 0;
#X connect 12 0 5 0;
#X connect 13 0 16 0;
#X connect 14 0 3 0;
#X connect 16 0 17 0;
#X connect 17 0 18 0;
#X connect 18 0 2 0;
#X connect 19 0 25 0;
#X connect 20 0 28 0;
#X connect 21 0 15 1;
#X connect 21 0 15 0;
#X connect 22 0 35 0;
#X connect 23 0 21 1;
#X connect 24 0 30 0;
#X connect 25 0 31 0;
#X connect 26 0 32 1;
#X connect 27 0 29 0;
#X connect 28 0 27 0;
#X connect 29 0 26 0;
#X connect 30 0 32 0;
#X connect 31 0 24 0;
#X connect 32 0 22 0;
#X connect 33 0 34 0;
#X connect 34 0 21 0;
#X connect 35 0 38 0;
#X connect 36 0 13 0;
#X connect 37 0 33 0;
#X connect 38 0 37 0;
