#N canvas -7 0 958 988 10;
#X obj 442 297 f;
#X obj 479 298 + 1;
#X floatatom 442 355 5 0 0 0 - - -;
#X obj 442 316 % 13;
#X obj 508 298 f;
#X obj 508 317 % 13;
#X obj 475 143 tgl 15 0 empty empty empty 17 7 0 10 -262144 -1 -1 0
1;
#X msg 508 191 0;
#X floatatom 508 355 5 0 0 0 - - -;
#X obj 545 299 - 1;
#X obj 508 336 + 12;
#X obj 442 191 metro 1000;
#X connect 0 0 1 0;
#X connect 0 0 3 0;
#X connect 1 0 0 1;
#X connect 3 0 2 0;
#X connect 4 0 5 0;
#X connect 4 0 9 0;
#X connect 5 0 10 0;
#X connect 6 0 11 0;
#X connect 6 0 7 0;
#X connect 7 0 4 0;
#X connect 7 0 0 0;
#X connect 9 0 4 1;
#X connect 10 0 8 0;
#X connect 11 0 0 0;
#X connect 11 0 4 0;
