#N canvas 0 22 1440 852 12;
#X text 292 11 Expressions;
#X floatatom 293 137 5 0 0 0 - - -;
#X floatatom 293 259 10 0 0 0 - - -;
#X obj 293 197 expr sin(2 * 3.14159 * $f1) * 100;
#X text -135 195 Using expr we can build up complex expressions in
a concise fashion;
#X text 460 152 $f1 is the first argument;
#X obj 288 374 expr log(($f1 + $f2 + $f3) * 100.0);
#X floatatom 288 321 5 0 0 0 - - -;
#X floatatom 409 321 5 0 0 0 - - -;
#X floatatom 530 321 5 0 0 0 - - -;
#X floatatom 288 442 5 0 0 0 - - -;
#X msg 185 321 bang;
#X text 574 378 More arguments can be used. Don't forget value will
only be output when message received on first inlet!;
#X text 200 137 value of $f1;
#X text 374 258 result;
#X text 327 320 $f1;
#X text 451 320 $f2;
#X text 576 320 $f3;
#X obj -127 -4 cnv 15 100 60 empty empty empty 20 12 0 14 -233017 -66577
0;
#X connect 1 0 3 0;
#X connect 3 0 2 0;
#X connect 6 0 10 0;
#X connect 7 0 6 0;
#X connect 8 0 6 1;
#X connect 9 0 6 2;
#X connect 11 0 6 0;
