#N canvas 318 22 1122 678 12;
#X obj 291 171 randomF 1;
#X text 393 151 Generate a random floating point number between 0 and
1 NB: May not be available if you have not installed extended PD -
think about using 'random' object instead (generates random integers)
;
#X msg 291 112 bang;
#X floatatom 147 361 10 0 0 0 - - -;
#X floatatom 256 362 10 0 0 0 - - -;
#X floatatom 353 361 10 0 0 0 - - -;
#X floatatom 457 361 10 0 0 0 - - -;
#X text 561 361 Number boxes display results;
#X obj 150 108 metro 1000;
#X msg 150 29 bang;
#X msg 209 30 stop;
#X floatatom 140 189 10 0 0 0 - - -;
#X text 266 35 Stop message stops metro;
#X text 13 28 bang starts metro;
#X floatatom 217 63 5 500 10000 0 - - -;
#X text 267 63 Right inlet sets clock rate in msecs;
#X text -225 99 metro sends a series of bangs at a set rate in msecs.
Creation argument sets initial rate in msecs;
#X text 339 113 Generate single pseudorandom number;
#X text -133 187 pseudorandom number between 0 and 1;
#X obj 147 301 sin;
#X obj 256 301 cos;
#X obj 353 301 tan;
#X obj 457 299 pow;
#X floatatom 475 245 5 0 0 0 - - -;
#X text 525 244 raise number to the power of this exponent;
#X text 525 296 Higher mathematical function examples;
#X obj -298 4 cnv 15 100 60 empty empty empty 20 12 0 14 -233017 -66577
0;
#X obj 66 302 atan;
#X floatatom 66 361 10 0 0 0 - - -;
#X obj -43 300 log;
#X floatatom -43 359 10 0 0 0 - - -;
#X obj 176 526 abs;
#X floatatom 176 471 5 0 0 0 - - -;
#X floatatom 176 583 5 0 0 0 - - -;
#X text 224 526 absolute value: unsigned version of inlet;
#X obj -162 301 sqrt;
#X floatatom -162 358 10 0 0 0 - - -;
#X text 179 1 Maths 6 - higher mathematical functions;
#X connect 0 0 11 0;
#X connect 0 0 19 0;
#X connect 0 0 20 0;
#X connect 0 0 21 0;
#X connect 0 0 22 0;
#X connect 0 0 27 0;
#X connect 0 0 29 0;
#X connect 0 0 35 0;
#X connect 2 0 0 0;
#X connect 8 0 0 0;
#X connect 9 0 8 0;
#X connect 10 0 8 0;
#X connect 14 0 8 1;
#X connect 19 0 3 0;
#X connect 20 0 4 0;
#X connect 21 0 5 0;
#X connect 22 0 6 0;
#X connect 23 0 22 1;
#X connect 27 0 28 0;
#X connect 29 0 30 0;
#X connect 31 0 33 0;
#X connect 32 0 31 0;
#X connect 35 0 36 0;
