#N canvas 0 50 1362 685 10;
#X obj 352 20 loadbang;
#X obj 580 37 metro 2;
#X obj 511 983 dac~;
#X obj 580 56 s 2metro;
#X obj 421 37 metro 1000;
#X obj 421 56 s 1000metro;
#X obj 896 708 FireModule;
#X obj 504 56 s 100metro;
#X obj 504 37 metro 100;
#X obj 634 929 pack 0 100;
#X obj 634 948 line~;
#X obj 511 964 *~;
#X obj 616 967 *~;
#X obj 623 674 RainModule;
#X obj 690 645 r 2metro;
#X obj 611 645 r 100metro;
#X obj 689 737 *~;
#X obj 622 737 *~;
#X obj 723 704 line~;
#X obj 896 689 r 2metro;
#X obj 973 739 line~;
#X obj 848 755 *~;
#X obj 956 758 *~;
#X obj 973 701 tgl 15 0 empty empty empty 17 7 0 10 -262144 -1 -1 0
1;
#X obj 634 910 tgl 15 0 empty empty empty 17 7 0 10 -262144 -1 -1 1
1;
#X obj 973 720 pack 0 300;
#X obj 723 666 tgl 15 0 empty empty empty 17 7 0 10 -262144 -1 -1 0
1;
#X obj 723 685 pack 0 300;
#X obj 634 891 loadbang;
#X obj 973 680 r fireToggle;
#X obj 763 649 r rainToggle;
#X obj 203 337 pack 0 100;
#X obj 203 356 line~;
#X obj 186 404 *~;
#X obj 275 404 *~;
#X obj 203 318 tgl 15 0 empty empty empty 17 7 0 10 -262144 -1 -1 0
1;
#X obj 187 260 ThunderModule;
#X obj 203 298 r thunderToggle;
#X connect 0 0 1 0;
#X connect 0 0 4 0;
#X connect 0 0 8 0;
#X connect 1 0 3 0;
#X connect 4 0 5 0;
#X connect 6 0 21 0;
#X connect 6 0 22 0;
#X connect 8 0 7 0;
#X connect 9 0 10 0;
#X connect 10 0 12 1;
#X connect 10 0 11 1;
#X connect 11 0 2 0;
#X connect 12 0 2 1;
#X connect 13 0 17 0;
#X connect 13 1 16 0;
#X connect 14 0 13 1;
#X connect 15 0 13 0;
#X connect 16 0 12 0;
#X connect 17 0 11 0;
#X connect 18 0 16 1;
#X connect 18 0 17 1;
#X connect 19 0 6 0;
#X connect 20 0 22 1;
#X connect 20 0 21 1;
#X connect 21 0 11 0;
#X connect 22 0 12 0;
#X connect 23 0 25 0;
#X connect 24 0 9 0;
#X connect 25 0 20 0;
#X connect 26 0 27 0;
#X connect 27 0 18 0;
#X connect 28 0 24 0;
#X connect 29 0 23 0;
#X connect 30 0 26 0;
#X connect 31 0 32 0;
#X connect 32 0 33 1;
#X connect 32 0 34 1;
#X connect 33 0 11 0;
#X connect 34 0 12 0;
#X connect 35 0 31 0;
#X connect 36 0 33 0;
#X connect 36 1 34 0;
#X connect 37 0 35 0;
