#N canvas 284 158 824 590 24;
#X obj 233 405 osc~;
#X obj 234 495 dac~;
#X obj 233 12 tgl 15 0 empty empty empty 17 7 0 10 -262144 -1 -1 1
1;
#X obj 233 57 metro 300;
#X obj 358 60 random 1000;
#X floatatom 358 97 5 0 0 0 - - -;
#X obj 233 139 f;
#X obj 291 139 + 1;
#X msg 233 340 440;
#X msg 283 340 300;
#X msg 336 339 800;
#X msg 391 338 880;
#X msg 445 339 520;
#X obj 233 251 sel 0 1 2 3 4;
#X obj 233 192 mod 5;
#X obj 244 293 bng 15 250 50 0 empty empty empty 17 7 0 10 -262144
-1 -1;
#X obj 282 293 bng 15 250 50 0 empty empty empty 17 7 0 10 -262144
-1 -1;
#X obj 319 292 bng 15 250 50 0 empty empty empty 17 7 0 10 -262144
-1 -1;
#X obj 360 293 bng 15 250 50 0 empty empty empty 17 7 0 10 -262144
-1 -1;
#X obj 402 292 bng 15 250 50 0 empty empty empty 17 7 0 10 -262144
-1 -1;
#X floatatom 476 13 5 0 0 0 - - -;
#X connect 0 0 1 0;
#X connect 0 0 1 1;
#X connect 2 0 3 0;
#X connect 3 0 4 0;
#X connect 3 0 6 0;
#X connect 4 0 3 1;
#X connect 4 0 5 0;
#X connect 6 0 7 0;
#X connect 6 0 14 0;
#X connect 7 0 6 1;
#X connect 8 0 0 0;
#X connect 9 0 0 0;
#X connect 10 0 0 0;
#X connect 11 0 0 0;
#X connect 12 0 0 0;
#X connect 13 0 8 0;
#X connect 13 0 15 0;
#X connect 13 1 9 0;
#X connect 13 1 16 0;
#X connect 13 2 10 0;
#X connect 13 2 17 0;
#X connect 13 3 11 0;
#X connect 13 3 18 0;
#X connect 13 4 12 0;
#X connect 13 4 19 0;
#X connect 14 0 13 0;
#X connect 20 0 4 1;
