#N canvas 284 158 824 590 24;
#X obj 233 405 osc~;
#X obj 234 495 dac~;
#X obj 233 12 tgl 15 0 empty empty empty 17 7 0 10 -262144 -1 -1 1
1;
#X obj 233 57 metro 300;
#X obj 358 60 random 1000;
#X floatatom 358 97 5 0 0 0 - - -;
#X floatatom 256 247 5 0 0 0 - - -;
#X obj 233 201 random 3000;
#X connect 0 0 1 0;
#X connect 0 0 1 1;
#X connect 2 0 3 0;
#X connect 3 0 4 0;
#X connect 3 0 7 0;
#X connect 4 0 3 1;
#X connect 4 0 5 0;
#X connect 7 0 0 0;
#X connect 7 0 6 0;
