#N canvas 776 62 701 753 12;
#N canvas 0 50 450 300 (subpatch) 0;
#X array Left 6.67238e+006 float 2;
#X coords 0 1 6.67238e+006 -1 200 140 1 0 0;
#X restore 60 89 graph;
#N canvas 0 50 450 300 (subpatch) 0;
#X array Right 6.67238e+006 float 2;
#X coords 0 1 6.67238e+006 -1 200 140 1 0 0;
#X restore 59 275 graph;
#X obj 332 66 bng 40 250 50 0 empty empty empty 17 7 0 10 -4034 -1
-1;
#X obj 332 149 openpanel;
#X obj 332 381 soundfiler;
#X obj 368 201 print;
#X obj 377 490 phasor~;
#X obj 448 713 output~;
#X obj 385 630 tabread4~ Left;
#X obj 506 631 tabread4~ Right;
#X obj 359 515 *~;
#X obj 371 411 expr 44100 / $f1;
#X msg 334 304 read -resize \$1 Left Right;
#X msg 600 580 0;
#X msg 334 326 \; Right normalize 0.5 \; Left normalize 0.5;
#X connect 2 0 3 0;
#X connect 3 0 5 0;
#X connect 3 0 12 0;
#X connect 4 0 10 0;
#X connect 4 0 11 0;
#X connect 6 0 10 1;
#X connect 8 0 7 0;
#X connect 8 0 7 1;
#X connect 9 0 7 1;
#X connect 9 0 7 0;
#X connect 10 0 8 0;
#X connect 10 0 9 0;
#X connect 11 0 6 0;
#X connect 12 0 14 0;
#X connect 13 0 9 1;
#X connect 13 0 8 1;
#X connect 14 0 4 0;
