#N canvas 575 220 886 534 10;
#X obj 10 206 float;
#X obj 63 204 + 1;
#X obj 10 139 metro 500;
#X obj 10 49 t b b;
#X msg 11 11 start;
#X obj 37 173 0;
#X msg -60 36 stop;
#X floatatom 10 238 5 0 0 0 - - -;
#X floatatom 10 297 5 0 0 0 - - -;
#X obj 10 268 mod 8;
#X obj 9 321 sel 0 1 2 3 4 5 6 7;
#X obj -198 409 s stepOne;
#X obj -135 410 s stepTwo;
#X obj -73 409 s stepThree;
#X obj 3 409 s stepFour;
#X obj 73 409 s stepFive;
#X obj 143 409 s stepSix;
#X obj 207 409 s stepSeven;
#X obj 283 409 s stepEight;
#X floatatom 135 128 5 0 0 0 - - -;
#X obj 248 74 /;
#X msg 248 15 60000;
#X floatatom 302 172 5 0 0 0 - - -;
#X obj 111 128 bng 15 250 50 0 empty empty empty 17 7 0 10 -262144
-1 -1;
#X obj 258 44 t b f;
#X obj 248 -16 loadbang;
#X obj 83 -35 sel 1;
#X obj 112 104 tgl 15 0 empty empty empty 17 7 0 10 -66577 -262144
-1 1 1;
#X obj 151 -13 loadbang;
#X obj 189 285 send step;
#X obj -167 131 s seqStopMute;
#X obj -157 192 s seqStopUnmute;
#X obj -167 105 t b;
#X obj -157 171 t b;
#X msg 151 9 315;
#X text 131 102 start/stop;
#X obj 187 190 s tempo;
#X connect 0 0 1 0;
#X connect 0 0 7 0;
#X connect 1 0 0 1;
#X connect 2 0 0 0;
#X connect 2 0 23 0;
#X connect 3 0 2 0;
#X connect 3 1 5 0;
#X connect 4 0 3 0;
#X connect 4 0 33 0;
#X connect 5 0 0 1;
#X connect 6 0 2 0;
#X connect 6 0 32 0;
#X connect 7 0 9 0;
#X connect 8 0 10 0;
#X connect 9 0 8 0;
#X connect 9 0 29 0;
#X connect 10 0 11 0;
#X connect 10 1 12 0;
#X connect 10 2 13 0;
#X connect 10 3 14 0;
#X connect 10 4 15 0;
#X connect 10 5 16 0;
#X connect 10 6 17 0;
#X connect 10 7 18 0;
#X connect 19 0 24 0;
#X connect 20 0 2 1;
#X connect 20 0 36 0;
#X connect 20 0 22 0;
#X connect 21 0 20 0;
#X connect 24 0 20 0;
#X connect 24 1 20 1;
#X connect 25 0 21 0;
#X connect 26 0 4 0;
#X connect 26 1 6 0;
#X connect 27 0 26 0;
#X connect 28 0 34 0;
#X connect 32 0 30 0;
#X connect 33 0 31 0;
#X connect 34 0 19 0;
#X coords 0 -1 1 1 100 50 2 100 100;
