#N canvas 199 176 1270 742 10;
#X obj -221 352 osc~;
#X floatatom 129 117 5 0 0 0 - - -;
#X obj -221 311 +~;
#X obj -148 217 *~;
#X obj -148 179 osc~;
#X floatatom 129 146 5 0 0 0 - - -;
#X floatatom 130 176 5 0 0 0 - - -;
#X text -276 185 carrier;
#X text -154 118 modulator;
#X text -42 196 index;
#X obj -221 467 *~;
#X obj -146 438 line~;
#X obj -146 405 pack 0 50;
#N canvas 0 22 450 300 (subpatch) 0;
#X array FMScope 882 float 0;
#X coords 0 1 882 -1 200 130 1 0 0;
#X restore 214 134 graph;
#X obj -32 432 loadbang;
#X obj -32 456 1;
#X obj -33 479 metro 50;
#X obj -55 519 tabwrite~ FMScope;
#X obj -320 24 key;
#X obj -146 333 keyname;
#X floatatom -146 360 5 0 0 0 - - -;
#X obj -323 113 mtof;
#X obj -221 532 throw~ FM_wave;
#X obj 30 37 loadbang;
#X obj 86 39 loadbang;
#X obj 35 0 bng 15 250 50 0 empty empty empty 17 7 0 10 -262144 -1
-1;
#X obj -64 244 / 3;
#X obj 31 60 37;
#X obj 85 62 300;
#X connect 0 0 10 0;
#X connect 1 0 26 0;
#X connect 2 0 0 0;
#X connect 3 0 2 1;
#X connect 4 0 3 0;
#X connect 5 0 4 0;
#X connect 6 0 3 1;
#X connect 10 0 17 0;
#X connect 10 0 22 0;
#X connect 11 0 10 1;
#X connect 12 0 11 0;
#X connect 14 0 15 0;
#X connect 15 0 16 0;
#X connect 16 0 17 0;
#X connect 18 0 21 0;
#X connect 19 0 20 0;
#X connect 20 0 12 0;
#X connect 21 0 1 0;
#X connect 23 0 27 0;
#X connect 24 0 28 0;
#X connect 25 0 23 0;
#X connect 25 0 24 0;
#X connect 26 0 2 0;
#X connect 27 0 5 0;
#X connect 28 0 6 0;
#X coords 0 -1 1 1 350 200 1 100 100;
