#N canvas 579 227 960 570 10;
#N canvas 0 22 450 300 (subpatch) 0;
#X array \$0_signal 882 float 0;
#X coords 0 1 882 -1 200 130 1 0 0;
#X restore 231 120 graph;
#X obj 138 121 vu 15 120 empty empty -1 -8 0 10 -66577 -1 1 0;
#X obj 184 121 vu 15 120 empty empty -1 -8 0 10 -66577 -1 1 0;
#X obj 132 74 pvu~;
#X obj 132 25 inlet~;
#X obj 240 -29 loadbang;
#X obj 240 -5 1;
#X obj 30 72 outlet~;
#X obj 43 32 *~;
#X obj 112 120 vsl 15 120 0 127 0 0 empty empty empty 0 -9 0 10 -257985
-1 -1 0 1;
#X obj 58 1 / 127;
#X obj 239 18 metro 50;
#X obj 218 58 tabwrite~ \$0_signal;
#X connect 3 0 1 0;
#X connect 3 0 2 0;
#X connect 4 0 8 0;
#X connect 5 0 6 0;
#X connect 6 0 11 0;
#X connect 8 0 7 0;
#X connect 8 0 3 0;
#X connect 8 0 12 0;
#X connect 9 0 10 0;
#X connect 10 0 8 1;
#X connect 11 0 12 0;
#X coords 0 -1 1 1 350 180 1 100 100;
