#N canvas 572 186 450 300 10;
#X obj 51 100 outlet~;
#X obj -1 -30 noise~;
#X obj 51 41 vcf~;
#X text 238 -22 q;
#X floatatom 202 -21 5 0 0 0 - - -;
#X obj 202 -67 loadbang;
#X msg 202 -44 15;
#X obj 61 -125 inlet~;
#X obj 61 -58 mtof~;
#X connect 1 0 2 0;
#X connect 2 0 0 0;
#X connect 4 0 2 2;
#X connect 5 0 6 0;
#X connect 6 0 4 0;
#X connect 7 0 8 0;
#X connect 8 0 2 1;
