#N canvas 572 186 450 300 10;
#X obj 51 -41 mtof~;
#X obj 51 100 outlet~;
#X obj 51 -73 inlet~;
#X obj 51 -12 phasor~;
#X obj 51 13 -~ 0.5;
#X obj 51 48 *~ 2;
#X connect 0 0 3 0;
#X connect 2 0 0 0;
#X connect 3 0 4 0;
#X connect 4 0 5 0;
#X connect 5 0 1 0;
