#N canvas -8 -8 1920 997 10;
#X obj 1060 291 pow~;
#X obj 1060 140 noise~;
#X obj 1120 140 noise~;
#X obj 1060 159 hip~ 3000;
#X obj 1060 178 hip~ 3000;
#X obj 1060 197 hip~ 3000;
#X obj 1060 216 hip~ 3000;
#X obj 1120 159 hip~ 3000;
#X obj 1120 178 hip~ 3000;
#X obj 1120 197 hip~ 3000;
#X obj 1120 216 hip~ 3000;
#X obj 1186 140 noise~;
#X obj 1246 140 noise~;
#X obj 1186 159 hip~ 3000;
#X obj 1186 178 hip~ 3000;
#X obj 1186 197 hip~ 3000;
#X obj 1186 216 hip~ 3000;
#X obj 1246 159 hip~ 3000;
#X obj 1246 178 hip~ 3000;
#X obj 1246 197 hip~ 3000;
#X obj 1246 216 hip~ 3000;
#X obj 1060 235 abs~;
#X obj 1120 235 abs~;
#X obj 1186 235 abs~;
#X obj 1246 235 abs~;
#X obj 1060 386 tanh~;
#X obj 1186 386 tanh~;
#X obj 1060 367 hip~ 3000;
#X obj 1186 367 hip~ 3000;
#X obj 1060 424 *~;
#X obj 1186 424 *~;
#X obj 1120 332 random 100;
#X obj 1120 351 / 1000;
#X obj 1120 370 + 0.9;
#X obj 1120 408 line~;
#X obj 1120 389 pack 0 100;
#X obj 1246 332 random 100;
#X obj 1246 351 / 1000;
#X obj 1246 370 + 0.9;
#X obj 1246 408 line~;
#X obj 1246 389 pack 0 100;
#X obj 1186 291 pow~;
#X obj 1186 310 lop~ 2000;
#X obj 1060 310 lop~ 2000;
#X obj 1060 329 lop~ 2000;
#X obj 1186 329 lop~ 2000;
#X obj 1060 348 lop~ 2000;
#X obj 1186 348 lop~ 2000;
#X obj 394 209 hip~ 4000;
#X obj 728 42 pow~;
#X obj 729 -91 noise~;
#X obj 789 -91 noise~;
#X obj 729 -72 hip~ 3000;
#X obj 729 -53 hip~ 3000;
#X obj 729 -34 hip~ 3000;
#X obj 729 -15 hip~ 3000;
#X obj 789 -72 hip~ 3000;
#X obj 789 -53 hip~ 3000;
#X obj 789 -34 hip~ 3000;
#X obj 789 -15 hip~ 3000;
#X obj 916 -91 noise~;
#X obj 976 -91 noise~;
#X obj 916 -72 hip~ 3000;
#X obj 916 -53 hip~ 3000;
#X obj 916 -34 hip~ 3000;
#X obj 916 -15 hip~ 3000;
#X obj 976 -72 hip~ 3000;
#X obj 976 -53 hip~ 3000;
#X obj 976 -34 hip~ 3000;
#X obj 976 -15 hip~ 3000;
#X obj 729 4 abs~;
#X obj 789 4 abs~;
#X obj 916 4 abs~;
#X obj 976 4 abs~;
#X obj 728 137 tanh~;
#X obj 915 137 tanh~;
#X obj 728 118 hip~ 3000;
#X obj 915 118 hip~ 3000;
#X obj 728 175 *~;
#X obj 915 175 *~;
#X obj 788 83 random 100;
#X obj 788 102 / 1000;
#X obj 788 121 + 0.9;
#X obj 788 159 line~;
#X obj 788 140 pack 0 100;
#X obj 975 83 random 100;
#X obj 975 102 / 1000;
#X obj 975 121 + 0.9;
#X obj 975 159 line~;
#X obj 975 140 pack 0 100;
#X obj 915 42 pow~;
#X obj 915 61 lop~ 2000;
#X obj 728 61 lop~ 2000;
#X obj 728 80 lop~ 2000;
#X obj 915 80 lop~ 2000;
#X obj 728 99 lop~ 2000;
#X obj 915 99 lop~ 2000;
#X obj 793 191 *~ 0.5;
#X obj 855 191 *~ 0.5;
#X obj 1092 440 *~ 0.25;
#X obj 1256 440 *~ 0.25;
#X obj 728 551 *~ 0.5;
#X obj 824 551 *~ 0.5;
#X obj 824 532 lop~ 4000;
#X obj 728 532 lop~ 4000;
#X obj 247 285 / 1000;
#X obj 247 342 line~;
#X obj 538 286 / 1000;
#X obj 538 343 line~;
#X obj 207 358 *~;
#X obj 394 359 *~;
#X obj 207 228 lop~ 3700;
#X obj 394 228 lop~ 3700;
#X obj 207 209 lop~ 4000;
#X obj 727 334 -~;
#X obj 742 315 *~ 1;
#X obj 741 295 bp~ 600 2;
#X obj 728 265 noise~;
#X obj 823 334 -~;
#X obj 838 315 *~ 1;
#X obj 837 295 bp~ 600 2;
#X obj 824 265 noise~;
#X obj 752 433 *~ 0.5;
#X obj 848 433 *~ 0.5;
#X obj 1060 -190 pow~;
#X obj 1060 -341 noise~;
#X obj 1120 -341 noise~;
#X obj 1060 -322 hip~ 3000;
#X obj 1060 -303 hip~ 3000;
#X obj 1060 -284 hip~ 3000;
#X obj 1060 -265 hip~ 3000;
#X obj 1120 -322 hip~ 3000;
#X obj 1120 -303 hip~ 3000;
#X obj 1120 -284 hip~ 3000;
#X obj 1120 -265 hip~ 3000;
#X obj 1188 -339 noise~;
#X obj 1248 -339 noise~;
#X obj 1188 -320 hip~ 3000;
#X obj 1188 -301 hip~ 3000;
#X obj 1188 -282 hip~ 3000;
#X obj 1188 -263 hip~ 3000;
#X obj 1248 -320 hip~ 3000;
#X obj 1248 -301 hip~ 3000;
#X obj 1248 -282 hip~ 3000;
#X obj 1248 -263 hip~ 3000;
#X obj 1060 -246 abs~;
#X obj 1120 -246 abs~;
#X obj 1188 -244 abs~;
#X obj 1248 -244 abs~;
#X obj 1060 -95 tanh~;
#X obj 1187 -92 tanh~;
#X obj 1060 -114 hip~ 3000;
#X obj 1187 -111 hip~ 3000;
#X obj 1060 -57 *~;
#X obj 1186 -54 *~;
#X obj 1120 -149 random 100;
#X obj 1120 -130 / 1000;
#X obj 1120 -111 + 0.9;
#X obj 1120 -73 line~;
#X obj 1120 -92 pack 0 100;
#X obj 1247 -146 random 100;
#X obj 1247 -127 / 1000;
#X obj 1247 -108 + 0.9;
#X obj 1247 -70 line~;
#X obj 1247 -89 pack 0 100;
#X obj 1187 -187 pow~;
#X obj 1187 -168 lop~ 2000;
#X obj 1060 -171 lop~ 2000;
#X obj 1060 -152 lop~ 2000;
#X obj 1187 -149 lop~ 2000;
#X obj 1060 -133 lop~ 2000;
#X obj 1187 -130 lop~ 2000;
#X obj 1127 86 *~ 0.25;
#X obj 1127 -38 *~ 0.25;
#X obj 1060 102 lop~ 500;
#X obj 1186 102 lop~ 500;
#X obj 1186 -73 *~ 0.548;
#X obj 1060 -76 *~ 0.548;
#X obj 823 353 *~ 1.094;
#X obj 823 391 lop~ 100;
#X obj 727 391 lop~ 100;
#X obj 727 353 *~ 1.094;
#X obj 823 372 lop~ 300;
#X obj 727 372 lop~ 300;
#X obj 538 267 random 500;
#X obj 538 305 + 0.5;
#X obj 247 304 + 0.5;
#X obj 247 266 random 500;
#X obj 538 324 pack 0 850;
#X obj 247 323 pack 0 850;
#X obj 1186 405 *~ 0.058;
#X obj 1060 405 *~ 0.058;
#X obj 915 156 *~ 0.107;
#X obj 728 156 *~ 0.107;
#X obj 728 494 noise~;
#X obj 824 494 noise~;
#X obj 824 513 *~ 0.025;
#X obj 728 513 *~ 0.025;
#X obj 394 412 delwrite~ rain1 50;
#X obj 728 475 throw~ rainsum1;
#X obj 824 475 throw~ rainsum2;
#X obj 1060 121 throw~ rainsum1;
#X obj 1060 566 throw~ rainsum1;
#X obj 728 246 throw~ rainsum1;
#X obj 915 245 throw~ rainsum2;
#X obj 1185 566 throw~ rainsum2;
#X obj 1186 121 throw~ rainsum2;
#X obj 824 570 throw~ rainsum2;
#X obj 728 570 throw~ rainsum1;
#X obj 788 64 r 100metro;
#X obj 975 64 r 100metro;
#X obj 1246 313 r 100metro;
#X obj 1120 313 r 100metro;
#X obj 1247 -165 r 100metro;
#X obj 1120 -168 r 100metro;
#X obj 538 248 r 100metro;
#X obj 247 247 r 100metro;
#X obj 207 190 catch~ rainsum1;
#X obj 394 190 catch~ rainsum2;
#X obj 459 373 delread~ rain1 50;
#X obj 276 374 delread~ rain1 50;
#X obj 222 390 outlet~;
#X obj 408 390 outlet~;
#X obj 207 450 delwrite~ rain2 50;
#X connect 0 0 43 0;
#X connect 1 0 3 0;
#X connect 2 0 7 0;
#X connect 3 0 4 0;
#X connect 4 0 5 0;
#X connect 5 0 6 0;
#X connect 6 0 21 0;
#X connect 7 0 8 0;
#X connect 8 0 9 0;
#X connect 9 0 10 0;
#X connect 10 0 22 0;
#X connect 11 0 13 0;
#X connect 12 0 17 0;
#X connect 13 0 14 0;
#X connect 14 0 15 0;
#X connect 15 0 16 0;
#X connect 16 0 23 0;
#X connect 17 0 18 0;
#X connect 18 0 19 0;
#X connect 19 0 20 0;
#X connect 20 0 24 0;
#X connect 21 0 0 0;
#X connect 22 0 0 1;
#X connect 23 0 41 0;
#X connect 24 0 41 1;
#X connect 25 0 191 0;
#X connect 26 0 190 0;
#X connect 27 0 25 0;
#X connect 28 0 26 0;
#X connect 29 0 99 0;
#X connect 29 0 202 0;
#X connect 30 0 100 0;
#X connect 30 0 205 0;
#X connect 31 0 32 0;
#X connect 32 0 33 0;
#X connect 33 0 35 0;
#X connect 34 0 29 1;
#X connect 35 0 34 0;
#X connect 36 0 37 0;
#X connect 37 0 38 0;
#X connect 38 0 40 0;
#X connect 39 0 30 1;
#X connect 40 0 39 0;
#X connect 41 0 42 0;
#X connect 42 0 45 0;
#X connect 43 0 44 0;
#X connect 44 0 46 0;
#X connect 45 0 47 0;
#X connect 46 0 27 0;
#X connect 47 0 28 0;
#X connect 48 0 112 0;
#X connect 49 0 92 0;
#X connect 50 0 52 0;
#X connect 51 0 56 0;
#X connect 52 0 53 0;
#X connect 53 0 54 0;
#X connect 54 0 55 0;
#X connect 55 0 70 0;
#X connect 56 0 57 0;
#X connect 57 0 58 0;
#X connect 58 0 59 0;
#X connect 59 0 71 0;
#X connect 60 0 62 0;
#X connect 61 0 66 0;
#X connect 62 0 63 0;
#X connect 63 0 64 0;
#X connect 64 0 65 0;
#X connect 65 0 72 0;
#X connect 66 0 67 0;
#X connect 67 0 68 0;
#X connect 68 0 69 0;
#X connect 69 0 73 0;
#X connect 70 0 49 0;
#X connect 71 0 49 1;
#X connect 72 0 90 0;
#X connect 73 0 90 1;
#X connect 74 0 193 0;
#X connect 75 0 192 0;
#X connect 76 0 74 0;
#X connect 77 0 75 0;
#X connect 78 0 97 0;
#X connect 78 0 203 0;
#X connect 79 0 98 0;
#X connect 79 0 204 0;
#X connect 80 0 81 0;
#X connect 81 0 82 0;
#X connect 82 0 84 0;
#X connect 83 0 78 1;
#X connect 84 0 83 0;
#X connect 85 0 86 0;
#X connect 86 0 87 0;
#X connect 87 0 89 0;
#X connect 88 0 79 1;
#X connect 89 0 88 0;
#X connect 90 0 91 0;
#X connect 91 0 94 0;
#X connect 92 0 93 0;
#X connect 93 0 95 0;
#X connect 94 0 96 0;
#X connect 95 0 76 0;
#X connect 96 0 77 0;
#X connect 97 0 204 0;
#X connect 98 0 203 0;
#X connect 99 0 205 0;
#X connect 100 0 202 0;
#X connect 101 0 208 0;
#X connect 102 0 207 0;
#X connect 103 0 102 0;
#X connect 104 0 101 0;
#X connect 105 0 186 0;
#X connect 106 0 109 1;
#X connect 107 0 185 0;
#X connect 108 0 110 1;
#X connect 109 0 221 0;
#X connect 109 0 223 0;
#X connect 110 0 198 0;
#X connect 110 0 222 0;
#X connect 111 0 109 0;
#X connect 112 0 110 0;
#X connect 113 0 111 0;
#X connect 114 0 181 0;
#X connect 115 0 114 1;
#X connect 116 0 115 0;
#X connect 117 0 116 0;
#X connect 117 0 114 0;
#X connect 118 0 178 0;
#X connect 119 0 118 1;
#X connect 120 0 119 0;
#X connect 121 0 120 0;
#X connect 121 0 118 0;
#X connect 122 0 200 0;
#X connect 123 0 199 0;
#X connect 124 0 167 0;
#X connect 125 0 127 0;
#X connect 126 0 131 0;
#X connect 127 0 128 0;
#X connect 128 0 129 0;
#X connect 129 0 130 0;
#X connect 130 0 145 0;
#X connect 131 0 132 0;
#X connect 132 0 133 0;
#X connect 133 0 134 0;
#X connect 134 0 146 0;
#X connect 135 0 137 0;
#X connect 136 0 141 0;
#X connect 137 0 138 0;
#X connect 138 0 139 0;
#X connect 139 0 140 0;
#X connect 140 0 147 0;
#X connect 141 0 142 0;
#X connect 142 0 143 0;
#X connect 143 0 144 0;
#X connect 144 0 148 0;
#X connect 145 0 124 0;
#X connect 146 0 124 1;
#X connect 147 0 165 0;
#X connect 148 0 165 1;
#X connect 149 0 177 0;
#X connect 150 0 176 0;
#X connect 151 0 149 0;
#X connect 152 0 150 0;
#X connect 153 0 172 0;
#X connect 153 0 174 0;
#X connect 154 0 173 0;
#X connect 154 0 175 0;
#X connect 155 0 156 0;
#X connect 156 0 157 0;
#X connect 157 0 159 0;
#X connect 158 0 153 1;
#X connect 159 0 158 0;
#X connect 160 0 161 0;
#X connect 161 0 162 0;
#X connect 162 0 164 0;
#X connect 163 0 154 1;
#X connect 164 0 163 0;
#X connect 165 0 166 0;
#X connect 166 0 169 0;
#X connect 167 0 168 0;
#X connect 168 0 170 0;
#X connect 169 0 171 0;
#X connect 170 0 151 0;
#X connect 171 0 152 0;
#X connect 172 0 175 0;
#X connect 173 0 174 0;
#X connect 174 0 201 0;
#X connect 175 0 206 0;
#X connect 176 0 154 0;
#X connect 177 0 153 0;
#X connect 178 0 182 0;
#X connect 179 0 123 0;
#X connect 179 0 200 0;
#X connect 180 0 122 0;
#X connect 180 0 199 0;
#X connect 181 0 183 0;
#X connect 182 0 179 0;
#X connect 183 0 180 0;
#X connect 184 0 107 0;
#X connect 185 0 188 0;
#X connect 186 0 189 0;
#X connect 187 0 105 0;
#X connect 188 0 108 0;
#X connect 189 0 106 0;
#X connect 190 0 30 0;
#X connect 191 0 29 0;
#X connect 192 0 79 0;
#X connect 193 0 78 0;
#X connect 194 0 197 0;
#X connect 195 0 196 0;
#X connect 196 0 103 0;
#X connect 197 0 104 0;
#X connect 209 0 80 0;
#X connect 210 0 85 0;
#X connect 211 0 36 0;
#X connect 212 0 31 0;
#X connect 213 0 160 0;
#X connect 214 0 155 0;
#X connect 215 0 184 0;
#X connect 216 0 187 0;
#X connect 217 0 113 0;
#X connect 218 0 48 0;
#X connect 219 0 222 0;
#X connect 220 0 221 0;
