#N canvas -8 -8 1920 997 10;
#X obj 351 -128 pow~;
#X obj 313 -262 noise~;
#X obj 373 -262 noise~;
#X obj 313 -243 hip~ 3000;
#X obj 313 -223 hip~ 3000;
#X obj 313 -203 hip~ 3000;
#X obj 313 -183 hip~ 3000;
#X obj 373 -243 hip~ 3000;
#X obj 373 -223 hip~ 3000;
#X obj 373 -203 hip~ 3000;
#X obj 373 -183 hip~ 3000;
#X obj 88 631 output~;
#X obj 433 -264 noise~;
#X obj 493 -264 noise~;
#X obj 433 -245 hip~ 3000;
#X obj 433 -225 hip~ 3000;
#X obj 433 -205 hip~ 3000;
#X obj 433 -185 hip~ 3000;
#X obj 493 -245 hip~ 3000;
#X obj 493 -225 hip~ 3000;
#X obj 493 -205 hip~ 3000;
#X obj 493 -185 hip~ 3000;
#X obj 313 -164 abs~;
#X obj 373 -164 abs~;
#X obj 433 -166 abs~;
#X obj 493 -166 abs~;
#X obj 351 -33 tanh~;
#X obj 432 -33 tanh~;
#X obj 351 -52 hip~ 3000;
#X obj 432 -52 hip~ 3000;
#X obj 187 367 catch~ out2;
#X obj 115 367 catch~ out1;
#X obj -117 -253 loadbang;
#X obj -47 -250 bng 15 250 50 0 empty empty empty 17 7 0 10 -262144
-1 -1;
#X obj -117 -214 s randmet;
#X obj 351 28 *~;
#X obj 431 28 *~;
#X obj 265 37 r randmet;
#X obj 265 56 random 100;
#X obj 265 75 / 1000;
#X obj 265 94 + 0.9;
#X obj 265 132 line~;
#X obj 265 113 pack 0 100;
#X obj 511 32 r randmet;
#X obj 511 51 random 100;
#X obj 511 70 / 1000;
#X obj 511 89 + 0.9;
#X obj 511 127 line~;
#X obj 511 108 pack 0 100;
#X obj 432 -128 pow~;
#X obj -117 -233 metro 100;
#X obj 432 -109 lop~ 2000;
#X obj 351 -109 lop~ 2000;
#X obj 351 -90 lop~ 2000;
#X obj 432 -90 lop~ 2000;
#X obj 351 -71 lop~ 2000;
#X obj 432 -71 lop~ 2000;
#X obj 72 461 hip~ 4000;
#X obj 12 461 hip~ 4000;
#X obj 691 -131 pow~;
#X obj 653 -265 noise~;
#X obj 713 -265 noise~;
#X obj 653 -246 hip~ 3000;
#X obj 653 -226 hip~ 3000;
#X obj 653 -206 hip~ 3000;
#X obj 653 -186 hip~ 3000;
#X obj 713 -246 hip~ 3000;
#X obj 713 -226 hip~ 3000;
#X obj 713 -206 hip~ 3000;
#X obj 713 -186 hip~ 3000;
#X obj 773 -267 noise~;
#X obj 833 -267 noise~;
#X obj 773 -248 hip~ 3000;
#X obj 773 -228 hip~ 3000;
#X obj 773 -208 hip~ 3000;
#X obj 773 -188 hip~ 3000;
#X obj 833 -248 hip~ 3000;
#X obj 833 -228 hip~ 3000;
#X obj 833 -208 hip~ 3000;
#X obj 833 -188 hip~ 3000;
#X obj 653 -167 abs~;
#X obj 713 -167 abs~;
#X obj 773 -169 abs~;
#X obj 833 -169 abs~;
#X obj 691 -36 tanh~;
#X obj 772 -36 tanh~;
#X obj 691 -55 hip~ 3000;
#X obj 772 -55 hip~ 3000;
#X obj 691 25 *~;
#X obj 771 25 *~;
#X obj 605 34 r randmet;
#X obj 605 53 random 100;
#X obj 605 72 / 1000;
#X obj 605 91 + 0.9;
#X obj 605 129 line~;
#X obj 605 110 pack 0 100;
#X obj 851 29 r randmet;
#X obj 851 48 random 100;
#X obj 851 67 / 1000;
#X obj 851 86 + 0.9;
#X obj 851 124 line~;
#X obj 851 105 pack 0 100;
#X obj 772 -131 pow~;
#X obj 772 -112 lop~ 2000;
#X obj 691 -112 lop~ 2000;
#X obj 691 -93 lop~ 2000;
#X obj 772 -93 lop~ 2000;
#X obj 691 -74 lop~ 2000;
#X obj 772 -74 lop~ 2000;
#X obj 1321 -41 noise~;
#X obj 1381 -41 noise~;
#X obj 1441 -43 noise~;
#X obj 1501 -43 noise~;
#X obj 1540 121 knob 32 32 0 1 0 0 empty empty empty 0 -8 0 8 -262144
-1 -1 0 1;
#X obj 1540 167 pack 0 50;
#X obj 1359 434 *~;
#X obj 1439 434 *~;
#X obj 1540 192 line~;
#X obj 1359 188 tanh~;
#X obj 1440 188 tanh~;
#X obj 1440 207 clip~ -0.3 0.3;
#X obj 1359 453 *~;
#X obj 1439 453 *~;
#X obj 1523 349 r randmet;
#X obj 1523 368 random 100;
#X obj 1523 387 / 1000;
#X obj 1523 406 + 0.9;
#X obj 1523 444 line~;
#X obj 1523 425 pack 0 100;
#X obj 1599 352 r randmet;
#X obj 1599 371 random 100;
#X obj 1599 390 / 1000;
#X obj 1599 409 + 0.9;
#X obj 1599 447 line~;
#X obj 1599 428 pack 0 100;
#X obj 1440 93 pow~;
#X obj 1359 93 pow~;
#X obj 1440 150 lop~ 500;
#X obj 1440 131 lop~ 500;
#X obj 1440 112 lop~ 500;
#X obj 1359 112 lop~ 500;
#X obj 1359 131 lop~ 500;
#X obj 1359 150 lop~ 500;
#X obj 1359 169 hip~ 500;
#X obj 1441 169 hip~ 500;
#X obj 1440 257 bp~ 4500 2.5;
#X obj 1359 257 bp~ 4500 2.5;
#X obj 1008 -36 noise~;
#X obj 1068 -36 noise~;
#X obj 1128 -38 noise~;
#X obj 1188 -38 noise~;
#X obj 1227 126 knob 32 32 0 1 0 0 empty empty empty 0 -8 0 8 -262144
-1 -1 0 1;
#X obj 1227 172 pack 0 50;
#X obj 1046 344 *~;
#X obj 1126 344 *~;
#X obj 1227 197 line~;
#X obj 1046 193 tanh~;
#X obj 1127 193 tanh~;
#X obj 1127 212 clip~ -0.3 0.3;
#X obj 1045 231 clip~ -0.3 0.3;
#X obj 1046 363 *~;
#X obj 1126 363 *~;
#X obj 1210 259 r randmet;
#X obj 1210 278 random 100;
#X obj 1210 297 / 1000;
#X obj 1210 316 + 0.9;
#X obj 1210 354 line~;
#X obj 1210 335 pack 0 100;
#X obj 1286 262 r randmet;
#X obj 1286 281 random 100;
#X obj 1286 300 / 1000;
#X obj 1286 319 + 0.9;
#X obj 1286 357 line~;
#X obj 1286 338 pack 0 100;
#X obj 1127 98 pow~;
#X obj 1046 98 pow~;
#X obj 1127 155 lop~ 500;
#X obj 1127 136 lop~ 500;
#X obj 1127 117 lop~ 500;
#X obj 1046 117 lop~ 500;
#X obj 1046 136 lop~ 500;
#X obj 1046 155 lop~ 500;
#X obj 1046 174 hip~ 500;
#X obj 1128 174 hip~ 500;
#X obj 1127 262 bp~ 4500 2.5;
#X obj 1046 262 bp~ 4500 2.5;
#X obj 1360 471 hip~ 2500;
#X obj 1439 472 hip~ 2500;
#X obj -30 367 catch~ out3;
#X obj 42 367 catch~ out4;
#X obj 1126 397 hip~ 2000;
#X obj 1047 396 hip~ 2000;
#X obj 708 111 *~ 0.5;
#X obj 788 111 *~ 0.5;
#X obj 452 112 *~ 0.25;
#X obj 372 112 *~ 0.25;
#X obj 1060 422 *~ 0.25;
#X obj 1140 422 *~ 0.25;
#X obj 1370 492 *~ 0.25;
#X obj 1450 492 *~ 0.25;
#X obj 906 217 knob 32 32 0 1 0 0 empty empty empty 0 -8 0 8 -262144
-1 -1 3100 1;
#X obj 906 263 pack 0 50;
#X obj 906 288 line~;
#X obj 725 398 *~ 0.5;
#X obj 805 398 *~ 0.5;
#X obj 799 356 lop~ 4000;
#X obj 719 356 lop~ 4000;
#X obj -76 508 r randmet;
#X obj -76 546 / 1000;
#X obj -76 603 line~;
#X obj 218 529 r randmet;
#X obj 218 567 / 1000;
#X obj 218 624 line~;
#X obj 80 572 *~;
#X obj 140 572 *~;
#X obj 82 521 lop~ 3700;
#X obj 142 521 lop~ 3700;
#X obj 132 461 lop~ 4000;
#X obj 192 461 lop~ 4000;
#X floatatom 955 236 5 0 0 0 - - -;
#X obj 561 292 -~;
#X obj 576 270 *~ 1;
#X obj 575 250 bp~ 600 2;
#X obj 572 207 noise~;
#X obj 631 292 -~;
#X obj 646 270 *~ 1;
#X obj 645 250 bp~ 600 2;
#X obj 642 207 noise~;
#X obj 541 529 *~ 0.5;
#X obj 621 529 *~ 0.5;
#X obj 31 -119 pow~;
#X obj -7 -253 noise~;
#X obj 53 -253 noise~;
#X obj -7 -234 hip~ 3000;
#X obj -7 -214 hip~ 3000;
#X obj -7 -194 hip~ 3000;
#X obj -7 -174 hip~ 3000;
#X obj 53 -234 hip~ 3000;
#X obj 53 -214 hip~ 3000;
#X obj 53 -194 hip~ 3000;
#X obj 53 -174 hip~ 3000;
#X obj 113 -255 noise~;
#X obj 173 -255 noise~;
#X obj 113 -236 hip~ 3000;
#X obj 113 -216 hip~ 3000;
#X obj 113 -196 hip~ 3000;
#X obj 113 -176 hip~ 3000;
#X obj 173 -236 hip~ 3000;
#X obj 173 -216 hip~ 3000;
#X obj 173 -196 hip~ 3000;
#X obj 173 -176 hip~ 3000;
#X obj -7 -155 abs~;
#X obj 53 -155 abs~;
#X obj 113 -157 abs~;
#X obj 173 -157 abs~;
#X obj 31 -24 tanh~;
#X obj 112 -24 tanh~;
#X obj 31 -43 hip~ 3000;
#X obj 112 -43 hip~ 3000;
#X obj 31 37 *~;
#X obj 111 37 *~;
#X obj -55 46 r randmet;
#X obj -55 65 random 100;
#X obj -55 84 / 1000;
#X obj -55 103 + 0.9;
#X obj -55 141 line~;
#X obj -55 122 pack 0 100;
#X obj 191 41 r randmet;
#X obj 191 60 random 100;
#X obj 191 79 / 1000;
#X obj 191 98 + 0.9;
#X obj 191 136 line~;
#X obj 191 117 pack 0 100;
#X obj 112 -119 pow~;
#X obj 112 -100 lop~ 2000;
#X obj 31 -100 lop~ 2000;
#X obj 31 -81 lop~ 2000;
#X obj 112 -81 lop~ 2000;
#X obj 31 -62 lop~ 2000;
#X obj 112 -62 lop~ 2000;
#X obj 132 121 *~ 0.25;
#X obj 52 121 *~ 0.25;
#X obj 31 196 lop~ 500;
#X obj 111 196 lop~ 500;
#X obj 111 17 *~ 0.548;
#X obj 31 17 *~ 0.548;
#X obj 1358 226 clip~ -0.1 0.1;
#X obj 1359 548 throw~ out1;
#X obj 1439 548 throw~ out2;
#X obj 1046 463 throw~ out3;
#X obj 1126 463 throw~ out4;
#X obj 630 324 *~ 1.094;
#X obj 615 487 lop~ 100;
#X obj 535 487 lop~ 100;
#X obj 560 324 *~ 1.094;
#X obj 615 467 lop~ 300;
#X obj 535 467 lop~ 300;
#X obj 1505 289 noise~;
#X obj 1462 326 -~;
#X obj 1405 289 noise~;
#X obj 1362 326 -~;
#X obj 1505 308 *~ 0.01;
#X obj 1405 308 *~ 0.01;
#X obj 218 548 random 500;
#X obj 218 586 + 0.5;
#X obj -76 565 + 0.5;
#X obj -76 527 random 500;
#X obj 218 605 pack 0 850;
#X obj -76 584 pack 0 850;
#X obj 431 8 *~ 0.058;
#X obj 351 8 *~ 0.058;
#X obj 744 323 *~ 0.015;
#X obj 530 574 throw~ out1;
#X obj 610 574 throw~ out2;
#X obj 31 215 throw~ out1;
#X obj 111 215 throw~ out2;
#X obj 351 147 throw~ out1;
#X obj 431 147 throw~ out2;
#X obj 692 143 throw~ out3;
#X obj 780 142 throw~ out4;
#X obj 771 5 *~ 0.107;
#X obj 691 5 *~ 0.107;
#X obj 756 206 noise~;
#X obj 826 206 noise~;
#X obj 816 325 *~ 0.015;
#X obj 794 443 throw~ out2;
#X obj 714 443 throw~ out1;
#X connect 0 0 52 0;
#X connect 1 0 3 0;
#X connect 2 0 7 0;
#X connect 3 0 4 0;
#X connect 4 0 5 0;
#X connect 5 0 6 0;
#X connect 6 0 22 0;
#X connect 7 0 8 0;
#X connect 8 0 9 0;
#X connect 9 0 10 0;
#X connect 10 0 23 0;
#X connect 12 0 14 0;
#X connect 13 0 18 0;
#X connect 14 0 15 0;
#X connect 15 0 16 0;
#X connect 16 0 17 0;
#X connect 17 0 24 0;
#X connect 18 0 19 0;
#X connect 19 0 20 0;
#X connect 20 0 21 0;
#X connect 21 0 25 0;
#X connect 22 0 0 0;
#X connect 23 0 0 1;
#X connect 24 0 49 0;
#X connect 25 0 49 1;
#X connect 26 0 310 0;
#X connect 27 0 309 0;
#X connect 28 0 26 0;
#X connect 29 0 27 0;
#X connect 30 0 218 0;
#X connect 31 0 217 0;
#X connect 32 0 50 0;
#X connect 33 0 50 0;
#X connect 35 0 194 0;
#X connect 35 0 316 0;
#X connect 36 0 195 0;
#X connect 36 0 317 0;
#X connect 37 0 38 0;
#X connect 38 0 39 0;
#X connect 39 0 40 0;
#X connect 40 0 42 0;
#X connect 41 0 35 1;
#X connect 42 0 41 0;
#X connect 43 0 44 0;
#X connect 44 0 45 0;
#X connect 45 0 46 0;
#X connect 46 0 48 0;
#X connect 47 0 36 1;
#X connect 48 0 47 0;
#X connect 49 0 51 0;
#X connect 50 0 34 0;
#X connect 51 0 54 0;
#X connect 52 0 53 0;
#X connect 53 0 55 0;
#X connect 54 0 56 0;
#X connect 55 0 28 0;
#X connect 56 0 29 0;
#X connect 57 0 216 0;
#X connect 58 0 215 0;
#X connect 59 0 104 0;
#X connect 60 0 62 0;
#X connect 61 0 66 0;
#X connect 62 0 63 0;
#X connect 63 0 64 0;
#X connect 64 0 65 0;
#X connect 65 0 80 0;
#X connect 66 0 67 0;
#X connect 67 0 68 0;
#X connect 68 0 69 0;
#X connect 69 0 81 0;
#X connect 70 0 72 0;
#X connect 71 0 76 0;
#X connect 72 0 73 0;
#X connect 73 0 74 0;
#X connect 74 0 75 0;
#X connect 75 0 82 0;
#X connect 76 0 77 0;
#X connect 77 0 78 0;
#X connect 78 0 79 0;
#X connect 79 0 83 0;
#X connect 80 0 59 0;
#X connect 81 0 59 1;
#X connect 82 0 102 0;
#X connect 83 0 102 1;
#X connect 84 0 321 0;
#X connect 85 0 320 0;
#X connect 86 0 84 0;
#X connect 87 0 85 0;
#X connect 88 0 192 0;
#X connect 88 0 318 0;
#X connect 89 0 193 0;
#X connect 90 0 91 0;
#X connect 91 0 92 0;
#X connect 92 0 93 0;
#X connect 93 0 95 0;
#X connect 94 0 88 1;
#X connect 95 0 94 0;
#X connect 96 0 97 0;
#X connect 97 0 98 0;
#X connect 98 0 99 0;
#X connect 99 0 101 0;
#X connect 100 0 89 1;
#X connect 101 0 100 0;
#X connect 102 0 103 0;
#X connect 103 0 106 0;
#X connect 104 0 105 0;
#X connect 105 0 107 0;
#X connect 106 0 108 0;
#X connect 107 0 86 0;
#X connect 108 0 87 0;
#X connect 109 0 136 0;
#X connect 110 0 136 1;
#X connect 111 0 135 0;
#X connect 112 0 135 1;
#X connect 113 0 114 0;
#X connect 114 0 117 0;
#X connect 115 0 121 0;
#X connect 116 0 122 0;
#X connect 117 0 116 1;
#X connect 117 0 115 1;
#X connect 118 0 286 0;
#X connect 119 0 120 0;
#X connect 120 0 145 0;
#X connect 121 0 186 0;
#X connect 122 0 187 0;
#X connect 123 0 124 0;
#X connect 124 0 125 0;
#X connect 125 0 126 0;
#X connect 126 0 128 0;
#X connect 127 0 121 1;
#X connect 128 0 127 0;
#X connect 129 0 130 0;
#X connect 130 0 131 0;
#X connect 131 0 132 0;
#X connect 132 0 134 0;
#X connect 133 0 122 1;
#X connect 134 0 133 0;
#X connect 135 0 139 0;
#X connect 136 0 140 0;
#X connect 137 0 144 0;
#X connect 138 0 137 0;
#X connect 139 0 138 0;
#X connect 140 0 141 0;
#X connect 141 0 142 0;
#X connect 142 0 143 0;
#X connect 143 0 118 0;
#X connect 144 0 119 0;
#X connect 145 0 298 0;
#X connect 146 0 300 0;
#X connect 147 0 175 0;
#X connect 148 0 175 1;
#X connect 149 0 174 0;
#X connect 150 0 174 1;
#X connect 151 0 152 0;
#X connect 152 0 155 0;
#X connect 153 0 160 0;
#X connect 154 0 161 0;
#X connect 155 0 154 1;
#X connect 155 0 153 1;
#X connect 156 0 159 0;
#X connect 157 0 158 0;
#X connect 158 0 184 0;
#X connect 159 0 185 0;
#X connect 160 0 191 0;
#X connect 161 0 190 0;
#X connect 162 0 163 0;
#X connect 163 0 164 0;
#X connect 164 0 165 0;
#X connect 165 0 167 0;
#X connect 166 0 160 1;
#X connect 167 0 166 0;
#X connect 168 0 169 0;
#X connect 169 0 170 0;
#X connect 170 0 171 0;
#X connect 171 0 173 0;
#X connect 172 0 161 1;
#X connect 173 0 172 0;
#X connect 174 0 178 0;
#X connect 175 0 179 0;
#X connect 176 0 183 0;
#X connect 177 0 176 0;
#X connect 178 0 177 0;
#X connect 179 0 180 0;
#X connect 180 0 181 0;
#X connect 181 0 182 0;
#X connect 182 0 156 0;
#X connect 183 0 157 0;
#X connect 184 0 154 0;
#X connect 185 0 153 0;
#X connect 186 0 198 0;
#X connect 186 0 287 0;
#X connect 187 0 199 0;
#X connect 187 0 288 0;
#X connect 188 0 58 0;
#X connect 189 0 57 0;
#X connect 190 0 197 0;
#X connect 190 0 290 0;
#X connect 191 0 196 0;
#X connect 191 0 289 0;
#X connect 192 0 319 0;
#X connect 193 0 318 0;
#X connect 193 0 319 0;
#X connect 194 0 316 0;
#X connect 195 0 317 0;
#X connect 196 0 290 0;
#X connect 197 0 289 0;
#X connect 198 0 288 0;
#X connect 199 0 287 0;
#X connect 200 0 201 0;
#X connect 200 0 219 0;
#X connect 201 0 202 0;
#X connect 202 0 311 1;
#X connect 202 0 324 1;
#X connect 205 0 204 0;
#X connect 206 0 203 0;
#X connect 207 0 306 0;
#X connect 208 0 305 0;
#X connect 209 0 213 0;
#X connect 210 0 303 0;
#X connect 211 0 304 0;
#X connect 212 0 214 1;
#X connect 213 0 11 0;
#X connect 214 0 11 1;
#X connect 215 0 213 1;
#X connect 216 0 214 0;
#X connect 217 0 215 0;
#X connect 218 0 216 0;
#X connect 220 0 294 0;
#X connect 221 0 220 1;
#X connect 222 0 221 0;
#X connect 223 0 222 0;
#X connect 223 0 220 0;
#X connect 224 0 291 0;
#X connect 225 0 224 1;
#X connect 226 0 225 0;
#X connect 227 0 226 0;
#X connect 227 0 224 0;
#X connect 228 0 313 0;
#X connect 229 0 312 0;
#X connect 230 0 275 0;
#X connect 231 0 233 0;
#X connect 232 0 237 0;
#X connect 233 0 234 0;
#X connect 234 0 235 0;
#X connect 235 0 236 0;
#X connect 236 0 251 0;
#X connect 237 0 238 0;
#X connect 238 0 239 0;
#X connect 239 0 240 0;
#X connect 240 0 252 0;
#X connect 241 0 243 0;
#X connect 242 0 247 0;
#X connect 243 0 244 0;
#X connect 244 0 245 0;
#X connect 245 0 246 0;
#X connect 246 0 253 0;
#X connect 247 0 248 0;
#X connect 248 0 249 0;
#X connect 249 0 250 0;
#X connect 250 0 254 0;
#X connect 251 0 230 0;
#X connect 252 0 230 1;
#X connect 253 0 273 0;
#X connect 254 0 273 1;
#X connect 255 0 285 0;
#X connect 256 0 284 0;
#X connect 257 0 255 0;
#X connect 258 0 256 0;
#X connect 259 0 280 0;
#X connect 259 0 282 0;
#X connect 260 0 281 0;
#X connect 260 0 283 0;
#X connect 261 0 262 0;
#X connect 262 0 263 0;
#X connect 263 0 264 0;
#X connect 264 0 266 0;
#X connect 265 0 259 1;
#X connect 266 0 265 0;
#X connect 267 0 268 0;
#X connect 268 0 269 0;
#X connect 269 0 270 0;
#X connect 270 0 272 0;
#X connect 271 0 260 1;
#X connect 272 0 271 0;
#X connect 273 0 274 0;
#X connect 274 0 277 0;
#X connect 275 0 276 0;
#X connect 276 0 278 0;
#X connect 277 0 279 0;
#X connect 278 0 257 0;
#X connect 279 0 258 0;
#X connect 280 0 282 0;
#X connect 281 0 283 0;
#X connect 282 0 314 0;
#X connect 283 0 315 0;
#X connect 284 0 260 0;
#X connect 285 0 259 0;
#X connect 286 0 146 0;
#X connect 291 0 295 0;
#X connect 292 0 229 0;
#X connect 292 0 313 0;
#X connect 293 0 228 0;
#X connect 293 0 312 0;
#X connect 294 0 296 0;
#X connect 295 0 292 0;
#X connect 297 0 301 0;
#X connect 298 0 116 0;
#X connect 299 0 302 0;
#X connect 300 0 115 0;
#X connect 301 0 298 1;
#X connect 302 0 300 1;
#X connect 303 0 211 0;
#X connect 304 0 307 0;
#X connect 305 0 308 0;
#X connect 306 0 208 0;
#X connect 307 0 212 0;
#X connect 308 0 209 0;
#X connect 309 0 36 0;
#X connect 310 0 35 0;
#X connect 311 0 206 0;
#X connect 320 0 89 0;
#X connect 321 0 88 0;
#X connect 322 0 311 0;
#X connect 323 0 324 0;
#X connect 324 0 205 0;
