#N canvas 0 50 578 300 10;
#X obj 325 67 noise~;
#X obj 325 181 line;
#X obj 325 124 +~ 0.9;
#X obj 325 86 abs~;
#X obj 325 143 snapshot~;
#X obj 394 67 noise~;
#X obj 394 181 line;
#X obj 394 124 +~ 0.9;
#X obj 394 86 abs~;
#X obj 394 143 snapshot~;
#X obj 256 67 noise~;
#X obj 256 181 line;
#X obj 256 124 +~ 0.9;
#X obj 256 86 abs~;
#X obj 256 143 snapshot~;
#X obj 187 67 noise~;
#X obj 187 181 line;
#X obj 187 124 +~ 0.9;
#X obj 187 86 abs~;
#X obj 187 143 snapshot~;
#X obj 49 67 noise~;
#X obj 49 181 line;
#X obj 49 124 +~ 0.9;
#X obj 49 86 abs~;
#X obj 49 143 snapshot~;
#X obj 118 67 noise~;
#X obj 118 181 line;
#X obj 118 124 +~ 0.9;
#X obj 118 86 abs~;
#X obj 118 143 snapshot~;
#X msg 187 162 \$1 100;
#X msg 49 162 \$1 100;
#X msg 118 162 \$1 100;
#X msg 394 162 \$1 100;
#X msg 325 162 \$1 100;
#X msg 256 162 \$1 100;
#X obj 256 105 *~ 0.2;
#X obj 187 105 *~ 0.2;
#X obj 325 105 *~ 0.2;
#X obj 394 105 *~ 0.2;
#X obj 118 105 *~ 0.2;
#X obj 49 105 *~ 0.2;
#X obj 49 200 outlet;
#X obj 118 200 outlet;
#X obj 187 200 outlet;
#X obj 256 200 outlet;
#X obj 325 200 outlet;
#X obj 394 200 outlet;
#X obj 480 126 inlet;
#X connect 0 0 3 0;
#X connect 1 0 46 0;
#X connect 2 0 4 0;
#X connect 3 0 38 0;
#X connect 4 0 34 0;
#X connect 5 0 8 0;
#X connect 6 0 47 0;
#X connect 7 0 9 0;
#X connect 8 0 39 0;
#X connect 9 0 33 0;
#X connect 10 0 13 0;
#X connect 11 0 45 0;
#X connect 12 0 14 0;
#X connect 13 0 36 0;
#X connect 14 0 35 0;
#X connect 15 0 18 0;
#X connect 16 0 44 0;
#X connect 17 0 19 0;
#X connect 18 0 37 0;
#X connect 19 0 30 0;
#X connect 20 0 23 0;
#X connect 21 0 42 0;
#X connect 22 0 24 0;
#X connect 23 0 41 0;
#X connect 24 0 31 0;
#X connect 25 0 28 0;
#X connect 26 0 43 0;
#X connect 27 0 29 0;
#X connect 28 0 40 0;
#X connect 29 0 32 0;
#X connect 30 0 16 0;
#X connect 31 0 21 0;
#X connect 32 0 26 0;
#X connect 33 0 6 0;
#X connect 34 0 1 0;
#X connect 35 0 11 0;
#X connect 36 0 12 0;
#X connect 37 0 17 0;
#X connect 38 0 2 0;
#X connect 39 0 7 0;
#X connect 40 0 27 0;
#X connect 41 0 22 0;
#X connect 48 0 24 0;
#X connect 48 0 29 0;
#X connect 48 0 19 0;
#X connect 48 0 14 0;
#X connect 48 0 4 0;
#X connect 48 0 9 0;
