#N canvas 0 50 450 300 10;
#X obj 103 112 moses 1;
#X obj 241 186 moses 1;
#X obj 103 188 moses 1;
#X msg 103 131 bang;
#X msg 103 207 bang;
#X msg 172 205 bang;
#X msg 241 205 bang;
#X msg 310 203 bang;
#X msg 103 55 bang;
#X obj 103 74 f;
#X obj 135 74 + 1;
#X obj 103 93 % 2;
#X obj 103 150 f;
#X obj 135 150 + 1;
#X obj 103 169 % 2;
#X obj 241 148 f;
#X obj 273 148 + 1;
#X obj 241 167 % 2;
#X msg 241 129 bang;
#X obj 103 36 inlet;
#X obj 103 226 outlet;
#X obj 172 226 outlet;
#X obj 241 226 outlet;
#X obj 310 226 outlet;
#X connect 0 0 3 0;
#X connect 0 1 18 0;
#X connect 1 0 6 0;
#X connect 1 1 7 0;
#X connect 2 0 4 0;
#X connect 2 1 5 0;
#X connect 3 0 12 0;
#X connect 4 0 20 0;
#X connect 5 0 21 0;
#X connect 6 0 22 0;
#X connect 7 0 23 0;
#X connect 8 0 9 0;
#X connect 9 0 10 0;
#X connect 9 0 11 0;
#X connect 10 0 9 1;
#X connect 11 0 0 0;
#X connect 12 0 13 0;
#X connect 12 0 14 0;
#X connect 13 0 12 1;
#X connect 14 0 2 0;
#X connect 15 0 16 0;
#X connect 15 0 17 0;
#X connect 16 0 15 1;
#X connect 17 0 1 0;
#X connect 18 0 15 0;
#X connect 19 0 8 0;
