#N canvas 953 0 958 988 10;
#X obj 4 163 bp~;
#X obj 1417 -138 output~;
#X obj 336 35 / 10000;
#X floatatom 336 73 5 0 0 0 - - -;
#X obj 336 16 random 2000;
#X obj 336 54 + 0.8;
#X obj 11 70 line;
#X obj 11 127 line;
#X obj 71 -23 delay 150;
#X msg 11 -4 1000 100;
#X obj 5 333 *~;
#X obj 11 89 expr $f1 * $f2;
#X obj 5 352 lop~ 2000;
#X obj 355 387 throw~ out;
#X obj 1418 -342 catch~ out;
#X obj 136 -23 delay 600;
#X obj 100 277 line~;
#X msg 100 214 1 20;
#X obj 41 127 loadbang;
#X msg 41 146 0.419;
#X obj 963 -363 bng 50 250 50 0 empty empty empty 17 7 0 10 -258113
-1 -1;
#X obj 963 -299 tgl 15 0 empty empty empty 17 7 0 10 -262144 -1 -1
0 1;
#X obj 963 -248 bng 15 250 50 0 empty empty empty 17 7 0 10 -262144
-1 -1;
#X obj 1019 -248 bng 15 250 50 0 empty empty empty 17 7 0 10 -262144
-1 -1;
#X obj 963 -282 moses 1;
#X obj 1019 -231 tgl 15 0 empty empty empty 17 7 0 10 -262144 -1 -1
1 1;
#X obj 1019 -195 bng 15 250 50 0 empty empty empty 17 7 0 10 -262144
-1 -1;
#X obj 1058 -195 bng 15 250 50 0 empty empty empty 17 7 0 10 -262144
-1 -1;
#X obj 1019 -214 moses 1;
#X obj 963 -231 tgl 15 0 empty empty empty 17 7 0 10 -262144 -1 -1
1 1;
#X obj 963 -195 bng 15 250 50 0 empty empty empty 17 7 0 10 -262144
-1 -1;
#X obj 1002 -195 bng 15 250 50 0 empty empty empty 17 7 0 10 -262144
-1 -1;
#X obj 963 -214 moses 1;
#X obj 963 -121 s trig1;
#X obj 1002 -140 s trig2;
#X obj 1019 -159 s trig3;
#X obj 1058 -178 s trig4;
#X obj 71 -59 r trig1;
#X obj 3 -62 noise~;
#X obj 7 745 bp~;
#X obj 199 580 / 10000;
#X floatatom 199 618 5 0 0 0 - - -;
#X obj 199 561 random 2000;
#X obj 199 599 + 0.8;
#X obj 14 652 line;
#X obj 8 1109 *~;
#X obj 358 1144 throw~ out;
#X msg 74 578 600 500;
#X obj 139 559 delay 600;
#X obj 44 709 loadbang;
#X msg 44 728 0.419;
#X obj 74 523 r trig1;
#X obj 23 918 r trig1;
#X obj 74 559 delay 100;
#X msg 139 578 100 1500;
#X obj 8 842 *~ 5;
#X obj 8 861 clip~ -0.9 0.9;
#X obj 8 880 lop~ 1000;
#X msg 14 578 5000 50;
#X obj 100 146 r trig1;
#X obj 5 409 noise~;
#X obj 71 409 noise~;
#X obj 71 488 lop~ 100;
#X obj 71 448 lop~ 100;
#X obj 71 428 lop~ 100;
#X obj 71 468 lop~ 100;
#X obj 6 527 pow~;
#X obj 6 546 *~ 1;
#X obj 8 899 lop~ 1000;
#X obj 69 967 delay 300;
#X obj 7 802 *~;
#X obj 7 764 *~;
#X obj 7 821 *~;
#X obj 7 783 *~;
#X obj 31 748 osc~ 13;
#X obj 31 786 osc~ 10;
#X obj 31 805 osc~ 7;
#X obj 31 767 osc~ 17;
#X obj 129 967 delay 850;
#X obj 189 967 delay 1150;
#X obj 255 967 delay 2000;
#X obj 23 1030 line~;
#X msg 23 967 0.9 50;
#X obj 98 741 r trig1;
#X obj 98 863 line;
#X msg 98 800 1000 50;
#X obj 154 800 delay 2500;
#X msg 154 818 200 4000;
#X msg 255 986 0 3500;
#X msg 129 986 0.35 300;
#X msg 69 986 0.55 500;
#X msg 190 986 0.15 500;
#X obj 5 428 lop~ 1000;
#X obj 5 447 lop~ 1000;
#X obj 5 466 lop~ 1000;
#X obj 5 485 lop~ 1000;
#X obj 1417 -257 -~;
#X obj 1440 -303 bp~ 400 4;
#X obj 1440 -282 *~ 0.4;
#X obj 1111 -324 metro 100;
#X obj 1111 -343 loadbang;
#X obj 1111 -305 s mmetro;
#X obj 336 -3 r mmetro;
#X obj 199 542 r mmetro;
#X obj 11 108 pack 0 100;
#X obj 321 980 / 10000;
#X floatatom 321 1018 5 0 0 0 - - -;
#X obj 321 961 random 2000;
#X obj 321 999 + 0.8;
#X obj 321 1055 line;
#X obj 321 942 r mmetro;
#X obj 321 1074 sig~;
#X obj 23 1090 *~;
#X obj 321 1036 pack 0 100;
#X obj 1417 -199 /~ 2;
#X obj 1417 -218 hip~ 30;
#X obj 1417 -238 hip~ 30;
#X obj 199 636 pack 0 100;
#X obj 199 655 line~;
#X obj 14 671 *~;
#X obj 14 690 unsig~;
#X obj 358 1584 throw~ out;
#X obj 8 1473 *~;
#X obj 8 1166 noise~;
#X obj 98 1166 noise~;
#X obj 8 1223 lop~ 1500;
#X obj 8 1185 lop~ 1500;
#X obj 98 1205 lop~ 100;
#X obj 8 1242 lop~ 100;
#X obj 8 1204 lop~ 1500;
#X obj 8 1261 pow~;
#X obj 8 1280 *~;
#X obj 8 1299 *~ 1;
#X obj 98 1245 lop~ 1200;
#X obj 98 1225 lop~ 1200;
#X obj 98 1185 lop~ 1200;
#X obj 8 1318 sqrt~;
#X obj 8 1337 +~;
#X obj 8 1394 lop~ 125;
#X obj 8 1375 lop~ 125;
#X obj 8 1356 lop~ 125;
#X obj 62 1438 line~;
#X obj 98 1375 delay 700;
#X msg 162 1394 0.55 700;
#X msg 98 1394 0.75 700;
#X obj 162 1375 delay 1400;
#X obj 227 1375 delay 2100;
#X obj 294 1375 delay 3100;
#X obj 8 1492 *~ 7;
#X obj 62 1457 *~;
#X obj 360 1347 / 10000;
#X floatatom 360 1385 5 0 0 0 - - -;
#X obj 360 1328 random 2000;
#X obj 360 1366 + 0.8;
#X obj 360 1422 line;
#X obj 360 1309 r mmetro;
#X obj 360 1441 sig~;
#X obj 360 1403 pack 0 100;
#X obj 8 1511 lop~ 1000;
#X obj 8 1530 lop~ 1000;
#X obj 8 1549 lop~ 1000;
#X obj 62 1307 r trig1;
#X msg 227 1394 0.85 1000;
#X msg 62 1375 1 200;
#X obj 62 1327 r trig1;
#X obj 136 214 delay 100;
#X obj 200 214 delay 2100;
#X obj 100 165 delay 120;
#X msg 136 233 0.5 2000;
#X msg 200 233 0.35 5000;
#X obj 265 214 delay 7500;
#X msg 136 -4 100 5500;
#X obj 442 163 bp~;
#X obj 804 35 / 10000;
#X floatatom 804 73 5 0 0 0 - - -;
#X obj 804 16 random 2000;
#X obj 804 54 + 0.8;
#X obj 449 70 line;
#X obj 449 127 line;
#X obj 443 333 *~;
#X obj 449 89 expr $f1 * $f2;
#X obj 443 352 lop~ 2000;
#X obj 793 387 throw~ out;
#X obj 538 277 line~;
#X msg 538 214 1 20;
#X obj 479 127 loadbang;
#X msg 479 146 0.419;
#X obj 441 -62 noise~;
#X obj 445 745 bp~;
#X obj 637 580 / 10000;
#X floatatom 637 618 5 0 0 0 - - -;
#X obj 637 561 random 2000;
#X obj 637 599 + 0.8;
#X obj 452 652 line;
#X obj 446 1109 *~;
#X obj 796 1144 throw~ out;
#X msg 512 578 600 500;
#X obj 577 559 delay 600;
#X obj 482 709 loadbang;
#X msg 482 728 0.419;
#X obj 512 559 delay 100;
#X msg 577 578 100 1500;
#X obj 446 842 *~ 5;
#X obj 446 861 clip~ -0.9 0.9;
#X obj 446 880 lop~ 1000;
#X msg 452 578 5000 50;
#X obj 443 409 noise~;
#X obj 509 409 noise~;
#X obj 509 488 lop~ 100;
#X obj 509 448 lop~ 100;
#X obj 509 428 lop~ 100;
#X obj 509 468 lop~ 100;
#X obj 444 527 pow~;
#X obj 444 546 *~ 1;
#X obj 446 899 lop~ 1000;
#X obj 507 967 delay 300;
#X obj 445 802 *~;
#X obj 445 764 *~;
#X obj 445 821 *~;
#X obj 445 783 *~;
#X obj 469 748 osc~ 13;
#X obj 469 786 osc~ 10;
#X obj 469 805 osc~ 7;
#X obj 469 767 osc~ 17;
#X obj 567 967 delay 850;
#X obj 627 967 delay 1150;
#X obj 693 967 delay 2000;
#X obj 461 1030 line~;
#X msg 461 967 0.9 50;
#X obj 536 863 line;
#X msg 536 800 1000 50;
#X obj 592 800 delay 2500;
#X msg 592 818 200 4000;
#X msg 693 986 0 3500;
#X msg 567 986 0.35 300;
#X msg 507 986 0.55 500;
#X msg 628 986 0.15 500;
#X obj 443 428 lop~ 1000;
#X obj 443 447 lop~ 1000;
#X obj 443 466 lop~ 1000;
#X obj 443 485 lop~ 1000;
#X obj 804 -3 r mmetro;
#X obj 637 542 r mmetro;
#X obj 449 108 pack 0 100;
#X obj 759 980 / 10000;
#X floatatom 759 1018 5 0 0 0 - - -;
#X obj 759 961 random 2000;
#X obj 759 999 + 0.8;
#X obj 759 1055 line;
#X obj 759 942 r mmetro;
#X obj 759 1074 sig~;
#X obj 461 1090 *~;
#X obj 759 1036 pack 0 100;
#X obj 637 636 pack 0 100;
#X obj 637 655 line~;
#X obj 452 671 *~;
#X obj 452 690 unsig~;
#X obj 796 1584 throw~ out;
#X obj 446 1473 *~;
#X obj 446 1166 noise~;
#X obj 536 1166 noise~;
#X obj 446 1223 lop~ 1500;
#X obj 446 1185 lop~ 1500;
#X obj 536 1205 lop~ 100;
#X obj 446 1242 lop~ 100;
#X obj 446 1204 lop~ 1500;
#X obj 446 1261 pow~;
#X obj 446 1280 *~;
#X obj 446 1299 *~ 1;
#X obj 536 1245 lop~ 1200;
#X obj 536 1225 lop~ 1200;
#X obj 536 1185 lop~ 1200;
#X obj 446 1318 sqrt~;
#X obj 446 1337 +~;
#X obj 446 1394 lop~ 125;
#X obj 446 1375 lop~ 125;
#X obj 446 1356 lop~ 125;
#X obj 500 1438 line~;
#X obj 536 1375 delay 700;
#X msg 600 1394 0.55 700;
#X msg 536 1394 0.75 700;
#X obj 600 1375 delay 1400;
#X obj 665 1375 delay 2100;
#X obj 732 1375 delay 3100;
#X obj 446 1492 *~ 7;
#X obj 500 1457 *~;
#X obj 798 1347 / 10000;
#X floatatom 798 1385 5 0 0 0 - - -;
#X obj 798 1328 random 2000;
#X obj 798 1366 + 0.8;
#X obj 798 1422 line;
#X obj 798 1309 r mmetro;
#X obj 798 1441 sig~;
#X obj 798 1403 pack 0 100;
#X obj 446 1511 lop~ 1000;
#X obj 446 1530 lop~ 1000;
#X obj 446 1549 lop~ 1000;
#X msg 665 1394 0.85 1000;
#X msg 500 1375 1 200;
#X obj 574 214 delay 100;
#X obj 638 214 delay 2100;
#X obj 538 165 delay 120;
#X msg 574 233 0.5 2000;
#X msg 638 233 0.35 5000;
#X obj 703 214 delay 7500;
#X msg 574 -4 100 5500;
#X obj 882 163 bp~;
#X obj 1204 35 / 10000;
#X floatatom 1204 73 5 0 0 0 - - -;
#X obj 1204 16 random 2000;
#X obj 1204 54 + 0.8;
#X obj 889 70 line;
#X obj 889 127 line;
#X obj 949 -23 delay 150;
#X obj 883 333 *~;
#X obj 889 89 expr $f1 * $f2;
#X obj 883 352 lop~ 2000;
#X obj 1233 387 throw~ out;
#X obj 1014 -23 delay 600;
#X obj 978 277 line~;
#X msg 978 214 1 20;
#X obj 919 127 loadbang;
#X msg 919 146 0.419;
#X obj 881 -62 noise~;
#X obj 885 745 bp~;
#X obj 1077 580 / 10000;
#X floatatom 1077 618 5 0 0 0 - - -;
#X obj 1077 561 random 2000;
#X obj 1077 599 + 0.8;
#X obj 892 652 line;
#X obj 886 1109 *~;
#X obj 1236 1144 throw~ out;
#X msg 952 578 600 500;
#X obj 1017 559 delay 600;
#X obj 922 709 loadbang;
#X msg 922 728 0.419;
#X obj 952 559 delay 100;
#X msg 1017 578 100 1500;
#X obj 886 842 *~ 5;
#X obj 886 861 clip~ -0.9 0.9;
#X obj 886 880 lop~ 1000;
#X msg 892 578 5000 50;
#X obj 883 409 noise~;
#X obj 949 409 noise~;
#X obj 949 488 lop~ 100;
#X obj 949 448 lop~ 100;
#X obj 949 428 lop~ 100;
#X obj 949 468 lop~ 100;
#X obj 884 527 pow~;
#X obj 884 546 *~ 1;
#X obj 886 899 lop~ 1000;
#X obj 947 967 delay 300;
#X obj 885 802 *~;
#X obj 885 764 *~;
#X obj 885 821 *~;
#X obj 885 783 *~;
#X obj 909 748 osc~ 13;
#X obj 909 786 osc~ 10;
#X obj 909 805 osc~ 7;
#X obj 909 767 osc~ 17;
#X obj 1007 967 delay 850;
#X obj 1067 967 delay 1150;
#X obj 1133 967 delay 2000;
#X obj 901 1030 line~;
#X msg 901 967 0.9 50;
#X obj 976 863 line;
#X msg 976 800 1000 50;
#X obj 1032 800 delay 2500;
#X msg 1032 818 200 4000;
#X msg 1133 986 0 3500;
#X msg 1007 986 0.35 300;
#X msg 947 986 0.55 500;
#X msg 1068 986 0.15 500;
#X obj 883 428 lop~ 1000;
#X obj 883 447 lop~ 1000;
#X obj 883 466 lop~ 1000;
#X obj 883 485 lop~ 1000;
#X obj 1204 -3 r mmetro;
#X obj 1077 542 r mmetro;
#X obj 889 108 pack 0 100;
#X obj 1199 980 / 10000;
#X floatatom 1199 1018 5 0 0 0 - - -;
#X obj 1199 961 random 2000;
#X obj 1199 999 + 0.8;
#X obj 1199 1055 line;
#X obj 1199 942 r mmetro;
#X obj 1199 1074 sig~;
#X obj 901 1090 *~;
#X obj 1199 1036 pack 0 100;
#X obj 1077 636 pack 0 100;
#X obj 1077 655 line~;
#X obj 892 671 *~;
#X obj 892 690 unsig~;
#X obj 1236 1584 throw~ out;
#X obj 886 1473 *~;
#X obj 886 1166 noise~;
#X obj 976 1166 noise~;
#X obj 886 1223 lop~ 1500;
#X obj 886 1185 lop~ 1500;
#X obj 976 1205 lop~ 100;
#X obj 886 1242 lop~ 100;
#X obj 886 1204 lop~ 1500;
#X obj 886 1261 pow~;
#X obj 886 1280 *~;
#X obj 886 1299 *~ 1;
#X obj 976 1245 lop~ 1200;
#X obj 976 1225 lop~ 1200;
#X obj 976 1185 lop~ 1200;
#X obj 886 1318 sqrt~;
#X obj 886 1337 +~;
#X obj 886 1394 lop~ 125;
#X obj 886 1375 lop~ 125;
#X obj 886 1356 lop~ 125;
#X obj 940 1438 line~;
#X obj 976 1375 delay 700;
#X msg 1040 1394 0.55 700;
#X msg 976 1394 0.75 700;
#X obj 1040 1375 delay 1400;
#X obj 1105 1375 delay 2100;
#X obj 1172 1375 delay 3100;
#X obj 886 1492 *~ 7;
#X obj 940 1457 *~;
#X obj 1238 1347 / 10000;
#X floatatom 1238 1385 5 0 0 0 - - -;
#X obj 1238 1328 random 2000;
#X obj 1238 1366 + 0.8;
#X obj 1238 1422 line;
#X obj 1238 1309 r mmetro;
#X obj 1238 1441 sig~;
#X obj 1238 1403 pack 0 100;
#X obj 886 1511 lop~ 1000;
#X obj 886 1530 lop~ 1000;
#X obj 886 1549 lop~ 1000;
#X msg 1105 1394 0.85 1000;
#X msg 940 1375 1 200;
#X obj 1014 214 delay 100;
#X obj 1078 214 delay 2100;
#X obj 978 165 delay 120;
#X msg 1014 233 0.5 2000;
#X msg 1078 233 0.35 5000;
#X obj 1143 214 delay 7500;
#X msg 1014 -4 100 5500;
#X obj 1312 163 bp~;
#X obj 1634 35 / 10000;
#X floatatom 1634 73 5 0 0 0 - - -;
#X obj 1634 16 random 2000;
#X obj 1634 54 + 0.8;
#X obj 1319 70 line;
#X obj 1319 127 line;
#X obj 1379 -23 delay 150;
#X obj 1313 333 *~;
#X obj 1319 89 expr $f1 * $f2;
#X obj 1663 387 throw~ out;
#X obj 1444 -23 delay 600;
#X obj 1408 277 line~;
#X msg 1408 214 1 20;
#X obj 1349 127 loadbang;
#X msg 1349 146 0.419;
#X obj 1311 -62 noise~;
#X obj 1315 745 bp~;
#X obj 1507 580 / 10000;
#X floatatom 1507 618 5 0 0 0 - - -;
#X obj 1507 561 random 2000;
#X obj 1507 599 + 0.8;
#X obj 1322 652 line;
#X obj 1316 1109 *~;
#X obj 1666 1144 throw~ out;
#X msg 1382 578 600 500;
#X obj 1447 559 delay 600;
#X obj 1352 709 loadbang;
#X msg 1352 728 0.419;
#X obj 1382 559 delay 100;
#X msg 1447 578 100 1500;
#X obj 1316 842 *~ 5;
#X obj 1316 861 clip~ -0.9 0.9;
#X obj 1316 880 lop~ 1000;
#X msg 1322 578 5000 50;
#X obj 1313 409 noise~;
#X obj 1379 488 lop~ 100;
#X obj 1379 448 lop~ 100;
#X obj 1379 428 lop~ 100;
#X obj 1379 468 lop~ 100;
#X obj 1314 527 pow~;
#X obj 1314 546 *~ 1;
#X obj 1316 899 lop~ 1000;
#X obj 1377 967 delay 300;
#X obj 1315 802 *~;
#X obj 1315 764 *~;
#X obj 1315 821 *~;
#X obj 1315 783 *~;
#X obj 1339 748 osc~ 13;
#X obj 1339 786 osc~ 10;
#X obj 1339 805 osc~ 7;
#X obj 1339 767 osc~ 17;
#X obj 1437 967 delay 850;
#X obj 1497 967 delay 1150;
#X obj 1563 967 delay 2000;
#X obj 1331 1030 line~;
#X msg 1331 967 0.9 50;
#X obj 1406 863 line;
#X msg 1406 800 1000 50;
#X obj 1462 800 delay 2500;
#X msg 1462 818 200 4000;
#X msg 1563 986 0 3500;
#X msg 1437 986 0.35 300;
#X msg 1377 986 0.55 500;
#X msg 1498 986 0.15 500;
#X obj 1313 428 lop~ 1000;
#X obj 1313 447 lop~ 1000;
#X obj 1313 466 lop~ 1000;
#X obj 1313 485 lop~ 1000;
#X obj 1634 -3 r mmetro;
#X obj 1507 542 r mmetro;
#X obj 1319 108 pack 0 100;
#X obj 1629 980 / 10000;
#X floatatom 1629 1018 5 0 0 0 - - -;
#X obj 1629 961 random 2000;
#X obj 1629 999 + 0.8;
#X obj 1629 1055 line;
#X obj 1629 942 r mmetro;
#X obj 1629 1074 sig~;
#X obj 1331 1090 *~;
#X obj 1629 1036 pack 0 100;
#X obj 1507 636 pack 0 100;
#X obj 1507 655 line~;
#X obj 1322 671 *~;
#X obj 1322 690 unsig~;
#X obj 1666 1584 throw~ out;
#X obj 1316 1473 *~;
#X obj 1316 1166 noise~;
#X obj 1406 1166 noise~;
#X obj 1316 1223 lop~ 1500;
#X obj 1316 1185 lop~ 1500;
#X obj 1406 1205 lop~ 100;
#X obj 1316 1242 lop~ 100;
#X obj 1316 1204 lop~ 1500;
#X obj 1316 1261 pow~;
#X obj 1316 1280 *~;
#X obj 1316 1299 *~ 1;
#X obj 1406 1245 lop~ 1200;
#X obj 1406 1225 lop~ 1200;
#X obj 1406 1185 lop~ 1200;
#X obj 1316 1318 sqrt~;
#X obj 1316 1337 +~;
#X obj 1316 1394 lop~ 125;
#X obj 1316 1375 lop~ 125;
#X obj 1316 1356 lop~ 125;
#X obj 1370 1438 line~;
#X obj 1406 1375 delay 700;
#X msg 1470 1394 0.55 700;
#X msg 1406 1394 0.75 700;
#X obj 1470 1375 delay 1400;
#X obj 1535 1375 delay 2100;
#X obj 1602 1375 delay 3100;
#X obj 1316 1492 *~ 7;
#X obj 1370 1457 *~;
#X obj 1668 1347 / 10000;
#X floatatom 1668 1385 5 0 0 0 - - -;
#X obj 1668 1328 random 2000;
#X obj 1668 1366 + 0.8;
#X obj 1668 1422 line;
#X obj 1668 1309 r mmetro;
#X obj 1668 1441 sig~;
#X obj 1668 1403 pack 0 100;
#X obj 1316 1511 lop~ 1000;
#X obj 1316 1530 lop~ 1000;
#X obj 1316 1549 lop~ 1000;
#X msg 1535 1394 0.85 1000;
#X msg 1370 1375 1 200;
#X obj 1444 214 delay 100;
#X obj 1408 165 delay 120;
#X msg 1508 233 0.35 5000;
#X msg 1444 -4 100 5500;
#X obj 509 -59 r trig2;
#X obj 538 146 r trig2;
#X obj 512 523 r trig2;
#X obj 536 741 r trig2;
#X obj 500 1327 r trig2;
#X obj 940 1327 r trig3;
#X obj 901 918 r trig3;
#X obj 976 741 r trig3;
#X obj 952 523 r trig3;
#X obj 978 146 r trig3;
#X obj 949 -59 r trig3;
#X obj 1379 -59 r trig4;
#X obj 1408 146 r trig4;
#X obj 1379 409 r trig4;
#X obj 1382 523 r trig4;
#X obj 1406 741 r trig4;
#X obj 1331 918 r trig4;
#X obj 1370 1327 r trig4;
#X obj 446 1568 *~ 1.5;
#X obj 509 -23 delay 100;
#X obj 446 1128 *~ 0.75;
#X obj 8 1568 *~ 1.5;
#X obj 886 1568 *~ 1.5;
#X obj 1316 1568 *~ 1.5;
#X msg 703 233 0 5500;
#X msg 1143 233 0 5500;
#X msg 1573 233 0 5500;
#X obj 1313 352 lop~ 3000;
#X obj 1508 214 delay 2500;
#X obj 1573 214 delay 7000;
#X msg 1444 233 0.4 2000;
#X obj 1542 -67 bng 15 250 50 0 empty empty empty 17 7 0 10 -262144
-1 -1;
#X msg 1319 -4 1000 100;
#X msg 1379 -4 400 550;
#X msg 949 -4 400 550;
#X msg 509 -4 400 550;
#X msg 71 -4 400 550;
#X obj 574 -23 delay 600;
#X msg 889 -4 1000 100;
#X msg 449 -4 1000 100;
#X obj 8 1128 *~ 0.75;
#X obj 886 1128 *~ 0.75;
#X obj 1316 1128 *~ 0.75;
#X msg 265 233 0 5500;
#X obj 461 918 r trig2;
#X obj 146 -337 bng 15 250 50 0 empty empty empty 17 7 0 10 -262144
-1 -1;
#X floatatom 184 -203 10 0 0 0 - - -;
#X obj 1580 -183 delwrite~ thund1 1000;
#X obj 1163 -198 delread~ thund1 200;
#X obj 1283 -198 delread~ thund1 100;
#X obj 443 371 *~ 0.19;
#X obj 883 371 *~ 0.19;
#X obj 1313 371 *~ 0.19;
#X obj 5 371 *~ 0.19;
#X obj 277 -171 spigot;
#X obj 352 -171 spigot;
#X obj 425 -171 spigot;
#X obj 497 -171 spigot;
#X obj 376 -274 + 200;
#X obj 277 -132 delay;
#X obj 352 -132 delay;
#X obj 425 -132 delay;
#X obj 497 -132 delay;
#X obj 508 -293 random 600;
#X obj 574 -293 random 600;
#X floatatom 523 -236 5 0 0 0 - - -;
#X floatatom 568 -235 5 0 0 0 - - -;
#X floatatom 608 -235 5 0 0 0 - - -;
#X floatatom 650 -235 5 0 0 0 - - -;
#X obj 376 -293 random 300;
#X obj 442 -293 random 500;
#X obj 277 -111 s thundtrig;
#X obj 352 -111 s thundtrig;
#X obj 425 -111 s thundtrig;
#X obj 497 -111 s thundtrig;
#X obj 871 -380 r thundtrig;
#X floatatom 279 -257 5 0 0 0 - - -;
#X obj 178 -310 metro 500;
#X obj 179 -258 random 10000;
#X obj 442 -274 + 400;
#X obj 310 -293 shuffle 4;
#X obj 508 -274 + 200;
#X obj 574 -274 + 100;
#X obj 179 -239 + 5000;
#X obj 1283 -179 *~ 0.5;
#X obj 1163 -179 *~ 0.5;
#X msg 1172 1394 0 10000;
#X msg 1602 1394 0 11000;
#X msg 732 1394 0 12000;
#X msg 294 1394 0 10000;
#X obj 310 -190 >= 1;
#X obj 385 -190 >= 2;
#X obj 458 -190 >= 3;
#X obj 530 -190 >= 4;
#X connect 0 0 10 0;
#X connect 2 0 5 0;
#X connect 3 0 11 1;
#X connect 4 0 2 0;
#X connect 5 0 3 0;
#X connect 6 0 11 0;
#X connect 7 0 0 1;
#X connect 8 0 609 0;
#X connect 9 0 6 0;
#X connect 10 0 12 0;
#X connect 11 0 104 0;
#X connect 12 0 626 0;
#X connect 14 0 96 0;
#X connect 14 0 97 0;
#X connect 15 0 171 0;
#X connect 16 0 10 1;
#X connect 17 0 16 0;
#X connect 18 0 19 0;
#X connect 19 0 0 2;
#X connect 20 0 21 0;
#X connect 21 0 24 0;
#X connect 22 0 29 0;
#X connect 23 0 25 0;
#X connect 24 0 22 0;
#X connect 24 1 23 0;
#X connect 25 0 28 0;
#X connect 26 0 35 0;
#X connect 27 0 36 0;
#X connect 28 0 26 0;
#X connect 28 1 27 0;
#X connect 29 0 32 0;
#X connect 30 0 33 0;
#X connect 31 0 34 0;
#X connect 32 0 30 0;
#X connect 32 1 31 0;
#X connect 37 0 9 0;
#X connect 37 0 8 0;
#X connect 37 0 15 0;
#X connect 38 0 0 0;
#X connect 39 0 71 0;
#X connect 40 0 43 0;
#X connect 41 0 117 0;
#X connect 42 0 40 0;
#X connect 43 0 41 0;
#X connect 44 0 119 0;
#X connect 45 0 613 0;
#X connect 47 0 44 0;
#X connect 48 0 54 0;
#X connect 49 0 50 0;
#X connect 50 0 39 2;
#X connect 51 0 58 0;
#X connect 51 0 48 0;
#X connect 51 0 53 0;
#X connect 52 0 82 0;
#X connect 52 0 69 0;
#X connect 52 0 78 0;
#X connect 52 0 79 0;
#X connect 52 0 80 0;
#X connect 53 0 47 0;
#X connect 54 0 44 0;
#X connect 55 0 56 0;
#X connect 56 0 57 0;
#X connect 57 0 68 0;
#X connect 58 0 44 0;
#X connect 59 0 167 0;
#X connect 60 0 92 0;
#X connect 61 0 64 0;
#X connect 62 0 66 1;
#X connect 63 0 65 0;
#X connect 64 0 63 0;
#X connect 65 0 62 0;
#X connect 66 0 67 0;
#X connect 67 0 39 0;
#X connect 68 0 45 0;
#X connect 69 0 90 0;
#X connect 70 0 72 0;
#X connect 71 0 73 0;
#X connect 72 0 55 0;
#X connect 73 0 70 0;
#X connect 74 0 71 1;
#X connect 75 0 70 1;
#X connect 76 0 72 1;
#X connect 77 0 73 1;
#X connect 78 0 89 0;
#X connect 79 0 91 0;
#X connect 80 0 88 0;
#X connect 81 0 112 0;
#X connect 82 0 81 0;
#X connect 83 0 85 0;
#X connect 83 0 86 0;
#X connect 84 0 57 1;
#X connect 84 0 68 1;
#X connect 85 0 84 0;
#X connect 86 0 87 0;
#X connect 87 0 84 0;
#X connect 88 0 81 0;
#X connect 89 0 81 0;
#X connect 90 0 81 0;
#X connect 91 0 81 0;
#X connect 92 0 93 0;
#X connect 93 0 94 0;
#X connect 94 0 95 0;
#X connect 95 0 66 0;
#X connect 96 0 116 0;
#X connect 97 0 98 0;
#X connect 98 0 96 1;
#X connect 99 0 101 0;
#X connect 100 0 99 0;
#X connect 102 0 4 0;
#X connect 103 0 42 0;
#X connect 104 0 7 0;
#X connect 105 0 108 0;
#X connect 106 0 113 0;
#X connect 107 0 105 0;
#X connect 108 0 106 0;
#X connect 109 0 111 0;
#X connect 110 0 107 0;
#X connect 111 0 112 1;
#X connect 112 0 45 1;
#X connect 113 0 109 0;
#X connect 114 0 1 0;
#X connect 114 0 1 1;
#X connect 114 0 620 0;
#X connect 115 0 114 0;
#X connect 116 0 115 0;
#X connect 117 0 118 0;
#X connect 118 0 119 1;
#X connect 119 0 120 0;
#X connect 120 0 39 1;
#X connect 122 0 148 0;
#X connect 123 0 126 0;
#X connect 124 0 135 0;
#X connect 125 0 128 0;
#X connect 126 0 129 0;
#X connect 127 0 134 0;
#X connect 128 0 130 0;
#X connect 129 0 125 0;
#X connect 130 0 131 0;
#X connect 131 0 132 0;
#X connect 132 0 136 0;
#X connect 133 0 130 1;
#X connect 133 0 137 1;
#X connect 133 0 131 1;
#X connect 134 0 133 0;
#X connect 135 0 127 0;
#X connect 136 0 137 0;
#X connect 137 0 140 0;
#X connect 138 0 122 0;
#X connect 139 0 138 0;
#X connect 140 0 139 0;
#X connect 141 0 149 0;
#X connect 142 0 144 0;
#X connect 143 0 141 0;
#X connect 144 0 141 0;
#X connect 145 0 143 0;
#X connect 146 0 162 0;
#X connect 147 0 662 0;
#X connect 148 0 158 0;
#X connect 149 0 122 1;
#X connect 150 0 153 0;
#X connect 151 0 157 0;
#X connect 152 0 150 0;
#X connect 153 0 151 0;
#X connect 154 0 156 0;
#X connect 155 0 152 0;
#X connect 156 0 149 1;
#X connect 157 0 154 0;
#X connect 158 0 159 0;
#X connect 159 0 160 0;
#X connect 160 0 594 0;
#X connect 162 0 141 0;
#X connect 163 0 141 0;
#X connect 164 0 163 0;
#X connect 164 0 142 0;
#X connect 164 0 145 0;
#X connect 164 0 146 0;
#X connect 164 0 147 0;
#X connect 165 0 168 0;
#X connect 166 0 169 0;
#X connect 167 0 17 0;
#X connect 167 0 165 0;
#X connect 167 0 166 0;
#X connect 167 0 170 0;
#X connect 168 0 16 0;
#X connect 169 0 16 0;
#X connect 170 0 616 0;
#X connect 171 0 6 0;
#X connect 172 0 179 0;
#X connect 173 0 176 0;
#X connect 174 0 180 1;
#X connect 175 0 173 0;
#X connect 176 0 174 0;
#X connect 177 0 180 0;
#X connect 178 0 172 1;
#X connect 179 0 181 0;
#X connect 180 0 243 0;
#X connect 181 0 623 0;
#X connect 183 0 179 1;
#X connect 184 0 183 0;
#X connect 185 0 186 0;
#X connect 186 0 172 2;
#X connect 187 0 172 0;
#X connect 188 0 217 0;
#X connect 189 0 192 0;
#X connect 190 0 253 0;
#X connect 191 0 189 0;
#X connect 192 0 190 0;
#X connect 193 0 255 0;
#X connect 194 0 593 0;
#X connect 196 0 193 0;
#X connect 197 0 201 0;
#X connect 198 0 199 0;
#X connect 199 0 188 2;
#X connect 200 0 196 0;
#X connect 201 0 193 0;
#X connect 202 0 203 0;
#X connect 203 0 204 0;
#X connect 204 0 214 0;
#X connect 205 0 193 0;
#X connect 206 0 237 0;
#X connect 207 0 210 0;
#X connect 208 0 212 1;
#X connect 209 0 211 0;
#X connect 210 0 209 0;
#X connect 211 0 208 0;
#X connect 212 0 213 0;
#X connect 213 0 188 0;
#X connect 214 0 194 0;
#X connect 215 0 235 0;
#X connect 216 0 218 0;
#X connect 217 0 219 0;
#X connect 218 0 202 0;
#X connect 219 0 216 0;
#X connect 220 0 217 1;
#X connect 221 0 216 1;
#X connect 222 0 218 1;
#X connect 223 0 219 1;
#X connect 224 0 234 0;
#X connect 225 0 236 0;
#X connect 226 0 233 0;
#X connect 227 0 251 0;
#X connect 228 0 227 0;
#X connect 229 0 204 1;
#X connect 229 0 214 1;
#X connect 230 0 229 0;
#X connect 231 0 232 0;
#X connect 232 0 229 0;
#X connect 233 0 227 0;
#X connect 234 0 227 0;
#X connect 235 0 227 0;
#X connect 236 0 227 0;
#X connect 237 0 238 0;
#X connect 238 0 239 0;
#X connect 239 0 240 0;
#X connect 240 0 212 0;
#X connect 241 0 175 0;
#X connect 242 0 191 0;
#X connect 243 0 178 0;
#X connect 244 0 247 0;
#X connect 245 0 252 0;
#X connect 246 0 244 0;
#X connect 247 0 245 0;
#X connect 248 0 250 0;
#X connect 249 0 246 0;
#X connect 250 0 251 1;
#X connect 251 0 194 1;
#X connect 252 0 248 0;
#X connect 253 0 254 0;
#X connect 254 0 255 1;
#X connect 255 0 256 0;
#X connect 256 0 188 1;
#X connect 258 0 284 0;
#X connect 259 0 262 0;
#X connect 260 0 271 0;
#X connect 261 0 264 0;
#X connect 262 0 265 0;
#X connect 263 0 270 0;
#X connect 264 0 266 0;
#X connect 265 0 261 0;
#X connect 266 0 267 0;
#X connect 267 0 268 0;
#X connect 268 0 272 0;
#X connect 269 0 266 1;
#X connect 269 0 273 1;
#X connect 269 0 267 1;
#X connect 270 0 269 0;
#X connect 271 0 263 0;
#X connect 272 0 273 0;
#X connect 273 0 276 0;
#X connect 274 0 258 0;
#X connect 275 0 274 0;
#X connect 276 0 275 0;
#X connect 277 0 285 0;
#X connect 278 0 280 0;
#X connect 279 0 277 0;
#X connect 280 0 277 0;
#X connect 281 0 279 0;
#X connect 282 0 297 0;
#X connect 283 0 661 0;
#X connect 284 0 294 0;
#X connect 285 0 258 1;
#X connect 286 0 289 0;
#X connect 287 0 293 0;
#X connect 288 0 286 0;
#X connect 289 0 287 0;
#X connect 290 0 292 0;
#X connect 291 0 288 0;
#X connect 292 0 285 1;
#X connect 293 0 290 0;
#X connect 294 0 295 0;
#X connect 295 0 296 0;
#X connect 296 0 591 0;
#X connect 297 0 277 0;
#X connect 298 0 277 0;
#X connect 299 0 302 0;
#X connect 300 0 303 0;
#X connect 301 0 184 0;
#X connect 301 0 299 0;
#X connect 301 0 300 0;
#X connect 301 0 304 0;
#X connect 302 0 183 0;
#X connect 303 0 183 0;
#X connect 304 0 597 0;
#X connect 305 0 177 0;
#X connect 306 0 314 0;
#X connect 307 0 310 0;
#X connect 308 0 315 1;
#X connect 309 0 307 0;
#X connect 310 0 308 0;
#X connect 311 0 315 0;
#X connect 312 0 306 1;
#X connect 313 0 607 0;
#X connect 314 0 316 0;
#X connect 315 0 379 0;
#X connect 316 0 624 0;
#X connect 318 0 441 0;
#X connect 319 0 314 1;
#X connect 320 0 319 0;
#X connect 321 0 322 0;
#X connect 322 0 306 2;
#X connect 323 0 306 0;
#X connect 324 0 353 0;
#X connect 325 0 328 0;
#X connect 326 0 389 0;
#X connect 327 0 325 0;
#X connect 328 0 326 0;
#X connect 329 0 391 0;
#X connect 330 0 614 0;
#X connect 332 0 329 0;
#X connect 333 0 337 0;
#X connect 334 0 335 0;
#X connect 335 0 324 2;
#X connect 336 0 332 0;
#X connect 337 0 329 0;
#X connect 338 0 339 0;
#X connect 339 0 340 0;
#X connect 340 0 350 0;
#X connect 341 0 329 0;
#X connect 342 0 373 0;
#X connect 343 0 346 0;
#X connect 344 0 348 1;
#X connect 345 0 347 0;
#X connect 346 0 345 0;
#X connect 347 0 344 0;
#X connect 348 0 349 0;
#X connect 349 0 324 0;
#X connect 350 0 330 0;
#X connect 351 0 371 0;
#X connect 352 0 354 0;
#X connect 353 0 355 0;
#X connect 354 0 338 0;
#X connect 355 0 352 0;
#X connect 356 0 353 1;
#X connect 357 0 352 1;
#X connect 358 0 354 1;
#X connect 359 0 355 1;
#X connect 360 0 370 0;
#X connect 361 0 372 0;
#X connect 362 0 369 0;
#X connect 363 0 387 0;
#X connect 364 0 363 0;
#X connect 365 0 340 1;
#X connect 365 0 350 1;
#X connect 366 0 365 0;
#X connect 367 0 368 0;
#X connect 368 0 365 0;
#X connect 369 0 363 0;
#X connect 370 0 363 0;
#X connect 371 0 363 0;
#X connect 372 0 363 0;
#X connect 373 0 374 0;
#X connect 374 0 375 0;
#X connect 375 0 376 0;
#X connect 376 0 348 0;
#X connect 377 0 309 0;
#X connect 378 0 327 0;
#X connect 379 0 312 0;
#X connect 380 0 383 0;
#X connect 381 0 388 0;
#X connect 382 0 380 0;
#X connect 383 0 381 0;
#X connect 384 0 386 0;
#X connect 385 0 382 0;
#X connect 386 0 387 1;
#X connect 387 0 330 1;
#X connect 388 0 384 0;
#X connect 389 0 390 0;
#X connect 390 0 391 1;
#X connect 391 0 392 0;
#X connect 392 0 324 1;
#X connect 394 0 420 0;
#X connect 395 0 398 0;
#X connect 396 0 407 0;
#X connect 397 0 400 0;
#X connect 398 0 401 0;
#X connect 399 0 406 0;
#X connect 400 0 402 0;
#X connect 401 0 397 0;
#X connect 402 0 403 0;
#X connect 403 0 404 0;
#X connect 404 0 408 0;
#X connect 405 0 402 1;
#X connect 405 0 409 1;
#X connect 405 0 403 1;
#X connect 406 0 405 0;
#X connect 407 0 399 0;
#X connect 408 0 409 0;
#X connect 409 0 412 0;
#X connect 410 0 394 0;
#X connect 411 0 410 0;
#X connect 412 0 411 0;
#X connect 413 0 421 0;
#X connect 414 0 416 0;
#X connect 415 0 413 0;
#X connect 416 0 413 0;
#X connect 417 0 415 0;
#X connect 418 0 433 0;
#X connect 419 0 659 0;
#X connect 420 0 430 0;
#X connect 421 0 394 1;
#X connect 422 0 425 0;
#X connect 423 0 429 0;
#X connect 424 0 422 0;
#X connect 425 0 423 0;
#X connect 426 0 428 0;
#X connect 427 0 424 0;
#X connect 428 0 421 1;
#X connect 429 0 426 0;
#X connect 430 0 431 0;
#X connect 431 0 432 0;
#X connect 432 0 595 0;
#X connect 433 0 413 0;
#X connect 434 0 413 0;
#X connect 435 0 438 0;
#X connect 436 0 439 0;
#X connect 437 0 320 0;
#X connect 437 0 435 0;
#X connect 437 0 436 0;
#X connect 437 0 440 0;
#X connect 438 0 319 0;
#X connect 439 0 319 0;
#X connect 440 0 598 0;
#X connect 441 0 311 0;
#X connect 442 0 450 0;
#X connect 443 0 446 0;
#X connect 444 0 451 1;
#X connect 445 0 443 0;
#X connect 446 0 444 0;
#X connect 447 0 451 0;
#X connect 448 0 442 1;
#X connect 449 0 606 0;
#X connect 450 0 600 0;
#X connect 451 0 513 0;
#X connect 453 0 572 0;
#X connect 454 0 450 1;
#X connect 455 0 454 0;
#X connect 456 0 457 0;
#X connect 457 0 442 2;
#X connect 458 0 442 0;
#X connect 459 0 487 0;
#X connect 460 0 463 0;
#X connect 461 0 523 0;
#X connect 462 0 460 0;
#X connect 463 0 461 0;
#X connect 464 0 525 0;
#X connect 465 0 615 0;
#X connect 467 0 464 0;
#X connect 468 0 472 0;
#X connect 469 0 470 0;
#X connect 470 0 459 2;
#X connect 471 0 467 0;
#X connect 472 0 464 0;
#X connect 473 0 474 0;
#X connect 474 0 475 0;
#X connect 475 0 484 0;
#X connect 476 0 464 0;
#X connect 477 0 507 0;
#X connect 478 0 482 1;
#X connect 479 0 481 0;
#X connect 480 0 479 0;
#X connect 481 0 478 0;
#X connect 482 0 483 0;
#X connect 483 0 459 0;
#X connect 484 0 465 0;
#X connect 485 0 505 0;
#X connect 486 0 488 0;
#X connect 487 0 489 0;
#X connect 488 0 473 0;
#X connect 489 0 486 0;
#X connect 490 0 487 1;
#X connect 491 0 486 1;
#X connect 492 0 488 1;
#X connect 493 0 489 1;
#X connect 494 0 504 0;
#X connect 495 0 506 0;
#X connect 496 0 503 0;
#X connect 497 0 521 0;
#X connect 498 0 497 0;
#X connect 499 0 475 1;
#X connect 499 0 484 1;
#X connect 500 0 499 0;
#X connect 501 0 502 0;
#X connect 502 0 499 0;
#X connect 503 0 497 0;
#X connect 504 0 497 0;
#X connect 505 0 497 0;
#X connect 506 0 497 0;
#X connect 507 0 508 0;
#X connect 508 0 509 0;
#X connect 509 0 510 0;
#X connect 510 0 482 0;
#X connect 511 0 445 0;
#X connect 512 0 462 0;
#X connect 513 0 448 0;
#X connect 514 0 517 0;
#X connect 515 0 522 0;
#X connect 516 0 514 0;
#X connect 517 0 515 0;
#X connect 518 0 520 0;
#X connect 519 0 516 0;
#X connect 520 0 521 1;
#X connect 521 0 465 1;
#X connect 522 0 518 0;
#X connect 523 0 524 0;
#X connect 524 0 525 1;
#X connect 525 0 526 0;
#X connect 526 0 459 1;
#X connect 528 0 554 0;
#X connect 529 0 532 0;
#X connect 530 0 541 0;
#X connect 531 0 534 0;
#X connect 532 0 535 0;
#X connect 533 0 540 0;
#X connect 534 0 536 0;
#X connect 535 0 531 0;
#X connect 536 0 537 0;
#X connect 537 0 538 0;
#X connect 538 0 542 0;
#X connect 539 0 536 1;
#X connect 539 0 543 1;
#X connect 539 0 537 1;
#X connect 540 0 539 0;
#X connect 541 0 533 0;
#X connect 542 0 543 0;
#X connect 543 0 546 0;
#X connect 544 0 528 0;
#X connect 545 0 544 0;
#X connect 546 0 545 0;
#X connect 547 0 555 0;
#X connect 548 0 550 0;
#X connect 549 0 547 0;
#X connect 550 0 547 0;
#X connect 551 0 549 0;
#X connect 552 0 567 0;
#X connect 553 0 660 0;
#X connect 554 0 564 0;
#X connect 555 0 528 1;
#X connect 556 0 559 0;
#X connect 557 0 563 0;
#X connect 558 0 556 0;
#X connect 559 0 557 0;
#X connect 560 0 562 0;
#X connect 561 0 558 0;
#X connect 562 0 555 1;
#X connect 563 0 560 0;
#X connect 564 0 565 0;
#X connect 565 0 566 0;
#X connect 566 0 596 0;
#X connect 567 0 547 0;
#X connect 568 0 547 0;
#X connect 569 0 603 0;
#X connect 570 0 455 0;
#X connect 570 0 569 0;
#X connect 570 0 601 0;
#X connect 570 0 602 0;
#X connect 571 0 454 0;
#X connect 572 0 447 0;
#X connect 573 0 612 0;
#X connect 573 0 592 0;
#X connect 573 0 610 0;
#X connect 574 0 301 0;
#X connect 575 0 205 0;
#X connect 575 0 197 0;
#X connect 575 0 200 0;
#X connect 576 0 230 0;
#X connect 576 0 231 0;
#X connect 577 0 298 0;
#X connect 577 0 278 0;
#X connect 577 0 281 0;
#X connect 577 0 282 0;
#X connect 577 0 283 0;
#X connect 578 0 434 0;
#X connect 578 0 414 0;
#X connect 578 0 417 0;
#X connect 578 0 418 0;
#X connect 578 0 419 0;
#X connect 579 0 364 0;
#X connect 579 0 351 0;
#X connect 579 0 360 0;
#X connect 579 0 361 0;
#X connect 579 0 362 0;
#X connect 580 0 366 0;
#X connect 580 0 367 0;
#X connect 581 0 341 0;
#X connect 581 0 333 0;
#X connect 581 0 336 0;
#X connect 582 0 437 0;
#X connect 583 0 611 0;
#X connect 583 0 313 0;
#X connect 583 0 318 0;
#X connect 584 0 605 0;
#X connect 584 0 449 0;
#X connect 584 0 453 0;
#X connect 585 0 570 0;
#X connect 586 0 480 0;
#X connect 587 0 476 0;
#X connect 587 0 468 0;
#X connect 587 0 471 0;
#X connect 588 0 500 0;
#X connect 588 0 501 0;
#X connect 589 0 498 0;
#X connect 589 0 485 0;
#X connect 589 0 494 0;
#X connect 589 0 495 0;
#X connect 589 0 496 0;
#X connect 590 0 568 0;
#X connect 590 0 548 0;
#X connect 590 0 551 0;
#X connect 590 0 552 0;
#X connect 590 0 553 0;
#X connect 591 0 257 0;
#X connect 592 0 608 0;
#X connect 593 0 195 0;
#X connect 594 0 121 0;
#X connect 595 0 393 0;
#X connect 596 0 527 0;
#X connect 597 0 183 0;
#X connect 598 0 319 0;
#X connect 599 0 454 0;
#X connect 600 0 625 0;
#X connect 601 0 571 0;
#X connect 602 0 599 0;
#X connect 603 0 454 0;
#X connect 604 0 453 0;
#X connect 604 0 449 0;
#X connect 604 0 605 0;
#X connect 604 0 570 0;
#X connect 605 0 447 0;
#X connect 606 0 447 0;
#X connect 607 0 311 0;
#X connect 608 0 177 0;
#X connect 609 0 6 0;
#X connect 610 0 305 0;
#X connect 611 0 311 0;
#X connect 612 0 177 0;
#X connect 613 0 46 0;
#X connect 614 0 331 0;
#X connect 615 0 466 0;
#X connect 616 0 16 0;
#X connect 617 0 228 0;
#X connect 617 0 215 0;
#X connect 617 0 224 0;
#X connect 617 0 225 0;
#X connect 617 0 226 0;
#X connect 618 0 650 0;
#X connect 621 0 658 0;
#X connect 622 0 657 0;
#X connect 623 0 182 0;
#X connect 624 0 317 0;
#X connect 625 0 452 0;
#X connect 626 0 13 0;
#X connect 627 0 632 0;
#X connect 628 0 633 0;
#X connect 629 0 634 0;
#X connect 630 0 635 0;
#X connect 631 0 632 1;
#X connect 631 0 638 0;
#X connect 632 0 644 0;
#X connect 633 0 645 0;
#X connect 634 0 646 0;
#X connect 635 0 647 0;
#X connect 636 0 654 0;
#X connect 637 0 655 0;
#X connect 642 0 631 0;
#X connect 643 0 652 0;
#X connect 648 0 20 0;
#X connect 650 0 642 0;
#X connect 650 0 643 0;
#X connect 650 0 636 0;
#X connect 650 0 637 0;
#X connect 650 0 627 0;
#X connect 650 0 628 0;
#X connect 650 0 629 0;
#X connect 650 0 630 0;
#X connect 650 0 651 0;
#X connect 650 0 653 0;
#X connect 651 0 656 0;
#X connect 652 0 633 1;
#X connect 652 0 639 0;
#X connect 653 0 649 0;
#X connect 653 0 663 0;
#X connect 653 0 664 0;
#X connect 653 0 665 0;
#X connect 653 0 666 0;
#X connect 654 0 634 1;
#X connect 654 0 640 0;
#X connect 655 0 635 1;
#X connect 655 0 641 0;
#X connect 656 0 619 0;
#X connect 656 0 650 1;
#X connect 657 0 1 1;
#X connect 658 0 1 0;
#X connect 659 0 413 0;
#X connect 660 0 547 0;
#X connect 661 0 277 0;
#X connect 662 0 141 0;
#X connect 663 0 627 1;
#X connect 664 0 628 1;
#X connect 665 0 629 1;
#X connect 666 0 630 1;
