#N canvas -8 -8 1366 685 10;
#X obj 406 -17 pow~;
#X obj 358 -151 noise~;
#X obj 432 -151 noise~;
#X obj 358 -132 hip~ 3000;
#X obj 358 -112 hip~ 3000;
#X obj 358 -92 hip~ 3000;
#X obj 358 -72 hip~ 3000;
#X obj 432 -132 hip~ 3000;
#X obj 432 -112 hip~ 3000;
#X obj 432 -92 hip~ 3000;
#X obj 432 -72 hip~ 3000;
#X obj 578 -153 noise~;
#X obj 647 -153 noise~;
#X obj 578 -134 hip~ 3000;
#X obj 578 -114 hip~ 3000;
#X obj 578 -94 hip~ 3000;
#X obj 578 -74 hip~ 3000;
#X obj 647 -134 hip~ 3000;
#X obj 647 -114 hip~ 3000;
#X obj 647 -94 hip~ 3000;
#X obj 647 -74 hip~ 3000;
#X obj 358 -53 abs~;
#X obj 432 -53 abs~;
#X obj 578 -55 abs~;
#X obj 647 -55 abs~;
#X obj 406 59 hip~ 3000;
#X obj 577 59 hip~ 3000;
#X obj 484 135 *~;
#X obj 699 135 *~;
#X obj 501 -223 random 100;
#X obj 501 -204 / 1000;
#X obj 501 -185 + 0.9;
#X obj 501 -147 line~;
#X obj 501 -166 pack 0 100;
#X obj 716 -223 random 100;
#X obj 716 -204 / 1000;
#X obj 716 -185 + 0.9;
#X obj 716 -147 line~;
#X obj 716 -166 pack 0 100;
#X obj 577 -17 pow~;
#X obj 577 2 lop~ 2000;
#X obj 406 2 lop~ 2000;
#X obj 406 21 lop~ 2000;
#X obj 577 21 lop~ 2000;
#X obj 406 40 lop~ 2000;
#X obj 577 40 lop~ 2000;
#X obj 836 -29 pow~;
#X obj 792 -163 noise~;
#X obj 861 -163 noise~;
#X obj 792 -144 hip~ 3000;
#X obj 792 -124 hip~ 3000;
#X obj 792 -104 hip~ 3000;
#X obj 792 -84 hip~ 3000;
#X obj 861 -144 hip~ 3000;
#X obj 861 -124 hip~ 3000;
#X obj 861 -104 hip~ 3000;
#X obj 861 -84 hip~ 3000;
#X obj 1006 -165 noise~;
#X obj 1075 -165 noise~;
#X obj 1006 -146 hip~ 3000;
#X obj 1006 -126 hip~ 3000;
#X obj 1006 -106 hip~ 3000;
#X obj 1006 -86 hip~ 3000;
#X obj 1075 -146 hip~ 3000;
#X obj 1075 -126 hip~ 3000;
#X obj 1075 -106 hip~ 3000;
#X obj 1075 -86 hip~ 3000;
#X obj 792 -65 abs~;
#X obj 861 -65 abs~;
#X obj 1006 -67 abs~;
#X obj 1075 -67 abs~;
#X obj 836 47 hip~ 3000;
#X obj 1005 47 hip~ 3000;
#X obj 913 101 *~;
#X obj 1126 101 *~;
#X obj 930 -223 random 100;
#X obj 930 -204 / 1000;
#X obj 930 -185 + 0.9;
#X obj 930 -147 line~;
#X obj 930 -166 pack 0 100;
#X obj 1144 -223 random 100;
#X obj 1144 -204 / 1000;
#X obj 1144 -185 + 0.9;
#X obj 1144 -147 line~;
#X obj 1144 -166 pack 0 100;
#X obj 1005 -29 pow~;
#X obj 1005 -10 lop~ 2000;
#X obj 836 -10 lop~ 2000;
#X obj 836 9 lop~ 2000;
#X obj 1005 9 lop~ 2000;
#X obj 836 28 lop~ 2000;
#X obj 1005 28 lop~ 2000;
#X obj 1661 -221 noise~;
#X obj 1709 -218 noise~;
#X obj 1894 -221 noise~;
#X obj 1945 -218 noise~;
#X obj 1894 -52 clip~ -0.3 0.3;
#X obj 1800 21 *~;
#X obj 2033 21 *~;
#X obj 1818 -223 random 100;
#X obj 1818 -204 / 1000;
#X obj 1818 -185 + 0.9;
#X obj 1818 -147 line~;
#X obj 1818 -166 pack 0 100;
#X obj 2050 -223 random 100;
#X obj 2050 -204 / 1000;
#X obj 2050 -185 + 0.9;
#X obj 2050 -147 line~;
#X obj 2050 -166 pack 0 100;
#X obj 1894 -202 pow~;
#X obj 1661 -202 pow~;
#X obj 1894 -109 lop~ 500;
#X obj 1894 -128 lop~ 500;
#X obj 1894 -147 lop~ 500;
#X obj 1661 -147 lop~ 500;
#X obj 1661 -128 lop~ 500;
#X obj 1661 -109 lop~ 500;
#X obj 1661 -90 hip~ 500;
#X obj 1895 -90 hip~ 500;
#X obj 1894 -33 bp~ 4500 2.5;
#X obj 1661 -33 bp~ 4500 2.5;
#X obj 1220 -220 noise~;
#X obj 1268 -217 noise~;
#X obj 1481 -220 noise~;
#X obj 1529 -217 noise~;
#X obj 1481 -67 clip~ -0.3 0.3;
#X obj 1220 -37 clip~ -0.3 0.3;
#X obj 1306 17 *~;
#X obj 1568 -13 *~;
#X obj 1324 -223 random 100;
#X obj 1324 -204 / 1000;
#X obj 1324 -185 + 0.9;
#X obj 1324 -147 line~;
#X obj 1324 -166 pack 0 100;
#X obj 1585 -223 random 100;
#X obj 1585 -204 / 1000;
#X obj 1585 -185 + 0.9;
#X obj 1585 -147 line~;
#X obj 1585 -166 pack 0 100;
#X obj 1481 -201 pow~;
#X obj 1220 -201 pow~;
#X obj 1481 -125 lop~ 500;
#X obj 1481 -144 lop~ 500;
#X obj 1481 -163 lop~ 500;
#X obj 1220 -132 lop~ 500;
#X obj 1220 -113 lop~ 500;
#X obj 1220 -94 lop~ 500;
#X obj 1220 -75 hip~ 500;
#X obj 1481 -106 hip~ 500;
#X obj 1481 -48 bp~ 4500 2.5;
#X obj 1220 -18 bp~ 4500 2.5;
#X obj 1800 40 hip~ 2500;
#X obj 2033 40 hip~ 2500;
#X obj 1565 7 hip~ 2000;
#X obj 1306 36 hip~ 2000;
#X obj 2101 362 *~ 0.5;
#X obj 2172 362 *~ 0.5;
#X obj 2172 303 lop~ 4000;
#X obj 2101 303 lop~ 4000;
#X obj -140 -204 / 1000;
#X obj -140 -147 line~;
#X obj 2362 -204 / 1000;
#X obj 2362 -147 line~;
#X obj -139 493 *~;
#X obj 2344 492 *~;
#X obj 1232 477 lop~ 3700;
#X obj 1301 477 lop~ 3700;
#X obj 1232 458 lop~ 4000;
#X obj 1301 458 lop~ 4000;
#X obj 2042 110 -~;
#X obj 2101 94 *~ 1;
#X obj 2101 75 bp~ 600 2;
#X obj 2042 59 noise~;
#X obj 2172 110 -~;
#X obj 2231 94 *~ 1;
#X obj 2231 75 bp~ 600 2;
#X obj 2172 59 noise~;
#X obj 2042 226 *~ 0.5;
#X obj 2172 226 *~ 0.5;
#X obj -56 10 pow~;
#X obj -94 -124 noise~;
#X obj -24 -124 noise~;
#X obj -94 -105 hip~ 3000;
#X obj -94 -85 hip~ 3000;
#X obj -94 -65 hip~ 3000;
#X obj -94 -45 hip~ 3000;
#X obj -24 -105 hip~ 3000;
#X obj -24 -85 hip~ 3000;
#X obj -24 -65 hip~ 3000;
#X obj -24 -45 hip~ 3000;
#X obj 146 -126 noise~;
#X obj 215 -126 noise~;
#X obj 146 -107 hip~ 3000;
#X obj 146 -87 hip~ 3000;
#X obj 146 -67 hip~ 3000;
#X obj 146 -47 hip~ 3000;
#X obj 215 -107 hip~ 3000;
#X obj 215 -87 hip~ 3000;
#X obj 215 -67 hip~ 3000;
#X obj 215 -47 hip~ 3000;
#X obj -94 -26 abs~;
#X obj -24 -26 abs~;
#X obj 146 -28 abs~;
#X obj 215 -28 abs~;
#X obj -56 86 hip~ 3000;
#X obj 145 86 hip~ 3000;
#X obj 26 162 *~;
#X obj 264 162 *~;
#X obj 43 -223 random 100;
#X obj 43 -204 / 1000;
#X obj 43 -185 + 0.9;
#X obj 43 -147 line~;
#X obj 43 -166 pack 0 100;
#X obj 282 -223 random 100;
#X obj 282 -204 / 1000;
#X obj 282 -185 + 0.9;
#X obj 282 -147 line~;
#X obj 282 -166 pack 0 100;
#X obj 145 10 pow~;
#X obj 145 29 lop~ 2000;
#X obj -56 29 lop~ 2000;
#X obj -56 48 lop~ 2000;
#X obj 145 48 lop~ 2000;
#X obj -56 67 lop~ 2000;
#X obj 145 67 lop~ 2000;
#X obj 162 216 *~ 0.25;
#X obj 107 216 *~ 0.25;
#X obj 26 232 lop~ 500;
#X obj 264 232 lop~ 500;
#X obj -56 146 *~ 0.548;
#X obj 1661 -52 clip~ -0.1 0.1;
#X obj 2172 167 lop~ 100;
#X obj 2042 167 lop~ 100;
#X obj 2172 148 lop~ 300;
#X obj 2042 148 lop~ 300;
#X obj 1998 -49 noise~;
#X obj 1932 -14 -~;
#X obj 1765 -49 noise~;
#X obj 1661 -14 -~;
#X obj 1998 -30 *~ 0.01;
#X obj 1765 -30 *~ 0.01;
#X obj 2362 -223 random 500;
#X obj 2362 -185 + 0.5;
#X obj -140 -185 + 0.5;
#X obj -140 -223 random 500;
#X obj 2362 -166 pack 0 850;
#X obj -140 -166 pack 0 850;
#X obj 406 119 *~ 0.058;
#X obj 1005 85 *~ 0.107;
#X obj 2101 265 noise~;
#X obj 2172 265 noise~;
#X obj 145 105 Tanh;
#X obj -56 105 Tanh;
#X obj 406 78 Tanh;
#X obj 577 78 Tanh;
#X obj 836 66 Tanh;
#X obj 1005 66 Tanh;
#X obj 2042 129 *~ 0.894;
#X obj 1894 -71 Tanh;
#X obj 1661 -71 Tanh;
#X obj 1220 -56 Tanh;
#X obj 1220 1 *~ 0.15;
#X obj 1481 -29 *~ 0.15;
#X obj 836 85 *~ 0.107;
#X obj 576 119 *~ 0.058;
#X obj 144 146 *~ 0.548;
#X obj 1894 5 *~ 0.15;
#X obj 1661 5 *~ 0.15;
#X obj 2172 129 *~ 0.894;
#X obj 2101 284 *~ 0.025;
#X obj 2172 284 *~ 0.025;
#X obj -139 512 outlet~;
#X obj 2344 511 outlet~;
#X obj 1466 -240 inlet;
#X obj 2362 -242 inlet;
#X obj 1479 23 *~ 1.25;
#X obj 1609 194 snapshot~;
#X obj 1647 105 tgl 15 0 empty empty empty 17 7 0 10 -262144 -1 -1
1 1;
#X floatatom 1601 323 20 0 0 0 - - -, f 20;
#X obj 1616 248 change;
#X obj 1595 371 f;
#X obj 1577 391 f;
#X floatatom 1577 413 20 0 0 0 - - -, f 20;
#X floatatom 1625 393 20 0 0 0 - - -, f 20;
#X obj 1479 42 Tanh;
#X obj 1631 147 metro 25;
#X obj 1481 -86 Tanh;
#X obj 1481 -182 clip~ -100 100;
#X obj 1479 61 -~ 0.05;
#X obj 1220 -182 clip~ -100 100;
#X obj 1379 52 *~ 1.25;
#X obj 1379 71 Tanh;
#X obj 1379 90 -~ 0.05;
#X obj 1894 -182 clip~ -100 100;
#X obj 1661 -182 clip~ -100 100;
#X connect 0 0 41 0;
#X connect 1 0 3 0;
#X connect 2 0 7 0;
#X connect 3 0 4 0;
#X connect 4 0 5 0;
#X connect 5 0 6 0;
#X connect 6 0 21 0;
#X connect 7 0 8 0;
#X connect 8 0 9 0;
#X connect 9 0 10 0;
#X connect 10 0 22 0;
#X connect 11 0 13 0;
#X connect 12 0 17 0;
#X connect 13 0 14 0;
#X connect 14 0 15 0;
#X connect 15 0 16 0;
#X connect 16 0 23 0;
#X connect 17 0 18 0;
#X connect 18 0 19 0;
#X connect 19 0 20 0;
#X connect 20 0 24 0;
#X connect 21 0 0 0;
#X connect 22 0 0 1;
#X connect 23 0 39 0;
#X connect 24 0 39 1;
#X connect 25 0 253 0;
#X connect 26 0 254 0;
#X connect 27 0 167 0;
#X connect 28 0 168 0;
#X connect 29 0 30 0;
#X connect 30 0 31 0;
#X connect 31 0 33 0;
#X connect 32 0 27 1;
#X connect 33 0 32 0;
#X connect 34 0 35 0;
#X connect 35 0 36 0;
#X connect 36 0 38 0;
#X connect 37 0 28 1;
#X connect 38 0 37 0;
#X connect 39 0 40 0;
#X connect 40 0 43 0;
#X connect 41 0 42 0;
#X connect 42 0 44 0;
#X connect 43 0 45 0;
#X connect 44 0 25 0;
#X connect 45 0 26 0;
#X connect 46 0 87 0;
#X connect 47 0 49 0;
#X connect 48 0 53 0;
#X connect 49 0 50 0;
#X connect 50 0 51 0;
#X connect 51 0 52 0;
#X connect 52 0 67 0;
#X connect 53 0 54 0;
#X connect 54 0 55 0;
#X connect 55 0 56 0;
#X connect 56 0 68 0;
#X connect 57 0 59 0;
#X connect 58 0 63 0;
#X connect 59 0 60 0;
#X connect 60 0 61 0;
#X connect 61 0 62 0;
#X connect 62 0 69 0;
#X connect 63 0 64 0;
#X connect 64 0 65 0;
#X connect 65 0 66 0;
#X connect 66 0 70 0;
#X connect 67 0 46 0;
#X connect 68 0 46 1;
#X connect 69 0 85 0;
#X connect 70 0 85 1;
#X connect 71 0 255 0;
#X connect 72 0 256 0;
#X connect 73 0 167 0;
#X connect 74 0 168 0;
#X connect 75 0 76 0;
#X connect 76 0 77 0;
#X connect 77 0 79 0;
#X connect 78 0 73 1;
#X connect 79 0 78 0;
#X connect 80 0 81 0;
#X connect 81 0 82 0;
#X connect 82 0 84 0;
#X connect 83 0 74 1;
#X connect 84 0 83 0;
#X connect 85 0 86 0;
#X connect 86 0 89 0;
#X connect 87 0 88 0;
#X connect 88 0 90 0;
#X connect 89 0 91 0;
#X connect 90 0 71 0;
#X connect 91 0 72 0;
#X connect 92 0 110 0;
#X connect 93 0 110 1;
#X connect 94 0 109 0;
#X connect 95 0 109 1;
#X connect 96 0 119 0;
#X connect 97 0 151 0;
#X connect 98 0 152 0;
#X connect 99 0 100 0;
#X connect 100 0 101 0;
#X connect 101 0 103 0;
#X connect 102 0 97 1;
#X connect 103 0 102 0;
#X connect 104 0 105 0;
#X connect 105 0 106 0;
#X connect 106 0 108 0;
#X connect 107 0 98 1;
#X connect 108 0 107 0;
#X connect 109 0 293 0;
#X connect 110 0 294 0;
#X connect 111 0 118 0;
#X connect 112 0 111 0;
#X connect 113 0 112 0;
#X connect 114 0 115 0;
#X connect 115 0 116 0;
#X connect 116 0 117 0;
#X connect 117 0 259 0;
#X connect 118 0 258 0;
#X connect 119 0 236 0;
#X connect 120 0 238 0;
#X connect 121 0 140 0;
#X connect 122 0 140 1;
#X connect 123 0 139 0;
#X connect 124 0 139 1;
#X connect 125 0 149 0;
#X connect 126 0 150 0;
#X connect 127 0 154 0;
#X connect 128 0 153 0;
#X connect 129 0 130 0;
#X connect 130 0 131 0;
#X connect 131 0 133 0;
#X connect 132 0 127 1;
#X connect 133 0 132 0;
#X connect 134 0 135 0;
#X connect 135 0 136 0;
#X connect 136 0 138 0;
#X connect 137 0 128 1;
#X connect 138 0 137 0;
#X connect 139 0 287 0;
#X connect 140 0 289 0;
#X connect 141 0 148 0;
#X connect 142 0 141 0;
#X connect 143 0 142 0;
#X connect 144 0 145 0;
#X connect 145 0 146 0;
#X connect 146 0 147 0;
#X connect 147 0 260 0;
#X connect 148 0 286 0;
#X connect 149 0 262 0;
#X connect 150 0 261 0;
#X connect 151 0 167 0;
#X connect 152 0 168 0;
#X connect 153 0 275 0;
#X connect 154 0 290 0;
#X connect 155 0 168 0;
#X connect 156 0 167 0;
#X connect 157 0 156 0;
#X connect 158 0 155 0;
#X connect 159 0 243 0;
#X connect 160 0 163 0;
#X connect 161 0 242 0;
#X connect 162 0 164 1;
#X connect 163 0 271 0;
#X connect 164 0 272 0;
#X connect 165 0 163 1;
#X connect 166 0 164 0;
#X connect 167 0 165 0;
#X connect 168 0 166 0;
#X connect 169 0 257 0;
#X connect 170 0 169 1;
#X connect 171 0 170 0;
#X connect 172 0 171 0;
#X connect 172 0 169 0;
#X connect 173 0 268 0;
#X connect 174 0 173 1;
#X connect 175 0 174 0;
#X connect 176 0 175 0;
#X connect 176 0 173 0;
#X connect 177 0 167 0;
#X connect 178 0 168 0;
#X connect 179 0 220 0;
#X connect 180 0 182 0;
#X connect 181 0 186 0;
#X connect 182 0 183 0;
#X connect 183 0 184 0;
#X connect 184 0 185 0;
#X connect 185 0 200 0;
#X connect 186 0 187 0;
#X connect 187 0 188 0;
#X connect 188 0 189 0;
#X connect 189 0 201 0;
#X connect 190 0 192 0;
#X connect 191 0 196 0;
#X connect 192 0 193 0;
#X connect 193 0 194 0;
#X connect 194 0 195 0;
#X connect 195 0 202 0;
#X connect 196 0 197 0;
#X connect 197 0 198 0;
#X connect 198 0 199 0;
#X connect 199 0 203 0;
#X connect 200 0 179 0;
#X connect 201 0 179 1;
#X connect 202 0 218 0;
#X connect 203 0 218 1;
#X connect 204 0 252 0;
#X connect 205 0 251 0;
#X connect 206 0 225 0;
#X connect 206 0 227 0;
#X connect 207 0 226 0;
#X connect 207 0 228 0;
#X connect 208 0 209 0;
#X connect 209 0 210 0;
#X connect 210 0 212 0;
#X connect 211 0 206 1;
#X connect 212 0 211 0;
#X connect 213 0 214 0;
#X connect 214 0 215 0;
#X connect 215 0 217 0;
#X connect 216 0 207 1;
#X connect 217 0 216 0;
#X connect 218 0 219 0;
#X connect 219 0 222 0;
#X connect 220 0 221 0;
#X connect 221 0 223 0;
#X connect 222 0 224 0;
#X connect 223 0 204 0;
#X connect 224 0 205 0;
#X connect 225 0 228 0;
#X connect 226 0 227 0;
#X connect 227 0 167 0;
#X connect 228 0 168 0;
#X connect 229 0 206 0;
#X connect 230 0 120 0;
#X connect 231 0 178 0;
#X connect 232 0 177 0;
#X connect 233 0 231 0;
#X connect 234 0 232 0;
#X connect 235 0 239 0;
#X connect 236 0 266 0;
#X connect 237 0 240 0;
#X connect 238 0 267 0;
#X connect 239 0 236 1;
#X connect 240 0 238 1;
#X connect 241 0 161 0;
#X connect 242 0 245 0;
#X connect 243 0 246 0;
#X connect 244 0 159 0;
#X connect 245 0 162 0;
#X connect 246 0 160 0;
#X connect 247 0 27 0;
#X connect 248 0 74 0;
#X connect 249 0 269 0;
#X connect 250 0 270 0;
#X connect 251 0 265 0;
#X connect 252 0 229 0;
#X connect 253 0 247 0;
#X connect 254 0 264 0;
#X connect 255 0 263 0;
#X connect 256 0 248 0;
#X connect 257 0 234 0;
#X connect 258 0 96 0;
#X connect 259 0 230 0;
#X connect 260 0 126 0;
#X connect 261 0 127 0;
#X connect 262 0 128 0;
#X connect 263 0 73 0;
#X connect 264 0 28 0;
#X connect 265 0 207 0;
#X connect 266 0 98 0;
#X connect 267 0 97 0;
#X connect 268 0 233 0;
#X connect 269 0 158 0;
#X connect 270 0 157 0;
#X connect 273 0 213 0;
#X connect 273 0 208 0;
#X connect 273 0 244 0;
#X connect 273 0 29 0;
#X connect 273 0 34 0;
#X connect 273 0 80 0;
#X connect 273 0 75 0;
#X connect 273 0 129 0;
#X connect 273 0 134 0;
#X connect 273 0 99 0;
#X connect 273 0 104 0;
#X connect 274 0 241 0;
#X connect 275 0 284 0;
#X connect 276 0 279 0;
#X connect 277 0 285 0;
#X connect 278 0 280 1;
#X connect 278 0 280 0;
#X connect 279 0 278 0;
#X connect 280 0 281 1;
#X connect 280 0 283 0;
#X connect 280 0 281 0;
#X connect 281 0 282 0;
#X connect 284 0 288 0;
#X connect 285 0 276 0;
#X connect 286 0 125 0;
#X connect 287 0 143 0;
#X connect 288 0 168 0;
#X connect 288 0 276 0;
#X connect 289 0 144 0;
#X connect 290 0 291 0;
#X connect 291 0 292 0;
#X connect 292 0 167 0;
#X connect 293 0 113 0;
#X connect 294 0 114 0;
