#N canvas 137 390 1093 472 12;
#X msg 275 -130 1 9 1 3 9 9 1 9 9 4 9 9 5 9 9 9 9 9;
#X msg 274 -75 1 9 1 3 9 9 1 9 9 6 9 9 4 9 9 9 9 9;
#X msg 275 48 8 9 8 7 9 9 4 9 9 6 9 9 4 9 9 9 9 9;
#X obj 803 87 osc~;
#X floatatom 696 -123 5 0 0 0 - - -;
#X obj 671 -154 r play;
#X obj 671 -74 sel 1 2 3 4 5 6 7 8 9;
#X msg 592 -12 392;
#X text 596 -31 G4;
#X msg 628 -12 784;
#X msg 664 -12 440;
#X msg 744 -12 493.9;
#X msg 923 -12 0;
#X obj 908 218 dac~;
#X msg 967 -54 1;
#X obj 908 175 *~;
#X obj 970 132 line~;
#X msg 970 106 \$1 10;
#X msg 698 -12 523.3;
#X msg 789 -12 587.3;
#X msg 833 -12 659.3;
#X msg 877 -12 698.5;
#X obj 51 -135 tgl 15 0 empty empty empty 17 7 0 10 -262144 -1 -1 1
1;
#X msg 275 -16 1 9 1 2 9 9 7 9 9 4 9 9 5 9 9 3 9 9;
#X text 633 -32 G5;
#X text 919 -34 R;
#X text 669 -32 A4;
#X text 706 -33 C5;
#X text 744 -33 B4;
#X text 791 -34 D5;
#X text 836 -34 E5;
#X text 873 -35 F5;
#X obj 51 -96 metro 200;
#X obj 51 -21 + 1;
#X obj 51 -47 random 9;
#X obj 51 15 s play;
#X obj 138 -97 random 500;
#X text 25 50 random pitch and random tempo;
#X connect 3 0 15 0;
#X connect 5 0 4 0;
#X connect 5 0 6 0;
#X connect 6 0 7 0;
#X connect 6 0 14 0;
#X connect 6 1 9 0;
#X connect 6 1 14 0;
#X connect 6 2 10 0;
#X connect 6 2 14 0;
#X connect 6 3 18 0;
#X connect 6 3 14 0;
#X connect 6 4 11 0;
#X connect 6 4 14 0;
#X connect 6 5 19 0;
#X connect 6 5 14 0;
#X connect 6 6 20 0;
#X connect 6 6 14 0;
#X connect 6 7 21 0;
#X connect 6 7 14 0;
#X connect 6 8 12 0;
#X connect 7 0 3 0;
#X connect 9 0 3 0;
#X connect 10 0 3 0;
#X connect 11 0 3 0;
#X connect 12 0 17 0;
#X connect 14 0 17 0;
#X connect 15 0 13 0;
#X connect 15 0 13 1;
#X connect 16 0 15 1;
#X connect 17 0 16 0;
#X connect 18 0 3 0;
#X connect 19 0 3 0;
#X connect 20 0 3 0;
#X connect 21 0 3 0;
#X connect 22 0 32 0;
#X connect 32 0 34 0;
#X connect 32 0 36 0;
#X connect 33 0 35 0;
#X connect 34 0 33 0;
#X connect 36 0 32 1;
