#N canvas 128 103 1292 689 12;
#X msg 407 11 1 9 1 3 9 9 1 9 9 4 9 9 5 9 9 9 9 9;
#X msg 406 66 1 9 1 3 9 9 1 9 9 6 9 9 4 9 9 9 9 9;
#X msg 407 189 8 9 8 7 9 9 4 9 9 6 9 9 4 9 9 9 9 9;
#X obj 1014 259 osc~;
#X floatatom 907 49 5 0 0 0 - - -;
#X obj 882 18 r play;
#X obj 882 98 sel 1 2 3 4 5 6 7 8 9;
#X msg 803 160 392;
#X text 807 141 G4;
#X msg 839 160 784;
#X msg 875 160 440;
#X msg 955 160 493.9;
#X msg 1134 160 0;
#X obj 1119 390 dac~;
#X msg 1178 118 1;
#X obj 1119 347 *~;
#X obj 1181 304 line~;
#X msg 1181 278 \$1 10;
#X msg 909 160 523.3;
#X msg 1000 160 587.3;
#X msg 1044 160 659.3;
#X msg 1088 160 698.5;
#X obj 89 444 list split 1;
#X obj 89 405 list append;
#X obj 163 355 list append;
#X obj 89 232 bng 15 250 50 0 empty empty empty 17 7 0 10 -262144 -1
-1;
#X text 109 228 next;
#X obj 12 464 t b b;
#X obj 42 335 t b;
#X floatatom 78 565 5 0 0 0 - - -;
#X obj 242 549 bng 15 250 50 0 empty empty empty 17 7 0 10 -262144
-1 -1;
#X obj 150 604 s play;
#X obj 77 28 tgl 15 0 empty empty empty 17 7 0 10 -262144 -1 -1 0 1
;
#X msg 407 125 1 9 1 2 9 9 7 9 9 4 9 9 5 9 9 3 9 9;
#X msg 237 289 1 9 1 3 9 9 1 9 9 4 9 9 5 9 9 9 9 9 1 9 1 3 9 9 1 9
9 6 9 9 4 9 9 9 9 9 1 9 1 2 9 9 7 9 9 4 9 9 5 9 9 3 9 9 8 9 8 7 9 9
4 9 9 6 9 9 4 9 9 9 9 9;
#X text 844 140 G5;
#X text 1130 138 R;
#X text 880 140 A4;
#X text 917 139 C5;
#X text 955 139 B4;
#X text 1002 138 D5;
#X text 1047 138 E5;
#X text 1084 137 F5;
#X obj 172 119 random 500;
#X obj 89 120 metro 200;
#X obj 237 262 loadbang;
#X text 374 -25 The four individual verses of 'Happy Birthday';
#X text 253 352 saves the full list (right inlet) sends out the full
list when a bang is received (left inlet);
#X text 359 259 The whole 'Happy Birthday' score in a list:;
#X text 262 521 when the list is depleted \, a bang is sent out from
the rightmost outlet to the first [list append] object through a [t
b b] and a [t b] object in order to output the full list again.;
#X text 201 602 send the current note for playback;
#X text 874 -2 receives note for playback;
#X text 848 183 plays frequency based on our mappings;
#X text 100 26 starts the melody;
#X text 105 92 randomizes the ms value on every step;
#X text -104 297 this [t b] is here only for tidy patching;
#X text 199 440 splits the first element of the list (left outlet)
and sends back up the remaining for the next step (middle outlet);
#X text 180 399 saves the list and receives the remaining list after
each note split from [list split 1];
#X connect 3 0 15 0;
#X connect 5 0 4 0;
#X connect 5 0 6 0;
#X connect 6 0 7 0;
#X connect 6 0 14 0;
#X connect 6 1 9 0;
#X connect 6 1 14 0;
#X connect 6 2 10 0;
#X connect 6 2 14 0;
#X connect 6 3 18 0;
#X connect 6 3 14 0;
#X connect 6 4 11 0;
#X connect 6 4 14 0;
#X connect 6 5 19 0;
#X connect 6 5 14 0;
#X connect 6 6 20 0;
#X connect 6 6 14 0;
#X connect 6 7 21 0;
#X connect 6 7 14 0;
#X connect 6 8 12 0;
#X connect 7 0 3 0;
#X connect 9 0 3 0;
#X connect 10 0 3 0;
#X connect 11 0 3 0;
#X connect 12 0 17 0;
#X connect 14 0 17 0;
#X connect 15 0 13 0;
#X connect 15 0 13 1;
#X connect 16 0 15 1;
#X connect 17 0 16 0;
#X connect 18 0 3 0;
#X connect 19 0 3 0;
#X connect 20 0 3 0;
#X connect 21 0 3 0;
#X connect 22 0 29 0;
#X connect 22 0 31 0;
#X connect 22 1 23 1;
#X connect 22 2 27 0;
#X connect 22 2 30 0;
#X connect 23 0 22 0;
#X connect 24 0 23 1;
#X connect 25 0 23 0;
#X connect 27 0 23 0;
#X connect 27 1 28 0;
#X connect 28 0 24 0;
#X connect 32 0 44 0;
#X connect 34 0 24 1;
#X connect 43 0 44 1;
#X connect 44 0 25 0;
#X connect 44 0 43 0;
#X connect 45 0 34 0;
