#N canvas 120 276 255 340 10;
#X obj 117 222 +~;
#X obj 71 185 +~;
#X obj 119 53 vline~;
#X obj 4 7 inlet~;
#X obj 71 318 outlet~;
#X obj 119 6 inlet;
#X obj 133 157 *~;
#X obj 71 158 +~ 10;
#X obj 149 132 inlet width;
#X msg 119 28 1 \, 0 5000;
#X obj 71 53 sig~ 1;
#X obj 71 84 -~;
#X obj 71 105 *~ 4;
#X obj 71 126 +~ 0.0001;
#X obj 71 278 *~;
#X obj 71 298 *~ 0.33;
#X obj 4 30 delwrite~ \$0_xexp 120;
#X obj 27 249 vd~ \$0_xexp;
#X obj 94 248 vd~ \$0_xexp;
#X obj 179 247 vd~ \$0_xexp;
#X connect 0 0 19 0;
#X connect 1 0 0 0;
#X connect 1 0 18 0;
#X connect 2 0 11 1;
#X connect 2 0 14 1;
#X connect 3 0 16 0;
#X connect 5 0 9 0;
#X connect 6 0 1 1;
#X connect 6 0 0 1;
#X connect 7 0 1 0;
#X connect 7 0 17 0;
#X connect 8 0 6 1;
#X connect 9 0 2 0;
#X connect 10 0 11 0;
#X connect 11 0 12 0;
#X connect 12 0 13 0;
#X connect 13 0 7 0;
#X connect 13 0 6 0;
#X connect 14 0 15 0;
#X connect 15 0 4 0;
#X connect 17 0 14 0;
#X connect 18 0 14 0;
#X connect 19 0 14 0;
