#N canvas 150 186 613 259 10;
#N canvas 0 22 538 497 chirper 0;
#X obj 220 458 dac~;
#X obj 222 357 *~;
#X obj 222 260 cos~;
#X obj 222 238 +~ 0.25;
#X obj 222 282 clip~ 0 1;
#X obj 237 324 osc~ 12342;
#X obj 251 304 osc~ 5134;
#X obj 239 171 wrap~;
#X obj 223 214 +~;
#X obj 160 133 clip~ 0 1;
#X obj 160 170 wrap~;
#X obj 239 134 clip~ 1 4;
#X obj 205 94 *~ 44;
#X obj 204 71 phasor~ 0.8;
#X obj 222 381 *~ 0.05;
#X obj 221 431 *~;
#X obj 237 406 inlet~;
#X connect 1 0 14 0;
#X connect 2 0 4 0;
#X connect 3 0 2 0;
#X connect 4 0 1 0;
#X connect 5 0 1 1;
#X connect 6 0 1 1;
#X connect 7 0 8 1;
#X connect 8 0 3 0;
#X connect 9 0 10 0;
#X connect 10 0 8 0;
#X connect 11 0 7 0;
#X connect 12 0 9 0;
#X connect 12 0 11 0;
#X connect 13 0 12 0;
#X connect 14 0 15 0;
#X connect 15 0 0 1;
#X connect 15 0 0 0;
#X connect 16 0 15 1;
#X restore 249 71 pd chirper;
#N canvas 0 22 632 558 rattler 0;
#X obj 121 158 sig~ 1;
#X obj 121 190 /~;
#X obj 174 167 +~ 1;
#X obj 175 141 *~;
#X obj 230 167 noise~;
#X obj 121 215 *~;
#X obj 121 415 dac~;
#X obj 121 309 *~;
#X obj 230 213 *~ 0.1;
#X obj 317 186 clip~ 0 1;
#X obj 121 342 *~ 0.2;
#X obj 316 163 *~ 3;
#X obj 317 211 *~ 1;
#X obj 175 112 *~ 6;
#X obj 317 140 osc~ 0.5;
#X obj 175 90 osc~ 10;
#X obj 230 189 bp~ 7000 13;
#X obj 121 241 bp~ 6000 16;
#X obj 122 390 *~;
#X obj 138 365 inlet~;
#X connect 0 0 1 0;
#X connect 1 0 5 0;
#X connect 2 0 1 1;
#X connect 3 0 2 0;
#X connect 4 0 16 0;
#X connect 5 0 17 0;
#X connect 7 0 10 0;
#X connect 8 0 17 0;
#X connect 9 0 12 0;
#X connect 10 0 18 0;
#X connect 11 0 9 0;
#X connect 12 0 7 1;
#X connect 13 0 3 0;
#X connect 13 0 3 1;
#X connect 14 0 11 0;
#X connect 15 0 13 0;
#X connect 16 0 5 1;
#X connect 16 0 8 0;
#X connect 17 0 7 0;
#X connect 18 0 6 1;
#X connect 18 0 6 0;
#X connect 19 0 18 1;
#X restore 188 126 pd rattler;
#N canvas 0 22 519 413 critters2 0;
#X obj 93 226 *~;
#X obj 94 188 *~;
#X obj 94 152 *~;
#X obj 126 46 unpack 1 2 3 4;
#X obj 92 375 dac~;
#X obj 92 253 hip~ 20;
#X obj 95 107 cos~;
#X obj 158 106 cos~;
#X obj 233 105 cos~;
#X obj 303 105 cos~;
#X obj 303 75 phasor~;
#X obj 234 75 phasor~;
#X obj 158 76 phasor~;
#X obj 96 76 phasor~;
#X obj 126 -1 loadbang;
#X text 129 296 night critters \, ajf2005;
#X obj 108 270 osc~ 0.01;
#X obj 91 295 *~;
#X obj 91 317 *~ 0.007;
#X msg 126 23 2012 4 20 2;
#X obj 92 345 *~;
#X obj 158 316 inlet~;
#X connect 0 0 5 0;
#X connect 1 0 0 0;
#X connect 2 0 1 0;
#X connect 3 0 13 0;
#X connect 3 1 12 0;
#X connect 3 2 11 0;
#X connect 3 3 10 0;
#X connect 5 0 17 0;
#X connect 6 0 2 0;
#X connect 7 0 2 1;
#X connect 8 0 1 1;
#X connect 9 0 0 1;
#X connect 10 0 9 0;
#X connect 11 0 8 0;
#X connect 12 0 7 0;
#X connect 13 0 6 0;
#X connect 14 0 19 0;
#X connect 16 0 17 1;
#X connect 17 0 18 0;
#X connect 18 0 20 0;
#X connect 19 0 3 0;
#X connect 20 0 4 0;
#X connect 20 0 4 1;
#X connect 21 0 20 1;
#X restore 14 26 pd critters2;
#N canvas 0 22 537 503 cricket 0;
#X obj 141 220 cos~;
#X obj 156 140 cos~;
#X obj 141 197 +~;
#X obj 104 164 wrap~;
#X obj 119 418 dac~;
#X obj 119 344 *~ 0.07;
#X obj 156 168 *~ 0.2;
#X obj 140 247 *~;
#X obj 156 119 wrap~;
#X obj 119 281 *~;
#X obj 66 162 cos~;
#X obj 129 57 phasor~ 18;
#X obj 104 140 *~ 250;
#X obj 156 95 *~ 2.1;
#X obj 264 179 *~;
#X obj 212 104 noise~;
#X obj 212 126 lop~ 5;
#X obj 197 224 *~;
#X obj 198 200 +~ 0.6;
#X obj 211 157 *~ 12;
#X obj 264 131 phasor~ -2;
#X obj 261 -9 noise~;
#X obj 262 13 lop~ 0.2;
#X obj 263 35 lop~ 0.2;
#X obj 263 82 clip~ 0 1;
#X obj 263 58 *~ 1e+09;
#X obj 119 311 *~;
#X obj 263 108 *~ -2;
#X obj 264 154 lop~ 8;
#X obj 119 393 *~;
#X obj 135 368 inlet~;
#X connect 0 0 7 0;
#X connect 1 0 6 0;
#X connect 2 0 0 0;
#X connect 3 0 2 0;
#X connect 5 0 29 0;
#X connect 6 0 2 1;
#X connect 7 0 9 1;
#X connect 8 0 1 0;
#X connect 9 0 26 0;
#X connect 10 0 9 0;
#X connect 11 0 12 0;
#X connect 11 0 13 0;
#X connect 11 0 10 0;
#X connect 12 0 3 0;
#X connect 13 0 8 0;
#X connect 14 0 17 1;
#X connect 15 0 16 0;
#X connect 16 0 19 0;
#X connect 16 0 28 0;
#X connect 17 0 7 1;
#X connect 18 0 17 0;
#X connect 19 0 18 0;
#X connect 20 0 28 0;
#X connect 21 0 22 0;
#X connect 22 0 23 0;
#X connect 23 0 25 0;
#X connect 24 0 26 1;
#X connect 24 0 27 0;
#X connect 25 0 24 0;
#X connect 26 0 5 0;
#X connect 27 0 20 0;
#X connect 28 0 14 1;
#X connect 28 0 14 0;
#X connect 29 0 4 1;
#X connect 29 0 4 0;
#X connect 30 0 29 1;
#X restore 15 72 pd cricket;
#N canvas 0 22 531 585 cricket 0;
#X obj 141 220 cos~;
#X obj 156 140 cos~;
#X obj 141 197 +~;
#X obj 104 164 wrap~;
#X obj 115 420 dac~;
#X obj 119 344 *~ 0.07;
#X obj 156 168 *~ 0.2;
#X obj 140 247 *~;
#X obj 156 119 wrap~;
#X obj 119 281 *~;
#X obj 66 162 cos~;
#X obj 104 140 *~ 250;
#X obj 156 95 *~ 2.1;
#X obj 264 179 *~;
#X obj 212 104 noise~;
#X obj 212 126 lop~ 5;
#X obj 197 224 *~;
#X obj 198 200 +~ 0.6;
#X obj 211 157 *~ 12;
#X obj 264 131 phasor~ -2;
#X obj 261 -9 noise~;
#X obj 262 13 lop~ 0.2;
#X obj 263 35 lop~ 0.2;
#X obj 263 82 clip~ 0 1;
#X obj 263 58 *~ 1e+09;
#X obj 119 311 *~;
#X obj 264 154 lop~ 8;
#X obj 129 57 phasor~ 21;
#X obj 263 108 *~ -4;
#X obj 119 392 *~;
#X obj 135 367 inlet~;
#X connect 0 0 7 0;
#X connect 1 0 6 0;
#X connect 2 0 0 0;
#X connect 3 0 2 0;
#X connect 5 0 29 0;
#X connect 6 0 2 1;
#X connect 7 0 9 1;
#X connect 8 0 1 0;
#X connect 9 0 25 0;
#X connect 10 0 9 0;
#X connect 11 0 3 0;
#X connect 12 0 8 0;
#X connect 13 0 16 1;
#X connect 14 0 15 0;
#X connect 15 0 18 0;
#X connect 15 0 26 0;
#X connect 16 0 7 1;
#X connect 17 0 16 0;
#X connect 18 0 17 0;
#X connect 19 0 26 0;
#X connect 20 0 21 0;
#X connect 21 0 22 0;
#X connect 22 0 24 0;
#X connect 23 0 25 1;
#X connect 23 0 28 0;
#X connect 24 0 23 0;
#X connect 25 0 5 0;
#X connect 26 0 13 1;
#X connect 26 0 13 0;
#X connect 27 0 11 0;
#X connect 27 0 12 0;
#X connect 27 0 10 0;
#X connect 28 0 19 0;
#X connect 29 0 4 0;
#X connect 29 0 4 1;
#X connect 30 0 29 1;
#X restore 93 72 pd cricket;
#N canvas 0 22 559 558 cricket 0;
#X obj 141 220 cos~;
#X obj 156 140 cos~;
#X obj 141 197 +~;
#X obj 104 164 wrap~;
#X obj 120 426 dac~;
#X obj 119 344 *~ 0.07;
#X obj 156 168 *~ 0.2;
#X obj 140 247 *~;
#X obj 156 119 wrap~;
#X obj 119 281 *~;
#X obj 66 162 cos~;
#X obj 104 140 *~ 250;
#X obj 156 95 *~ 2.1;
#X obj 264 179 *~;
#X obj 212 104 noise~;
#X obj 212 126 lop~ 5;
#X obj 197 224 *~;
#X obj 198 200 +~ 0.6;
#X obj 211 157 *~ 12;
#X obj 264 131 phasor~ -2;
#X obj 261 -9 noise~;
#X obj 263 82 clip~ 0 1;
#X obj 263 58 *~ 1e+09;
#X obj 119 311 *~;
#X obj 264 154 lop~ 8;
#X obj 129 57 phasor~ 12;
#X obj 263 108 *~ -3;
#X obj 263 35 lop~ 0.1;
#X obj 262 13 lop~ 0.1;
#X obj 120 393 *~;
#X obj 136 368 inlet~;
#X connect 0 0 7 0;
#X connect 1 0 6 0;
#X connect 2 0 0 0;
#X connect 3 0 2 0;
#X connect 5 0 29 0;
#X connect 6 0 2 1;
#X connect 7 0 9 1;
#X connect 8 0 1 0;
#X connect 9 0 23 0;
#X connect 10 0 9 0;
#X connect 11 0 3 0;
#X connect 12 0 8 0;
#X connect 13 0 16 1;
#X connect 14 0 15 0;
#X connect 15 0 18 0;
#X connect 15 0 24 0;
#X connect 16 0 7 1;
#X connect 17 0 16 0;
#X connect 18 0 17 0;
#X connect 19 0 24 0;
#X connect 20 0 28 0;
#X connect 21 0 23 1;
#X connect 21 0 26 0;
#X connect 22 0 21 0;
#X connect 23 0 5 0;
#X connect 24 0 13 1;
#X connect 24 0 13 0;
#X connect 25 0 11 0;
#X connect 25 0 12 0;
#X connect 25 0 10 0;
#X connect 26 0 19 0;
#X connect 27 0 22 0;
#X connect 28 0 27 0;
#X connect 29 0 4 1;
#X connect 29 0 4 0;
#X connect 30 0 29 1;
#X restore 170 72 pd cricket;
#N canvas 0 22 586 454 cricket 0;
#X obj 216 113 osc~ 3000;
#X obj 152 346 dac~;
#X obj 151 119 *~;
#X obj 152 42 osc~ 3.6;
#X obj 151 147 *~;
#X obj 152 69 +~ 1;
#X obj 152 93 *~ 0.5;
#X obj 151 173 *~;
#X obj 217 88 +~ 3000;
#X obj 216 63 *~ 300;
#X obj 151 203 *~;
#X obj 217 40 osc~ 120;
#X obj 296 25 noise~;
#X obj 298 116 clip~ 0 1;
#X obj 298 92 *~ 1e+09;
#X obj 298 69 lop~ 0.1;
#X obj 297 47 lop~ 0.1;
#X obj 151 231 *~;
#X obj 164 315 *~;
#X obj 180 290 inlet~;
#X obj 152 265 *~ 0.05;
#X connect 0 0 10 1;
#X connect 2 0 4 0;
#X connect 2 0 4 1;
#X connect 3 0 5 0;
#X connect 4 0 7 0;
#X connect 4 0 7 1;
#X connect 5 0 6 0;
#X connect 6 0 2 0;
#X connect 6 0 2 1;
#X connect 7 0 10 0;
#X connect 8 0 0 0;
#X connect 9 0 8 0;
#X connect 10 0 17 0;
#X connect 11 0 9 0;
#X connect 12 0 16 0;
#X connect 13 0 17 1;
#X connect 14 0 13 0;
#X connect 15 0 14 0;
#X connect 16 0 15 0;
#X connect 17 0 20 0;
#X connect 18 0 1 0;
#X connect 18 0 1 1;
#X connect 19 0 18 1;
#X connect 20 0 18 0;
#X restore 437 72 pd cricket japanese;
#N canvas 0 22 724 521 bullcricket 0;
#X obj 118 47 *~ 4;
#X obj 73 86 clip~ 0 1;
#X obj 153 87 clip~ 1 2;
#X obj 153 109 -~ 1;
#X obj 152 134 wrap~;
#X obj 136 167 +~;
#X obj 222 492 dac~;
#X obj 262 133 cos~;
#X obj 216 131 cos~;
#X obj 222 304 *~;
#X obj 221 161 *~;
#X obj 118 24 phasor~ 1;
#X obj 136 243 cos~;
#X obj 136 219 -~ 0.75;
#X obj 136 197 *~ 0.5;
#X obj 237 190 +~;
#X obj 240 85 phasor~ 20;
#X obj 261 110 *~ 900;
#X obj 322 208 clip~ 0 1;
#X obj 322 184 *~ 1e+09;
#X obj 293 261 *~;
#X obj 302 152 osc~ 0.057;
#X obj 378 152 osc~ 0.027;
#X obj 237 212 hip~ 2000;
#X obj 223 454 *~;
#X obj 239 429 inlet~;
#X obj 223 328 hip~ 30;
#X obj 222 361 lop~ 3000;
#X obj 222 407 *~ 0.4;
#X connect 0 0 1 0;
#X connect 0 0 2 0;
#X connect 1 0 5 0;
#X connect 2 0 3 0;
#X connect 3 0 4 0;
#X connect 4 0 5 1;
#X connect 5 0 14 0;
#X connect 7 0 10 1;
#X connect 7 0 15 1;
#X connect 8 0 10 0;
#X connect 8 0 15 1;
#X connect 9 0 26 0;
#X connect 10 0 15 0;
#X connect 11 0 0 0;
#X connect 12 0 9 0;
#X connect 13 0 12 0;
#X connect 14 0 13 0;
#X connect 15 0 23 0;
#X connect 16 0 8 0;
#X connect 16 0 17 0;
#X connect 17 0 7 0;
#X connect 18 0 20 1;
#X connect 19 0 18 0;
#X connect 20 0 9 1;
#X connect 21 0 19 0;
#X connect 22 0 19 0;
#X connect 23 0 20 0;
#X connect 24 0 6 1;
#X connect 24 0 6 0;
#X connect 25 0 24 1;
#X connect 26 0 27 0;
#X connect 27 0 28 0;
#X connect 28 0 24 0;
#X restore 328 72 pd bullcricket;
#N canvas 0 22 494 370 critters 0;
#X obj 93 226 *~;
#X obj 94 188 *~;
#X obj 94 152 *~;
#X obj 126 46 unpack 1 2 3 4;
#X obj 90 415 dac~;
#X obj 92 253 hip~ 20;
#X obj 95 107 cos~;
#X obj 158 106 cos~;
#X obj 233 105 cos~;
#X obj 303 105 cos~;
#X obj 303 75 phasor~;
#X obj 234 75 phasor~;
#X obj 158 76 phasor~;
#X obj 96 76 phasor~;
#X obj 126 -1 loadbang;
#X text 129 296 night critters \, ajf2005;
#X msg 126 23 2134 4.279 20.4 15.5;
#X obj 108 270 osc~ 0.01;
#X obj 91 295 *~;
#X obj 91 317 *~ 0.007;
#X obj 90 382 *~;
#X obj 106 357 inlet~;
#X connect 0 0 5 0;
#X connect 1 0 0 0;
#X connect 2 0 1 0;
#X connect 3 0 13 0;
#X connect 3 1 12 0;
#X connect 3 2 11 0;
#X connect 3 3 10 0;
#X connect 5 0 18 0;
#X connect 6 0 2 0;
#X connect 7 0 2 1;
#X connect 8 0 1 1;
#X connect 9 0 0 1;
#X connect 10 0 9 0;
#X connect 11 0 8 0;
#X connect 12 0 7 0;
#X connect 13 0 6 0;
#X connect 14 0 16 0;
#X connect 16 0 3 0;
#X connect 17 0 18 1;
#X connect 18 0 19 0;
#X connect 19 0 20 0;
#X connect 20 0 4 0;
#X connect 20 0 4 1;
#X connect 21 0 20 1;
#X restore 107 24 pd critters;
#N canvas 0 22 682 607 circada1 0;
#X obj 17 7 noise~;
#X obj 98 468 dac~;
#X obj 17 75 hip~ 5000;
#X obj 17 96 hip~ 5000;
#X obj 17 117 lop~ 8000;
#X obj 17 138 lop~ 8000;
#X obj 99 216 *~;
#X obj 187 216 *~;
#X obj 99 317 *~;
#X obj 116 271 +~;
#X obj 99 337 bp~ 6000 7;
#X obj 99 358 hip~ 4000;
#X obj 99 240 *~;
#X obj 99 168 *~ -90;
#X obj 99 144 +~ 1;
#X obj 143 96 lop~ 2;
#X obj 143 72 lop~ 2;
#X obj 99 120 *~ 30;
#X obj 187 120 *~ 10;
#X obj 187 144 +~ 1;
#X obj 187 168 *~ -20;
#X obj 99 192 phasor~;
#X obj 187 192 phasor~;
#X obj 116 295 lop~ 70;
#X obj 307 103 metro 3000;
#X obj 308 78 loadbang;
#X obj 375 78 bng 15 250 50 0 empty empty empty 0 -6 0 8 -262144 -1
-1;
#X obj 308 151 sel 0 1;
#X obj 99 402 *~;
#X obj 157 379 lop~ 1;
#X msg 279 198 0;
#X msg 314 198 1;
#X obj 307 128 random 3;
#X obj 98 437 *~;
#X obj 33 385 inlet~;
#X obj 99 380 *~ 0.1;
#X connect 0 0 2 0;
#X connect 0 0 16 0;
#X connect 2 0 3 0;
#X connect 3 0 4 0;
#X connect 4 0 5 0;
#X connect 5 0 8 0;
#X connect 6 0 12 0;
#X connect 6 0 12 1;
#X connect 7 0 9 1;
#X connect 8 0 10 0;
#X connect 9 0 23 0;
#X connect 10 0 11 0;
#X connect 11 0 35 0;
#X connect 12 0 9 0;
#X connect 13 0 21 0;
#X connect 14 0 13 0;
#X connect 15 0 17 0;
#X connect 15 0 18 0;
#X connect 16 0 15 0;
#X connect 17 0 14 0;
#X connect 18 0 19 0;
#X connect 19 0 20 0;
#X connect 20 0 22 0;
#X connect 21 0 6 0;
#X connect 21 0 6 1;
#X connect 22 0 7 0;
#X connect 22 0 7 1;
#X connect 23 0 8 1;
#X connect 24 0 32 0;
#X connect 25 0 24 0;
#X connect 26 0 24 0;
#X connect 27 0 30 0;
#X connect 27 1 31 0;
#X connect 28 0 33 1;
#X connect 29 0 28 1;
#X connect 30 0 29 0;
#X connect 31 0 29 0;
#X connect 32 0 27 0;
#X connect 33 0 1 0;
#X connect 33 0 1 1;
#X connect 34 0 33 0;
#X connect 35 0 28 0;
#X restore 102 127 pd circada1;
#X obj 329 51 tgl 15 1 empty empty empty 0 -6 0 8 -262144 -1 -1 1 1
;
#X obj 437 51 tgl 15 1 empty empty empty 0 -6 0 8 -262144 -1 -1 1 1
;
#X obj 268 107 tgl 15 1 empty empty empty 0 -6 0 8 -262144 -1 -1 1
1;
#X obj 16 52 tgl 15 1 empty empty empty 0 -6 0 8 -262144 -1 -1 1 1
;
#X obj 93 51 tgl 15 1 empty empty empty 0 -6 0 8 -262144 -1 -1 1 1
;
#X obj 172 51 tgl 15 1 empty empty empty 0 -6 0 8 -262144 -1 -1 1 1
;
#X obj 188 107 tgl 15 1 empty empty empty 0 -6 0 8 -262144 -1 -1 1
1;
#X obj 249 53 tgl 15 1 empty empty empty 0 -6 0 8 -262144 -1 -1 1 1
;
#X obj 13 6 tgl 15 1 empty empty empty 0 -6 0 8 -262144 -1 -1 1 1;
#X obj 107 6 tgl 15 1 empty empty empty 0 -6 0 8 -262144 -1 -1 1 1
;
#X obj 102 107 tgl 15 1 empty empty empty 0 -6 0 8 -262144 -1 -1 1
1;
#N canvas 0 22 548 524 circada2 0;
#X obj 138 450 dac~;
#X obj 187 27 noise~;
#X obj 139 106 +~ 1;
#X obj 224 125 +~ 1;
#X obj 224 83 lop~ 5;
#X obj 224 62 lop~ 5;
#X obj 139 169 hip~ 12000;
#X obj 139 190 hip~ 12000;
#X obj 139 148 phasor~;
#X obj 139 127 *~ -120;
#X obj 224 167 osc~;
#X obj 224 104 *~ 0;
#X obj 224 188 clip~ 0 1;
#X obj 150 223 bp~ 5000 30;
#X obj 234 223 bp~ 6000 30;
#X obj 223 248 bp~ 8000 30;
#X obj 139 248 bp~ 7000 30;
#X obj 138 309 *~;
#X obj 138 330 bp~ 6000 5;
#X obj 224 146 *~ -12;
#X obj 139 64 bp~ 120 40;
#X obj 139 85 *~ 190;
#X obj 138 406 *~;
#X obj 154 384 inlet~;
#X obj 138 359 *~;
#X obj 222 329 lop~ 1;
#X obj 381 54 loadbang;
#X obj 448 54 bng 15 250 50 0 empty empty empty 0 -6 0 8 -262144 -1
-1;
#X obj 381 127 sel 0 1;
#X msg 352 174 0;
#X msg 387 174 1;
#X obj 380 104 random 4;
#X obj 380 79 metro 1000;
#X obj 138 288 *~ 0.7;
#X connect 1 0 5 0;
#X connect 1 0 20 0;
#X connect 2 0 9 0;
#X connect 3 0 19 0;
#X connect 4 0 11 0;
#X connect 5 0 4 0;
#X connect 6 0 7 0;
#X connect 7 0 13 0;
#X connect 7 0 14 0;
#X connect 7 0 15 0;
#X connect 7 0 16 0;
#X connect 8 0 6 0;
#X connect 9 0 8 0;
#X connect 10 0 12 0;
#X connect 11 0 3 0;
#X connect 12 0 17 1;
#X connect 13 0 33 0;
#X connect 14 0 33 0;
#X connect 15 0 33 0;
#X connect 16 0 33 0;
#X connect 17 0 18 0;
#X connect 18 0 24 0;
#X connect 19 0 10 0;
#X connect 20 0 21 0;
#X connect 21 0 2 0;
#X connect 22 0 0 0;
#X connect 22 0 0 1;
#X connect 23 0 22 1;
#X connect 24 0 22 0;
#X connect 25 0 24 1;
#X connect 26 0 32 0;
#X connect 27 0 32 0;
#X connect 28 0 29 0;
#X connect 28 1 30 0;
#X connect 29 0 25 0;
#X connect 30 0 25 0;
#X connect 31 0 28 0;
#X connect 32 0 31 0;
#X connect 33 0 17 0;
#X restore 18 128 pd circada2;
#X obj 19 108 tgl 15 1 empty empty empty 0 -6 0 8 -262144 -1 -1 1 1
;
#N canvas 0 22 590 525 flutter 0;
#X obj 121 158 sig~ 1;
#X obj 121 190 /~;
#X obj 174 167 +~ 1;
#X obj 175 141 *~;
#X obj 175 90 osc~ 20;
#X obj 230 167 noise~;
#X obj 121 215 *~;
#X obj 121 411 dac~;
#X obj 230 189 hip~ 8000;
#X obj 175 112 *~ 14;
#X obj 320 68 noise~;
#X obj 322 159 clip~ 0 1;
#X obj 322 135 *~ 1e+09;
#X obj 121 309 *~;
#X obj 121 241 bp~ 10000 15;
#X obj 230 213 *~ 0.1;
#X obj 304 226 clip~ 0 1;
#X obj 305 251 *~;
#X obj 303 181 osc~ 0.3;
#X obj 321 90 lop~ 0.2;
#X obj 322 112 lop~ 0.2;
#X obj 121 342 *~ 0.2;
#X obj 303 203 *~ 3;
#X obj 122 389 *~;
#X obj 138 364 inlet~;
#X connect 0 0 1 0;
#X connect 1 0 6 0;
#X connect 2 0 1 1;
#X connect 3 0 2 0;
#X connect 4 0 9 0;
#X connect 5 0 8 0;
#X connect 6 0 14 0;
#X connect 8 0 6 1;
#X connect 8 0 15 0;
#X connect 9 0 3 0;
#X connect 9 0 3 1;
#X connect 10 0 19 0;
#X connect 11 0 17 1;
#X connect 12 0 11 0;
#X connect 13 0 21 0;
#X connect 14 0 13 0;
#X connect 15 0 14 0;
#X connect 16 0 17 0;
#X connect 17 0 13 1;
#X connect 18 0 22 0;
#X connect 19 0 20 0;
#X connect 20 0 12 0;
#X connect 21 0 23 0;
#X connect 22 0 16 0;
#X connect 23 0 7 0;
#X connect 23 0 7 1;
#X connect 24 0 23 1;
#X restore 268 126 pd flutter;
#X connect 10 0 7 0;
#X connect 11 0 6 0;
#X connect 12 0 23 0;
#X connect 13 0 3 0;
#X connect 14 0 4 0;
#X connect 15 0 5 0;
#X connect 16 0 1 0;
#X connect 17 0 0 0;
#X connect 18 0 2 0;
#X connect 19 0 8 0;
#X connect 20 0 9 0;
#X connect 22 0 21 0;
