#N canvas 0 22 450 300 10;
#X obj 234 155 osc~;
#X obj 234 120 *~ 10000;
#X obj 242 234 dac~;
#X obj 235 78 r freq1;
#X obj 326 147 osc~;
#X obj 326 112 *~ 10000;
#X obj 327 70 r freq2;
#X connect 0 0 2 0;
#X connect 0 0 2 1;
#X connect 1 0 0 0;
#X connect 3 0 1 0;
#X connect 4 0 2 0;
#X connect 4 0 2 1;
#X connect 5 0 4 0;
#X connect 6 0 5 0;
