#N canvas 0 50 1362 691 10;
#N canvas 0 50 1920 997 crackle1 0;
#X obj 917 537 outlet~;
#X obj 888 182 noise~;
#X obj 962 182 noise~;
#X obj 916 322 /~ 10;
#X obj 888 239 lop~ 1500;
#X obj 888 201 lop~ 1500;
#X obj 962 258 lop~ 100;
#X obj 962 220 lop~ 100;
#X obj 962 201 lop~ 100;
#X obj 962 239 lop~ 100;
#X obj 888 258 lop~ 100;
#X obj 888 220 lop~ 1500;
#X obj 916 360 bp~ 1000 10;
#X obj 916 341 *~ 0.0005;
#X obj 916 303 /~;
#X obj 950 430 bp~ 500 3;
#X obj 950 449 *~ -1;
#X obj 917 499 clip~ -1 1;
#X obj 917 518 hip~ 400;
#X obj 916 379 *~ 0.1;
#X connect 1 0 5 0;
#X connect 2 0 8 0;
#X connect 3 0 13 0;
#X connect 4 0 10 0;
#X connect 5 0 11 0;
#X connect 6 0 14 1;
#X connect 7 0 9 0;
#X connect 8 0 7 0;
#X connect 9 0 6 0;
#X connect 10 0 14 0;
#X connect 11 0 4 0;
#X connect 12 0 19 0;
#X connect 13 0 12 0;
#X connect 14 0 3 0;
#X connect 15 0 16 0;
#X connect 16 0 17 0;
#X connect 17 0 18 0;
#X connect 18 0 0 0;
#X connect 19 0 15 0;
#X connect 19 0 17 0;
#X coords 0 997 1 996 25 150 0;
#X restore 758 211 pd crackle1;
#N canvas 0 50 1920 997 crackle2 0;
#X obj 1002 760 outlet~;
#X obj 819 258 noise~;
#X obj 888 258 noise~;
#X obj 870 391 /~ 10;
#X obj 819 315 lop~ 1500;
#X obj 819 277 lop~ 1500;
#X obj 888 334 lop~ 100;
#X obj 888 296 lop~ 100;
#X obj 888 277 lop~ 100;
#X obj 888 315 lop~ 100;
#X obj 819 334 lop~ 100;
#X obj 819 296 lop~ 1500;
#X obj 870 410 *~ 0.0005;
#X obj 870 372 /~;
#X obj 870 467 clip~ -0.5 0.5;
#X obj 950 216 noise~;
#X obj 1019 217 noise~;
#X obj 1001 353 /~ 10;
#X obj 950 273 lop~ 1500;
#X obj 950 235 lop~ 1500;
#X obj 1019 293 lop~ 100;
#X obj 1019 255 lop~ 100;
#X obj 1019 236 lop~ 100;
#X obj 1019 274 lop~ 100;
#X obj 950 292 lop~ 100;
#X obj 950 254 lop~ 1500;
#X obj 1001 372 *~ 0.0005;
#X obj 1001 334 /~;
#X obj 1001 391 lop~ 1000;
#X obj 1001 467 clip~ -0.4 0.4;
#X obj 1001 410 lop~ 1000;
#X obj 1001 429 lop~ 1000;
#X obj 688 249 noise~;
#X obj 757 249 noise~;
#X obj 739 391 /~ 10;
#X obj 688 306 lop~ 1500;
#X obj 688 268 lop~ 1500;
#X obj 757 325 lop~ 100;
#X obj 757 287 lop~ 100;
#X obj 757 268 lop~ 100;
#X obj 757 306 lop~ 100;
#X obj 688 325 lop~ 100;
#X obj 688 287 lop~ 1500;
#X obj 739 410 *~ 0.0005;
#X obj 739 372 /~;
#X obj 739 467 clip~ -0.5 0.5;
#X obj 739 429 hip~ 2000;
#X obj 870 429 bp~ 700 10;
#X obj 1081 266 noise~;
#X obj 1150 266 noise~;
#X obj 1131 410 /~ 10;
#X obj 1081 323 lop~ 1500;
#X obj 1081 285 lop~ 1500;
#X obj 1150 342 lop~ 100;
#X obj 1150 304 lop~ 100;
#X obj 1150 285 lop~ 100;
#X obj 1150 323 lop~ 100;
#X obj 1081 342 lop~ 100;
#X obj 1081 304 lop~ 1500;
#X obj 1131 429 *~ 0.0005;
#X obj 1131 391 /~;
#X obj 1131 448 clip~ -0.1 0.1;
#X obj 739 448 *~ 0.161;
#X obj 1001 448 *~ 1;
#X obj 1131 467 *~ 0.096;
#X obj 870 448 *~ 0.154;
#X obj 1212 220 noise~;
#X obj 1281 220 noise~;
#X obj 1264 353 /~ 10;
#X obj 1212 277 lop~ 1500;
#X obj 1212 239 lop~ 1500;
#X obj 1281 296 lop~ 100;
#X obj 1281 258 lop~ 100;
#X obj 1281 239 lop~ 100;
#X obj 1281 277 lop~ 100;
#X obj 1212 296 lop~ 100;
#X obj 1212 258 lop~ 1500;
#X obj 1264 334 /~;
#X obj 1264 391 lop~ 200;
#X obj 1264 410 lop~ 200;
#X obj 1264 429 lop~ 200;
#X obj 1264 372 *~ 0.001;
#X obj 1264 448 *~ 0.4;
#X obj 1264 467 clip~ -0.8 0.8;
#X obj 1002 665 hip~ 1000;
#X obj 1002 684 hip~ 1000;
#X obj 1002 703 clip~ 0.03 0.9;
#X obj 1002 722 -~ 0.45;
#X obj 1002 741 *~ 0.26;
#X connect 1 0 5 0;
#X connect 2 0 8 0;
#X connect 3 0 12 0;
#X connect 4 0 10 0;
#X connect 5 0 11 0;
#X connect 6 0 13 1;
#X connect 7 0 9 0;
#X connect 8 0 7 0;
#X connect 9 0 6 0;
#X connect 10 0 13 0;
#X connect 11 0 4 0;
#X connect 12 0 47 0;
#X connect 13 0 3 0;
#X connect 14 0 84 0;
#X connect 15 0 19 0;
#X connect 16 0 22 0;
#X connect 17 0 26 0;
#X connect 18 0 24 0;
#X connect 19 0 25 0;
#X connect 20 0 27 1;
#X connect 21 0 23 0;
#X connect 22 0 21 0;
#X connect 23 0 20 0;
#X connect 24 0 27 0;
#X connect 25 0 18 0;
#X connect 26 0 28 0;
#X connect 27 0 17 0;
#X connect 28 0 30 0;
#X connect 29 0 84 0;
#X connect 30 0 31 0;
#X connect 31 0 63 0;
#X connect 32 0 36 0;
#X connect 33 0 39 0;
#X connect 34 0 43 0;
#X connect 35 0 41 0;
#X connect 36 0 42 0;
#X connect 37 0 44 1;
#X connect 38 0 40 0;
#X connect 39 0 38 0;
#X connect 40 0 37 0;
#X connect 41 0 44 0;
#X connect 42 0 35 0;
#X connect 43 0 46 0;
#X connect 44 0 34 0;
#X connect 45 0 84 0;
#X connect 46 0 62 0;
#X connect 47 0 65 0;
#X connect 48 0 52 0;
#X connect 49 0 55 0;
#X connect 50 0 59 0;
#X connect 51 0 57 0;
#X connect 52 0 58 0;
#X connect 53 0 60 1;
#X connect 54 0 56 0;
#X connect 55 0 54 0;
#X connect 56 0 53 0;
#X connect 57 0 60 0;
#X connect 58 0 51 0;
#X connect 59 0 61 0;
#X connect 60 0 50 0;
#X connect 61 0 64 0;
#X connect 62 0 45 0;
#X connect 63 0 29 0;
#X connect 64 0 84 0;
#X connect 65 0 14 0;
#X connect 66 0 70 0;
#X connect 67 0 73 0;
#X connect 68 0 81 0;
#X connect 69 0 75 0;
#X connect 70 0 76 0;
#X connect 71 0 77 1;
#X connect 72 0 74 0;
#X connect 73 0 72 0;
#X connect 74 0 71 0;
#X connect 75 0 77 0;
#X connect 76 0 69 0;
#X connect 77 0 68 0;
#X connect 78 0 79 0;
#X connect 79 0 80 0;
#X connect 80 0 82 0;
#X connect 81 0 78 0;
#X connect 82 0 83 0;
#X connect 83 0 84 0;
#X connect 84 0 85 0;
#X connect 85 0 86 0;
#X connect 86 0 87 0;
#X connect 87 0 88 0;
#X connect 88 0 0 0;
#X coords 0 997 1 996 25 150 0;
#X restore 768 230 pd crackle2;
#N canvas 0 0 1366 695 crackle3 0;
#X obj 699 329 outlet~;
#X obj 699 253 *~;
#X obj 775 87 env~;
#X obj 775 68 lop~ 1;
#X msg 828 144 bang;
#X obj 828 163 random 30;
#X obj 828 202 line~;
#X msg 828 183 1 \, 0 \$1;
#X obj 828 237 *~;
#X obj 762 38 noise~;
#X obj 481 275 *~;
#X obj 557 110 env~;
#X obj 557 91 lop~ 1;
#X msg 609 167 bang;
#X obj 609 186 random 30;
#X obj 609 224 line~;
#X msg 609 205 1 \, 0 \$1;
#X obj 609 259 *~;
#X obj 543 60 noise~;
#X obj 699 272 *~ 0.5;
#X obj 699 118 bp~ 4000 1;
#X obj 775 106 moses 40;
#X obj 828 125 moses 40.1;
#X obj 557 129 moses 55;
#X obj 609 148 moses 55.2;
#X obj 481 139 bp~ 5000 1;
#X obj 953 236 / 1000;
#X obj 953 255 pack 0 500;
#X obj 953 217 + 250;
#X obj 953 198 random 650;
#X obj 699 291 *~;
#X obj 699 310 *~ 0.055;
#X obj 953 179 inlet;
#X obj 953 274 line~;
#X connect 1 0 19 0;
#X connect 2 0 21 0;
#X connect 3 0 2 0;
#X connect 4 0 5 0;
#X connect 5 0 7 0;
#X connect 6 0 8 0;
#X connect 6 0 8 1;
#X connect 7 0 6 0;
#X connect 8 0 1 1;
#X connect 9 0 3 0;
#X connect 9 0 20 0;
#X connect 10 0 30 0;
#X connect 11 0 23 0;
#X connect 12 0 11 0;
#X connect 13 0 14 0;
#X connect 14 0 16 0;
#X connect 15 0 17 0;
#X connect 15 0 17 1;
#X connect 16 0 15 0;
#X connect 17 0 10 1;
#X connect 18 0 12 0;
#X connect 18 0 25 0;
#X connect 19 0 30 0;
#X connect 20 0 1 0;
#X connect 21 1 22 0;
#X connect 22 0 4 0;
#X connect 23 1 24 0;
#X connect 24 0 13 0;
#X connect 25 0 10 0;
#X connect 26 0 27 0;
#X connect 27 0 33 0;
#X connect 28 0 26 0;
#X connect 29 0 28 0;
#X connect 30 0 31 0;
#X connect 31 0 0 0;
#X connect 32 0 29 0;
#X connect 33 0 30 1;
#X coords 0 695 1 694 25 150 0;
#X restore 778 249 pd crackle3;
#N canvas 0 50 1362 691 rumble1 0;
#X obj 304 533 outlet~;
#X obj 567 140 noise~;
#X obj 567 249 bp~;
#X obj 620 149 line;
#X obj 567 268 clip~ -1 1;
#X obj 697 140 noise~;
#X obj 697 249 bp~;
#X obj 750 149 line;
#X obj 697 268 clip~ -1 1;
#X obj 827 140 noise~;
#X obj 827 249 bp~;
#X obj 880 149 line;
#X obj 827 268 clip~ -1 1;
#X obj 304 139 noise~;
#X obj 304 248 bp~;
#X obj 357 148 line;
#X obj 304 267 clip~ -1 1;
#X obj 434 139 noise~;
#X obj 434 248 bp~;
#X obj 487 148 line;
#X obj 434 267 clip~ -1 1;
#X obj 996 440 / 1000;
#X obj 996 459 pack 0 500;
#X obj 996 421 + 250;
#X obj 996 402 random 650;
#X obj 875 191 loadbang;
#X obj 827 306 lop~ 200;
#X obj 827 287 lop~ 200;
#X obj 697 287 lop~ 200;
#X obj 697 306 lop~ 200;
#X obj 566 306 lop~ 200;
#X obj 567 287 lop~ 200;
#X obj 434 286 lop~ 200;
#X obj 434 305 lop~ 200;
#X obj 304 305 lop~ 200;
#X obj 304 286 lop~ 200;
#X obj 304 325 hip~ 50;
#X obj 434 325 hip~ 50;
#X obj 566 325 hip~ 50;
#X obj 697 325 hip~ 50;
#X obj 827 325 hip~ 50;
#X obj 304 363 clip~ -1 1;
#X obj 434 363 clip~ -1 1;
#X obj 566 363 clip~ -1 1;
#X obj 697 363 clip~ -1 1;
#X obj 827 363 clip~ -1 1;
#X obj 304 344 *~ 100;
#X obj 434 344 *~ 100;
#X obj 566 344 *~ 100;
#X obj 697 344 *~ 100;
#X obj 827 344 *~ 100;
#X obj 304 495 *~;
#X obj 880 111 random 150;
#X obj 750 111 random 150;
#X obj 620 111 random 150;
#X obj 487 110 random 150;
#X obj 357 110 random 150;
#X obj 996 68 inlet;
#X msg 880 232 5;
#X msg 750 232 5;
#X msg 620 232 5;
#X msg 487 231 5;
#X msg 357 231 5;
#X obj 304 476 lop~ 100;
#X obj 880 130 pack 0 250;
#X obj 750 130 pack 0 250;
#X obj 620 130 pack 0 250;
#X obj 487 129 pack 0 250;
#X obj 357 129 pack 0 250;
#X obj 304 514 *~ 0.01;
#X obj 996 478 line~;
#X connect 1 0 2 0;
#X connect 2 0 4 0;
#X connect 3 0 2 1;
#X connect 4 0 31 0;
#X connect 5 0 6 0;
#X connect 6 0 8 0;
#X connect 7 0 6 1;
#X connect 8 0 28 0;
#X connect 9 0 10 0;
#X connect 10 0 12 0;
#X connect 11 0 10 1;
#X connect 12 0 27 0;
#X connect 13 0 14 0;
#X connect 14 0 16 0;
#X connect 15 0 14 1;
#X connect 16 0 35 0;
#X connect 17 0 18 0;
#X connect 18 0 20 0;
#X connect 19 0 18 1;
#X connect 20 0 32 0;
#X connect 21 0 22 0;
#X connect 22 0 70 0;
#X connect 23 0 21 0;
#X connect 24 0 23 0;
#X connect 25 0 58 0;
#X connect 25 0 59 0;
#X connect 25 0 60 0;
#X connect 25 0 61 0;
#X connect 25 0 62 0;
#X connect 26 0 40 0;
#X connect 27 0 26 0;
#X connect 28 0 29 0;
#X connect 29 0 39 0;
#X connect 30 0 38 0;
#X connect 31 0 30 0;
#X connect 32 0 33 0;
#X connect 33 0 37 0;
#X connect 34 0 36 0;
#X connect 35 0 34 0;
#X connect 36 0 46 0;
#X connect 37 0 47 0;
#X connect 38 0 48 0;
#X connect 39 0 49 0;
#X connect 40 0 50 0;
#X connect 41 0 63 0;
#X connect 42 0 63 0;
#X connect 43 0 63 0;
#X connect 44 0 63 0;
#X connect 45 0 63 0;
#X connect 46 0 41 0;
#X connect 47 0 42 0;
#X connect 48 0 43 0;
#X connect 49 0 44 0;
#X connect 50 0 45 0;
#X connect 51 0 69 0;
#X connect 52 0 64 0;
#X connect 53 0 65 0;
#X connect 54 0 66 0;
#X connect 55 0 67 0;
#X connect 56 0 68 0;
#X connect 57 0 24 0;
#X connect 57 0 52 0;
#X connect 57 0 53 0;
#X connect 57 0 54 0;
#X connect 57 0 55 0;
#X connect 57 0 56 0;
#X connect 58 0 10 2;
#X connect 59 0 6 2;
#X connect 60 0 2 2;
#X connect 61 0 18 2;
#X connect 62 0 14 2;
#X connect 63 0 51 0;
#X connect 64 0 11 0;
#X connect 65 0 7 0;
#X connect 66 0 3 0;
#X connect 67 0 19 0;
#X connect 68 0 15 0;
#X connect 69 0 0 0;
#X connect 70 0 51 1;
#X coords 0 691 1 690 250 150 0;
#X restore 728 154 pd rumble1;
#N canvas 0 50 1366 685 rumble2 0;
#X obj 1010 559 outlet~;
#X obj 618 194 noise~;
#X obj 618 303 bp~;
#X obj 671 203 line;
#X obj 618 322 clip~ -1 1;
#X obj 748 194 noise~;
#X obj 748 303 bp~;
#X obj 801 203 line;
#X obj 748 322 clip~ -1 1;
#X obj 878 194 noise~;
#X obj 878 303 bp~;
#X obj 931 203 line;
#X obj 878 322 clip~ -1 1;
#X obj 358 192 noise~;
#X obj 358 301 bp~;
#X obj 411 201 line;
#X obj 358 320 clip~ -1 1;
#X obj 488 192 noise~;
#X obj 488 301 bp~;
#X obj 541 201 line;
#X obj 488 320 clip~ -1 1;
#X obj 1028 464 / 1000;
#X obj 1028 483 pack 0 500;
#X obj 878 360 lop~ 500;
#X obj 878 341 lop~ 500;
#X obj 748 341 lop~ 500;
#X obj 748 360 lop~ 500;
#X obj 618 360 lop~ 500;
#X obj 618 341 lop~ 500;
#X obj 488 339 lop~ 500;
#X obj 488 358 lop~ 500;
#X obj 358 358 lop~ 500;
#X obj 358 339 lop~ 500;
#X obj 878 380 hip~ 100;
#X obj 748 380 hip~ 100;
#X obj 618 380 hip~ 100;
#X obj 488 378 hip~ 100;
#X obj 358 378 hip~ 100;
#X obj 1028 445 + 250;
#X obj 1028 426 random 650;
#X obj 931 226 loadbang;
#X obj 1010 521 *~;
#X obj 1028 54 inlet;
#X obj 931 184 pack 0 150;
#X obj 801 184 pack 0 150;
#X obj 671 184 pack 0 150;
#X obj 541 182 pack 0 150;
#X obj 801 184 pack 0 150;
#X obj 411 182 pack 0 150;
#X obj 931 165 random 600;
#X obj 801 165 random 600;
#X obj 671 165 random 600;
#X obj 541 163 random 600;
#X obj 411 163 random 600;
#X msg 671 286 5;
#X msg 801 286 5;
#X msg 931 286 5;
#X msg 541 284 5;
#X msg 411 284 5;
#X obj 358 409 *~ 0.15;
#X obj 488 409 *~ 0.15;
#X obj 618 409 *~ 0.15;
#X obj 748 409 *~ 0.15;
#X obj 878 409 *~ 0.15;
#X obj 1010 540 *~ 0.05;
#X obj 1028 502 line~;
#X connect 1 0 2 0;
#X connect 2 0 4 0;
#X connect 3 0 2 1;
#X connect 4 0 28 0;
#X connect 5 0 6 0;
#X connect 6 0 8 0;
#X connect 7 0 6 1;
#X connect 8 0 25 0;
#X connect 9 0 10 0;
#X connect 10 0 12 0;
#X connect 11 0 10 1;
#X connect 12 0 24 0;
#X connect 13 0 14 0;
#X connect 14 0 16 0;
#X connect 15 0 14 1;
#X connect 16 0 32 0;
#X connect 17 0 18 0;
#X connect 18 0 20 0;
#X connect 19 0 18 1;
#X connect 20 0 29 0;
#X connect 21 0 22 0;
#X connect 22 0 65 0;
#X connect 23 0 33 0;
#X connect 24 0 23 0;
#X connect 25 0 26 0;
#X connect 26 0 34 0;
#X connect 27 0 35 0;
#X connect 28 0 27 0;
#X connect 29 0 30 0;
#X connect 30 0 36 0;
#X connect 31 0 37 0;
#X connect 32 0 31 0;
#X connect 33 0 63 0;
#X connect 34 0 62 0;
#X connect 35 0 61 0;
#X connect 36 0 60 0;
#X connect 37 0 59 0;
#X connect 38 0 21 0;
#X connect 39 0 38 0;
#X connect 40 0 56 0;
#X connect 40 0 55 0;
#X connect 40 0 54 0;
#X connect 40 0 57 0;
#X connect 40 0 58 0;
#X connect 41 0 64 0;
#X connect 42 0 39 0;
#X connect 42 0 49 0;
#X connect 42 0 51 0;
#X connect 42 0 52 0;
#X connect 42 0 53 0;
#X connect 42 0 50 0;
#X connect 43 0 11 0;
#X connect 44 0 7 0;
#X connect 45 0 3 0;
#X connect 46 0 19 0;
#X connect 48 0 15 0;
#X connect 49 0 43 0;
#X connect 50 0 44 0;
#X connect 51 0 45 0;
#X connect 52 0 46 0;
#X connect 53 0 48 0;
#X connect 54 0 2 2;
#X connect 55 0 6 2;
#X connect 56 0 10 2;
#X connect 57 0 18 2;
#X connect 58 0 14 2;
#X connect 59 0 41 0;
#X connect 60 0 41 0;
#X connect 61 0 41 0;
#X connect 62 0 41 0;
#X connect 63 0 41 0;
#X connect 64 0 0 0;
#X connect 65 0 41 1;
#X coords 0 685 1 684 25 150 0;
#X restore 738 173 pd rumble2;
#N canvas 0 50 1366 685 rumble3 0;
#X obj 801 620 outlet~;
#X obj 801 286 noise~;
#X obj 801 375 bp~;
#X obj 854 275 line;
#X obj 801 394 clip~ -1 1;
#X obj 801 451 hip~ 100;
#X obj 532 289 noise~;
#X obj 532 378 bp~;
#X obj 585 278 line;
#X obj 532 397 clip~ -1 1;
#X obj 622 289 noise~;
#X obj 622 378 bp~;
#X obj 675 278 line;
#X obj 622 397 clip~ -1 1;
#X obj 712 289 noise~;
#X obj 712 378 bp~;
#X obj 765 278 line;
#X obj 712 397 clip~ -1 1;
#X obj 262 289 noise~;
#X obj 262 378 bp~;
#X obj 315 278 line;
#X obj 262 397 clip~ -1 1;
#X obj 352 289 noise~;
#X obj 352 378 bp~;
#X obj 405 278 line;
#X obj 352 397 clip~ -1 1;
#X obj 442 289 noise~;
#X obj 442 378 bp~;
#X obj 495 278 line;
#X obj 442 397 clip~ -1 1;
#X obj 712 454 hip~ 900;
#X obj 622 454 hip~ 900;
#X obj 532 454 hip~ 900;
#X obj 442 454 hip~ 900;
#X obj 352 454 hip~ 900;
#X obj 262 454 hip~ 900;
#X obj 1042 527 / 1000;
#X obj 1042 546 pack 0 500;
#X obj 712 435 lop~ 1000;
#X obj 801 432 lop~ 1000;
#X obj 801 413 lop~ 1000;
#X obj 712 416 lop~ 1000;
#X obj 622 416 lop~ 1000;
#X obj 622 435 lop~ 1000;
#X obj 532 435 lop~ 1000;
#X obj 532 416 lop~ 1000;
#X obj 442 416 lop~ 1000;
#X obj 442 435 lop~ 1000;
#X obj 352 416 lop~ 1000;
#X obj 352 435 lop~ 1000;
#X obj 262 416 lop~ 1000;
#X obj 262 435 lop~ 1000;
#X obj 1042 489 random 350;
#X obj 874 301 loadbang;
#X obj 801 582 *~;
#X obj 1042 508 + 150;
#X obj 854 256 pack 0 50;
#X obj 765 259 pack 0 50;
#X obj 675 259 pack 0 50;
#X obj 585 259 pack 0 50;
#X obj 495 259 pack 0 50;
#X obj 405 259 pack 0 50;
#X obj 315 259 pack 0 50;
#X obj 1042 129 inlet;
#X obj 854 237 random 300;
#X obj 765 240 random 700;
#X obj 675 240 random 700;
#X obj 585 240 random 700;
#X obj 495 240 random 700;
#X obj 405 240 random 700;
#X obj 315 240 random 700;
#X msg 315 361 5;
#X msg 405 361 5;
#X msg 495 361 5;
#X msg 585 361 5;
#X msg 675 361 5;
#X msg 765 361 5;
#X msg 874 358 5;
#X obj 801 470 *~ 0.1;
#X obj 712 471 *~ 0.1;
#X obj 622 471 *~ 0.1;
#X obj 532 471 *~ 0.1;
#X obj 442 473 *~ 0.1;
#X obj 352 473 *~ 0.1;
#X obj 262 473 *~ 0.1;
#X obj 801 601 *~ 0.5;
#X obj 1042 565 line~;
#X connect 1 0 2 0;
#X connect 2 0 4 0;
#X connect 3 0 2 1;
#X connect 4 0 40 0;
#X connect 5 0 78 0;
#X connect 6 0 7 0;
#X connect 7 0 9 0;
#X connect 8 0 7 1;
#X connect 9 0 45 0;
#X connect 10 0 11 0;
#X connect 11 0 13 0;
#X connect 12 0 11 1;
#X connect 13 0 42 0;
#X connect 14 0 15 0;
#X connect 15 0 17 0;
#X connect 16 0 15 1;
#X connect 17 0 41 0;
#X connect 18 0 19 0;
#X connect 19 0 21 0;
#X connect 20 0 19 1;
#X connect 21 0 50 0;
#X connect 22 0 23 0;
#X connect 23 0 25 0;
#X connect 24 0 23 1;
#X connect 25 0 48 0;
#X connect 26 0 27 0;
#X connect 27 0 29 0;
#X connect 28 0 27 1;
#X connect 29 0 46 0;
#X connect 30 0 79 0;
#X connect 31 0 80 0;
#X connect 32 0 81 0;
#X connect 33 0 82 0;
#X connect 34 0 83 0;
#X connect 35 0 84 0;
#X connect 36 0 37 0;
#X connect 37 0 86 0;
#X connect 38 0 30 0;
#X connect 39 0 5 0;
#X connect 40 0 39 0;
#X connect 41 0 38 0;
#X connect 42 0 43 0;
#X connect 43 0 31 0;
#X connect 44 0 32 0;
#X connect 45 0 44 0;
#X connect 46 0 47 0;
#X connect 47 0 33 0;
#X connect 48 0 49 0;
#X connect 49 0 34 0;
#X connect 50 0 51 0;
#X connect 51 0 35 0;
#X connect 52 0 55 0;
#X connect 53 0 77 0;
#X connect 53 0 76 0;
#X connect 53 0 75 0;
#X connect 53 0 74 0;
#X connect 53 0 73 0;
#X connect 53 0 72 0;
#X connect 53 0 71 0;
#X connect 54 0 85 0;
#X connect 55 0 36 0;
#X connect 56 0 3 0;
#X connect 57 0 16 0;
#X connect 58 0 12 0;
#X connect 59 0 8 0;
#X connect 60 0 28 0;
#X connect 61 0 24 0;
#X connect 62 0 20 0;
#X connect 63 0 52 0;
#X connect 63 0 64 0;
#X connect 63 0 65 0;
#X connect 63 0 66 0;
#X connect 63 0 67 0;
#X connect 63 0 68 0;
#X connect 63 0 69 0;
#X connect 63 0 70 0;
#X connect 64 0 56 0;
#X connect 65 0 57 0;
#X connect 66 0 58 0;
#X connect 67 0 59 0;
#X connect 68 0 60 0;
#X connect 69 0 61 0;
#X connect 70 0 62 0;
#X connect 71 0 19 2;
#X connect 72 0 23 2;
#X connect 73 0 27 2;
#X connect 74 0 7 2;
#X connect 75 0 11 2;
#X connect 76 0 15 2;
#X connect 77 0 2 2;
#X connect 78 0 54 0;
#X connect 79 0 54 0;
#X connect 80 0 54 0;
#X connect 81 0 54 0;
#X connect 82 0 54 0;
#X connect 83 0 54 0;
#X connect 84 0 54 0;
#X connect 85 0 0 0;
#X connect 86 0 54 1;
#X coords 0 685 1 684 25 150 0;
#X restore 748 192 pd rumble3;
#N canvas 0 50 1920 997 delay 0;
#X obj 637 368 *~ -1;
#X obj 621 458 delwrite~ crackle1 2000;
#X obj 637 349 bp~ 400 2;
#X obj 621 401 hip~ 1000;
#X obj 621 420 hip~ 1000;
#X obj 621 439 hip~ 1000;
#X obj 642 496 delread~ crackle1 2000;
#X obj 621 477 delread~ crackle1 1225;
#X obj 621 534 lop~ 700;
#X obj 622 317 *~ 1;
#X obj 622 298 inlet~;
#X obj 621 553 outlet~;
#X connect 0 0 3 0;
#X connect 2 0 0 0;
#X connect 3 0 4 0;
#X connect 4 0 5 0;
#X connect 5 0 1 0;
#X connect 6 0 8 0;
#X connect 7 0 8 0;
#X connect 8 0 11 0;
#X connect 9 0 2 0;
#X connect 9 0 3 0;
#X connect 10 0 9 0;
#X coords 0 997 1 996 25 150 0;
#X restore 758 306 pd delay;
#X obj 616 438 clip~ -1 1;
#X obj 706 454 bp~ 800 1;
#X obj 706 474 *~ -0.15;
#X obj 551 232 inlet;
#X obj 616 490 +~;
#X obj 616 532 outlet~;
#X connect 0 0 6 0;
#X connect 0 0 7 0;
#X connect 1 0 6 0;
#X connect 1 0 7 0;
#X connect 2 0 6 0;
#X connect 2 0 7 0;
#X connect 3 0 7 0;
#X connect 4 0 7 0;
#X connect 5 0 7 0;
#X connect 6 0 7 0;
#X connect 7 0 8 0;
#X connect 7 0 11 0;
#X connect 8 0 9 0;
#X connect 9 0 11 1;
#X connect 10 0 4 0;
#X connect 10 0 5 0;
#X connect 10 0 3 0;
#X connect 10 0 2 0;
#X connect 11 0 12 0;
