#N canvas -8 -8 1920 997 10;
#X text 610 -372 Between 1-5khZ;
#X obj 733 -23 line;
#X obj 985 67 loadbang;
#X obj 733 72 s gust1;
#X obj 1028 113 s metro2;
#X obj 1028 94 metro 2;
#X obj 924 14 bp~;
#X obj 923 -62 noise~;
#X obj 869 14 bp~;
#X obj 931 -24 / 2.3;
#X obj 876 -24 / 4.44;
#X obj 939 -5 r init;
#X obj 884 -5 r init;
#X obj 869 49 throw~ mid1;
#X obj 870 -62 noise~;
#X obj 985 13 bp~;
#X obj 984 -63 noise~;
#X obj 1040 13 bp~;
#X obj 1039 -63 noise~;
#X obj 1055 -6 r init;
#X obj 985 48 throw~ howl1;
#X obj 667 100 line~;
#X obj 876 -43 r gust1;
#X obj 931 -43 r gust1;
#X obj 919 189 catch~ howl1;
#X obj 1131 -130 hsl 128 15 0 0.1 0 0 levelhowl empty Howl 50 8 0 10
-4032 -1 -1 12446 1;
#X obj 1131 -150 hsl 128 15 0 1 0 0 levelmid empty Mid 50 8 0 10 -258113
-1 -1 10160 1;
#X obj 1131 -170 hsl 128 15 0 2 0 0 levellow empty Low 50 8 0 10 -4034
-1 -1 7366 1;
#X obj 894 129 catch~ mid1;
#X obj 869 69 catch~ low1;
#X obj 869 267 throw~ wind1;
#X obj 869 -145 output~;
#X obj 869 -242 catch~ out;
#X obj 895 165 *~;
#X obj 870 105 *~;
#X obj 920 232 *~;
#X obj 653 138 *~;
#X obj 653 119 catch~ wind1;
#X obj 1000 -6 r init;
#X obj 985 113 s init;
#X obj 733 53 clip 1000 8000;
#X obj 999 -253 knob 32 32 10000 100 0 0 empty empty empty 0 -8 0 8
-262144 -1 -1 1300 1;
#X obj 999 -214 knob 32 32 100 4000 0 0 empty empty empty 0 -8 0 8
-262144 -1 -1 1800 1;
#X obj 812 -104 delwrite~ wind 100;
#X obj 1270 -214 r levellow;
#X obj 1270 -177 r levelmid;
#X obj 1270 -140 r levelhowl;
#X floatatom 1270 -195 5 0 0 0 - - -;
#X floatatom 1270 -158 5 0 0 0 - - -;
#X floatatom 1270 -121 5 0 0 0 - - -;
#X obj 869 -218 lop~ 2974;
#X obj 870 -179 hip~ 1696;
#X floatatom 1039 -179 5 0 0 0 - - -;
#X floatatom 1039 -218 5 0 0 0 - - -;
#X msg 928 -199 2364;
#X msg 935 -241 5848;
#X msg 687 69 1 200;
#X obj 653 187 throw~ out;
#X obj 1105 -72 noise~;
#X obj 1165 -72 noise~;
#X obj 1165 4 lop~ 100;
#X obj 1165 -34 lop~ 100;
#X obj 1165 -53 lop~ 100;
#X obj 1165 -15 lop~ 100;
#X obj 1106 46 pow~;
#X obj 1105 -53 lop~ 1000;
#X obj 1105 -34 lop~ 1000;
#X obj 1105 -15 lop~ 1000;
#X obj 1105 4 lop~ 1000;
#X obj 1106 65 clip~ -1 1;
#X obj 1106 84 lop~ 2000;
#X obj 1106 103 lop~ 2000;
#X obj 1106 122 lop~ 2000;
#X obj 1227 -72 noise~;
#X obj 1287 -72 noise~;
#X obj 1287 4 lop~ 100;
#X obj 1287 -34 lop~ 100;
#X obj 1287 -53 lop~ 100;
#X obj 1287 -15 lop~ 100;
#X obj 1228 46 pow~;
#X obj 1227 -53 lop~ 1000;
#X obj 1227 -34 lop~ 1000;
#X obj 1227 -15 lop~ 1000;
#X obj 1227 4 lop~ 1000;
#X obj 1228 65 clip~ -1 1;
#X obj 1228 84 lop~ 2000;
#X obj 1228 103 lop~ 2000;
#X obj 1228 122 lop~ 2000;
#X obj 1106 217 bp~;
#X obj 1228 217 bp~;
#X obj 1235 179 / 2.14;
#X obj 1113 179 / 3.64;
#X obj 1106 141 *~ 0.3;
#X obj 1228 141 *~ 0.3;
#X obj 1243 198 r init;
#X obj 1121 198 r init;
#X obj 1106 249 throw~ low1;
#X obj 667 -2 delay 1000;
#X obj 667 -74 bng 15 250 50 0 empty empty empty 17 7 0 10 -262144
-1 -1;
#X msg 667 49 0 1000;
#X obj 927 -164 delread~ wind 30;
#X obj 805 -59 delay 150;
#X msg 805 -40 1000 1250;
#X msg 985 94 14.5;
#X obj 1047 -25 * 1.36;
#X obj 992 -44 r gust1;
#X obj 1047 -44 r gust1;
#X obj 1235 160 r gust1;
#X obj 1113 160 r gust1;
#X msg 733 -42 2000 250;
#X msg 1081 -187 1.16;
#X msg 1081 -167 0.8;
#X msg 1081 -147 0.098;
#X obj 653 159 *~ 6;
#X connect 1 0 40 0;
#X connect 2 0 103 0;
#X connect 2 0 5 0;
#X connect 5 0 4 0;
#X connect 6 0 13 0;
#X connect 7 0 6 0;
#X connect 8 0 13 0;
#X connect 9 0 6 1;
#X connect 10 0 8 1;
#X connect 11 0 6 2;
#X connect 12 0 8 2;
#X connect 14 0 8 0;
#X connect 15 0 20 0;
#X connect 16 0 15 0;
#X connect 17 0 20 0;
#X connect 18 0 17 0;
#X connect 19 0 17 2;
#X connect 21 0 36 1;
#X connect 22 0 10 0;
#X connect 23 0 9 0;
#X connect 24 0 35 0;
#X connect 28 0 33 0;
#X connect 29 0 34 0;
#X connect 32 0 50 0;
#X connect 33 0 30 0;
#X connect 34 0 30 0;
#X connect 35 0 30 0;
#X connect 36 0 113 0;
#X connect 37 0 36 0;
#X connect 38 0 15 2;
#X connect 40 0 3 0;
#X connect 41 0 50 1;
#X connect 41 0 53 0;
#X connect 42 0 51 1;
#X connect 42 0 52 0;
#X connect 44 0 47 0;
#X connect 45 0 48 0;
#X connect 46 0 49 0;
#X connect 50 0 51 0;
#X connect 51 0 31 0;
#X connect 51 0 43 0;
#X connect 54 0 42 0;
#X connect 55 0 41 0;
#X connect 56 0 21 0;
#X connect 58 0 65 0;
#X connect 59 0 62 0;
#X connect 60 0 64 1;
#X connect 61 0 63 0;
#X connect 62 0 61 0;
#X connect 63 0 60 0;
#X connect 64 0 69 0;
#X connect 65 0 66 0;
#X connect 66 0 67 0;
#X connect 67 0 68 0;
#X connect 68 0 64 0;
#X connect 69 0 70 0;
#X connect 70 0 71 0;
#X connect 71 0 72 0;
#X connect 72 0 92 0;
#X connect 73 0 80 0;
#X connect 74 0 77 0;
#X connect 75 0 79 1;
#X connect 76 0 78 0;
#X connect 77 0 76 0;
#X connect 78 0 75 0;
#X connect 79 0 84 0;
#X connect 80 0 81 0;
#X connect 81 0 82 0;
#X connect 82 0 83 0;
#X connect 83 0 79 0;
#X connect 84 0 85 0;
#X connect 85 0 86 0;
#X connect 86 0 87 0;
#X connect 87 0 93 0;
#X connect 88 0 96 0;
#X connect 89 0 96 0;
#X connect 90 0 89 1;
#X connect 91 0 88 1;
#X connect 92 0 88 0;
#X connect 93 0 89 0;
#X connect 94 0 89 2;
#X connect 95 0 88 2;
#X connect 97 0 99 0;
#X connect 98 0 109 0;
#X connect 98 0 97 0;
#X connect 98 0 56 0;
#X connect 98 0 101 0;
#X connect 99 0 21 0;
#X connect 100 0 31 1;
#X connect 101 0 102 0;
#X connect 102 0 1 0;
#X connect 103 0 39 0;
#X connect 104 0 17 1;
#X connect 105 0 15 1;
#X connect 106 0 104 0;
#X connect 108 0 91 0;
#X connect 109 0 1 0;
#X connect 110 0 27 0;
#X connect 111 0 26 0;
#X connect 112 0 25 0;
#X connect 113 0 57 0;
