#N canvas 0 0 1920 997 10;
#X obj 362 -338 bng 15 250 50 0 empty empty empty 17 7 0 10 -262144
-1 -1;
#X floatatom 402 -266 10 0 0 0 - - -;
#X obj 7 -198 spigot;
#X obj 75 -198 spigot;
#X obj 141 -198 spigot;
#X obj 207 -198 spigot;
#X obj 36 -287 + 200;
#X obj 7 -159 delay;
#X obj 75 -159 delay;
#X obj 141 -159 delay;
#X obj 207 -159 delay;
#X obj 168 -306 random 600;
#X obj 234 -306 random 600;
#X obj 36 -306 random 300;
#X obj 102 -306 random 500;
#X floatatom 328 -235 5 0 0 0 - - -;
#X obj 402 -323 metro 500;
#X obj 102 -287 + 400;
#X obj 168 -287 + 200;
#X obj 234 -287 + 100;
#X obj 402 -285 + 1000;
#X floatatom 1079 29 5 0 0 0 - - -;
#X text 610 -372 Between 1-5khZ;
#X obj 544 -198 spigot;
#X obj 610 -198 spigot;
#X obj 676 -198 spigot;
#X obj 742 -198 spigot;
#X obj 571 -287 + 200;
#X obj 544 -159 delay;
#X obj 610 -159 delay;
#X obj 676 -159 delay;
#X obj 742 -159 delay;
#X obj 703 -306 random 600;
#X obj 769 -306 random 600;
#X obj 637 -287 + 400;
#X obj 703 -287 + 200;
#X obj 769 -287 + 100;
#X obj 577 -237 >= 1;
#X obj 571 -306 random 800;
#X obj 637 -306 random 900;
#X obj 328 -254 shuffle 8;
#X obj 40 -237 >= 2;
#X obj 108 -237 >= 4;
#X obj 174 -237 >= 6;
#X obj 240 -237 >= 8;
#X obj 643 -237 >= 3;
#X obj 709 -237 >= 5;
#X obj 775 -237 >= 7;
#X obj 1026 -45 snapshot~;
#X obj 1026 -102 noise~;
#X obj 1026 -7 line;
#X obj 972 -81 loadbang;
#X obj 972 -98 bng 15 250 50 0 empty empty empty 17 7 0 10 -262144
-1 -1;
#X floatatom 984 -28 5 0 0 0 - - -;
#X obj 972 -62 metro 2;
#X obj 486 -372 loadbang;
#X obj 1026 50 line;
#X obj 7 -99 delay;
#X obj 75 -99 delay;
#X obj 141 -99 delay;
#X obj 207 -99 delay;
#X obj 544 -99 delay;
#X obj 610 -99 delay;
#X obj 676 -99 delay;
#X obj 742 -99 delay;
#X obj 1026 88 s gust1;
#X obj 529 -326 s metro2;
#X obj 529 -345 metro 2;
#X obj 5 120 cnv 15 975 140 empty empty empty 20 12 0 14 -255838 -66577
0;
#X obj 68 202 bp~;
#X obj 67 126 noise~;
#X obj 13 202 bp~;
#X obj 75 164 / 2.3;
#X obj 20 164 / 4.44;
#X obj 83 183 r init;
#X obj 28 183 r init;
#X obj 188 202 bp~;
#X obj 187 126 noise~;
#X obj 133 202 bp~;
#X obj 132 126 noise~;
#X obj 195 164 / 2.3;
#X obj 140 164 / 4.44;
#X obj 203 183 r init;
#X obj 148 183 r init;
#X obj 308 202 bp~;
#X obj 307 126 noise~;
#X obj 253 202 bp~;
#X obj 252 126 noise~;
#X obj 315 164 / 2.3;
#X obj 260 164 / 4.44;
#X obj 323 183 r init;
#X obj 268 183 r init;
#X obj 428 202 bp~;
#X obj 427 126 noise~;
#X obj 373 202 bp~;
#X obj 372 126 noise~;
#X obj 435 164 / 2.3;
#X obj 380 164 / 4.44;
#X obj 443 183 r init;
#X obj 388 183 r init;
#X obj 548 202 bp~;
#X obj 547 126 noise~;
#X obj 493 202 bp~;
#X obj 492 126 noise~;
#X obj 555 164 / 2.3;
#X obj 500 164 / 4.44;
#X obj 563 183 r init;
#X obj 508 183 r init;
#X obj 668 202 bp~;
#X obj 667 126 noise~;
#X obj 613 202 bp~;
#X obj 612 126 noise~;
#X obj 675 164 / 2.3;
#X obj 620 164 / 4.44;
#X obj 683 183 r init;
#X obj 628 183 r init;
#X obj 788 202 bp~;
#X obj 787 126 noise~;
#X obj 733 202 bp~;
#X obj 732 126 noise~;
#X obj 795 164 / 2.3;
#X obj 740 164 / 4.44;
#X obj 803 183 r init;
#X obj 748 183 r init;
#X obj 908 202 bp~;
#X obj 907 126 noise~;
#X obj 853 202 bp~;
#X obj 852 126 noise~;
#X obj 915 164 / 2.3;
#X obj 860 164 / 4.44;
#X obj 923 183 r init;
#X obj 868 183 r init;
#X obj 13 237 throw~ mid1;
#X obj 133 237 throw~ mid2;
#X obj 253 237 throw~ mid3;
#X obj 373 236 throw~ mid4;
#X obj 493 237 throw~ mid5;
#X obj 613 237 throw~ mid6;
#X obj 733 237 throw~ mid7;
#X obj 853 237 throw~ mid8;
#X obj 14 126 noise~;
#X obj 983 120 cnv 15 975 140 empty empty empty 20 12 0 14 -77694 -66577
0;
#X obj 993 202 bp~;
#X obj 992 126 noise~;
#X obj 1048 202 bp~;
#X obj 1047 126 noise~;
#X obj 1063 183 r init;
#X obj 1113 202 bp~;
#X obj 1112 126 noise~;
#X obj 1168 202 bp~;
#X obj 1167 126 noise~;
#X obj 1183 183 r init;
#X obj 1128 183 r init;
#X obj 1233 202 bp~;
#X obj 1232 126 noise~;
#X obj 1288 202 bp~;
#X obj 1287 126 noise~;
#X obj 1303 183 r init;
#X obj 1248 183 r init;
#X obj 1353 202 bp~;
#X obj 1352 126 noise~;
#X obj 1408 202 bp~;
#X obj 1407 126 noise~;
#X obj 1423 183 r init;
#X obj 1368 183 r init;
#X obj 1473 202 bp~;
#X obj 1472 126 noise~;
#X obj 1528 202 bp~;
#X obj 1527 126 noise~;
#X obj 1543 183 r init;
#X obj 1488 183 r init;
#X obj 1593 202 bp~;
#X obj 1592 126 noise~;
#X obj 1648 202 bp~;
#X obj 1647 126 noise~;
#X obj 1663 183 r init;
#X obj 1608 183 r init;
#X obj 1713 202 bp~;
#X obj 1712 126 noise~;
#X obj 1768 202 bp~;
#X obj 1767 126 noise~;
#X obj 1783 183 r init;
#X obj 1728 183 r init;
#X obj 1833 202 bp~;
#X obj 1832 126 noise~;
#X obj 1888 202 bp~;
#X obj 1887 126 noise~;
#X obj 1903 183 r init;
#X obj 1848 183 r init;
#X obj 993 237 throw~ howl1;
#X obj 1113 237 throw~ howl2;
#X obj 1233 237 throw~ howl3;
#X obj 1353 236 throw~ howl4;
#X obj 1473 237 throw~ howl5;
#X obj 1593 237 throw~ howl6;
#X obj 1713 237 throw~ howl7;
#X obj 1833 237 throw~ howl8;
#X obj 5 262 cnv 15 2020 360 empty empty empty 20 12 0 14 -102297 -66577
0;
#X obj 13 270 noise~;
#X obj 73 270 noise~;
#X obj 73 346 lop~ 100;
#X obj 73 308 lop~ 100;
#X obj 73 289 lop~ 100;
#X obj 73 327 lop~ 100;
#X obj 14 388 pow~;
#X obj 13 289 lop~ 1000;
#X obj 13 308 lop~ 1000;
#X obj 13 327 lop~ 1000;
#X obj 13 346 lop~ 1000;
#X obj 14 407 clip~ -1 1;
#X obj 14 426 lop~ 2000;
#X obj 14 445 lop~ 2000;
#X obj 14 464 lop~ 2000;
#X obj 135 270 noise~;
#X obj 195 270 noise~;
#X obj 195 346 lop~ 100;
#X obj 195 308 lop~ 100;
#X obj 195 289 lop~ 100;
#X obj 195 327 lop~ 100;
#X obj 136 388 pow~;
#X obj 135 289 lop~ 1000;
#X obj 135 308 lop~ 1000;
#X obj 135 327 lop~ 1000;
#X obj 135 346 lop~ 1000;
#X obj 136 407 clip~ -1 1;
#X obj 136 426 lop~ 2000;
#X obj 136 445 lop~ 2000;
#X obj 136 464 lop~ 2000;
#X obj 14 559 bp~;
#X obj 136 559 bp~;
#X obj 143 521 / 2.14;
#X obj 21 521 / 3.64;
#X obj 14 483 *~ 0.3;
#X obj 136 483 *~ 0.3;
#X obj 151 540 r init;
#X obj 29 540 r init;
#X obj 263 270 noise~;
#X obj 323 270 noise~;
#X obj 323 346 lop~ 100;
#X obj 323 308 lop~ 100;
#X obj 323 289 lop~ 100;
#X obj 323 327 lop~ 100;
#X obj 264 388 pow~;
#X obj 263 289 lop~ 1000;
#X obj 263 308 lop~ 1000;
#X obj 263 327 lop~ 1000;
#X obj 263 346 lop~ 1000;
#X obj 264 407 clip~ -1 1;
#X obj 264 426 lop~ 2000;
#X obj 264 445 lop~ 2000;
#X obj 264 464 lop~ 2000;
#X obj 385 270 noise~;
#X obj 445 270 noise~;
#X obj 445 346 lop~ 100;
#X obj 445 308 lop~ 100;
#X obj 445 289 lop~ 100;
#X obj 445 327 lop~ 100;
#X obj 386 388 pow~;
#X obj 385 289 lop~ 1000;
#X obj 385 308 lop~ 1000;
#X obj 385 327 lop~ 1000;
#X obj 385 346 lop~ 1000;
#X obj 386 407 clip~ -1 1;
#X obj 386 426 lop~ 2000;
#X obj 386 445 lop~ 2000;
#X obj 386 464 lop~ 2000;
#X obj 264 559 bp~;
#X obj 386 559 bp~;
#X obj 393 521 / 2.14;
#X obj 271 521 / 3.64;
#X obj 264 483 *~ 0.3;
#X obj 386 483 *~ 0.3;
#X obj 401 540 r init;
#X obj 279 540 r init;
#X obj 515 270 noise~;
#X obj 575 270 noise~;
#X obj 575 346 lop~ 100;
#X obj 575 308 lop~ 100;
#X obj 575 289 lop~ 100;
#X obj 575 327 lop~ 100;
#X obj 516 388 pow~;
#X obj 515 289 lop~ 1000;
#X obj 515 308 lop~ 1000;
#X obj 515 327 lop~ 1000;
#X obj 515 346 lop~ 1000;
#X obj 516 407 clip~ -1 1;
#X obj 516 426 lop~ 2000;
#X obj 516 445 lop~ 2000;
#X obj 516 464 lop~ 2000;
#X obj 637 270 noise~;
#X obj 697 270 noise~;
#X obj 697 346 lop~ 100;
#X obj 697 308 lop~ 100;
#X obj 697 289 lop~ 100;
#X obj 697 327 lop~ 100;
#X obj 638 388 pow~;
#X obj 637 289 lop~ 1000;
#X obj 637 308 lop~ 1000;
#X obj 637 327 lop~ 1000;
#X obj 637 346 lop~ 1000;
#X obj 638 407 clip~ -1 1;
#X obj 638 426 lop~ 2000;
#X obj 638 445 lop~ 2000;
#X obj 638 464 lop~ 2000;
#X obj 516 559 bp~;
#X obj 638 559 bp~;
#X obj 645 521 / 2.14;
#X obj 523 521 / 3.64;
#X obj 516 483 *~ 0.3;
#X obj 638 483 *~ 0.3;
#X obj 653 540 r init;
#X obj 531 540 r init;
#X obj 765 270 noise~;
#X obj 825 270 noise~;
#X obj 825 346 lop~ 100;
#X obj 825 308 lop~ 100;
#X obj 825 289 lop~ 100;
#X obj 825 327 lop~ 100;
#X obj 766 388 pow~;
#X obj 765 289 lop~ 1000;
#X obj 765 308 lop~ 1000;
#X obj 765 327 lop~ 1000;
#X obj 765 346 lop~ 1000;
#X obj 766 407 clip~ -1 1;
#X obj 766 426 lop~ 2000;
#X obj 766 445 lop~ 2000;
#X obj 766 464 lop~ 2000;
#X obj 887 270 noise~;
#X obj 947 270 noise~;
#X obj 947 346 lop~ 100;
#X obj 947 308 lop~ 100;
#X obj 947 289 lop~ 100;
#X obj 947 327 lop~ 100;
#X obj 888 388 pow~;
#X obj 887 289 lop~ 1000;
#X obj 887 308 lop~ 1000;
#X obj 887 327 lop~ 1000;
#X obj 887 346 lop~ 1000;
#X obj 888 407 clip~ -1 1;
#X obj 888 426 lop~ 2000;
#X obj 888 445 lop~ 2000;
#X obj 888 464 lop~ 2000;
#X obj 766 559 bp~;
#X obj 888 559 bp~;
#X obj 895 521 / 2.14;
#X obj 773 521 / 3.64;
#X obj 766 483 *~ 0.3;
#X obj 888 483 *~ 0.3;
#X obj 903 540 r init;
#X obj 781 540 r init;
#X obj 1013 270 noise~;
#X obj 1073 270 noise~;
#X obj 1073 346 lop~ 100;
#X obj 1073 308 lop~ 100;
#X obj 1073 289 lop~ 100;
#X obj 1073 327 lop~ 100;
#X obj 1014 388 pow~;
#X obj 1013 289 lop~ 1000;
#X obj 1013 308 lop~ 1000;
#X obj 1013 327 lop~ 1000;
#X obj 1013 346 lop~ 1000;
#X obj 1014 407 clip~ -1 1;
#X obj 1014 426 lop~ 2000;
#X obj 1014 445 lop~ 2000;
#X obj 1014 464 lop~ 2000;
#X obj 1135 270 noise~;
#X obj 1195 270 noise~;
#X obj 1195 346 lop~ 100;
#X obj 1195 308 lop~ 100;
#X obj 1195 289 lop~ 100;
#X obj 1195 327 lop~ 100;
#X obj 1136 388 pow~;
#X obj 1135 289 lop~ 1000;
#X obj 1135 308 lop~ 1000;
#X obj 1135 327 lop~ 1000;
#X obj 1135 346 lop~ 1000;
#X obj 1136 407 clip~ -1 1;
#X obj 1136 426 lop~ 2000;
#X obj 1136 445 lop~ 2000;
#X obj 1136 464 lop~ 2000;
#X obj 1014 559 bp~;
#X obj 1136 559 bp~;
#X obj 1143 521 / 2.14;
#X obj 1021 521 / 3.64;
#X obj 1014 483 *~ 0.3;
#X obj 1136 483 *~ 0.3;
#X obj 1151 540 r init;
#X obj 1029 540 r init;
#X obj 1263 270 noise~;
#X obj 1323 270 noise~;
#X obj 1323 346 lop~ 100;
#X obj 1323 308 lop~ 100;
#X obj 1323 289 lop~ 100;
#X obj 1323 327 lop~ 100;
#X obj 1264 388 pow~;
#X obj 1263 289 lop~ 1000;
#X obj 1263 308 lop~ 1000;
#X obj 1263 327 lop~ 1000;
#X obj 1263 346 lop~ 1000;
#X obj 1264 407 clip~ -1 1;
#X obj 1264 426 lop~ 2000;
#X obj 1264 445 lop~ 2000;
#X obj 1264 464 lop~ 2000;
#X obj 1385 270 noise~;
#X obj 1445 270 noise~;
#X obj 1445 346 lop~ 100;
#X obj 1445 308 lop~ 100;
#X obj 1445 289 lop~ 100;
#X obj 1445 327 lop~ 100;
#X obj 1386 388 pow~;
#X obj 1385 289 lop~ 1000;
#X obj 1385 308 lop~ 1000;
#X obj 1385 327 lop~ 1000;
#X obj 1385 346 lop~ 1000;
#X obj 1386 407 clip~ -1 1;
#X obj 1386 426 lop~ 2000;
#X obj 1386 445 lop~ 2000;
#X obj 1386 464 lop~ 2000;
#X obj 1264 559 bp~;
#X obj 1386 559 bp~;
#X obj 1393 521 / 2.14;
#X obj 1271 521 / 3.64;
#X obj 1264 483 *~ 0.3;
#X obj 1386 483 *~ 0.3;
#X obj 1401 540 r init;
#X obj 1279 540 r init;
#X obj 1515 270 noise~;
#X obj 1575 270 noise~;
#X obj 1575 346 lop~ 100;
#X obj 1575 308 lop~ 100;
#X obj 1575 289 lop~ 100;
#X obj 1575 327 lop~ 100;
#X obj 1516 388 pow~;
#X obj 1515 289 lop~ 1000;
#X obj 1515 308 lop~ 1000;
#X obj 1515 327 lop~ 1000;
#X obj 1515 346 lop~ 1000;
#X obj 1516 407 clip~ -1 1;
#X obj 1516 426 lop~ 2000;
#X obj 1516 445 lop~ 2000;
#X obj 1516 464 lop~ 2000;
#X obj 1637 270 noise~;
#X obj 1697 270 noise~;
#X obj 1697 346 lop~ 100;
#X obj 1697 308 lop~ 100;
#X obj 1697 289 lop~ 100;
#X obj 1697 327 lop~ 100;
#X obj 1638 388 pow~;
#X obj 1637 289 lop~ 1000;
#X obj 1637 308 lop~ 1000;
#X obj 1637 327 lop~ 1000;
#X obj 1637 346 lop~ 1000;
#X obj 1638 407 clip~ -1 1;
#X obj 1638 426 lop~ 2000;
#X obj 1638 445 lop~ 2000;
#X obj 1638 464 lop~ 2000;
#X obj 1516 559 bp~;
#X obj 1638 559 bp~;
#X obj 1645 521 / 2.14;
#X obj 1523 521 / 3.64;
#X obj 1516 483 *~ 0.3;
#X obj 1638 483 *~ 0.3;
#X obj 1653 540 r init;
#X obj 1531 540 r init;
#X obj 1765 270 noise~;
#X obj 1825 270 noise~;
#X obj 1825 346 lop~ 100;
#X obj 1825 308 lop~ 100;
#X obj 1825 289 lop~ 100;
#X obj 1825 327 lop~ 100;
#X obj 1766 388 pow~;
#X obj 1765 289 lop~ 1000;
#X obj 1765 308 lop~ 1000;
#X obj 1765 327 lop~ 1000;
#X obj 1765 346 lop~ 1000;
#X obj 1766 407 clip~ -1 1;
#X obj 1766 426 lop~ 2000;
#X obj 1766 445 lop~ 2000;
#X obj 1766 464 lop~ 2000;
#X obj 1887 270 noise~;
#X obj 1947 270 noise~;
#X obj 1947 346 lop~ 100;
#X obj 1947 308 lop~ 100;
#X obj 1947 289 lop~ 100;
#X obj 1947 327 lop~ 100;
#X obj 1888 388 pow~;
#X obj 1887 289 lop~ 1000;
#X obj 1887 308 lop~ 1000;
#X obj 1887 327 lop~ 1000;
#X obj 1887 346 lop~ 1000;
#X obj 1888 407 clip~ -1 1;
#X obj 1888 426 lop~ 2000;
#X obj 1888 445 lop~ 2000;
#X obj 1888 464 lop~ 2000;
#X obj 1766 559 bp~;
#X obj 1888 559 bp~;
#X obj 1895 521 / 2.14;
#X obj 1773 521 / 3.64;
#X obj 1766 483 *~ 0.3;
#X obj 1888 483 *~ 0.3;
#X obj 1903 540 r init;
#X obj 1781 540 r init;
#X obj 15 591 throw~ low1;
#X obj 264 591 throw~ low2;
#X obj 516 591 throw~ low3;
#X obj 766 591 throw~ low4;
#X obj 1014 591 throw~ low5;
#X obj 1264 591 throw~ low6;
#X obj 1516 591 throw~ low7;
#X obj 1766 591 throw~ low8;
#X floatatom 1199 29 5 0 0 0 - - -;
#X obj 1146 -45 snapshot~;
#X obj 1146 -102 noise~;
#X obj 1146 -7 line;
#X obj 1092 -81 loadbang;
#X obj 1092 -98 bng 15 250 50 0 empty empty empty 17 7 0 10 -262144
-1 -1;
#X floatatom 1104 -28 5 0 0 0 - - -;
#X obj 1092 -62 metro 2;
#X obj 1146 50 line;
#X floatatom 1319 29 5 0 0 0 - - -;
#X obj 1266 -45 snapshot~;
#X obj 1266 -102 noise~;
#X obj 1266 -7 line;
#X obj 1212 -81 loadbang;
#X obj 1212 -98 bng 15 250 50 0 empty empty empty 17 7 0 10 -262144
-1 -1;
#X floatatom 1224 -28 5 0 0 0 - - -;
#X obj 1212 -62 metro 2;
#X obj 1266 50 line;
#X floatatom 1439 29 5 0 0 0 - - -;
#X obj 1386 -45 snapshot~;
#X obj 1386 -102 noise~;
#X obj 1386 -7 line;
#X obj 1332 -81 loadbang;
#X obj 1332 -98 bng 15 250 50 0 empty empty empty 17 7 0 10 -262144
-1 -1;
#X floatatom 1344 -28 5 0 0 0 - - -;
#X obj 1332 -62 metro 2;
#X obj 1386 50 line;
#X floatatom 1559 29 5 0 0 0 - - -;
#X obj 1506 -45 snapshot~;
#X obj 1506 -102 noise~;
#X obj 1506 -7 line;
#X obj 1452 -81 loadbang;
#X obj 1452 -98 bng 15 250 50 0 empty empty empty 17 7 0 10 -262144
-1 -1;
#X floatatom 1464 -28 5 0 0 0 - - -;
#X obj 1452 -62 metro 2;
#X obj 1506 50 line;
#X floatatom 1679 29 5 0 0 0 - - -;
#X obj 1626 -45 snapshot~;
#X obj 1626 -102 noise~;
#X obj 1626 -7 line;
#X obj 1572 -81 loadbang;
#X obj 1572 -98 bng 15 250 50 0 empty empty empty 17 7 0 10 -262144
-1 -1;
#X floatatom 1584 -28 5 0 0 0 - - -;
#X obj 1572 -62 metro 2;
#X obj 1626 50 line;
#X floatatom 1799 29 5 0 0 0 - - -;
#X obj 1746 -45 snapshot~;
#X obj 1746 -102 noise~;
#X obj 1746 -7 line;
#X obj 1692 -81 loadbang;
#X obj 1692 -98 bng 15 250 50 0 empty empty empty 17 7 0 10 -262144
-1 -1;
#X floatatom 1704 -28 5 0 0 0 - - -;
#X obj 1692 -62 metro 2;
#X floatatom 1919 29 5 0 0 0 - - -;
#X obj 1866 -45 snapshot~;
#X obj 1866 -102 noise~;
#X obj 1866 -7 line;
#X obj 1812 -81 loadbang;
#X obj 1812 -98 bng 15 250 50 0 empty empty empty 17 7 0 10 -262144
-1 -1;
#X floatatom 1824 -28 5 0 0 0 - - -;
#X obj 1812 -62 metro 2;
#X obj 1866 50 line;
#X msg 27 -60 1 1000;
#X msg 95 -60 1 1000;
#X msg 161 -60 1 1000;
#X msg 227 -60 1 1000;
#X msg 564 -60 1 1000;
#X msg 630 -60 1 1000;
#X msg 696 -60 1 1000;
#X obj 7 -29 line~;
#X obj 75 -29 line~;
#X obj 141 -29 line~;
#X obj 207 -29 line~;
#X obj 544 -29 line~;
#X obj 610 -29 line~;
#X obj 676 -29 line~;
#X obj 742 -29 line~;
#X obj 402 -342 loadbang;
#X obj 20 145 r gust1;
#X obj 75 145 r gust1;
#X obj 140 145 r gust2;
#X obj 195 145 r gust2;
#X obj 260 145 r gust3;
#X obj 315 145 r gust3;
#X obj 380 145 r gust4;
#X obj 435 145 r gust4;
#X obj 500 145 r gust5;
#X obj 555 145 r gust5;
#X obj 620 145 r gust6;
#X obj 675 145 r gust6;
#X obj 740 145 r gust7;
#X obj 795 145 r gust7;
#X obj 860 145 r gust8;
#X obj 915 145 r gust8;
#X obj 1000 145 r gust5;
#X obj 1055 145 r gust5;
#X obj 1120 145 r gust6;
#X obj 1175 145 r gust6;
#X obj 1295 145 r gust7;
#X obj 1415 145 r gust8;
#X obj 1535 145 r gust1;
#X obj 1655 145 r gust2;
#X obj 1775 145 r gust3;
#X obj 1895 145 r gust4;
#X obj 1146 88 s gust2;
#X obj 1267 88 s gust3;
#X obj 1386 88 s gust4;
#X obj 1506 88 s gust5;
#X obj 1626 88 s gust6;
#X obj 1746 88 s gust7;
#X obj 1866 88 s gust8;
#X obj 21 502 r gust3;
#X obj 143 502 r gust3;
#X obj 271 502 r gust4;
#X obj 393 502 r gust4;
#X obj 523 502 r gust5;
#X obj 645 502 r gust5;
#X obj 773 502 r gust6;
#X obj 895 502 r gust6;
#X obj 1021 502 r gust7;
#X obj 1143 502 r gust7;
#X obj 1271 502 r gust8;
#X obj 1393 502 r gust8;
#X obj 1523 502 r gust1;
#X obj 1645 502 r gust1;
#X obj 1773 502 r gust2;
#X obj 1895 502 r gust2;
#X obj 530 66 *~;
#X obj 595 66 *~;
#X obj 662 66 *~;
#X obj 728 66 *~;
#X obj 1193 -293 catch~ mid2;
#X obj 1313 -293 catch~ mid3;
#X obj 1433 -294 catch~ mid4;
#X obj 1553 -293 catch~ mid5;
#X obj 1673 -293 catch~ mid6;
#X obj 1793 -293 catch~ mid7;
#X obj 1913 -293 catch~ mid8;
#X obj 1098 -233 catch~ howl1;
#X obj 1217 -233 catch~ howl2;
#X obj 1337 -233 catch~ howl3;
#X obj 1457 -234 catch~ howl4;
#X obj 1577 -233 catch~ howl5;
#X obj 1697 -233 catch~ howl6;
#X obj 1817 -233 catch~ howl7;
#X obj 1937 -233 catch~ howl8;
#X obj 838 -309 hsl 128 15 0 0.1 0 0 levelhowl empty Howl 50 8 0 10
-4032 -1 -1 122 1;
#X obj 838 -329 hsl 128 15 0 0.1 0 0 levelmid empty Mid 50 8 0 10 -258113
-1 -1 1280 1;
#X obj 838 -349 hsl 128 15 0 0.1 0 0 levellow empty Low 50 8 0 10 -4034
-1 -1 1866 1;
#X obj 1073 -293 catch~ mid1;
#X obj 1048 -353 catch~ low1;
#X obj 1169 -353 catch~ low2;
#X obj 1289 -353 catch~ low3;
#X obj 1410 -354 catch~ low4;
#X obj 1529 -353 catch~ low5;
#X obj 1649 -353 catch~ low6;
#X obj 1769 -353 catch~ low7;
#X obj 1888 -353 catch~ low8;
#X obj 1073 -154 throw~ wind1;
#X obj 1192 -154 throw~ wind2;
#X obj 1314 -154 throw~ wind3;
#X obj 1434 -154 throw~ wind4;
#X obj 1554 -154 throw~ wind5;
#X obj 1674 -154 throw~ wind6;
#X obj 1794 -154 throw~ wind7;
#X obj 1914 -154 throw~ wind8;
#X obj 1982 -334 r levellow;
#X obj 1980 -274 r levelmid;
#X obj 1974 -207 r levelhowl;
#X obj 868 -145 output~;
#X obj 869 -242 catch~ out;
#X obj 1074 -257 *~;
#X obj 1193 -257 *~;
#X obj 1313 -257 *~;
#X obj 1433 -257 *~;
#X obj 1553 -257 *~;
#X obj 1673 -257 *~;
#X obj 1793 -257 *~;
#X obj 1049 -317 *~;
#X obj 1169 -317 *~;
#X obj 1289 -317 *~;
#X obj 1409 -317 *~;
#X obj 1529 -317 *~;
#X obj 1649 -317 *~;
#X obj 1769 -317 *~;
#X obj 1099 -190 *~;
#X obj 1217 -190 *~;
#X obj 1337 -190 *~;
#X obj 1457 -190 *~;
#X obj 1577 -190 *~;
#X obj 1697 -190 *~;
#X obj 1817 -190 *~;
#X obj 1938 -190 *~;
#X obj 1913 -257 *~;
#X obj 1889 -317 *~;
#X obj 357 83 throw~ out;
#X obj -7 66 *~;
#X obj 58 66 *~;
#X obj 125 66 *~;
#X obj 191 66 *~;
#X obj -7 -10 catch~ wind1;
#X obj 58 9 catch~ wind2;
#X obj 125 28 catch~ wind3;
#X obj 191 47 catch~ wind4;
#X obj 531 -10 catch~ wind5;
#X obj 595 9 catch~ wind6;
#X obj 662 28 catch~ wind7;
#X obj 728 47 catch~ wind8;
#X obj 1008 183 r init;
#X obj 486 -326 s init;
#X msg 762 -60 1 1000;
#X msg 742 -80 0 2000;
#X msg 676 -80 0 2000;
#X msg 610 -80 0 2000;
#X msg 544 -80 0 2000;
#X msg 207 -80 0 2000;
#X msg 141 -80 0 2000;
#X msg 75 -80 0 2000;
#X msg 7 -80 0 2000;
#X obj 34 -118 + 2000;
#X obj 102 -118 + 2000;
#X obj 168 -118 + 2000;
#X obj 234 -118 + 2000;
#X obj 559 -118 + 2000;
#X obj 637 -118 + 2000;
#X obj 703 -118 + 2000;
#X obj 769 -118 + 2000;
#X obj 402 -304 random 1500;
#X obj 1386 69 clip 1000 8000;
#X obj 1386 12 clip 1000 8000;
#X obj 1506 69 clip 1000 8000;
#X obj 1626 69 clip 1000 8000;
#X obj 1746 69 clip 1000 8000;
#X obj 1866 69 clip 1000 8000;
#X obj 1866 12 clip 1000 8000;
#X obj 1746 12 clip 1000 8000;
#X obj 1626 12 clip 1000 8000;
#X obj 1506 12 clip 1000 8000;
#X obj 1026 12 clip 1000 8000;
#X obj 1146 12 clip 1000 8000;
#X obj 1266 12 clip 1000 8000;
#X obj 1266 69 clip 1000 8000;
#X obj 1146 69 clip 1000 8000;
#X obj 1026 69 clip 1000 8000;
#X msg 788 -326 0.0049;
#X obj 1055 164 * 0.36;
#X obj 1175 164 * 0.36;
#X obj 1295 164 * 0.36;
#X obj 1415 164 * 0.36;
#X obj 1535 164 * 0.36;
#X obj 1655 164 * 0.36;
#X obj 1775 164 * 0.36;
#X obj 1895 164 * 0.36;
#X obj 1360 145 r gust8;
#X obj 1480 145 r gust1;
#X obj 1600 145 r gust2;
#X obj 1720 145 r gust3;
#X obj 1840 145 r gust4;
#X obj 1240 145 r gust7;
#X msg 486 -345 12.5;
#X obj 939 -253 knob 32 32 10000 100 0 0 empty empty empty 0 -8 0 8
-262144 -1 -1 2422 1;
#X obj 939 -214 knob 32 32 100 10000 0 0 empty empty empty 0 -8 0 8
-262144 -1 -1 0 1;
#X obj 977 -393 r levellow;
#X obj 977 -356 r levelmid;
#X obj 977 -319 r levelhowl;
#X floatatom 977 -374 5 0 0 0 - - -;
#X floatatom 977 -337 5 0 0 0 - - -;
#X floatatom 977 -300 5 0 0 0 - - -;
#X obj 869 -218 lop~ 2974;
#X obj 870 -179 hip~ 1696;
#X msg 983 -233 1696;
#X floatatom 989 -183 5 0 0 0 - - -;
#X floatatom 989 -211 5 0 0 0 - - -;
#X obj 1266 -83 *~ 60000;
#X obj 1146 -83 *~ 60000;
#X obj 1026 -83 *~ 60000;
#X obj 1386 -83 *~ 60000;
#X obj 1506 -83 *~ 60000;
#X obj 1626 -83 *~ 60000;
#X obj 1746 -83 *~ 60000;
#X obj 1866 -83 *~ 60000;
#X obj 1746 50 line;
#X obj 1026 -64 +~ 4000;
#X obj 1146 -64 +~ 4000;
#X obj 1266 -64 +~ 4000;
#X obj 1386 -64 +~ 4000;
#X obj 1506 -64 +~ 4000;
#X obj 1626 -64 +~ 4000;
#X obj 1746 -64 +~ 4000;
#X obj 1866 -64 +~ 4000;
#X msg 983 -272 4500;
#X msg 788 -346 0.04;
#X msg 788 -366 0.058;
#X msg 1026 -26 \$1 1750;
#X msg 1146 -26 \$1 1750;
#X msg 1266 -26 \$1 1750;
#X msg 1386 -26 \$1 1750;
#X msg 1506 -26 \$1 1750;
#X msg 1626 -26 \$1 1750;
#X msg 1746 -26 \$1 1750;
#X msg 1866 -26 \$1 1750;
#X msg 1866 31 \$1 1750;
#X msg 1746 31 \$1 1750;
#X msg 1626 31 \$1 1750;
#X msg 1506 31 \$1 1750;
#X msg 1386 31 \$1 1750;
#X msg 1266 31 \$1 1750;
#X msg 1146 31 \$1 1750;
#X msg 1026 31 \$1 1750;
#X obj 926 -164 delread~ wind 10000;
#X obj 806 -104 delwrite~ wind 10000;
#X connect 0 0 16 0;
#X connect 2 0 7 0;
#X connect 3 0 8 0;
#X connect 4 0 9 0;
#X connect 5 0 10 0;
#X connect 6 0 7 1;
#X connect 6 0 736 0;
#X connect 7 0 57 0;
#X connect 7 0 572 0;
#X connect 8 0 58 0;
#X connect 8 0 573 0;
#X connect 9 0 59 0;
#X connect 9 0 574 0;
#X connect 10 0 60 0;
#X connect 10 0 575 0;
#X connect 11 0 18 0;
#X connect 12 0 19 0;
#X connect 13 0 6 0;
#X connect 14 0 17 0;
#X connect 16 0 13 0;
#X connect 16 0 14 0;
#X connect 16 0 11 0;
#X connect 16 0 12 0;
#X connect 16 0 2 0;
#X connect 16 0 3 0;
#X connect 16 0 4 0;
#X connect 16 0 5 0;
#X connect 16 0 32 0;
#X connect 16 0 33 0;
#X connect 16 0 38 0;
#X connect 16 0 39 0;
#X connect 16 0 40 0;
#X connect 16 0 23 0;
#X connect 16 0 24 0;
#X connect 16 0 25 0;
#X connect 16 0 26 0;
#X connect 16 0 737 0;
#X connect 17 0 8 1;
#X connect 17 0 735 0;
#X connect 18 0 9 1;
#X connect 18 0 734 0;
#X connect 19 0 10 1;
#X connect 19 0 733 0;
#X connect 20 0 1 0;
#X connect 20 0 16 1;
#X connect 23 0 28 0;
#X connect 24 0 29 0;
#X connect 25 0 30 0;
#X connect 26 0 31 0;
#X connect 27 0 28 1;
#X connect 27 0 732 0;
#X connect 28 0 61 0;
#X connect 28 0 576 0;
#X connect 29 0 62 0;
#X connect 29 0 577 0;
#X connect 30 0 63 0;
#X connect 30 0 578 0;
#X connect 31 0 64 0;
#X connect 31 0 720 0;
#X connect 32 0 35 0;
#X connect 33 0 36 0;
#X connect 34 0 29 1;
#X connect 34 0 731 0;
#X connect 35 0 30 1;
#X connect 35 0 730 0;
#X connect 36 0 31 1;
#X connect 36 0 729 0;
#X connect 37 0 23 1;
#X connect 38 0 27 0;
#X connect 39 0 34 0;
#X connect 40 0 15 0;
#X connect 40 0 41 0;
#X connect 40 0 42 0;
#X connect 40 0 43 0;
#X connect 40 0 44 0;
#X connect 40 0 37 0;
#X connect 40 0 45 0;
#X connect 40 0 46 0;
#X connect 40 0 47 0;
#X connect 41 0 2 1;
#X connect 42 0 3 1;
#X connect 43 0 4 1;
#X connect 44 0 5 1;
#X connect 45 0 24 1;
#X connect 46 0 25 1;
#X connect 47 0 26 1;
#X connect 48 0 803 0;
#X connect 48 0 53 0;
#X connect 49 0 785 0;
#X connect 50 0 748 0;
#X connect 51 0 54 0;
#X connect 52 0 51 0;
#X connect 54 0 48 0;
#X connect 55 0 769 0;
#X connect 55 0 67 0;
#X connect 56 0 753 0;
#X connect 57 0 728 0;
#X connect 58 0 727 0;
#X connect 59 0 726 0;
#X connect 60 0 725 0;
#X connect 61 0 724 0;
#X connect 62 0 723 0;
#X connect 63 0 722 0;
#X connect 64 0 721 0;
#X connect 67 0 66 0;
#X connect 69 0 132 0;
#X connect 70 0 69 0;
#X connect 71 0 132 0;
#X connect 72 0 69 1;
#X connect 73 0 71 1;
#X connect 74 0 69 2;
#X connect 75 0 71 2;
#X connect 76 0 133 0;
#X connect 77 0 76 0;
#X connect 78 0 133 0;
#X connect 79 0 78 0;
#X connect 80 0 76 1;
#X connect 81 0 78 1;
#X connect 82 0 76 2;
#X connect 83 0 78 2;
#X connect 84 0 134 0;
#X connect 85 0 84 0;
#X connect 86 0 134 0;
#X connect 87 0 86 0;
#X connect 88 0 84 1;
#X connect 89 0 86 1;
#X connect 90 0 84 2;
#X connect 91 0 86 2;
#X connect 92 0 135 0;
#X connect 93 0 92 0;
#X connect 94 0 135 0;
#X connect 95 0 94 0;
#X connect 96 0 92 1;
#X connect 97 0 94 1;
#X connect 98 0 92 2;
#X connect 99 0 94 2;
#X connect 100 0 136 0;
#X connect 101 0 100 0;
#X connect 102 0 136 0;
#X connect 103 0 102 0;
#X connect 104 0 100 1;
#X connect 105 0 102 1;
#X connect 106 0 100 2;
#X connect 107 0 102 2;
#X connect 108 0 137 0;
#X connect 109 0 108 0;
#X connect 110 0 137 0;
#X connect 111 0 110 0;
#X connect 112 0 108 1;
#X connect 113 0 110 1;
#X connect 114 0 108 2;
#X connect 115 0 110 2;
#X connect 116 0 138 0;
#X connect 117 0 116 0;
#X connect 118 0 138 0;
#X connect 119 0 118 0;
#X connect 120 0 116 1;
#X connect 121 0 118 1;
#X connect 122 0 116 2;
#X connect 123 0 118 2;
#X connect 124 0 139 0;
#X connect 125 0 124 0;
#X connect 126 0 139 0;
#X connect 127 0 126 0;
#X connect 128 0 124 1;
#X connect 129 0 126 1;
#X connect 130 0 124 2;
#X connect 131 0 126 2;
#X connect 140 0 71 0;
#X connect 142 0 189 0;
#X connect 143 0 142 0;
#X connect 144 0 189 0;
#X connect 145 0 144 0;
#X connect 146 0 144 2;
#X connect 147 0 190 0;
#X connect 148 0 147 0;
#X connect 149 0 190 0;
#X connect 150 0 149 0;
#X connect 151 0 149 2;
#X connect 152 0 147 2;
#X connect 153 0 191 0;
#X connect 154 0 153 0;
#X connect 155 0 191 0;
#X connect 156 0 155 0;
#X connect 157 0 155 2;
#X connect 158 0 153 2;
#X connect 159 0 192 0;
#X connect 160 0 159 0;
#X connect 161 0 192 0;
#X connect 162 0 161 0;
#X connect 163 0 161 2;
#X connect 164 0 159 2;
#X connect 165 0 193 0;
#X connect 166 0 165 0;
#X connect 167 0 193 0;
#X connect 168 0 167 0;
#X connect 169 0 167 2;
#X connect 170 0 165 2;
#X connect 171 0 194 0;
#X connect 172 0 171 0;
#X connect 173 0 194 0;
#X connect 174 0 173 0;
#X connect 175 0 173 2;
#X connect 176 0 171 2;
#X connect 177 0 195 0;
#X connect 178 0 177 0;
#X connect 179 0 195 0;
#X connect 180 0 179 0;
#X connect 181 0 179 2;
#X connect 182 0 177 2;
#X connect 183 0 196 0;
#X connect 184 0 183 0;
#X connect 185 0 196 0;
#X connect 186 0 185 0;
#X connect 187 0 185 2;
#X connect 188 0 183 2;
#X connect 198 0 205 0;
#X connect 199 0 202 0;
#X connect 200 0 204 1;
#X connect 201 0 203 0;
#X connect 202 0 201 0;
#X connect 203 0 200 0;
#X connect 204 0 209 0;
#X connect 205 0 206 0;
#X connect 206 0 207 0;
#X connect 207 0 208 0;
#X connect 208 0 204 0;
#X connect 209 0 210 0;
#X connect 210 0 211 0;
#X connect 211 0 212 0;
#X connect 212 0 232 0;
#X connect 213 0 220 0;
#X connect 214 0 217 0;
#X connect 215 0 219 1;
#X connect 216 0 218 0;
#X connect 217 0 216 0;
#X connect 218 0 215 0;
#X connect 219 0 224 0;
#X connect 220 0 221 0;
#X connect 221 0 222 0;
#X connect 222 0 223 0;
#X connect 223 0 219 0;
#X connect 224 0 225 0;
#X connect 225 0 226 0;
#X connect 226 0 227 0;
#X connect 227 0 233 0;
#X connect 228 0 502 0;
#X connect 229 0 502 0;
#X connect 230 0 229 1;
#X connect 231 0 228 1;
#X connect 232 0 228 0;
#X connect 233 0 229 0;
#X connect 234 0 229 2;
#X connect 235 0 228 2;
#X connect 236 0 243 0;
#X connect 237 0 240 0;
#X connect 238 0 242 1;
#X connect 239 0 241 0;
#X connect 240 0 239 0;
#X connect 241 0 238 0;
#X connect 242 0 247 0;
#X connect 243 0 244 0;
#X connect 244 0 245 0;
#X connect 245 0 246 0;
#X connect 246 0 242 0;
#X connect 247 0 248 0;
#X connect 248 0 249 0;
#X connect 249 0 250 0;
#X connect 250 0 270 0;
#X connect 251 0 258 0;
#X connect 252 0 255 0;
#X connect 253 0 257 1;
#X connect 254 0 256 0;
#X connect 255 0 254 0;
#X connect 256 0 253 0;
#X connect 257 0 262 0;
#X connect 258 0 259 0;
#X connect 259 0 260 0;
#X connect 260 0 261 0;
#X connect 261 0 257 0;
#X connect 262 0 263 0;
#X connect 263 0 264 0;
#X connect 264 0 265 0;
#X connect 265 0 271 0;
#X connect 266 0 503 0;
#X connect 267 0 503 0;
#X connect 268 0 267 1;
#X connect 269 0 266 1;
#X connect 270 0 266 0;
#X connect 271 0 267 0;
#X connect 272 0 267 2;
#X connect 273 0 266 2;
#X connect 274 0 281 0;
#X connect 275 0 278 0;
#X connect 276 0 280 1;
#X connect 277 0 279 0;
#X connect 278 0 277 0;
#X connect 279 0 276 0;
#X connect 280 0 285 0;
#X connect 281 0 282 0;
#X connect 282 0 283 0;
#X connect 283 0 284 0;
#X connect 284 0 280 0;
#X connect 285 0 286 0;
#X connect 286 0 287 0;
#X connect 287 0 288 0;
#X connect 288 0 308 0;
#X connect 289 0 296 0;
#X connect 290 0 293 0;
#X connect 291 0 295 1;
#X connect 292 0 294 0;
#X connect 293 0 292 0;
#X connect 294 0 291 0;
#X connect 295 0 300 0;
#X connect 296 0 297 0;
#X connect 297 0 298 0;
#X connect 298 0 299 0;
#X connect 299 0 295 0;
#X connect 300 0 301 0;
#X connect 301 0 302 0;
#X connect 302 0 303 0;
#X connect 303 0 309 0;
#X connect 304 0 504 0;
#X connect 305 0 504 0;
#X connect 306 0 305 1;
#X connect 307 0 304 1;
#X connect 308 0 304 0;
#X connect 309 0 305 0;
#X connect 310 0 305 2;
#X connect 311 0 304 2;
#X connect 312 0 319 0;
#X connect 313 0 316 0;
#X connect 314 0 318 1;
#X connect 315 0 317 0;
#X connect 316 0 315 0;
#X connect 317 0 314 0;
#X connect 318 0 323 0;
#X connect 319 0 320 0;
#X connect 320 0 321 0;
#X connect 321 0 322 0;
#X connect 322 0 318 0;
#X connect 323 0 324 0;
#X connect 324 0 325 0;
#X connect 325 0 326 0;
#X connect 326 0 346 0;
#X connect 327 0 334 0;
#X connect 328 0 331 0;
#X connect 329 0 333 1;
#X connect 330 0 332 0;
#X connect 331 0 330 0;
#X connect 332 0 329 0;
#X connect 333 0 338 0;
#X connect 334 0 335 0;
#X connect 335 0 336 0;
#X connect 336 0 337 0;
#X connect 337 0 333 0;
#X connect 338 0 339 0;
#X connect 339 0 340 0;
#X connect 340 0 341 0;
#X connect 341 0 347 0;
#X connect 342 0 505 0;
#X connect 343 0 505 0;
#X connect 344 0 343 1;
#X connect 345 0 342 1;
#X connect 346 0 342 0;
#X connect 347 0 343 0;
#X connect 348 0 343 2;
#X connect 349 0 342 2;
#X connect 350 0 357 0;
#X connect 351 0 354 0;
#X connect 352 0 356 1;
#X connect 353 0 355 0;
#X connect 354 0 353 0;
#X connect 355 0 352 0;
#X connect 356 0 361 0;
#X connect 357 0 358 0;
#X connect 358 0 359 0;
#X connect 359 0 360 0;
#X connect 360 0 356 0;
#X connect 361 0 362 0;
#X connect 362 0 363 0;
#X connect 363 0 364 0;
#X connect 364 0 384 0;
#X connect 365 0 372 0;
#X connect 366 0 369 0;
#X connect 367 0 371 1;
#X connect 368 0 370 0;
#X connect 369 0 368 0;
#X connect 370 0 367 0;
#X connect 371 0 376 0;
#X connect 372 0 373 0;
#X connect 373 0 374 0;
#X connect 374 0 375 0;
#X connect 375 0 371 0;
#X connect 376 0 377 0;
#X connect 377 0 378 0;
#X connect 378 0 379 0;
#X connect 379 0 385 0;
#X connect 380 0 506 0;
#X connect 381 0 506 0;
#X connect 382 0 381 1;
#X connect 383 0 380 1;
#X connect 384 0 380 0;
#X connect 385 0 381 0;
#X connect 386 0 381 2;
#X connect 387 0 380 2;
#X connect 388 0 395 0;
#X connect 389 0 392 0;
#X connect 390 0 394 1;
#X connect 391 0 393 0;
#X connect 392 0 391 0;
#X connect 393 0 390 0;
#X connect 394 0 399 0;
#X connect 395 0 396 0;
#X connect 396 0 397 0;
#X connect 397 0 398 0;
#X connect 398 0 394 0;
#X connect 399 0 400 0;
#X connect 400 0 401 0;
#X connect 401 0 402 0;
#X connect 402 0 422 0;
#X connect 403 0 410 0;
#X connect 404 0 407 0;
#X connect 405 0 409 1;
#X connect 406 0 408 0;
#X connect 407 0 406 0;
#X connect 408 0 405 0;
#X connect 409 0 414 0;
#X connect 410 0 411 0;
#X connect 411 0 412 0;
#X connect 412 0 413 0;
#X connect 413 0 409 0;
#X connect 414 0 415 0;
#X connect 415 0 416 0;
#X connect 416 0 417 0;
#X connect 417 0 423 0;
#X connect 418 0 507 0;
#X connect 419 0 507 0;
#X connect 420 0 419 1;
#X connect 421 0 418 1;
#X connect 422 0 418 0;
#X connect 423 0 419 0;
#X connect 424 0 419 2;
#X connect 425 0 418 2;
#X connect 426 0 433 0;
#X connect 427 0 430 0;
#X connect 428 0 432 1;
#X connect 429 0 431 0;
#X connect 430 0 429 0;
#X connect 431 0 428 0;
#X connect 432 0 437 0;
#X connect 433 0 434 0;
#X connect 434 0 435 0;
#X connect 435 0 436 0;
#X connect 436 0 432 0;
#X connect 437 0 438 0;
#X connect 438 0 439 0;
#X connect 439 0 440 0;
#X connect 440 0 460 0;
#X connect 441 0 448 0;
#X connect 442 0 445 0;
#X connect 443 0 447 1;
#X connect 444 0 446 0;
#X connect 445 0 444 0;
#X connect 446 0 443 0;
#X connect 447 0 452 0;
#X connect 448 0 449 0;
#X connect 449 0 450 0;
#X connect 450 0 451 0;
#X connect 451 0 447 0;
#X connect 452 0 453 0;
#X connect 453 0 454 0;
#X connect 454 0 455 0;
#X connect 455 0 461 0;
#X connect 456 0 508 0;
#X connect 457 0 508 0;
#X connect 458 0 457 1;
#X connect 459 0 456 1;
#X connect 460 0 456 0;
#X connect 461 0 457 0;
#X connect 462 0 457 2;
#X connect 463 0 456 2;
#X connect 464 0 471 0;
#X connect 465 0 468 0;
#X connect 466 0 470 1;
#X connect 467 0 469 0;
#X connect 468 0 467 0;
#X connect 469 0 466 0;
#X connect 470 0 475 0;
#X connect 471 0 472 0;
#X connect 472 0 473 0;
#X connect 473 0 474 0;
#X connect 474 0 470 0;
#X connect 475 0 476 0;
#X connect 476 0 477 0;
#X connect 477 0 478 0;
#X connect 478 0 498 0;
#X connect 479 0 486 0;
#X connect 480 0 483 0;
#X connect 481 0 485 1;
#X connect 482 0 484 0;
#X connect 483 0 482 0;
#X connect 484 0 481 0;
#X connect 485 0 490 0;
#X connect 486 0 487 0;
#X connect 487 0 488 0;
#X connect 488 0 489 0;
#X connect 489 0 485 0;
#X connect 490 0 491 0;
#X connect 491 0 492 0;
#X connect 492 0 493 0;
#X connect 493 0 499 0;
#X connect 494 0 509 0;
#X connect 495 0 509 0;
#X connect 496 0 495 1;
#X connect 497 0 494 1;
#X connect 498 0 494 0;
#X connect 499 0 495 0;
#X connect 500 0 495 2;
#X connect 501 0 494 2;
#X connect 511 0 804 0;
#X connect 511 0 516 0;
#X connect 512 0 784 0;
#X connect 513 0 749 0;
#X connect 514 0 517 0;
#X connect 515 0 514 0;
#X connect 517 0 511 0;
#X connect 518 0 752 0;
#X connect 520 0 805 0;
#X connect 520 0 525 0;
#X connect 521 0 783 0;
#X connect 522 0 750 0;
#X connect 523 0 526 0;
#X connect 524 0 523 0;
#X connect 526 0 520 0;
#X connect 527 0 751 0;
#X connect 529 0 806 0;
#X connect 529 0 534 0;
#X connect 530 0 786 0;
#X connect 531 0 739 0;
#X connect 532 0 535 0;
#X connect 533 0 532 0;
#X connect 535 0 529 0;
#X connect 536 0 738 0;
#X connect 538 0 807 0;
#X connect 538 0 543 0;
#X connect 539 0 787 0;
#X connect 540 0 747 0;
#X connect 541 0 544 0;
#X connect 542 0 541 0;
#X connect 544 0 538 0;
#X connect 545 0 740 0;
#X connect 547 0 808 0;
#X connect 547 0 552 0;
#X connect 548 0 788 0;
#X connect 549 0 746 0;
#X connect 550 0 553 0;
#X connect 551 0 550 0;
#X connect 553 0 547 0;
#X connect 554 0 741 0;
#X connect 556 0 809 0;
#X connect 556 0 561 0;
#X connect 557 0 789 0;
#X connect 558 0 745 0;
#X connect 559 0 562 0;
#X connect 560 0 559 0;
#X connect 562 0 556 0;
#X connect 564 0 810 0;
#X connect 564 0 569 0;
#X connect 565 0 790 0;
#X connect 566 0 744 0;
#X connect 567 0 570 0;
#X connect 568 0 567 0;
#X connect 570 0 564 0;
#X connect 571 0 743 0;
#X connect 572 0 579 0;
#X connect 573 0 580 0;
#X connect 574 0 581 0;
#X connect 575 0 582 0;
#X connect 576 0 583 0;
#X connect 577 0 584 0;
#X connect 578 0 585 0;
#X connect 579 0 706 1;
#X connect 580 0 707 1;
#X connect 581 0 708 1;
#X connect 582 0 709 1;
#X connect 583 0 637 1;
#X connect 584 0 638 1;
#X connect 585 0 639 1;
#X connect 586 0 640 1;
#X connect 587 0 16 0;
#X connect 588 0 73 0;
#X connect 589 0 72 0;
#X connect 590 0 81 0;
#X connect 591 0 80 0;
#X connect 592 0 89 0;
#X connect 593 0 88 0;
#X connect 594 0 97 0;
#X connect 595 0 96 0;
#X connect 596 0 105 0;
#X connect 597 0 104 0;
#X connect 598 0 113 0;
#X connect 599 0 112 0;
#X connect 600 0 121 0;
#X connect 601 0 120 0;
#X connect 602 0 129 0;
#X connect 603 0 128 0;
#X connect 604 0 142 1;
#X connect 605 0 755 0;
#X connect 606 0 147 1;
#X connect 607 0 756 0;
#X connect 608 0 757 0;
#X connect 609 0 758 0;
#X connect 610 0 759 0;
#X connect 611 0 760 0;
#X connect 612 0 761 0;
#X connect 613 0 762 0;
#X connect 621 0 231 0;
#X connect 623 0 269 0;
#X connect 625 0 307 0;
#X connect 627 0 345 0;
#X connect 629 0 383 0;
#X connect 631 0 421 0;
#X connect 633 0 459 0;
#X connect 635 0 497 0;
#X connect 637 0 705 0;
#X connect 638 0 705 0;
#X connect 639 0 705 0;
#X connect 640 0 705 0;
#X connect 641 0 682 0;
#X connect 642 0 683 0;
#X connect 643 0 684 0;
#X connect 644 0 685 0;
#X connect 645 0 686 0;
#X connect 646 0 687 0;
#X connect 647 0 703 0;
#X connect 648 0 695 0;
#X connect 649 0 696 0;
#X connect 650 0 697 0;
#X connect 651 0 698 0;
#X connect 652 0 699 0;
#X connect 653 0 700 0;
#X connect 654 0 701 0;
#X connect 655 0 702 0;
#X connect 659 0 681 0;
#X connect 660 0 688 0;
#X connect 661 0 689 0;
#X connect 662 0 690 0;
#X connect 663 0 691 0;
#X connect 664 0 692 0;
#X connect 665 0 693 0;
#X connect 666 0 694 0;
#X connect 667 0 704 0;
#X connect 676 0 694 1;
#X connect 676 0 693 1;
#X connect 676 0 692 1;
#X connect 676 0 691 1;
#X connect 676 0 690 1;
#X connect 676 0 689 1;
#X connect 676 0 688 1;
#X connect 677 0 687 1;
#X connect 677 0 686 1;
#X connect 677 0 685 1;
#X connect 677 0 684 1;
#X connect 677 0 683 1;
#X connect 677 0 681 1;
#X connect 678 0 701 1;
#X connect 678 0 700 1;
#X connect 678 0 699 1;
#X connect 678 0 698 1;
#X connect 678 0 697 1;
#X connect 678 0 696 1;
#X connect 678 0 695 1;
#X connect 678 0 702 1;
#X connect 680 0 778 0;
#X connect 681 0 668 0;
#X connect 682 0 669 0;
#X connect 683 0 670 0;
#X connect 684 0 671 0;
#X connect 685 0 672 0;
#X connect 686 0 673 0;
#X connect 687 0 674 0;
#X connect 688 0 668 0;
#X connect 689 0 669 0;
#X connect 690 0 670 0;
#X connect 691 0 671 0;
#X connect 692 0 672 0;
#X connect 693 0 673 0;
#X connect 694 0 674 0;
#X connect 695 0 668 0;
#X connect 696 0 669 0;
#X connect 697 0 670 0;
#X connect 698 0 671 0;
#X connect 699 0 672 0;
#X connect 700 0 673 0;
#X connect 701 0 674 0;
#X connect 702 0 675 0;
#X connect 703 0 675 0;
#X connect 704 0 675 0;
#X connect 706 0 705 0;
#X connect 707 0 705 0;
#X connect 708 0 705 0;
#X connect 709 0 705 0;
#X connect 710 0 706 0;
#X connect 711 0 707 0;
#X connect 712 0 708 0;
#X connect 713 0 709 0;
#X connect 714 0 637 0;
#X connect 715 0 638 0;
#X connect 716 0 639 0;
#X connect 717 0 640 0;
#X connect 718 0 142 2;
#X connect 720 0 586 0;
#X connect 721 0 586 0;
#X connect 722 0 585 0;
#X connect 723 0 584 0;
#X connect 724 0 583 0;
#X connect 725 0 582 0;
#X connect 726 0 581 0;
#X connect 727 0 580 0;
#X connect 728 0 579 0;
#X connect 729 0 57 1;
#X connect 730 0 58 1;
#X connect 731 0 59 1;
#X connect 732 0 60 1;
#X connect 733 0 61 1;
#X connect 734 0 62 1;
#X connect 735 0 63 1;
#X connect 736 0 64 1;
#X connect 737 0 20 0;
#X connect 738 0 616 0;
#X connect 739 0 815 0;
#X connect 739 0 528 0;
#X connect 740 0 617 0;
#X connect 741 0 618 0;
#X connect 742 0 619 0;
#X connect 743 0 620 0;
#X connect 744 0 811 0;
#X connect 744 0 563 0;
#X connect 745 0 812 0;
#X connect 745 0 555 0;
#X connect 746 0 813 0;
#X connect 746 0 546 0;
#X connect 747 0 814 0;
#X connect 747 0 537 0;
#X connect 748 0 818 0;
#X connect 748 0 21 0;
#X connect 749 0 817 0;
#X connect 749 0 510 0;
#X connect 750 0 816 0;
#X connect 750 0 519 0;
#X connect 751 0 615 0;
#X connect 752 0 614 0;
#X connect 753 0 65 0;
#X connect 754 0 656 0;
#X connect 755 0 144 1;
#X connect 756 0 149 1;
#X connect 757 0 155 1;
#X connect 758 0 161 1;
#X connect 759 0 167 1;
#X connect 760 0 173 1;
#X connect 761 0 179 1;
#X connect 762 0 185 1;
#X connect 763 0 159 1;
#X connect 764 0 165 1;
#X connect 765 0 171 1;
#X connect 766 0 177 1;
#X connect 767 0 183 1;
#X connect 768 0 153 1;
#X connect 769 0 719 0;
#X connect 770 0 778 1;
#X connect 770 0 782 0;
#X connect 771 0 779 1;
#X connect 771 0 781 0;
#X connect 772 0 775 0;
#X connect 773 0 776 0;
#X connect 774 0 777 0;
#X connect 778 0 779 0;
#X connect 779 0 679 0;
#X connect 779 0 820 0;
#X connect 780 0 771 0;
#X connect 783 0 794 0;
#X connect 784 0 793 0;
#X connect 785 0 792 0;
#X connect 786 0 795 0;
#X connect 787 0 796 0;
#X connect 788 0 797 0;
#X connect 789 0 798 0;
#X connect 790 0 799 0;
#X connect 791 0 742 0;
#X connect 792 0 48 0;
#X connect 793 0 511 0;
#X connect 794 0 520 0;
#X connect 795 0 529 0;
#X connect 796 0 538 0;
#X connect 797 0 547 0;
#X connect 798 0 556 0;
#X connect 799 0 564 0;
#X connect 800 0 770 0;
#X connect 801 0 657 0;
#X connect 802 0 658 0;
#X connect 803 0 50 0;
#X connect 804 0 513 0;
#X connect 805 0 522 0;
#X connect 806 0 531 0;
#X connect 807 0 540 0;
#X connect 808 0 549 0;
#X connect 809 0 558 0;
#X connect 810 0 566 0;
#X connect 811 0 571 0;
#X connect 812 0 791 0;
#X connect 813 0 554 0;
#X connect 814 0 545 0;
#X connect 815 0 536 0;
#X connect 816 0 527 0;
#X connect 817 0 518 0;
#X connect 818 0 56 0;
#X connect 819 0 679 1;
