#N canvas 465 72 909 617 12;
#X obj 175 150 mtof;
#X obj 175 423 *~;
#X obj 193 398 line~;
#X obj 193 373 pack 0 50;
#X obj 193 320 / 127;
#X floatatom 180 122 5 0 0 0 - - -;
#X floatatom 200 351 5 0 0 0 - - -;
#X obj 278 384 cnv 15 200 100 empty empty Turn_DSP_on_and_off 20 12
0 12 -258113 -1 0;
#X msg 373 418 \; pd dsp 0;
#X text 297 460 AUDIO ON;
#X text 372 460 AUDIO OFF;
#X obj 491 356 vsl 30 128 0 127 0 0 empty empty Volume 0 -9 0 12 -159808
-4034 -1 0 1;
#X obj 491 494 s vol;
#X obj 193 291 r vol;
#X obj 546 358 vsl 30 128 0 127 0 0 empty empty MIDI_note 0 -9 0 12
-260097 -4034 -1 0 1;
#X obj 546 494 s note;
#X obj 175 91 r note;
#X obj 175 185 tabosc4~ wavetable_1;
#N canvas 0 22 322 207 (subpatch) 0;
#X array wavetable_1 515 float 0;
#X coords 0 1 514 -1 200 140 1 0 0;
#X restore 276 232 graph;
#X obj 164 457 dac~;
#X msg 299 417 \; pd dsp 1;
#X msg 473 153 \; wavetable_1 sinesum 512 1;
#X connect 0 0 17 0;
#X connect 1 0 19 0;
#X connect 1 0 19 1;
#X connect 2 0 1 1;
#X connect 3 0 2 0;
#X connect 4 0 3 0;
#X connect 4 0 6 0;
#X connect 11 0 12 0;
#X connect 13 0 4 0;
#X connect 14 0 15 0;
#X connect 16 0 0 0;
#X connect 16 0 5 0;
#X connect 17 0 1 0;
