#N canvas 984 139 828 597 12;
#X obj 149 493 dac~;
#X msg 413 455 \; pd dsp 1;
#X msg 500 456 \; pd dsp 0;
#X text 582 466 Turn DSP on (1) or off (0);
#X obj 146 320 osc~;
#X obj 26 14 cnv 15 250 26 empty empty FM_Synthesis 20 12 0 14 -257985
-66577 0;
#X floatatom 82 177 5 0 0 0 - - -;
#X obj 146 279 +~;
#X obj 219 185 *~;
#X obj 219 147 osc~;
#X floatatom 219 109 5 0 0 0 - - -;
#X floatatom 284 166 5 0 0 0 - - -;
#X text 74 152 carrier;
#X text 213 86 modulator;
#X text 325 164 index;
#X obj 146 435 *~;
#X obj 221 406 line~;
#X obj 221 373 pack 0 50;
#X obj 221 316 / 127;
#X obj 224 290 hsl 128 15 0 127 0 0 empty empty Volume -2 -8 0 10 -260097
-1 -1 6800 1;
#X floatatom 237 345 5 0 0 0 - - -;
#X obj 291 433 tgl 15 0 empty empty empty 17 7 0 10 -262144 -1 -1 0
1;
#N canvas 45 83 558 569 fft 0;
#X obj 19 61 inlet~;
#X obj 95 214 inlet;
#X obj 29 92 rfft~;
#X obj 29 125 *~;
#X obj 60 125 *~;
#X obj 29 155 sqrt~;
#X obj 332 109 block~ 4096 1;
#X obj 29 181 biquad~ 0 0 0 0 1;
#X text 93 93 Fourier series;
#X text 98 146 magnitude;
#X text 96 131 calculate;
#X text 21 3 This subpatch computes the spectrum of the incoming signal
with a (rectangular windowed) FFT. FFTs aren't properly introduced
until much later.;
#X text 83 61 signal to analyze;
#X text 192 166 delay two samples;
#X text 191 182 for better graphing;
#X obj 16 425 samplerate~;
#X obj 16 402 bng 18 250 50 0 empty empty empty 0 -6 0 8 -262144 -1
-1;
#X floatatom 16 472 5 0 0 0 - - -;
#X obj 16 448 / 256;
#X obj 16 378 loadbang;
#X floatatom 16 541 5 0 0 0 - - -;
#X obj 24 494 s fundamental;
#X obj 16 517 ftom;
#X text 14 319 At load time \, calculate a good choice of fundamental
frequency for showing spectra: the 16th bin in a 4096-point spectrum
\, so SR*16/4096 or SR/256.;
#X text 145 216 "bang" into this inlet to graph it;
#X floatatom 191 480 5 0 0 0 - - -;
#X obj 191 456 / 4096;
#X text 187 425 One bin is SR/4096:;
#X text 72 540 <-just out of curiosity \, here's the fundamental pitch
;
#X obj 191 502 s freq-step;
#X obj 95 248 tabwrite~ E02-spectrum;
#X obj 20 281 tabwrite~ F05-signal;
#X connect 0 0 2 0;
#X connect 0 0 31 0;
#X connect 1 0 30 0;
#X connect 1 0 31 0;
#X connect 2 0 3 0;
#X connect 2 0 3 1;
#X connect 2 1 4 0;
#X connect 2 1 4 1;
#X connect 3 0 5 0;
#X connect 4 0 5 0;
#X connect 5 0 7 0;
#X connect 7 0 30 0;
#X connect 15 0 18 0;
#X connect 15 0 26 0;
#X connect 16 0 15 0;
#X connect 17 0 21 0;
#X connect 17 0 22 0;
#X connect 18 0 17 0;
#X connect 19 0 16 0;
#X connect 22 0 20 0;
#X connect 25 0 29 0;
#X connect 26 0 25 0;
#X restore 252 498 pd fft;
#N canvas 0 22 450 300 (subpatch) 0;
#X array E02-spectrum 128 float 0;
#X coords 0 4300 127 -40 257 130 1;
#X restore 413 260 graph;
#N canvas 0 22 450 300 (subpatch) 0;
#X array F05-signal 882 float 0;
#X coords 0 1 882 -1 200 130 1;
#X restore 416 106 graph;
#X obj 291 466 metro 200;
#X text 214 47;
#X connect 4 0 15 0;
#X connect 6 0 7 0;
#X connect 7 0 4 0;
#X connect 8 0 7 1;
#X connect 9 0 8 0;
#X connect 10 0 9 0;
#X connect 11 0 8 1;
#X connect 15 0 0 0;
#X connect 15 0 0 1;
#X connect 15 0 22 0;
#X connect 16 0 15 1;
#X connect 17 0 16 0;
#X connect 18 0 17 0;
#X connect 18 0 20 0;
#X connect 19 0 18 0;
#X connect 21 0 25 0;
#X connect 25 0 22 1;
