#N canvas -8 -8 1920 997 10;
#N canvas 387 262 722 403 sine 0;
#X obj 96 19 *~;
#X obj 114 -15 line~;
#X obj 114 -48 pack 0 50;
#X obj 114 -105 / 127;
#X floatatom 130 -76 5 0 0 0 - - -;
#X obj 96 -148 osc~;
#X obj 114 -127 inlet volume;
#X obj 96 50 outlet~ signal;
#X obj 96 -181 inlet~ frequency;
#X connect 0 0 7 0;
#X connect 1 0 0 1;
#X connect 2 0 1 0;
#X connect 3 0 2 0;
#X connect 3 0 4 0;
#X connect 5 0 0 0;
#X connect 6 0 3 0;
#X connect 8 0 5 0;
#X restore 83 208 pd sine;
#N canvas 303 385 450 300 square 0;
#X obj 97 49 *~;
#X obj 115 15 line~;
#X obj 115 -18 pack 0 50;
#X obj 115 -75 / 127;
#X floatatom 131 -46 5 0 0 0 - - -;
#X obj 97 -181 inlet~ frequency;
#X obj 115 -97 inlet volume;
#X obj 97 80 outlet~ signal;
#X obj 97 -150 phasor~;
#X obj 97 -121 expr~ if($v1 < 0.5 \, -1 \, 1);
#X connect 0 0 7 0;
#X connect 1 0 0 1;
#X connect 2 0 1 0;
#X connect 3 0 2 0;
#X connect 3 0 4 0;
#X connect 5 0 8 0;
#X connect 6 0 3 0;
#X connect 8 0 9 0;
#X connect 9 0 0 0;
#X restore 198 208 pd square;
#N canvas 140 246 455 359 sawtooth 0;
#X obj 97 78 *~;
#X obj 115 44 line~;
#X obj 115 11 pack 0 50;
#X obj 115 -46 / 127;
#X floatatom 131 -17 5 0 0 0 - - -;
#X obj 97 -181 inlet~ frequency;
#X obj 115 -68 inlet volume;
#X obj 97 109 outlet~ signal;
#X obj 97 -150 phasor~;
#X obj 97 -125 -~ 0.5;
#X obj 97 -90 *~ 2;
#X connect 0 0 7 0;
#X connect 1 0 0 1;
#X connect 2 0 1 0;
#X connect 3 0 2 0;
#X connect 3 0 4 0;
#X connect 5 0 8 0;
#X connect 6 0 3 0;
#X connect 8 0 9 0;
#X connect 9 0 10 0;
#X connect 10 0 0 0;
#X restore 318 208 pd sawtooth;
#N canvas 338 366 527 426 triangle 0;
#X obj 99 112 *~;
#X obj 114 78 line~;
#X obj 114 45 pack 0 50;
#X obj 114 -12 / 127;
#X floatatom 130 17 5 0 0 0 - - -;
#X obj 99 -172 inlet~ frequency;
#X obj 114 -34 inlet volume;
#X obj 99 143 outlet~ signal;
#X obj 99 -150 phasor~;
#X obj 99 -123 expr~ if($v1 < 0.5 \, $v1 \, 1-$v1);
#X obj 99 -93 -~ 0.25;
#X obj 99 -64 *~ 4;
#X connect 0 0 7 0;
#X connect 1 0 0 1;
#X connect 2 0 1 0;
#X connect 3 0 2 0;
#X connect 3 0 4 0;
#X connect 5 0 8 0;
#X connect 6 0 3 0;
#X connect 8 0 9 0;
#X connect 9 0 10 0;
#X connect 10 0 11 0;
#X connect 11 0 0 0;
#X restore 457 208 pd triangle;
#N canvas 0 22 450 300 pulse 0;
#X obj 97 119 *~;
#X obj 115 85 line~;
#X obj 115 52 pack 0 50;
#X obj 115 -5 / 127;
#X floatatom 131 24 5 0 0 0 - - -;
#X obj 97 -117 inlet~ frequency;
#X obj 115 -27 inlet volume;
#X obj 97 150 outlet~ signal;
#X obj 97 -86 phasor~;
#X obj 249 -80 / 100;
#X obj 97 -53 expr~ if($v1 > $v2 \, 1 \, -1);
#X obj 249 -106 inlet pulse-width;
#X connect 0 0 7 0;
#X connect 1 0 0 1;
#X connect 2 0 1 0;
#X connect 3 0 2 0;
#X connect 3 0 4 0;
#X connect 5 0 8 0;
#X connect 6 0 3 0;
#X connect 8 0 10 0;
#X connect 9 0 10 1;
#X connect 10 0 0 0;
#X connect 11 0 9 0;
#X restore 599 208 pd pulse;
#X obj 322 55 hsl 128 15 0 10000 0 0 empty empty empty -2 -8 0 10 -262144
-1 -1 10 1;
#X floatatom 98 170 5 1 1000 0 - - -;
#X floatatom 213 170 5 1 1000 0 - - -;
#X floatatom 333 170 5 1 1000 0 - - -;
#X floatatom 472 170 5 1 1000 0 - - -;
#X floatatom 614 170 5 1 1000 0 - - -;
#X obj 122 191 tgl 15 0 empty empty empty 17 7 0 10 -262144 -1 -1 1
1;
#X obj 249 191 tgl 15 0 empty empty empty 17 7 0 10 -262144 -1 -1 1
1;
#X obj 381 191 tgl 15 0 empty empty empty 17 7 0 10 -262144 -1 -1 1
1;
#X obj 520 191 tgl 15 0 empty empty empty 17 7 0 10 -262144 -1 -1 1
1;
#X obj 621 191 tgl 15 0 empty empty empty 17 7 0 10 -262144 -1 -1 1
1;
#X obj 290 575 output~;
#X obj 647 131 hsl 128 15 0 1 0 0 empty empty empty -2 -8 0 10 -262144
-1 -1 12700 1;
#X obj 318 71 pack 0 50;
#X obj 457 189 *~;
#X obj 599 189 *~;
#X obj 318 189 *~;
#X obj 198 189 *~;
#X obj 83 189 *~;
#X obj 318 90 line~;
#X obj 701 172 wk4-ex13-FM;
#X obj 700 208 *~;
#X obj 715 191 tgl 15 0 empty empty empty 17 7 0 10 -262144 -1 -1 0
1;
#X floatatom 732 154 5 1 1000 0 - - -;
#X floatatom 764 154 5 1 1000 0 - - -;
#X obj 97 345 osc~;
#X obj 100 328 hsl 128 15 0 127 0 0 empty empty empty -2 -8 0 10 -262144
-1 -1 0 1;
#X obj 82 364 *~;
#X obj 98 118 loadbang;
#X msg 98 137 1;
#X obj 1026 27 keyname;
#X obj 1065 46 s keyvalue;
#X obj 1026 65 s keypress;
#X obj 924 362 select a w s e d f t g y h u j k o l p \;;
#X msg 924 723 60;
#X obj 319 17 r midivalue;
#X msg 937 703 61;
#X msg 951 683 62;
#X msg 964 663 63;
#X msg 978 643 64;
#X msg 991 623 65;
#X msg 1005 603 66;
#X msg 1019 583 67;
#X msg 1032 563 68;
#X msg 1046 543 69;
#X msg 1059 523 70;
#X msg 1073 503 71;
#X msg 1087 483 72;
#X msg 1100 463 73;
#X msg 1114 443 74;
#X msg 1127 423 75;
#X msg 1141 403 76;
#X obj 1203 740 s midivalue;
#X obj 319 36 mtof;
#X obj 800 343 r midivalue;
#X obj 767 324 r keypress;
#X obj 924 343 r keyvalue;
#X obj 767 526 tgl 15 0 empty empty empty 17 7 0 10 -262144 -1 -1 0
1;
#X obj 800 396 >= 60;
#X obj 836 396 <= 76;
#X obj 767 507 spigot;
#X obj 800 434 &;
#X msg 1155 383 0;
#X obj 767 601 vline~;
#X obj 767 620 throw~ env;
#X obj 319 529 *~;
#X obj 351 513 catch~ env;
#X obj 767 543 pack \$1 50;
#X connect 0 0 32 0;
#X connect 1 0 70 0;
#X connect 2 0 70 0;
#X connect 3 0 70 0;
#X connect 4 0 70 0;
#X connect 5 0 18 0;
#X connect 6 0 23 1;
#X connect 7 0 22 1;
#X connect 8 0 21 1;
#X connect 9 0 19 1;
#X connect 10 0 20 1;
#X connect 11 0 0 1;
#X connect 12 0 1 1;
#X connect 13 0 2 1;
#X connect 14 0 3 1;
#X connect 15 0 4 1;
#X connect 17 0 4 2;
#X connect 18 0 24 0;
#X connect 19 0 3 0;
#X connect 20 0 4 0;
#X connect 21 0 2 0;
#X connect 22 0 1 0;
#X connect 23 0 0 0;
#X connect 24 0 20 0;
#X connect 24 0 19 0;
#X connect 24 0 21 0;
#X connect 24 0 22 0;
#X connect 24 0 23 0;
#X connect 24 0 25 0;
#X connect 25 0 26 0;
#X connect 26 0 70 0;
#X connect 27 0 26 1;
#X connect 28 0 25 1;
#X connect 29 0 25 2;
#X connect 30 0 32 1;
#X connect 31 0 30 0;
#X connect 32 0 70 0;
#X connect 33 0 34 0;
#X connect 34 0 6 0;
#X connect 34 0 7 0;
#X connect 34 0 8 0;
#X connect 34 0 9 0;
#X connect 34 0 10 0;
#X connect 34 0 28 0;
#X connect 34 0 29 0;
#X connect 35 0 37 0;
#X connect 35 1 36 0;
#X connect 38 0 39 0;
#X connect 38 1 41 0;
#X connect 38 2 42 0;
#X connect 38 3 43 0;
#X connect 38 4 44 0;
#X connect 38 5 45 0;
#X connect 38 6 46 0;
#X connect 38 7 47 0;
#X connect 38 8 48 0;
#X connect 38 9 49 0;
#X connect 38 10 50 0;
#X connect 38 11 51 0;
#X connect 38 12 52 0;
#X connect 38 13 53 0;
#X connect 38 14 54 0;
#X connect 38 15 55 0;
#X connect 38 16 56 0;
#X connect 38 17 67 0;
#X connect 39 0 57 0;
#X connect 40 0 58 0;
#X connect 41 0 57 0;
#X connect 42 0 57 0;
#X connect 43 0 57 0;
#X connect 44 0 57 0;
#X connect 45 0 57 0;
#X connect 46 0 57 0;
#X connect 47 0 57 0;
#X connect 48 0 57 0;
#X connect 49 0 57 0;
#X connect 50 0 57 0;
#X connect 51 0 57 0;
#X connect 52 0 57 0;
#X connect 53 0 57 0;
#X connect 54 0 57 0;
#X connect 55 0 57 0;
#X connect 56 0 57 0;
#X connect 58 0 5 0;
#X connect 59 0 63 0;
#X connect 59 0 64 0;
#X connect 60 0 65 0;
#X connect 61 0 38 0;
#X connect 62 0 72 0;
#X connect 63 0 66 0;
#X connect 64 0 66 1;
#X connect 65 0 62 0;
#X connect 66 0 65 1;
#X connect 67 0 57 0;
#X connect 68 0 69 0;
#X connect 70 0 16 0;
#X connect 70 0 16 1;
#X connect 71 0 70 1;
#X connect 72 0 68 0;
