#N canvas 22 45 973 697 10;
#N canvas 387 262 450 300 sine 0;
#X obj 96 19 *~;
#X obj 114 -15 line~;
#X obj 114 -48 pack 0 50;
#X obj 114 -105 / 127;
#X floatatom 130 -76 5 0 0 0 - - -;
#X obj 96 -148 osc~;
#X obj 114 -127 inlet volume;
#X obj 96 50 outlet~ signal;
#X obj 96 -181 inlet~ frequency;
#X connect 0 0 7 0;
#X connect 1 0 0 1;
#X connect 2 0 1 0;
#X connect 3 0 2 0;
#X connect 3 0 4 0;
#X connect 5 0 0 0;
#X connect 6 0 3 0;
#X connect 8 0 5 0;
#X restore 83 208 pd sine;
#N canvas 303 385 450 300 square 0;
#X obj 97 49 *~;
#X obj 115 15 line~;
#X obj 115 -18 pack 0 50;
#X obj 115 -75 / 127;
#X floatatom 131 -46 5 0 0 0 - - -;
#X obj 97 -181 inlet~ frequency;
#X obj 115 -97 inlet volume;
#X obj 97 80 outlet~ signal;
#X obj 97 -150 phasor~;
#X obj 97 -121 expr~ if($v1 < 0.5 \, -1 \, 1);
#X connect 0 0 7 0;
#X connect 1 0 0 1;
#X connect 2 0 1 0;
#X connect 3 0 2 0;
#X connect 3 0 4 0;
#X connect 5 0 8 0;
#X connect 6 0 3 0;
#X connect 8 0 9 0;
#X connect 9 0 0 0;
#X restore 198 207 pd square;
#N canvas 140 246 455 359 sawtooth 0;
#X obj 97 78 *~;
#X obj 115 44 line~;
#X obj 115 11 pack 0 50;
#X obj 115 -46 / 127;
#X floatatom 131 -17 5 0 0 0 - - -;
#X obj 97 -181 inlet~ frequency;
#X obj 115 -68 inlet volume;
#X obj 97 109 outlet~ signal;
#X obj 97 -150 phasor~;
#X obj 97 -125 -~ 0.5;
#X obj 97 -90 *~ 2;
#X connect 0 0 7 0;
#X connect 1 0 0 1;
#X connect 2 0 1 0;
#X connect 3 0 2 0;
#X connect 3 0 4 0;
#X connect 5 0 8 0;
#X connect 6 0 3 0;
#X connect 8 0 9 0;
#X connect 9 0 10 0;
#X connect 10 0 0 0;
#X restore 318 207 pd sawtooth;
#N canvas 338 366 527 426 triangle 0;
#X obj 99 112 *~;
#X obj 114 78 line~;
#X obj 114 45 pack 0 50;
#X obj 114 -12 / 127;
#X floatatom 130 17 5 0 0 0 - - -;
#X obj 99 -172 inlet~ frequency;
#X obj 114 -34 inlet volume;
#X obj 99 143 outlet~ signal;
#X obj 99 -150 phasor~;
#X obj 99 -123 expr~ if($v1 < 0.5 \, $v1 \, 1-$v1);
#X obj 99 -93 -~ 0.25;
#X obj 99 -64 *~ 4;
#X connect 0 0 7 0;
#X connect 1 0 0 1;
#X connect 2 0 1 0;
#X connect 3 0 2 0;
#X connect 3 0 4 0;
#X connect 5 0 8 0;
#X connect 6 0 3 0;
#X connect 8 0 9 0;
#X connect 9 0 10 0;
#X connect 10 0 11 0;
#X connect 11 0 0 0;
#X restore 457 207 pd triangle;
#N canvas 0 22 450 300 pulse 0;
#X obj 97 119 *~;
#X obj 115 85 line~;
#X obj 115 52 pack 0 50;
#X obj 115 -5 / 127;
#X floatatom 131 24 5 0 0 0 - - -;
#X obj 97 -117 inlet~ frequency;
#X obj 115 -27 inlet volume;
#X obj 97 150 outlet~ signal;
#X obj 97 -86 phasor~;
#X obj 249 -80 / 100;
#X obj 97 -53 expr~ if($v1 > $v2 \, 1 \, -1);
#X obj 249 -106 inlet pulse-width;
#X connect 0 0 7 0;
#X connect 1 0 0 1;
#X connect 2 0 1 0;
#X connect 3 0 2 0;
#X connect 3 0 4 0;
#X connect 5 0 8 0;
#X connect 6 0 3 0;
#X connect 8 0 10 0;
#X connect 9 0 10 1;
#X connect 10 0 0 0;
#X connect 11 0 9 0;
#X restore 599 208 pd pulse;
#X obj 94 500 dac~;
