#N canvas 22 45 973 697 10;
#N canvas 387 262 722 403 sine 0;
#X obj 96 19 *~;
#X obj 114 -15 line~;
#X obj 114 -48 pack 0 50;
#X obj 114 -105 / 127;
#X floatatom 130 -76 5 0 0 0 - - -;
#X obj 96 -148 osc~;
#X obj 114 -127 inlet volume;
#X obj 96 50 outlet~ signal;
#X obj 96 -181 inlet~ frequency;
#X connect 0 0 7 0;
#X connect 1 0 0 1;
#X connect 2 0 1 0;
#X connect 3 0 2 0;
#X connect 3 0 4 0;
#X connect 5 0 0 0;
#X connect 6 0 3 0;
#X connect 8 0 5 0;
#X restore 83 208 pd sine;
#N canvas 303 385 450 300 square 0;
#X obj 97 49 *~;
#X obj 115 15 line~;
#X obj 115 -18 pack 0 50;
#X obj 115 -75 / 127;
#X floatatom 131 -46 5 0 0 0 - - -;
#X obj 97 -181 inlet~ frequency;
#X obj 115 -97 inlet volume;
#X obj 97 80 outlet~ signal;
#X obj 97 -150 phasor~;
#X obj 97 -121 expr~ if($v1 < 0.5 \, -1 \, 1);
#X connect 0 0 7 0;
#X connect 1 0 0 1;
#X connect 2 0 1 0;
#X connect 3 0 2 0;
#X connect 3 0 4 0;
#X connect 5 0 8 0;
#X connect 6 0 3 0;
#X connect 8 0 9 0;
#X connect 9 0 0 0;
#X restore 198 208 pd square;
#N canvas 140 246 455 359 sawtooth 0;
#X obj 97 78 *~;
#X obj 115 44 line~;
#X obj 115 11 pack 0 50;
#X obj 115 -46 / 127;
#X floatatom 131 -17 5 0 0 0 - - -;
#X obj 97 -181 inlet~ frequency;
#X obj 115 -68 inlet volume;
#X obj 97 109 outlet~ signal;
#X obj 97 -150 phasor~;
#X obj 97 -125 -~ 0.5;
#X obj 97 -90 *~ 2;
#X connect 0 0 7 0;
#X connect 1 0 0 1;
#X connect 2 0 1 0;
#X connect 3 0 2 0;
#X connect 3 0 4 0;
#X connect 5 0 8 0;
#X connect 6 0 3 0;
#X connect 8 0 9 0;
#X connect 9 0 10 0;
#X connect 10 0 0 0;
#X restore 318 208 pd sawtooth;
#N canvas 338 366 527 426 triangle 0;
#X obj 99 112 *~;
#X obj 114 78 line~;
#X obj 114 45 pack 0 50;
#X obj 114 -12 / 127;
#X floatatom 130 17 5 0 0 0 - - -;
#X obj 99 -172 inlet~ frequency;
#X obj 114 -34 inlet volume;
#X obj 99 143 outlet~ signal;
#X obj 99 -150 phasor~;
#X obj 99 -123 expr~ if($v1 < 0.5 \, $v1 \, 1-$v1);
#X obj 99 -93 -~ 0.25;
#X obj 99 -64 *~ 4;
#X connect 0 0 7 0;
#X connect 1 0 0 1;
#X connect 2 0 1 0;
#X connect 3 0 2 0;
#X connect 3 0 4 0;
#X connect 5 0 8 0;
#X connect 6 0 3 0;
#X connect 8 0 9 0;
#X connect 9 0 10 0;
#X connect 10 0 11 0;
#X connect 11 0 0 0;
#X restore 457 208 pd triangle;
#N canvas 0 22 450 300 pulse 0;
#X obj 97 119 *~;
#X obj 115 85 line~;
#X obj 115 52 pack 0 50;
#X obj 115 -5 / 127;
#X floatatom 131 24 5 0 0 0 - - -;
#X obj 97 -117 inlet~ frequency;
#X obj 115 -27 inlet volume;
#X obj 97 150 outlet~ signal;
#X obj 97 -86 phasor~;
#X obj 249 -80 / 100;
#X obj 97 -53 expr~ if($v1 > $v2 \, 1 \, -1);
#X obj 249 -106 inlet pulse-width;
#X connect 0 0 7 0;
#X connect 1 0 0 1;
#X connect 2 0 1 0;
#X connect 3 0 2 0;
#X connect 3 0 4 0;
#X connect 5 0 8 0;
#X connect 6 0 3 0;
#X connect 8 0 10 0;
#X connect 9 0 10 1;
#X connect 10 0 0 0;
#X connect 11 0 9 0;
#X restore 599 208 pd pulse;
#X obj 322 55 hsl 128 15 0 10000 0 0 empty empty empty -2 -8 0 10 -262144
-1 -1 6500 1;
#X floatatom 98 170 5 1 1000 0 - - -;
#X floatatom 213 170 5 1 1000 0 - - -;
#X floatatom 333 170 5 1 1000 0 - - -;
#X floatatom 472 170 5 1 1000 0 - - -;
#X floatatom 614 170 5 1 1000 0 - - -;
#X obj 122 191 tgl 15 0 empty empty empty 17 7 0 10 -262144 -1 -1 1
1;
#X obj 249 191 tgl 15 0 empty empty empty 17 7 0 10 -262144 -1 -1 0
1;
#X obj 381 191 tgl 15 0 empty empty empty 17 7 0 10 -262144 -1 -1 0
1;
#X obj 520 191 tgl 15 0 empty empty empty 17 7 0 10 -262144 -1 -1 0
1;
#X obj 621 191 tgl 15 0 empty empty empty 17 7 0 10 -262144 -1 -1 0
1;
#X obj 259 411 output~;
#X obj 647 131 hsl 128 15 0 1 0 0 empty empty empty -2 -8 0 10 -262144
-1 -1 4800 1;
#X obj 318 71 pack 0 50;
#X obj 457 189 *~;
#X obj 599 189 *~;
#X obj 318 189 *~;
#X obj 198 189 *~;
#X obj 83 189 *~;
#X obj 318 90 line~;
#X obj 701 172 wk4-ex13-FM;
#X obj 700 208 *~;
#X obj 715 191 tgl 15 0 empty empty empty 17 7 0 10 -262144 -1 -1 0
1;
#X floatatom 732 154 5 1 1000 0 - - -;
#X floatatom 764 154 5 1 1000 0 - - -;
#X obj 97 345 osc~;
#X obj 100 328 hsl 128 15 0 127 0 0 empty empty empty -2 -8 0 10 -262144
-1 -1 600 1;
#X obj 82 364 *~;
#X connect 0 0 32 0;
#X connect 1 0 16 0;
#X connect 1 0 16 1;
#X connect 2 0 16 0;
#X connect 2 0 16 1;
#X connect 3 0 16 0;
#X connect 3 0 16 1;
#X connect 4 0 16 0;
#X connect 4 0 16 1;
#X connect 5 0 18 0;
#X connect 6 0 23 1;
#X connect 7 0 22 1;
#X connect 8 0 21 1;
#X connect 9 0 19 1;
#X connect 10 0 20 1;
#X connect 11 0 0 1;
#X connect 12 0 1 1;
#X connect 13 0 2 1;
#X connect 14 0 3 1;
#X connect 15 0 4 1;
#X connect 17 0 4 2;
#X connect 18 0 24 0;
#X connect 19 0 3 0;
#X connect 20 0 4 0;
#X connect 21 0 2 0;
#X connect 22 0 1 0;
#X connect 23 0 0 0;
#X connect 24 0 20 0;
#X connect 24 0 19 0;
#X connect 24 0 21 0;
#X connect 24 0 22 0;
#X connect 24 0 23 0;
#X connect 24 0 25 0;
#X connect 25 0 26 0;
#X connect 26 0 16 1;
#X connect 26 0 16 0;
#X connect 27 0 26 1;
#X connect 28 0 25 1;
#X connect 29 0 25 2;
#X connect 30 0 32 1;
#X connect 31 0 30 0;
#X connect 32 0 16 0;
#X connect 32 0 16 1;
