#N canvas 739 151 920 716 12;
#X obj 175 167 mtof;
#X obj 331 105 cnv 15 120 26 empty empty WaveTable_2 20 12 0 14 -257985
-66577 0;
#X obj 175 423 *~;
#X obj 193 398 line~;
#X obj 193 373 pack 0 50;
#X obj 193 320 / 127;
#X floatatom 180 139 5 0 0 0 - - -;
#X floatatom 200 351 5 0 0 0 - - -;
#X obj 278 384 cnv 15 200 100 empty empty Turn_DSP_on_and_off 20 12
0 12 -258113 -1 0;
#X msg 373 418 \; pd dsp 0;
#X text 297 460 AUDIO ON;
#X text 372 460 AUDIO OFF;
#X obj 491 356 vsl 30 128 0 127 0 0 empty empty Volume 0 -9 0 12 -159808
-4034 -1 0 1;
#X obj 491 494 s vol;
#X obj 193 291 r vol;
#X obj 546 358 vsl 30 128 0 127 0 0 empty empty MIDI_note 0 -9 0 12
-260097 -4034 -1 0 1;
#X obj 546 494 s note;
#X obj 175 108 r note;
#X obj 175 195 tabosc4~ wavetable_1;
#N canvas 0 22 322 207 (subpatch) 0;
#X array wavetable_1 515 float 0;
#X coords 0 1 514 -1 200 140 1 0 0;
#X restore 277 239 graph;
#X obj 164 457 dac~;
#X msg 522 185 \; wavetable_1 sinesum 512 1;
#X obj 282 575 cnv 15 420 90 empty empty empty 20 12 0 14 -257985 -66577
0;
#X msg 299 417 \; pd dsp 1;
#X text 293 581 We can send certain messages to the table. For example
\, sinesum with a series of sine waves. Notice that these messages
also size the array and add the 3 guard points automatically!;
#X connect 0 0 18 0;
#X connect 2 0 20 0;
#X connect 2 0 20 1;
#X connect 3 0 2 1;
#X connect 4 0 3 0;
#X connect 5 0 4 0;
#X connect 5 0 7 0;
#X connect 12 0 13 0;
#X connect 14 0 5 0;
#X connect 15 0 16 0;
#X connect 17 0 0 0;
#X connect 17 0 6 0;
#X connect 18 0 2 0;
